<?xml version="1.0" standalone="no"?>
<!DOCTYPE svg PUBLIC "-//W3C//DTD SVG 1.1//EN" "http://www.w3.org/Graphics/SVG/1.1/DTD/svg11.dtd" >
<svg>
<metadata>
Created by FontForge 20090914 at Tue Dec 21 11:52:45 2021
 By www-data
Copyright &#194;&#169; 2018 by Russian Fonts. All rights reserved.
</metadata>
<defs>
<font id="RFDewi-Regular" horiz-adv-x="808" >
  <font-face 
    font-family="RF Dewi"
    font-weight="400"
    font-stretch="normal"
    units-per-em="1000"
    panose-1="0 0 5 0 0 0 0 0 0 0"
    ascent="800"
    descent="-200"
    x-height="524"
    cap-height="700"
    bbox="-189 -214.001 1123 936"
    underline-thickness="50"
    underline-position="-150"
    unicode-range="U+0020-U+277E"
  />
<missing-glyph horiz-adv-x="600" 
 />
    <glyph glyph-name="f_f.liga" unicode="ff" horiz-adv-x="637" 
d="M569 679c-29.333 0 -49.332 -6.49902 -59.999 -19.499s-16 -36.5 -16 -70.5v-65h118v-67h-118v-457h-88v457h-199v-457h-88v457h-98v67h98v65c0 55.333 10.833 93.666 32.5 114.999s56.167 32 103.5 32c18.667 0 39 -1.33301 61 -4v-67
c-26.667 1.33301 -41.334 2 -44.001 2c-24.667 0 -41.667 -6.5 -51 -19.5s-14 -36.833 -14 -71.5v-52h199v77c0 56 11.5 94.5 34.5 115.5s60.5 31.5 112.5 31.5c25.333 0 49 -1.33301 71 -4v-67c-29.333 1.33301 -47.333 2 -54 2z" />
    <glyph glyph-name="f_f_i.liga" unicode="ffi" horiz-adv-x="865" 
d="M405 601c0 55.333 11.1699 93.6689 33.5029 115.002s57.166 32 104.499 32c25.333 0 47.333 -1.33301 66 -4v-67c-22.667 1.33301 -38.334 2 -47.001 2c-26 0 -44 -6.33301 -54 -19s-15 -36.334 -15 -71.001v-65h116v-67h-116v-457h-88v457h-199v-457h-88v457h-98v67h98
v65c0 55.333 10.833 93.666 32.5 114.999s56.167 32 103.5 32c18.667 0 39 -1.33301 61 -4v-67c-26.667 1.33301 -41.334 2 -44.001 2c-24.667 0 -41.667 -6.5 -51 -19.5s-14 -36.833 -14 -71.5v-52h199v77zM705.003 722.003h92v-112h-92v112zM707.003 0.00292969v524h88
v-524h-88z" />
    <glyph glyph-name="f_i.liga" unicode="fi" horiz-adv-x="578" 
d="M118 601c0 55.333 11.1689 93.668 33.502 115.001s57.166 32 104.499 32c25.333 0 47.333 -1.33301 66 -4v-67c-22.667 1.33301 -38.334 2 -47.001 2c-26 0 -44 -6.33301 -54 -19s-15 -36.334 -15 -71.001v-65h116v-67h-116v-457h-88v457h-98v67h98v77zM418.002 722.002
h93v-112h-93v112zM420.002 0.00195312v524h88v-524h-88z" />
    <glyph glyph-name="f_l.liga" unicode="fl" horiz-adv-x="576" 
d="M118 601c0 55.333 11.1689 93.668 33.502 115.001s57.166 32 104.499 32c25.333 0 47.333 -1.33301 66 -4v-67c-22.667 1.33301 -38.334 2 -47.001 2c-26 0 -44 -6.33301 -54 -19s-15 -36.334 -15 -71.001v-65h116v-67h-116v-457h-88v457h-98v67h98v77zM419.002 736.002
h88v-736h-88v736z" />
    <glyph glyph-name=".notdef" horiz-adv-x="600" 
 />
    <glyph glyph-name="space" unicode=" " horiz-adv-x="239" 
 />
    <glyph glyph-name="exclam" unicode="!" horiz-adv-x="280" 
d="M176 204h-72l-11 496h94zM89 0v115h102v-115h-102z" />
    <glyph glyph-name="quotedbl" unicode="&#x22;" horiz-adv-x="331" 
d="M63 469l-7 231h77l-7 -231h-63zM205 469l-7 231h77l-7 -231h-63z" />
    <glyph glyph-name="numbersign" unicode="#" horiz-adv-x="579" 
d="M560 441h-118l-20 -181h110v-56h-116l-23 -206h-73l23 206h-138l-23 -206h-73l23 206h-113v56h119l20 181h-111v56h117l22 191h73l-21 -191h137l22 191h73l-22 -191h112v-56zM349 260l20 181h-138l-20 -181h138z" />
    <glyph glyph-name="dollar" unicode="$" horiz-adv-x="581" 
d="M541 180c0 -60.667 -20.168 -107.001 -60.501 -139.001s-95.833 -49.667 -166.5 -53v-84h-48v85c-73.333 4 -129.666 25 -168.999 63s-60.666 90.667 -63.999 158l82 4c2 -45.333 15.5 -81.333 40.5 -108s61.833 -42.334 110.5 -47.001v255l-67 23
c-95.333 30.667 -143 90.334 -143 179.001c0 59.333 19.667 104.5 59 135.5s89.666 47.5 150.999 49.5v84h48v-86c59.333 -5.33301 107.5 -25.333 144.5 -60s57.833 -80.667 62.5 -138l-83 -6c-2 36 -13.667 65.833 -35 89.5s-51 38.5 -89 44.5v-242l72 -24
c52 -17.333 90.833 -40.666 116.5 -69.999s38.5 -67 38.5 -113zM248.999 407.999l17 -5v228c-38 -2 -67.667 -12.5 -89 -31.5s-32 -44.833 -32 -77.5c0 -53.333 34.667 -91.333 104 -114zM313.999 57.999c40.667 2.66699 73.833 13.502 99.5 32.502s38.5 47.167 38.5 84.5
c0 27.333 -9 50.166 -27 68.499s-47.667 34.166 -89 47.499l-22 7v-240z" />
    <glyph glyph-name="percent" unicode="%" horiz-adv-x="782" 
d="M31 538c0 52.667 14.333 93.834 43 123.501s67.667 44.5 117 44.5s88.333 -14.833 117 -44.5s43 -70.834 43 -123.501s-14.333 -94.167 -43 -124.5s-67.667 -45.5 -117 -45.5s-88.333 15.167 -117 45.5s-43 71.833 -43 124.5zM123 0l475 700h60l-474 -700h-61zM95 538
c0 -36.667 8.33398 -65.334 25.001 -86.001s40.334 -31 71.001 -31c29.333 0 52.666 10.333 69.999 31s26 49.334 26 86.001c0 36 -8.5 64.167 -25.5 84.5s-40.5 30.5 -70.5 30.5c-30.667 0 -54.334 -10 -71.001 -30s-25 -48.333 -25 -85zM431.001 163
c0 52 14.167 93.167 42.5 123.5s67.166 45.5 116.499 45.5c50 0 89.333 -15.167 118 -45.5s43 -71.5 43 -123.5s-14.333 -93.167 -43 -123.5s-68 -45.5 -118 -45.5c-49.333 0 -88.166 15.167 -116.499 45.5s-42.5 71.5 -42.5 123.5zM494.001 163c0 -36 8.5 -64.5 25.5 -85.5
s40.5 -31.5 70.5 -31.5s53.5 10.5 70.5 31.5s25.5 49.5 25.5 85.5s-8.5 64.5 -25.5 85.5s-40.5 31.5 -70.5 31.5s-53.5 -10.5 -70.5 -31.5s-25.5 -49.5 -25.5 -85.5z" />
    <glyph glyph-name="ampersand" unicode="&#x26;" horiz-adv-x="629" 
d="M621 0l-92.999 0.00195312l-65 78c-48 -60 -115.667 -90 -203 -90c-71.333 0 -125.5 16.167 -162.5 48.5s-55.5 75.5 -55.5 129.5c0 19.333 2.66699 37.166 8 53.499s11 29.666 17 39.999s16.833 22.333 32.5 36s27.5 23.5 35.5 29.5s23.333 16.667 46 32l31 22l-8 11
c-34.667 41.333 -58.667 75 -72 101s-20 51.333 -20 76c0 46.667 16 82.5 48 107.5s73 37.5 123 37.5c53.333 0 95.166 -13.833 125.499 -41.5s45.5 -64.834 45.5 -111.501c0 -32 -8.16699 -60.5 -24.5 -85.5s-43.5 -50.5 -81.5 -76.5l-36 -26l151 -181
c14.667 35.333 24 77.333 28 126h67c-6.66699 -71.333 -23 -131.666 -49 -180.999zM267.001 425.002l5.00098 -6l31 23c49.333 36 74 74 74 114c0 28.667 -8.66699 51.5 -26 68.5s-40 25.5 -68 25.5c-24.667 0 -45.834 -7 -63.501 -21s-26.5 -35.333 -26.5 -64
c0 -20.667 5.66699 -41 17 -61s30.333 -46.333 57 -79zM264.002 52.002c68 0 120.333 26 157 78l-168 202l-35 -26c-32 -23.333 -55 -44.333 -69 -63s-21 -42.334 -21 -71.001c0 -35.333 11.5 -64.166 34.5 -86.499s56.833 -33.5 101.5 -33.5z" />
    <glyph glyph-name="quotesingle" unicode="'" horiz-adv-x="189" 
d="M63 469l-7 231h77l-7 -231h-63z" />
    <glyph glyph-name="parenleft" unicode="(" horiz-adv-x="313" 
d="M303 736c-110 -110 -165 -254.333 -165 -433s55 -323 165 -433h-77c-47.333 43.333 -87.666 101 -120.999 173s-50 158.667 -50 260s16.667 188 50 260s73.666 129.667 120.999 173h77z" />
    <glyph glyph-name="parenright" unicode=")" horiz-adv-x="313" 
d="M87 736c47.333 -43.333 87.666 -101 120.999 -173s50 -158.667 50 -260s-16.667 -188 -50 -260s-73.666 -129.667 -120.999 -173h-77c110 110 165 254.333 165 433s-55 323 -165 433h77z" />
    <glyph glyph-name="asterisk" unicode="*" horiz-adv-x="367" 
d="M216 539l77 -33l54 -31l-26 -46l-55 32l-66 49l10 -82v-63h-53v63l10 82l-67 -49l-54 -32l-26 46l54 31l77 33l-77 33l-54 31l26 45l54 -32l67 -49l-10 82v64h53v-64l-10 -82l66 49l55 32l26 -45l-54 -31z" />
    <glyph glyph-name="plus" unicode="+" horiz-adv-x="495" 
d="M438 363v-61h-160v-155h-61v155h-160v61h160v155h61v-155h160z" />
    <glyph glyph-name="comma" unicode="," horiz-adv-x="229" 
d="M64 -115v230h101v-70l-61 -160h-40z" />
    <glyph glyph-name="hyphen" unicode="-" horiz-adv-x="372" 
d="M57 332h258v-68h-258v68z" />
    <glyph glyph-name="period" unicode="." horiz-adv-x="229" 
d="M64 0v115h101v-115h-101z" />
    <glyph glyph-name="slash" unicode="/" horiz-adv-x="386" 
d="M271 725h80l-253 -782h-80z" />
    <glyph glyph-name="zero" unicode="0" horiz-adv-x="611" 
d="M49 350c0 112.667 22.333 201.167 67 265.5s108 96.5 190 96.5c81.333 0 144.333 -32.167 189 -96.5s67 -152.833 67 -265.5s-22.333 -201.167 -67 -265.5s-107.667 -96.5 -189 -96.5c-82 0 -145.333 32.167 -190 96.5s-67 152.833 -67 265.5zM137 350
c0 -90.667 14.833 -161.667 44.5 -213s71.167 -77 124.5 -77c52.667 0 93.834 25.667 123.501 77s44.5 122.333 44.5 213s-14.833 161.667 -44.5 213s-70.834 77 -123.501 77c-53.333 0 -94.833 -25.667 -124.5 -77s-44.5 -122.333 -44.5 -213z" />
    <glyph glyph-name="one" unicode="1" horiz-adv-x="380" 
d="M200 700h70v-700h-88v598l-148 -103v88z" />
    <glyph glyph-name="two" unicode="2" horiz-adv-x="523" 
d="M135 72l357.002 -0.00195312v-72h-476v66l231 239c28 28.667 47.5 49.167 58.5 61.5s24.5 28.833 40.5 49.5s26.833 39.334 32.5 56.001s8.5 34.334 8.5 53.001c0 37.333 -11.333 65.833 -34 85.5s-52.334 29.5 -89.001 29.5c-42 0 -75.833 -14.5 -101.5 -43.5
s-40.834 -73.167 -45.501 -132.5l-85 7c5.33301 80 29 140.167 71 180.5s95.667 60.5 161 60.5c62.667 0 113.5 -16.333 152.5 -49s58.5 -78.667 58.5 -138c0 -41.333 -11.167 -80.5 -33.5 -117.5s-60.833 -82.833 -115.5 -137.5z" />
    <glyph glyph-name="three" unicode="3" horiz-adv-x="546" 
d="M445 370c44 -34.667 66.002 -87.333 66.002 -158s-23 -125.667 -69 -165s-105.667 -59 -179 -59c-68 0 -123.833 17.5 -167.5 52.5s-68.834 87.167 -75.501 156.5l85 6c5.33301 -48.667 22 -84.667 50 -108s64 -35 108 -35c48 0 86.667 13.333 116 40s44 64 44 112
c0 44 -13.333 79.333 -40 106s-65.667 40 -117 40c-30.667 0 -64.334 -4 -101.001 -12v62l214 220h-327v72h441v-65l-226 -217c78 2 137.333 -14 178 -48z" />
    <glyph glyph-name="four" unicode="4" horiz-adv-x="597" 
d="M461 236h106v-72h-106v-164h-88v164h-348v66l292 470h144v-464zM112 236h261v416z" />
    <glyph glyph-name="five" unicode="5" horiz-adv-x="555" 
d="M299 462c66 0 119.332 -20.667 159.999 -62s61 -98.333 61 -171c0 -76 -22.667 -135.167 -68 -177.5s-104.666 -63.5 -177.999 -63.5c-66 0 -121.667 17 -167 51s-72.333 81.667 -81 143l86 6c6.66699 -41.333 24.834 -73 54.501 -95s65.5 -33 107.5 -33
c45.333 0 82.833 14.5 112.5 43.5s44.5 70.833 44.5 125.5s-14.833 96 -44.5 124s-66.834 42 -111.501 42c-31.333 0 -60.833 -6.83301 -88.5 -20.5s-49.5 -33.5 -65.5 -59.5l-78 6l29 379h411v-72h-344l-18 -240c44 49.333 103.333 74 178 74z" />
    <glyph glyph-name="six" unicode="6" horiz-adv-x="593" 
d="M329 454c65.333 0 119.167 -20.668 161.5 -62.001s63.5 -97.666 63.5 -168.999c0 -73.333 -22 -130.833 -66 -172.5s-103.667 -62.5 -179 -62.5c-173.333 0 -260 115.667 -260 347c0 122.667 22.833 216.167 68.5 280.5s110.5 96.5 194.5 96.5
c62.667 0 113.167 -17.333 151.5 -52s60.166 -81.667 65.499 -141l-85 -6c-3.33301 38 -16.666 68.667 -39.999 92s-54 35 -92 35c-67.333 0 -115.666 -36.667 -144.999 -110c-18.667 -46 -28.334 -109.667 -29.001 -191c16 36.667 41 65 75 85s72.667 30 116 30z
M309.001 59.999c47.333 0 85.333 14.833 114 44.5s43 69.167 43 118.5c0 48.667 -14.333 87.834 -43 117.501s-66.667 44.5 -114 44.5s-85.166 -14.833 -113.499 -44.5s-42.5 -68.834 -42.5 -117.501c0 -49.333 14.167 -88.833 42.5 -118.5s66.166 -44.5 113.499 -44.5z" />
    <glyph glyph-name="seven" unicode="7" horiz-adv-x="531" 
d="M31 700l473 0.000976562v-62c-133.333 -209.333 -223 -422 -269 -638h-95c46 209.333 138.667 418.666 278 627.999h-387v72z" />
    <glyph glyph-name="eight" unicode="8" horiz-adv-x="586" 
d="M386 365c50.667 -12 90.168 -33.833 118.501 -65.5s42.5 -70.5 42.5 -116.5c0 -61.333 -24 -109.166 -72 -143.499s-108.667 -51.5 -182 -51.5s-134 17.167 -182 51.5s-72 82.166 -72 143.499c0 46 14.667 84.833 44 116.5s69.333 53.5 120 65.5
c-46.667 10.667 -82.834 30 -108.501 58s-38.5 64 -38.5 108c0 58 22.5 102.667 67.5 134s101.5 47 169.5 47c68.667 0 125.5 -15.667 170.5 -47s67.5 -76 67.5 -134c0 -44 -12.667 -80 -38 -108s-61 -47.333 -107 -58zM142.001 520c0 -40 13.833 -70.667 41.5 -92
s64.167 -32 109.5 -32s81.833 10.667 109.5 32s41.5 52 41.5 92c0 39.333 -13.833 69.5 -41.5 90.5s-64.167 31.5 -109.5 31.5s-81.833 -10.5 -109.5 -31.5s-41.5 -51.167 -41.5 -90.5zM293.001 58c50 0 90.5 11.833 121.5 35.5s46.5 56.834 46.5 99.501
s-15.5 75.834 -46.5 99.501s-71.5 35.5 -121.5 35.5c-49.333 0 -89.666 -11.833 -120.999 -35.5s-47 -56.834 -47 -99.501s15.667 -75.834 47 -99.501s71.666 -35.5 120.999 -35.5z" />
    <glyph glyph-name="nine" unicode="9" horiz-adv-x="593" 
d="M282 712c174.667 0 262.003 -115.667 262.003 -347c0 -124 -22.333 -217.833 -67 -281.5s-109.334 -95.5 -194.001 -95.5c-64 0 -115.167 17.167 -153.5 51.5s-60.5 81.5 -66.5 141.5l85 6c4 -38 17.667 -68.667 41 -92s54.666 -35 93.999 -35c66 0 114 37.333 144 112
c18.667 48.667 28 113.334 28 194.001c-16.667 -36.667 -42 -64.834 -76 -84.501s-72.667 -29.5 -116 -29.5c-64.667 0 -118.334 20.5 -161.001 61.5s-64 96.5 -64 166.5c0 72 22.167 128.667 66.5 170s103.5 62 177.5 62zM283.003 321c47.333 0 85.333 14.667 114 44
s43 67.666 43 114.999c0 48 -14.333 86.667 -43 116s-66.667 44 -114 44c-46.667 0 -84.334 -14.667 -113.001 -44s-43 -68 -43 -116c0 -47.333 14.333 -85.666 43 -114.999s66.334 -44 113.001 -44z" />
    <glyph glyph-name="colon" unicode=":" horiz-adv-x="229" 
d="M64 397v115h101v-115h-101zM64 0v115h101v-115h-101z" />
    <glyph glyph-name="semicolon" unicode=";" horiz-adv-x="229" 
d="M64 397v115h101v-115h-101zM64 -115v230h101v-70l-61 -160h-40z" />
    <glyph glyph-name="less" unicode="&#x3c;" horiz-adv-x="488" 
d="M412 539v-75l-298 -132l298 -121v-75l-359 154v82z" />
    <glyph glyph-name="equal" unicode="=" horiz-adv-x="499" 
d="M59 441h381v-61h-381v61zM59 272h381v-60h-381v60z" />
    <glyph glyph-name="greater" unicode="&#x3e;" horiz-adv-x="488" 
d="M77 539l359 -167v-82l-359 -154v75l297 121l-297 132v75z" />
    <glyph glyph-name="question" unicode="?" horiz-adv-x="500" 
d="M257 712c62 0 112.333 -15.001 151 -45.001s58 -75 58 -135c0 -39.333 -9.16699 -73.5 -27.5 -102.5s-48.166 -59.5 -89.499 -91.5c-28.667 -22 -47.834 -40.167 -57.501 -54.5s-14.5 -34.833 -14.5 -61.5v-16h-85v19c0 39.333 6 69.333 18 90s33.333 42.334 64 65.001
c34 26 59.667 50 77 72s26 48.333 26 79c0 36 -10.667 63 -32 81s-50.666 27 -87.999 27c-92.667 0 -144 -54.333 -154 -163l-83 6c5.33301 76.667 29.166 134.167 71.499 172.5s97.5 57.5 165.5 57.5zM183 -0.000976562v115h102v-115h-102z" />
    <glyph glyph-name="at" unicode="@" horiz-adv-x="868" 
d="M527 463h67.998v-224c0 -42 6.16699 -73 18.5 -93s32.5 -30 60.5 -30c34 0 59.667 13.667 77 41s26 66.333 26 117c0 94 -32.333 173.667 -97 239s-146.334 98 -245.001 98c-95.333 0 -176.5 -33.667 -243.5 -101s-100.5 -149.333 -100.5 -246
c0 -104 32.333 -188 97 -252s150.334 -96 257.001 -96c77.333 0 144.333 15.333 201 46l25 -35c-64 -34 -139.333 -51 -226 -51c-120 0 -216.333 35.167 -289 105.5s-109 164.5 -109 282.5c0 110.667 37.333 202.834 112 276.501s166.667 110.5 276 110.5
c112.667 0 205.167 -35.667 277.5 -107s108.5 -160.333 108.5 -267c0 -67.333 -14.167 -119.333 -42.5 -156s-67.5 -55 -117.5 -55c-66 0 -108 28.667 -126 86c-13.333 -30.667 -32.166 -54.167 -56.499 -70.5s-51.166 -24.5 -80.499 -24.5c-46 0 -84.167 18.667 -114.5 56
s-45.5 87.666 -45.5 150.999c0 64.667 15.167 115.667 45.5 153s68.833 56 115.5 56c58 0 100.667 -27.667 128 -83v73zM415.998 111c34 0 61 13.832 81 41.499s30 64.834 30 111.501s-10 84 -30 112s-47 42 -81 42s-60.833 -14 -80.5 -42s-29.5 -65.333 -29.5 -112
c0 -46 9.83301 -83 29.5 -111s46.5 -42 80.5 -42z" />
    <glyph glyph-name="A" unicode="A" horiz-adv-x="668" 
d="M554 0l-62 184h-318l-63 -184h-92l245 700h140l245 -700h-95zM198 254h269l-134 396z" />
    <glyph glyph-name="B" unicode="B" horiz-adv-x="663" 
d="M413 359c62.667 -4 112.667 -20.834 150 -50.501s56 -71.167 56 -124.5c0 -58 -21.5 -103.167 -64.5 -135.5s-100.167 -48.5 -171.5 -48.5h-299v700h295c66.667 0 120.167 -14.833 160.5 -44.5s60.5 -73.167 60.5 -130.5c0 -49.333 -16 -88.166 -48 -116.499
s-78.333 -44.833 -139 -49.5zM176 627.999v-236.998h201c40.667 0 72.667 10.667 96 32s35 50.666 35 87.999s-12.167 66.166 -36.5 86.499s-57.833 30.5 -100.5 30.5h-195zM376 72.001c48 0 85.168 10.6689 111.501 32.002s39.5 51.666 39.5 90.999
s-12.833 70.166 -38.5 92.499s-61.834 33.5 -108.501 33.5h-204v-249h200z" />
    <glyph glyph-name="C" unicode="C" horiz-adv-x="665" 
d="M44 350c0 108 26.1719 195.334 78.5049 262.001s126.166 100 221.499 100c77.333 0 140.666 -20.833 189.999 -62.5s78.666 -97.834 87.999 -168.501l-87 -9c-6.66699 50 -27.667 90 -63 120s-78 45 -128 45c-67.333 0 -118.833 -27.5 -154.5 -82.5
s-53.5 -123.167 -53.5 -204.5c0 -83.333 18.833 -152 56.5 -206s90.834 -81 159.501 -81c53.333 0 96.666 16.5 129.999 49.5s53.333 75.167 60 126.5l87 -7c-8.66699 -73.333 -36.834 -132.333 -84.501 -177s-111.834 -67 -192.501 -67c-98.667 0 -174.667 33 -228 99
s-80 153.667 -80 263z" />
    <glyph glyph-name="D" unicode="D" horiz-adv-x="690" 
d="M84 0v700h256c96.667 0 171.667 -30.833 225 -92.5s80 -147.5 80 -257.5s-26.667 -195.833 -80 -257.5s-128.333 -92.5 -225 -92.5h-256zM176 75h155c71.333 0 126.166 24.333 164.499 73s57.5 116 57.5 202s-19.167 153.333 -57.5 202s-93.166 73 -164.499 73h-155v-550
z" />
    <glyph glyph-name="E" unicode="E" horiz-adv-x="609" 
d="M84 0v700h468v-73h-376v-236h298v-70h-298v-248h390v-73h-482z" />
    <glyph glyph-name="F" unicode="F" horiz-adv-x="577" 
d="M84 0v700h455v-75h-363v-247h294v-74h-294v-304h-92z" />
    <glyph glyph-name="G" unicode="G" horiz-adv-x="678" 
d="M44 350c0 108 26.1641 195.333 78.4971 262s126.5 100 222.5 100c74 0 135.5 -19.5 184.5 -58.5s79.167 -91.833 90.5 -158.5l-87 -8c-9.33301 45.333 -31.166 81.666 -65.499 108.999s-75.166 41 -122.499 41c-46 0 -85.167 -13.667 -117.5 -41
s-55.666 -62.166 -69.999 -104.499s-21.5 -89.5 -21.5 -141.5c0 -83.333 20.667 -152 62 -206s100.333 -81 177 -81c60 0 117.333 13.667 172 41v188h-191v64h275v-302c-86.667 -44 -173 -66 -259 -66c-106 0 -187.167 33.167 -243.5 99.5s-84.5 153.833 -84.5 262.5z" />
    <glyph glyph-name="H" unicode="H" horiz-adv-x="713" 
d="M537 700h92v-700h-92v318h-361v-318h-92v700h92v-306h361v306z" />
    <glyph glyph-name="I" unicode="I" horiz-adv-x="261" 
d="M84 0v700h92v-700h-92z" />
    <glyph glyph-name="J" unicode="J" horiz-adv-x="564" 
d="M39 201v64.001h85v-63c0 -45.333 12.167 -79.833 36.5 -103.5s56.5 -35.5 96.5 -35.5s71.833 12.667 95.5 38s35.5 62.333 35.5 111v488h92v-494c0 -71.333 -19.667 -125.5 -59 -162.5s-93.333 -55.5 -162 -55.5c-70 0 -124.167 18.667 -162.5 56
s-57.5 89.666 -57.5 156.999z" />
    <glyph glyph-name="K" unicode="K" horiz-adv-x="668" 
d="M645 0h-110l-247 318h-112v-318h-92v700h92v-310h111l232 310h106l-266 -340z" />
    <glyph glyph-name="L" unicode="L" horiz-adv-x="548" 
d="M84 0v700h92v-625h339v-75h-431z" />
    <glyph glyph-name="M" unicode="M" horiz-adv-x="905" 
d="M661 700h159v-700h-89v646l-216 -646h-126l-216 646v-646h-89v700h161l208 -648z" />
    <glyph glyph-name="N" unicode="N" horiz-adv-x="724" 
d="M551 700h89v-700h-155l-312 645v-645h-89v700h155l312 -645v645z" />
    <glyph glyph-name="O" unicode="O" horiz-adv-x="713" 
d="M44 350c0 108 27.167 195.333 81.5 262s131.166 100 230.499 100c100 0 177.167 -33.333 231.5 -100s81.5 -154 81.5 -262s-27.167 -195.333 -81.5 -262s-131.5 -100 -231.5 -100c-99.333 0 -176.166 33.333 -230.499 100s-81.5 154 -81.5 262zM136 350
c0 -84 19.333 -152.833 58 -206.5s92.667 -80.5 162 -80.5c70 0 124.333 26.833 163 80.5s58 122.5 58 206.5s-19.333 152.833 -58 206.5s-93 80.5 -163 80.5c-69.333 0 -123.333 -26.833 -162 -80.5s-58 -122.5 -58 -206.5z" />
    <glyph glyph-name="P" unicode="P" horiz-adv-x="638" 
d="M84 0l0.000976562 700h278c68 0 124.333 -17.333 169 -52s67 -88 67 -160c0 -71.333 -21.833 -123.833 -65.5 -157.5s-99.834 -50.5 -168.501 -50.5h-188v-280h-92zM176.001 351h176c47.333 0 84.833 11.333 112.5 34s41.5 57 41.5 103s-13.833 80.333 -41.5 103
s-65.167 34 -112.5 34h-176v-274z" />
    <glyph glyph-name="Q" unicode="Q" horiz-adv-x="713" 
d="M669 350c0 -67.333 -11 -127.5 -33 -180.5s-54 -94.833 -96 -125.5l68 -91l-60 -40l-72 96c-34.667 -14 -74.667 -21 -120 -21c-99.333 0 -176.166 33.333 -230.499 100s-81.5 154 -81.5 262s27.167 195.333 81.5 262s131.166 100 230.499 100
c100 0 177.167 -33.333 231.5 -100s81.5 -154 81.5 -262zM356 63c24.667 0 48 3.66699 70 11l-54 73l60 40l57 -76c58.667 51.333 88 131 88 239c0 84 -19.333 152.833 -58 206.5s-93 80.5 -163 80.5c-69.333 0 -123.333 -26.833 -162 -80.5s-58 -122.5 -58 -206.5
s19.333 -152.833 58 -206.5s92.667 -80.5 162 -80.5z" />
    <glyph glyph-name="R" unicode="R" horiz-adv-x="661" 
d="M634 0h-111l-205 288h-142v-288h-92v700h286c68 0 124.333 -17.167 169 -51.5s67 -86.5 67 -156.5c0 -62 -17.5 -109.667 -52.5 -143s-81.167 -53 -138.5 -59zM176 358h184c47.333 0 84.833 11.333 112.5 34s41.5 56 41.5 100s-13.833 77.333 -41.5 100
s-65.167 34 -112.5 34h-184v-268z" />
    <glyph glyph-name="S" unicode="S" horiz-adv-x="605" 
d="M33 215l85.998 3c2 -50 18.667 -88.667 50 -116s77.333 -41 138 -41c48 0 87.667 9.33301 119 28s47 48 47 88c0 28 -9.33301 51 -28 69s-50 34.333 -94 49l-144 46c-100 32 -150 93 -150 183c0 62.667 22 109.667 66 141s99.667 47 167 47c72.667 0 132 -18 178 -54
s71.333 -86 76 -150l-85 -6c-2.66699 41.333 -18.667 74.5 -48 99.5s-70 37.5 -122 37.5c-44 0 -78.333 -9.5 -103 -28.5s-37 -45.833 -37 -80.5c0 -54 36.667 -92.333 110 -115l144 -46c54.667 -17.333 95.334 -40.666 122.001 -69.999s40 -68 40 -116
c0 -64.667 -23 -113.334 -69 -146.001s-109.333 -49 -190 -49c-86 0 -152.167 19.5 -198.5 58.5s-71.166 95.167 -74.499 168.5z" />
    <glyph glyph-name="T" unicode="T" horiz-adv-x="580" 
d="M25 625v75h530v-75h-219v-625h-92v625h-219z" />
    <glyph glyph-name="U" unicode="U" horiz-adv-x="717" 
d="M84 263l0.000976562 437h92v-429c0 -70.667 15.167 -123 45.5 -157s76.166 -51 137.499 -51s107 16.833 137 50.5s45 86.167 45 157.5v429h92v-437c0 -92.667 -22.5 -161.667 -67.5 -207s-113.833 -68 -206.5 -68c-183.333 0 -275 91.667 -275 275z" />
    <glyph glyph-name="V" unicode="V" horiz-adv-x="644" 
d="M527 700h96l-233 -700h-137l-232 700h98l203 -642z" />
    <glyph glyph-name="W" unicode="W" horiz-adv-x="961" 
d="M839 700h96l-176 -700h-137l-141 635l-144 -635h-138l-173 700h99l147 -632l144 632h132l142 -632z" />
    <glyph glyph-name="X" unicode="X" horiz-adv-x="650" 
d="M27 0l244 356l-226 344h108l171 -271l173 271h102l-224 -340l246 -360h-107l-192 287l-193 -287h-102z" />
    <glyph glyph-name="Y" unicode="Y" horiz-adv-x="654" 
d="M536 700h102l-265 -411v-289h-92v288l-264 412h105l205 -338z" />
    <glyph glyph-name="Z" unicode="Z" horiz-adv-x="576" 
d="M134 75h415v-75h-528v64l405 561h-383v75h496v-64z" />
    <glyph glyph-name="bracketleft" unicode="[" horiz-adv-x="295" 
d="M266 659h-98v-720h98v-68h-178v857h178v-69z" />
    <glyph glyph-name="backslash" unicode="\" horiz-adv-x="386" 
d="M115 725l252 -782h-80l-252 782h80z" />
    <glyph glyph-name="bracketright" unicode="]" horiz-adv-x="295" 
d="M206 728v-857h-178v68h98v720h-98v69h178z" />
    <glyph glyph-name="asciicircum" unicode="^" horiz-adv-x="386" 
d="M363 463h-70l-100 203l-100 -203h-70l127 237h86z" />
    <glyph glyph-name="underscore" unicode="_" horiz-adv-x="399" 
d="M14 -43h370v-59h-370v59z" />
    <glyph glyph-name="grave" unicode="`" horiz-adv-x="251" 
d="M211 592h-70l-101 143h92z" />
    <glyph glyph-name="a" unicode="a" horiz-adv-x="554" 
d="M41 137c0 94 68.667 147.668 206 161.001l156 15v50c0 32.667 -10.5 59.167 -31.5 79.5s-51.833 30.166 -92.5 29.499c-37.333 0 -68 -8.5 -92 -25.5s-37 -42.5 -39 -76.5h-81c2 56.667 22.333 98.5 61 125.5s89 40.5 151 40.5c68.667 0 121 -16.333 157 -49
s54 -79.667 54 -141v-346h-80v108c-16.667 -38 -42 -67.5 -76 -88.5s-75.333 -31.5 -124 -31.5c-56 0 -98.167 13.833 -126.5 41.5s-42.5 63.5 -42.5 107.5zM128 140.001c0 -26 9 -47.332 27 -63.999s45 -25 81 -25c51.333 0 92 16.167 122 48.5s45 74.166 45 125.499v32
l-146 -15c-86 -8 -129 -42 -129 -102z" />
    <glyph glyph-name="b" unicode="b" horiz-adv-x="591" 
d="M69 0v736h88v-310c17.333 34.667 41.333 61.667 72 81s65.667 29 105 29c65.333 0 118 -24.333 158 -73s60 -115.667 60 -201s-20 -152.333 -60 -201s-92.667 -73 -158 -73c-42 0 -79 11 -111 33s-56.333 53 -73 93v-114h-81zM152 262c0 -62 14.167 -111.667 42.5 -149
s66.5 -56 114.5 -56s86 18.667 114 56s42 87 42 149s-14 111.667 -42 149s-66 56 -114 56s-86.167 -18.667 -114.5 -56s-42.5 -87 -42.5 -149z" />
    <glyph glyph-name="c" unicode="c" horiz-adv-x="542" 
d="M39 262c0 87.333 21.667 154.834 65 202.501s102 71.5 176 71.5c60 0 110.5 -16 151.5 -48s65.5 -77.667 73.5 -137l-84 -8c-6.66699 40.667 -22.834 71.5 -48.501 92.5s-56.5 31.5 -92.5 31.5c-46.667 0 -84 -18.167 -112 -54.5s-42 -86.5 -42 -150.5
s14.167 -114.167 42.5 -150.5s66.166 -54.5 113.499 -54.5c37.333 0 68.833 11.167 94.5 33.5s42.167 54.166 49.5 95.499l84 -7c-8 -60.667 -32.667 -107.667 -74 -141s-92.666 -50 -153.999 -50c-75.333 0 -134.666 23.667 -177.999 71s-65 115 -65 203z" />
    <glyph glyph-name="d" unicode="d" horiz-adv-x="591" 
d="M39 262c0 84.667 20.167 151.5 60.5 200.5s92.833 73.5 157.5 73.5c39.333 0 74.333 -9.66699 105 -29s54.667 -46.333 72 -81v310h88v-736h-81v114c-16.667 -40 -41 -71 -73 -93s-69 -33 -111 -33c-64.667 0 -117.167 24.5 -157.5 73.5s-60.5 115.833 -60.5 200.5z
M126 262c0 -62 14 -111.667 42 -149s66 -56 114 -56s86.167 18.667 114.5 56s42.5 87 42.5 149s-14.167 111.667 -42.5 149s-66.5 56 -114.5 56s-86 -18.667 -114 -56s-42 -87 -42 -149z" />
    <glyph glyph-name="e" unicode="e" horiz-adv-x="559" 
d="M39 262c0 89.333 22.5 157.333 67.5 204s104.833 70 179.5 70c76.667 0 135.167 -23.667 175.5 -71s60.5 -119.333 60.5 -216v-12h-395c3.33301 -60 19.833 -105.833 49.5 -137.5s68.5 -47.5 116.5 -47.5c68 0 114.333 30 139 90l83 -5
c-14 -46.667 -40 -83.167 -78 -109.5s-86 -39.5 -144 -39.5c-78 0 -139.833 23.167 -185.5 69.5s-68.5 114.5 -68.5 204.5zM128 295l307 -0.00195312c-0.666992 54.667 -14.5 97.834 -41.5 129.501s-62.833 47.5 -107.5 47.5c-44 0 -80.333 -15.167 -109 -45.5
s-45 -74.166 -49 -131.499z" />
    <glyph glyph-name="f" unicode="f" horiz-adv-x="350" 
d="M20 457v67h98v77c0 56 11.5 94.5 34.5 115.5s60.5 31.5 112.5 31.5c25.333 0 49 -1.33301 71 -4v-67c-29.333 1.33301 -47 2 -53 2c-29.333 0 -49.5 -6.5 -60.5 -19.5s-16.5 -36.5 -16.5 -70.5v-65h118v-67h-118v-457h-88v457h-98z" />
    <glyph glyph-name="g" unicode="g" horiz-adv-x="587" 
d="M39 273c0 79.333 20.499 143 61.499 191s94.167 72 159.5 72c40 0 75.5 -9.83301 106.5 -29.5s54.5 -47.167 70.5 -82.5v100h81v-486c0 -86 -18.5 -149.167 -55.5 -189.5s-95.167 -60.5 -174.5 -60.5c-66 0 -118 14.167 -156 42.5s-58 70.833 -60 127.5h81
c2 -34 14.833 -59.667 38.5 -77s55.834 -26 96.501 -26c50.667 0 87 13.5 109 40.5s33 66.833 33 119.5v95c-35.333 -66.667 -92 -100 -170 -100c-65.333 0 -118.5 24 -159.5 72s-61.5 111.667 -61.5 191zM125.999 271c0 -58 14.333 -104.833 43 -140.5
s66.334 -53.5 113.001 -53.5c47.333 0 85.333 17.833 114 53.5s43 82.5 43 140.5s-14.333 105.167 -43 141.5s-66.667 54.5 -114 54.5c-46.667 0 -84.334 -18.167 -113.001 -54.5s-43 -83.5 -43 -141.5z" />
    <glyph glyph-name="h" unicode="h" horiz-adv-x="580" 
d="M69 0v736h88v-299c34 66 94 99 180 99c58 0 102.333 -15.833 133 -47.5s46 -79.167 46 -142.5v-346h-88v318c0 97.333 -40.333 146 -121 146c-48 0 -85 -15.5 -111 -46.5s-39 -73.167 -39 -126.5v-291h-88z" />
    <glyph glyph-name="i" unicode="i" horiz-adv-x="228" 
d="M68 610v112h92v-112h-92zM70 0v524h88v-524h-88z" />
    <glyph glyph-name="j" unicode="j" horiz-adv-x="228" 
d="M68 610v112h93v-112h-93zM-32 -208l0.000976562 69.999c21.333 -1.33301 34.666 -2 39.999 -2c23.333 0 39.5 5.33301 48.5 16s13.5 31.334 13.5 62.001v586h88v-609c0 -46 -9.16699 -78.667 -27.5 -98s-49.5 -29 -93.5 -29c-15.333 0 -38.333 1.33301 -69 4z" />
    <glyph glyph-name="k" unicode="k" horiz-adv-x="545" 
d="M534 0h-109l-196 231h-72v-231h-88v736h88v-436h74l185 224h106l-228 -252z" />
    <glyph glyph-name="l" unicode="l" horiz-adv-x="226" 
d="M69 736h88v-736h-88v736z" />
    <glyph glyph-name="m" unicode="m" horiz-adv-x="882" 
d="M69 0l-0.000976562 523.999h81v-99c14.667 35.333 36.667 62.666 66 81.999s64.333 29 105 29s74.667 -9.66699 102 -29s45.666 -47.666 54.999 -84.999c14.667 36.667 37 64.834 67 84.501s65.667 29.5 107 29.5c51.333 0 91.833 -15.667 121.5 -47
s44.5 -76.333 44.5 -135v-354h-88v331c0 42 -9.16699 74.667 -27.5 98s-45.166 35 -80.499 35c-41.333 0 -74.166 -15.5 -98.499 -46.5s-36.5 -73.167 -36.5 -126.5v-291h-87v331c0 42 -9.33301 74.667 -28 98s-45.667 35 -81 35c-41.333 0 -74 -15.333 -98 -46
s-36 -73 -36 -127v-291h-88z" />
    <glyph glyph-name="n" unicode="n" horiz-adv-x="580" 
d="M69 0v524h81v-101c32 75.333 94.333 113 187 113c58 0 102.333 -15.833 133 -47.5s46 -79.167 46 -142.5v-346h-88v318c0 97.333 -40.333 146 -121 146c-48 0 -85 -15.5 -111 -46.5s-39 -73.167 -39 -126.5v-291h-88z" />
    <glyph glyph-name="o" unicode="o" horiz-adv-x="573" 
d="M39 262c0 84.667 22.5 151.5 67.5 200.5s105.167 73.5 180.5 73.5s135.333 -24.5 180 -73.5s67 -115.833 67 -200.5s-22.333 -151.5 -67 -200.5s-104.667 -73.5 -180 -73.5s-135.5 24.5 -180.5 73.5s-67.5 115.833 -67.5 200.5zM126 262c0 -62 14.5 -111.667 43.5 -149
s68.167 -56 117.5 -56c48.667 0 87.5 18.667 116.5 56s43.5 87 43.5 149s-14.5 111.667 -43.5 149s-67.833 56 -116.5 56c-49.333 0 -88.5 -18.667 -117.5 -56s-43.5 -87 -43.5 -149z" />
    <glyph glyph-name="p" unicode="p" horiz-adv-x="591" 
d="M69 -200v724h81v-112c16 39.333 40.167 69.833 72.5 91.5s69.5 32.5 111.5 32.5c65.333 0 118 -24.333 158 -73s60 -115.667 60 -201s-20 -152.333 -60 -201s-92.667 -73 -158 -73c-39.333 0 -74.333 9.66699 -105 29s-54.667 47 -72 83v-300h-88zM152 262
c0 -62 14.167 -111.667 42.5 -149s66.5 -56 114.5 -56s86 18.667 114 56s42 87 42 149s-14 111.667 -42 149s-66 56 -114 56s-86.167 -18.667 -114.5 -56s-42.5 -87 -42.5 -149z" />
    <glyph glyph-name="q" unicode="q" horiz-adv-x="591" 
d="M39 262c0 84.667 20.167 151.5 60.5 200.5s92.833 73.5 157.5 73.5c42 0 79.167 -10.833 111.5 -32.5s56.5 -52.167 72.5 -91.5v112h81v-724h-88v300c-16.667 -36 -40.5 -63.667 -71.5 -83s-66.167 -29 -105.5 -29c-64.667 0 -117.167 24.5 -157.5 73.5
s-60.5 115.833 -60.5 200.5zM126 262c0 -62 14 -111.667 42 -149s66 -56 114 -56s86.167 18.667 114.5 56s42.5 87 42.5 149s-14.167 111.667 -42.5 149s-66.5 56 -114.5 56s-86 -18.667 -114 -56s-42 -87 -42 -149z" />
    <glyph glyph-name="r" unicode="r" horiz-adv-x="398" 
d="M307 534c14.667 0 34 -2 58 -6v-80c-22 4 -44.667 6 -68 6c-47.333 0 -82.5 -15.333 -105.5 -46s-34.5 -78 -34.5 -142v-266h-88l1 524h80v-108c13.333 38 33.5 67.167 60.5 87.5s59.167 30.5 96.5 30.5z" />
    <glyph glyph-name="s" unicode="s" horiz-adv-x="496" 
d="M25 149l80 4.00098c6.66699 -67.333 54 -101 142 -101c40 0 71.667 7 95 21s35 34 35 60c0 19.333 -7.83301 35.333 -23.5 48s-41.5 24.667 -77.5 36l-113 33c-81.333 24 -122 72 -122 144c0 48 17.5 83.667 52.5 107s81.5 35 139.5 35
c61.333 0 111.833 -12.833 151.5 -38.5s61.834 -64.5 66.501 -116.5l-80 -5c-4 32 -18.5 56 -43.5 72s-56.5 24 -94.5 24c-32 1.33301 -57.667 -4.83398 -77 -18.501s-29 -32.5 -29 -56.5c0 -38 28.333 -65.333 85 -82l114 -33c92 -26 138 -74.333 138 -145
c0 -48 -19.333 -84.833 -58 -110.5s-92.334 -38.5 -161.001 -38.5c-138 0 -211.333 53.667 -220 161z" />
    <glyph glyph-name="t" unicode="t" horiz-adv-x="378" 
d="M344 457l-127.999 -0.000976562v-306c0 -33.333 4.66699 -56.166 14 -68.499s27 -18.5 53 -18.5c17.333 0 37.666 1.66699 60.999 5v-70c-23.333 -4.66699 -49 -7 -77 -7c-50.667 0 -86.5 11 -107.5 33s-31.5 59.333 -31.5 112v320h-110v65h84c21.333 0 32 10.333 32 31
v86h82v-115h128v-67z" />
    <glyph glyph-name="u" unicode="u" horiz-adv-x="580" 
d="M423 524h88v-524h-81v108c-33.333 -80 -95.666 -120 -186.999 -120c-56.667 0 -100.667 16.667 -132 50s-47 82.333 -47 147v339h87v-313c0 -100.667 40.667 -151 122 -151c47.333 0 84.166 17 110.499 51s39.5 78 39.5 132v281z" />
    <glyph glyph-name="v" unicode="v" horiz-adv-x="540" 
d="M428 524h94l-187 -524h-131l-185 524h95l156 -472z" />
    <glyph glyph-name="w" unicode="w" horiz-adv-x="847" 
d="M728 524h95l-159 -524h-123l-116 479l-118 -479h-126l-158 524h98l127 -462l117 462h122l114 -454z" />
    <glyph glyph-name="x" unicode="x" horiz-adv-x="554" 
d="M532 0h-107l-150 205l-150 -205h-102l201 264l-192 260h106l139 -198l139 198h102l-189 -257z" />
    <glyph glyph-name="y" unicode="y" horiz-adv-x="546" 
d="M432 524l94 0.000976562l-195 -584c-18 -58 -39.333 -97.833 -64 -119.5s-62 -32.5 -112 -32.5c-16.667 0 -36 1 -58 3v68c24 -1.33301 41.667 -2 53 -2c27.333 0 48 6.66699 62 20s27 38.666 39 75.999l15 47h-49l-198 524h96l172 -489z" />
    <glyph glyph-name="z" unicode="z" horiz-adv-x="480" 
d="M133 69h321v-69h-433v61l315 394h-295v69h406v-61z" />
    <glyph glyph-name="braceleft" unicode="{" horiz-adv-x="330" 
d="M210 442c0 -82 -33.333 -129 -100 -141v-4c66.667 -12 100 -58.667 100 -140v-122c0 -36.667 6.66699 -63 20 -79s34.666 -24 63.999 -24h8v-61h-11c-51.333 0 -90.333 11.833 -117 35.5s-40 64.5 -40 122.5v117c0 82 -29.667 123 -89 123h-8v61h8
c59.333 0 89 40.667 89 122v117c0 58 13.333 99 40 123s65.667 36 117 36h11v-61h-8c-29.333 0 -50.666 -8.16699 -63.999 -24.5s-20 -42.833 -20 -79.5v-121z" />
    <glyph glyph-name="bar" unicode="|" horiz-adv-x="236" 
d="M84 736h67v-857h-67v857z" />
    <glyph glyph-name="braceright" unicode="}" horiz-adv-x="330" 
d="M285 330h8v-61h-8c-59.333 0 -89 -41 -89 -123v-117c0 -58 -13.333 -98.833 -40 -122.5s-65.667 -35.5 -117 -35.5h-11v61h8c29.333 0 50.666 8 63.999 24s20 42.333 20 79v122c0 81.333 33.333 128 100 140v4c-66.667 12 -100 59 -100 141v121
c0 36.667 -6.66699 63.167 -20 79.5s-34.666 24.5 -63.999 24.5h-8v61h11c51.333 0 90.333 -12 117 -36s40 -65 40 -123v-117c0 -81.333 29.667 -122 89 -122z" />
    <glyph glyph-name="asciitilde" unicode="~" horiz-adv-x="559" 
d="M428 402l55.998 0.000976562c0 -38.667 -8.66699 -70.334 -26 -95.001s-44.666 -37 -81.999 -37c-25.333 0 -49.5 7 -72.5 21s-44 28 -63 42s-36.833 21 -53.5 21c-18 0 -31.667 -6.66699 -41 -20s-14 -30.333 -14 -51h-57c0 38 8.83301 69.5 26.5 94.5
s44.834 37.5 81.501 37.5c25.333 0 49.5 -7 72.5 -21s44 -28 63 -42s36.833 -21 53.5 -21c18 0 31.833 6.66699 41.5 20s14.5 30.333 14.5 51z" />
    <glyph glyph-name="uni00A0" unicode="&#xa0;" horiz-adv-x="239" 
 />
    <glyph glyph-name="exclamdown" unicode="&#xa1;" horiz-adv-x="280" 
d="M89 524h102v-115h-102v115zM176 320l11 -496h-94l11 496h72z" />
    <glyph glyph-name="cent" unicode="&#xa2;" horiz-adv-x="533" 
d="M501 172c-8.66699 -55.333 -31.167 -98.833 -67.5 -130.5s-81.5 -49.167 -135.5 -52.5v-75h-45v75c-66 5.33301 -118.167 31.5 -156.5 78.5s-57.5 111.833 -57.5 194.5s19.167 147.667 57.5 195s90.5 73.333 156.5 78v75h45v-75c52 -4 95.833 -21.167 131.5 -51.5
s57.5 -72.166 65.5 -125.499l-78 -7c-7.33301 34.667 -21.5 62.167 -42.5 82.5s-46.5 32.5 -76.5 36.5v-416c31.333 3.33301 58 15.666 80 36.999s36.667 50.333 44 87zM121 262c0 -59.333 11.832 -107.167 35.499 -143.5s55.834 -57.5 96.501 -63.5v415
c-40 -6 -72 -27.167 -96 -63.5s-36 -84.5 -36 -144.5z" />
    <glyph glyph-name="sterling" unicode="&#xa3;" horiz-adv-x="524" 
d="M100 72h403.002v-72h-484v63c64.667 66 97 132 97 198c0 18.667 -2.66699 38.667 -8 60h-77v52h65c-10.667 48 -16 87.667 -16 119c0 67.333 18.333 118.833 55 154.5s87 53.5 151 53.5c123.333 0 189.666 -68.333 198.999 -205l-84 -6c-6 92.667 -44.333 139 -115 139
c-36.667 0 -65.334 -12.5 -86.001 -37.5s-31 -60.833 -31 -107.5c0 -28 5.33301 -64.667 16 -110h195v-52h-183c4.66699 -24.667 7 -46 7 -64c0 -63.333 -34.667 -125 -104 -185z" />
    <glyph glyph-name="currency" unicode="&#xa4;" horiz-adv-x="590" 
d="M554 89l-48 -48l-79 80c-37.333 -24.667 -81.333 -37 -132 -37s-94.334 12 -131.001 36l-79 -78l-49 49l78 78c-25.333 36 -38 80 -38 132s12.667 96 38 132l-79 79l49 48l79 -79c36 24 80 36 132 36c52.667 0 96.334 -12 131.001 -36l79 78l49 -48l-78 -78
c25.333 -36.667 38 -80.667 38 -132c0 -52 -12.667 -96.333 -38 -133zM152 301c0 -45.333 12.833 -81.333 38.5 -108s60.5 -40 104.5 -40s78.833 13.333 104.5 40s38.5 62.667 38.5 108s-12.833 81.333 -38.5 108s-60.5 40 -104.5 40s-78.833 -13.333 -104.5 -40
s-38.5 -62.667 -38.5 -108z" />
    <glyph glyph-name="yen" unicode="&#xa5;" horiz-adv-x="619" 
d="M354 313v-6h190v-48h-190v-67h190v-47h-190v-145h-89v145h-190v47h190v67h-190v48h190v7l-248 374h101l192 -308l195 308h97z" />
    <glyph glyph-name="brokenbar" unicode="&#xa6;" horiz-adv-x="236" 
d="M84 736h67v-340h-67v340zM84 235h67v-356h-67v356z" />
    <glyph glyph-name="section" unicode="&#xa7;" horiz-adv-x="502" 
d="M376 186c53.333 -28 79.999 -70.665 79.999 -127.998c0 -48 -17.5 -85.167 -52.5 -111.5s-82.833 -39.5 -143.5 -39.5c-60 0 -108.5 13.667 -145.5 41s-57.5 68.666 -61.5 123.999l75 3c3.33301 -35.333 17 -62.166 41 -80.499s54.333 -27.5 91 -27.5
c32.667 0 60 7.66699 82 23s33 36.666 33 63.999c0 22 -7.33301 39.833 -22 53.5s-40 26.167 -76 37.5l-113 35c-80.667 24 -121 71 -121 141c0 55.333 30 95.333 90 120c-47.333 28 -71 70.333 -71 127c0 48 16.667 84 50 108s76.333 36 129 36
c54.667 0 100.334 -13.333 137.001 -40s57.667 -66 63 -118l-76 -4c-4 33.333 -17.333 58.666 -40 75.999s-50.667 26 -84 26c-28 0.666992 -51.333 -6.33301 -70 -21s-28 -34.667 -28 -60c0 -42 27.333 -71.667 82 -89l107 -33c88 -28.667 132 -76.667 132 -144
c0 -52 -29.333 -91.667 -88 -119zM209.999 241.002l106 -32c46.667 16 70 44 70 84c0 21.333 -7.83301 39.5 -23.5 54.5s-41.167 28.167 -76.5 39.5l-91 29c-49.333 -13.333 -74 -41.333 -74 -84s29.667 -73 89 -91z" />
    <glyph glyph-name="dieresis" unicode="&#xa8;" horiz-adv-x="331" 
d="M40 610v106h81v-106h-81zM211 610v106h80v-106h-80z" />
    <glyph glyph-name="copyright" unicode="&#xa9;" horiz-adv-x="812" 
d="M406 -12c-105.333 0 -192 33.167 -260 99.5s-102 153.833 -102 262.5s34 196.167 102 262.5s154.667 99.5 260 99.5s192 -33.167 260 -99.5s102 -153.833 102 -262.5s-34 -196.167 -102 -262.5s-154.667 -99.5 -260 -99.5zM406 35c90.667 0 165 30.002 223 90.002
s87 135 87 225s-29 165 -87 225s-132.333 90 -223 90s-164.834 -29.833 -222.501 -89.5s-86.5 -134.834 -86.5 -225.501s28.833 -165.834 86.5 -225.501s131.834 -89.5 222.501 -89.5zM243 350.002c0 64 14.833 113.497 44.5 148.497s69.834 52.5 120.501 52.5
c40.667 0 75.167 -11.833 103.5 -35.5s45.5 -57.167 51.5 -100.5l-60 -5c-4.66699 30 -15.667 52.667 -33 68s-38 23 -62 23c-30.667 0 -55.334 -13.333 -74.001 -40s-28 -63.667 -28 -111s9.5 -84.5 28.5 -111.5s44.5 -40.5 76.5 -40.5c24.667 0 45.5 8.33301 62.5 25
s27.833 40.334 32.5 71.001l61 -4c-6 -45.333 -23 -80.166 -51 -104.499s-63 -36.5 -105 -36.5c-52 0 -93 17.333 -123 52s-45 84.334 -45 149.001z" />
    <glyph glyph-name="guillemotleft" unicode="&#xab;" horiz-adv-x="453" 
d="M241 456l-142 -176l142 -176h-88l-122 155v42l122 155h88zM410 456l-142 -176l142 -176h-87l-123 155v42l123 155h87z" />
    <glyph glyph-name="logicalnot" unicode="&#xac;" horiz-adv-x="511" 
d="M65 364h371v-173h-67v112h-304v61z" />
    <glyph glyph-name="registered" unicode="&#xae;" horiz-adv-x="572" 
d="M286 212c-70 0 -129.167 23.667 -177.5 71s-72.5 107 -72.5 179s24.167 131.667 72.5 179s107.5 71 177.5 71s129.167 -23.667 177.5 -71s72.5 -107 72.5 -179s-24.167 -131.667 -72.5 -179s-107.5 -71 -177.5 -71zM286 248c60 0 110.333 20.5 151 61.5
s61 91.833 61 152.5s-20.333 111.5 -61 152.5s-91 61.5 -151 61.5s-110.167 -20.5 -150.5 -61.5s-60.5 -91.833 -60.5 -152.5s20.167 -111.5 60.5 -152.5s90.5 -61.5 150.5 -61.5zM213 336v258h89c20 0 36.833 -6.5 50.5 -19.5s20.5 -32.5 20.5 -58.5
c0 -45.333 -17 -70.333 -51 -75l59 -105h-47l-53 103h-30v-103h-38zM251 470h45c24.667 0 37 15.333 37 46c0 30 -12 45 -36 45h-46v-91z" />
    <glyph glyph-name="macron" unicode="&#xaf;" horiz-adv-x="365" 
d="M40 627v61h285v-61h-285z" />
    <glyph glyph-name="degree" unicode="&#xb0;" horiz-adv-x="365" 
d="M183 401c-44 0 -80.667 14.167 -110 42.5s-44 65.833 -44 112.5c0 47.333 14.667 85.166 44 113.499s66 42.5 110 42.5s80.5 -14.167 109.5 -42.5s43.5 -66.166 43.5 -113.499c0 -46.667 -14.5 -84.167 -43.5 -112.5s-65.5 -42.5 -109.5 -42.5zM183 457
c26.667 0 48.834 9.33301 66.501 28s26.5 42.334 26.5 71.001c0 29.333 -8.83301 53.333 -26.5 72s-39.834 28 -66.501 28c-27.333 0 -49.833 -9.33301 -67.5 -28s-26.5 -42.667 -26.5 -72c0 -28.667 8.83301 -52.334 26.5 -71.001s40.167 -28 67.5 -28z" />
    <glyph glyph-name="plusminus" unicode="&#xb1;" horiz-adv-x="523" 
d="M292 416h160v-61h-160v-124h-61v124h-160v61h160v138h61v-138zM71 106v61h381v-61h-381z" />
    <glyph glyph-name="uni00B2" unicode="&#xb2;" horiz-adv-x="361" 
d="M111 388l224 0.00195312v-57h-317v52l145 139l48.5 47.5c10.333 10.333 19.833 23.166 28.5 38.499s13 30.333 13 45c0 20.667 -6.5 36.5 -19.5 47.5s-30.167 16.5 -51.5 16.5c-51.333 0 -80 -33.667 -86 -101l-68 6c3.33301 50.667 19 88.667 47 114s63.667 38 107 38
c41.333 0 75.166 -10.5 101.499 -31.5s39.5 -50.833 39.5 -89.5c0 -26 -7.16699 -50.333 -21.5 -73s-39.166 -50.334 -74.499 -83.001z" />
    <glyph glyph-name="uni00B3" unicode="&#xb3;" horiz-adv-x="377" 
d="M292 570c35.333 -22 53.001 -56.667 53.001 -104c0 -45.333 -15.833 -80 -47.5 -104s-71.834 -36 -120.501 -36c-46.667 0 -84.5 11 -113.5 33s-45.833 54.667 -50.5 98l68 5c6.66699 -52.667 38.667 -79 96 -79c29.333 0 52.833 7.16699 70.5 21.5
s26.5 34.833 26.5 61.5c0 24.667 -8 44.167 -24 58.5s-39.667 21.5 -71 21.5c-18 0 -40.667 -2.33301 -68 -7v48l131 120h-207v57h297v-50l-143 -120c42 0 76.333 -8 103 -24z" />
    <glyph glyph-name="acute" unicode="&#xb4;" horiz-adv-x="251" 
d="M40 592l79 143h92l-101 -143h-70z" />
    <glyph glyph-name="paragraph" unicode="&#xb6;" horiz-adv-x="544" 
d="M52 510c0 56.667 18 102.5 54 137.5s83.667 52.5 143 52.5h49v-790h-58v411c-56.667 0 -102.167 17.5 -136.5 52.5s-51.5 80.5 -51.5 136.5zM390 700h58v-790h-58v790z" />
    <glyph glyph-name="periodcentered" unicode="&#xb7;" horiz-adv-x="229" 
d="M64 252v115h101v-115h-101z" />
    <glyph glyph-name="cedilla" unicode="&#xb8;" horiz-adv-x="275" 
d="M153 -51c21.333 0 40.333 -6.5 57 -19.5s25 -32.167 25 -57.5c0 -27.333 -9.5 -47.5 -28.5 -60.5s-41.833 -19.5 -68.5 -19.5c-26 0 -47.667 6 -65 18s-28.333 29 -33 51l43 3c4.66699 -22.667 20.667 -34 48 -34c31.333 0 47 14 47 42c0 14 -4.33301 24.667 -13 32
s-19 11 -31 11c-11.333 0 -25 -3.66699 -41 -11l-37 16l44 80h40l-36 -63c18.667 8 35 12 49 12z" />
    <glyph glyph-name="uni00B9" unicode="&#xb9;" horiz-adv-x="274" 
d="M128 764h58v-431h-71v348l-80 -66v74z" />
    <glyph glyph-name="guillemotright" unicode="&#xbb;" horiz-adv-x="453" 
d="M130 456l123 -155v-42l-123 -155h-87l141 176l-141 176h87zM299 456l123 -155v-42l-123 -155h-87l141 176l-141 176h87z" />
    <glyph glyph-name="onequarter" unicode="&#xbc;" horiz-adv-x="708" 
d="M102 340v285l-74 -49v66l87 58h49v-360h-62zM521 700h67l-475 -700h-68zM622 131h63v-50h-63v-81h-61v81h-206v46l167 233h100v-229zM416 131h145v200z" />
    <glyph glyph-name="onehalf" unicode="&#xbd;" horiz-adv-x="719" 
d="M102 340v285l-74 -49v66l87 58h49v-360h-62zM521 700h67l-475 -700h-68zM497 50l196.002 -0.000976562v-50h-277v46l127 115c20 18 34 31 42 39s16 18.5 24 31.5s12 25.5 12 37.5c0 16.667 -5.66699 29.667 -17 39s-26.333 14 -45 14c-20.667 0 -37.5 -7 -50.5 -21
s-20.833 -34.667 -23.5 -62l-59 5c2.66699 42.667 16.167 74.667 40.5 96s55.166 32 92.499 32c36.667 0 66.5 -9 89.5 -27s34.5 -43.333 34.5 -76c0 -21.333 -6.33301 -41.666 -19 -60.999s-34.334 -42 -65.001 -68z" />
    <glyph glyph-name="threequarters" unicode="&#xbe;" horiz-adv-x="809" 
d="M308 448c0 -39.333 -13.833 -69.168 -41.5 -89.501s-63.834 -30.5 -108.501 -30.5c-40.667 0 -74 9.33301 -100 28s-41.333 46.667 -46 84l61 4c4.66699 -44 33 -66 85 -66c26 0 47.167 6.16699 63.5 18.5s24.5 29.5 24.5 51.5c0 20 -7.33301 36 -22 48s-36 18 -64 18
c-13.333 0 -33.666 -2 -60.999 -6v42l118 100h-185v50h265v-45l-127 -97c42.667 -1.33301 75 -9.66602 97 -24.999c27.333 -18.667 41 -47 41 -85zM621 699.998h68l-475 -700h-68zM723 130.998h63v-50h-63v-81h-62v81h-206v46l167 233h101v-229zM517 130.998h144v200z" />
    <glyph glyph-name="questiondown" unicode="&#xbf;" horiz-adv-x="500" 
d="M316 524v-115h-101v115h101zM242 -188c-61.333 0 -111.334 15.001 -150.001 45.001s-58 75 -58 135c0 39.333 9.16699 73.5 27.5 102.5s48.166 59.5 89.499 91.5c28.667 22 47.834 40.167 57.501 54.5s14.5 34.833 14.5 61.5v16h85v-19c0 -39.333 -6 -69.333 -18 -90
s-33.333 -42.334 -64 -65.001c-34.667 -26 -60.667 -50 -78 -72s-26 -48.333 -26 -79c0 -36 10.833 -63 32.5 -81s50.834 -27 87.501 -27c94 0 145.333 54.333 154 163l84 -6c-5.33301 -76.667 -29.333 -134.167 -72 -172.5s-98 -57.5 -166 -57.5z" />
    <glyph glyph-name="Agrave" unicode="&#xc0;" horiz-adv-x="668" 
d="M373 763h-70l-111 116h93zM554 0l-62 184h-318l-63 -184h-92l245 700h140l245 -700h-95zM333 650l-135 -396h269z" />
    <glyph glyph-name="Aacute" unicode="&#xc1;" horiz-adv-x="668" 
d="M478 879l-110 -116h-71l89 116h92zM554 0l-62 184h-318l-63 -184h-92l245 700h140l245 -700h-95zM333 650l-135 -396h269z" />
    <glyph glyph-name="Acircumflex" unicode="&#xc2;" horiz-adv-x="668" 
d="M334 853l-85 -88h-66l100 117h103l100 -117h-67zM554 0l-62 184h-318l-63 -184h-92l245 700h140l245 -700h-95zM333 650l-135 -396h269z" />
    <glyph glyph-name="Atilde" unicode="&#xc3;" horiz-adv-x="668" 
d="M272 814c-24 0 -36 -15 -36 -45h-49c0 64.667 26.667 97 80 97c22.667 0 47.167 -8.83301 73.5 -26.5s45.166 -26.5 56.499 -26.5c23.333 0 35 15 35 45h49c0 -64.667 -26.333 -97 -79 -97c-23.333 0 -48.166 8.83301 -74.499 26.5s-44.833 26.5 -55.5 26.5zM554 0
l-62 184h-318l-63 -184h-92l245 700h140l245 -700h-95zM333 650l-135 -396h269z" />
    <glyph glyph-name="Adieresis" unicode="&#xc4;" horiz-adv-x="668" 
d="M284 860v-95h-89v95h89zM474 860v-95h-89v95h89zM554 0l-62 184h-318l-63 -184h-92l245 700h140l245 -700h-95zM333 650l-135 -396h269z" />
    <glyph glyph-name="Aring" unicode="&#xc5;" horiz-adv-x="668" 
d="M334 747c-28 0 -52.167 8 -72.5 24s-30.5 39.333 -30.5 70s10.167 54.167 30.5 70.5s44.5 24.5 72.5 24.5s52.333 -8.16699 73 -24.5s31 -39.833 31 -70.5s-10.333 -54 -31 -70s-45 -24 -73 -24zM334 893c-16 0 -29.333 -4.66699 -40 -14s-16 -22 -16 -38
c0 -15.333 5.5 -27.833 16.5 -37.5s24.167 -14.5 39.5 -14.5c16 0 29.5 4.83301 40.5 14.5s16.5 22.167 16.5 37.5c0 16 -5.5 28.667 -16.5 38s-24.5 14 -40.5 14zM554 0l-62 184h-318l-63 -184h-92l245 700h140l245 -700h-95zM333 650l-135 -396h269z" />
    <glyph glyph-name="AE" unicode="&#xc6;" horiz-adv-x="1006" 
d="M13 0l371 700h566v-73h-376v-236h297v-70h-297v-248h390v-73h-482v184h-274l-97 -184h-98zM242 254h240v373h-43z" />
    <glyph glyph-name="Ccedilla" unicode="&#xc7;" horiz-adv-x="665" 
d="M352 -12l-11.9941 0.00292969l-29 -51c16 8 32 12 48 12c21.333 0 40.5 -6.5 57.5 -19.5s25.5 -32.167 25.5 -57.5c0 -27.333 -9.5 -47.5 -28.5 -60.5s-41.833 -19.5 -68.5 -19.5c-26 0 -47.667 6 -65 18s-28.333 29 -33 51l43 3c4.66699 -22.667 20.667 -34 48 -34
c30.667 0 46 14 46 42c0 14 -4.16699 24.667 -12.5 32s-18.833 11 -31.5 11c-10.667 0 -24 -3.66699 -40 -11l-37 16l39 71c-82.667 11.333 -146.334 49.166 -191.001 113.499s-67 146.166 -67 245.499c0 108 26.167 195.333 78.5 262s126.166 100 221.499 100
c77.333 0 140.666 -20.833 189.999 -62.5s78.666 -97.834 87.999 -168.501l-87 -9c-6.66699 50 -27.667 90 -63 120s-78 45 -128 45c-67.333 0 -118.833 -27.5 -154.5 -82.5s-53.5 -123.167 -53.5 -204.5c0 -83.333 18.833 -152 56.5 -206s90.834 -81 159.501 -81
c53.333 0 96.666 16.5 129.999 49.5s53.333 75.167 60 126.5l87 -7c-8.66699 -73.333 -36.834 -132.333 -84.501 -177s-111.834 -67 -192.501 -67z" />
    <glyph glyph-name="Egrave" unicode="&#xc8;" horiz-adv-x="609" 
d="M348 763h-70l-111 116h92zM84 0v700h468v-73h-376v-236h298v-70h-298v-248h390v-73h-482z" />
    <glyph glyph-name="Eacute" unicode="&#xc9;" horiz-adv-x="609" 
d="M267 763l88 116h93l-111 -116h-70zM84 0v700h468v-73h-376v-236h298v-70h-298v-248h390v-73h-482z" />
    <glyph glyph-name="Ecircumflex" unicode="&#xca;" horiz-adv-x="609" 
d="M459 765h-67l-85 88l-85 -88h-66l99 117h104zM84 0v700h468v-73h-376v-236h298v-70h-298v-248h390v-73h-482z" />
    <glyph glyph-name="Edieresis" unicode="&#xcb;" horiz-adv-x="609" 
d="M168 765v95h89v-95h-89zM358 765v95h89v-95h-89zM84 0v700h468v-73h-376v-236h298v-70h-298v-248h390v-73h-482z" />
    <glyph glyph-name="Igrave" unicode="&#xcc;" horiz-adv-x="261" 
d="M166 763h-67l-96 116h90zM84 0v700h92v-700h-92z" />
    <glyph glyph-name="Iacute" unicode="&#xcd;" horiz-adv-x="261" 
d="M95 763l73 116h89l-95 -116h-67zM84 0v700h92v-700h-92z" />
    <glyph glyph-name="Icircumflex" unicode="&#xce;" horiz-adv-x="261" 
d="M282 765h-67l-85 88l-85 -88h-66l100 117h103zM84 0v700h92v-700h-92z" />
    <glyph glyph-name="Idieresis" unicode="&#xcf;" horiz-adv-x="261" 
d="M12 765v95h80v-95h-80zM169 765v95h80v-95h-80zM84 0v700h92v-700h-92z" />
    <glyph glyph-name="Eth" unicode="&#xd0;" horiz-adv-x="704" 
d="M354 700c97.333 0 172.666 -30.833 225.999 -92.5s80 -147.5 80 -257.5s-26.667 -195.833 -80 -257.5s-128.666 -92.5 -225.999 -92.5h-255v317h-68v66h68v317h255zM346 75c71.333 0 126.166 24.5 164.499 73.5s57.5 116.167 57.5 201.5s-19.167 152.5 -57.5 201.5
s-93.166 73.5 -164.499 73.5h-155v-242h195v-66h-195v-242h155z" />
    <glyph glyph-name="Ntilde" unicode="&#xd1;" horiz-adv-x="724" 
d="M300 814c-24 0 -35.999 -15 -35.999 -45h-49c0 64.667 26.333 97 79 97c23.333 0 48.166 -8.83301 74.499 -26.5s45.166 -26.5 56.499 -26.5c23.333 0 35 15 35 45h49c0 -64.667 -26.333 -97 -79 -97c-23.333 0 -48.166 8.83301 -74.499 26.5s-44.833 26.5 -55.5 26.5z
M551.001 700h89v-700h-155l-312 645v-645h-89v700h155l312 -645v645z" />
    <glyph glyph-name="Ograve" unicode="&#xd2;" horiz-adv-x="713" 
d="M397 763h-70l-111 116h93zM44 350c0 108 27.167 195.333 81.5 262s131.166 100 230.499 100c100 0 177.167 -33.333 231.5 -100s81.5 -154 81.5 -262s-27.167 -195.333 -81.5 -262s-131.5 -100 -231.5 -100c-99.333 0 -176.166 33.333 -230.499 100s-81.5 154 -81.5 262z
M136 350c0 -84 19.333 -152.833 58 -206.5s92.667 -80.5 162 -80.5c70 0 124.333 26.833 163 80.5s58 122.5 58 206.5s-19.333 152.833 -58 206.5s-93 80.5 -163 80.5c-69.333 0 -123.333 -26.833 -162 -80.5s-58 -122.5 -58 -206.5z" />
    <glyph glyph-name="Oacute" unicode="&#xd3;" horiz-adv-x="713" 
d="M316 763l88 116h93l-111 -116h-70zM44 350c0 108 27.167 195.333 81.5 262s131.166 100 230.499 100c100 0 177.167 -33.333 231.5 -100s81.5 -154 81.5 -262s-27.167 -195.333 -81.5 -262s-131.5 -100 -231.5 -100c-99.333 0 -176.166 33.333 -230.499 100
s-81.5 154 -81.5 262zM136 350c0 -84 19.333 -152.833 58 -206.5s92.667 -80.5 162 -80.5c70 0 124.333 26.833 163 80.5s58 122.5 58 206.5s-19.333 152.833 -58 206.5s-93 80.5 -163 80.5c-69.333 0 -123.333 -26.833 -162 -80.5s-58 -122.5 -58 -206.5z" />
    <glyph glyph-name="Ocircumflex" unicode="&#xd4;" horiz-adv-x="713" 
d="M508 765h-67l-85 88l-85 -88h-66l100 117h103zM44 350c0 108 27.167 195.333 81.5 262s131.166 100 230.499 100c100 0 177.167 -33.333 231.5 -100s81.5 -154 81.5 -262s-27.167 -195.333 -81.5 -262s-131.5 -100 -231.5 -100c-99.333 0 -176.166 33.333 -230.499 100
s-81.5 154 -81.5 262zM136 350c0 -84 19.333 -152.833 58 -206.5s92.667 -80.5 162 -80.5c70 0 124.333 26.833 163 80.5s58 122.5 58 206.5s-19.333 152.833 -58 206.5s-93 80.5 -163 80.5c-69.333 0 -123.333 -26.833 -162 -80.5s-58 -122.5 -58 -206.5z" />
    <glyph glyph-name="Otilde" unicode="&#xd5;" horiz-adv-x="713" 
d="M454 858h49c0 -64.667 -26.333 -97 -79 -97c-23.333 0 -48.166 8.83301 -74.499 26.5s-44.833 26.5 -55.5 26.5c-24 0 -36 -15 -36 -45h-49c0 64.667 26.667 97 80 97c22.667 0 47.167 -8.83301 73.5 -26.5s45.166 -26.5 56.499 -26.5c23.333 0 35 15 35 45zM44 350
c0 108 27.167 195.333 81.5 262s131.166 100 230.499 100c100 0 177.167 -33.333 231.5 -100s81.5 -154 81.5 -262s-27.167 -195.333 -81.5 -262s-131.5 -100 -231.5 -100c-99.333 0 -176.166 33.333 -230.499 100s-81.5 154 -81.5 262zM136 350
c0 -84 19.333 -152.833 58 -206.5s92.667 -80.5 162 -80.5c70 0 124.333 26.833 163 80.5s58 122.5 58 206.5s-19.333 152.833 -58 206.5s-93 80.5 -163 80.5c-69.333 0 -123.333 -26.833 -162 -80.5s-58 -122.5 -58 -206.5z" />
    <glyph glyph-name="Odieresis" unicode="&#xd6;" horiz-adv-x="713" 
d="M217 765v95h89v-95h-89zM407 765v95h89v-95h-89zM44 350c0 108 27.167 195.333 81.5 262s131.166 100 230.499 100c100 0 177.167 -33.333 231.5 -100s81.5 -154 81.5 -262s-27.167 -195.333 -81.5 -262s-131.5 -100 -231.5 -100c-99.333 0 -176.166 33.333 -230.499 100
s-81.5 154 -81.5 262zM136 350c0 -84 19.333 -152.833 58 -206.5s92.667 -80.5 162 -80.5c70 0 124.333 26.833 163 80.5s58 122.5 58 206.5s-19.333 152.833 -58 206.5s-93 80.5 -163 80.5c-69.333 0 -123.333 -26.833 -162 -80.5s-58 -122.5 -58 -206.5z" />
    <glyph glyph-name="multiply" unicode="&#xd7;" horiz-adv-x="504" 
d="M437 474l-141 -142l141 -141l-44 -44l-141 141l-142 -141l-44 44l142 141l-142 142l44 44l142 -142l141 142z" />
    <glyph glyph-name="Oslash" unicode="&#xd8;" horiz-adv-x="713" 
d="M589 610c53.333 -65.333 80.001 -152 80.001 -260s-27.167 -195.333 -81.5 -262s-131.5 -100 -231.5 -100c-75.333 0 -138.666 20.333 -189.999 61l-52 -69l-53 29l62 82c-52.667 64.667 -79 151 -79 259s27.167 195.333 81.5 262s131.166 100 230.499 100
c75.333 0 138.666 -20 189.999 -60l52 68l53 -28zM136.001 350c0 -73.333 14.667 -134.667 44 -184l315 418c-38.667 35.333 -85 53 -139 53c-69.333 0 -123.333 -26.833 -162 -80.5s-58 -122.5 -58 -206.5zM356.001 62.999c70 0 124.333 26.833 163 80.5s58 122.5 58 206.5
c0 74 -14.667 135.667 -44 185l-315 -418c37.333 -36 83.333 -54 138 -54z" />
    <glyph glyph-name="Ugrave" unicode="&#xd9;" horiz-adv-x="717" 
d="M399 763h-70l-111 116h93zM84 263l0.000976562 437h92v-429c0 -70.667 15.167 -123 45.5 -157s76.166 -51 137.499 -51s107 16.833 137 50.5s45 86.167 45 157.5v429h92v-437c0 -92.667 -22.5 -161.667 -67.5 -207s-113.833 -68 -206.5 -68
c-183.333 0 -275 91.667 -275 275z" />
    <glyph glyph-name="Uacute" unicode="&#xda;" horiz-adv-x="717" 
d="M318 763l89 116h92l-110 -116h-71zM84 263l0.000976562 437h92v-429c0 -70.667 15.167 -123 45.5 -157s76.166 -51 137.499 -51s107 16.833 137 50.5s45 86.167 45 157.5v429h92v-437c0 -92.667 -22.5 -161.667 -67.5 -207s-113.833 -68 -206.5 -68
c-183.333 0 -275 91.667 -275 275z" />
    <glyph glyph-name="Ucircumflex" unicode="&#xdb;" horiz-adv-x="717" 
d="M510 765h-66l-85 88l-85 -88h-67l100 117h104zM84 263l0.000976562 437h92v-429c0 -70.667 15.167 -123 45.5 -157s76.166 -51 137.499 -51s107 16.833 137 50.5s45 86.167 45 157.5v429h92v-437c0 -92.667 -22.5 -161.667 -67.5 -207s-113.833 -68 -206.5 -68
c-183.333 0 -275 91.667 -275 275z" />
    <glyph glyph-name="Udieresis" unicode="&#xdc;" horiz-adv-x="717" 
d="M219 765v95h89v-95h-89zM409 765v95h89v-95h-89zM84 263l0.000976562 437h92v-429c0 -70.667 15.167 -123 45.5 -157s76.166 -51 137.499 -51s107 16.833 137 50.5s45 86.167 45 157.5v429h92v-437c0 -92.667 -22.5 -161.667 -67.5 -207s-113.833 -68 -206.5 -68
c-183.333 0 -275 91.667 -275 275z" />
    <glyph glyph-name="Yacute" unicode="&#xdd;" horiz-adv-x="654" 
d="M468 879l-111 -116h-70l88 116h93zM536 700h102l-265 -411v-289h-92v288l-264 412h105l205 -338z" />
    <glyph glyph-name="Thorn" unicode="&#xde;" horiz-adv-x="638" 
d="M362 576c67.333 0 123.501 -17.167 168.501 -51.5s67.5 -85.833 67.5 -154.5s-21.833 -119.5 -65.5 -152.5s-99.834 -49.5 -168.501 -49.5h-188v-168h-92v700h92v-124h186zM352.001 240c47.333 0 84.833 10.833 112.5 32.5s41.5 54.167 41.5 97.5
c0 42.667 -13.833 75 -41.5 97s-65.167 33 -112.5 33h-176v-260h176z" />
    <glyph glyph-name="germandbls" unicode="&#xdf;" horiz-adv-x="566" 
d="M330 429c64.667 -6 114.331 -27.667 148.998 -65s52 -88.333 52 -153c0 -72 -20.5 -126.167 -61.5 -162.5s-93.167 -54.5 -156.5 -54.5c-17.333 0 -38.666 2 -63.999 6v72c21.333 -4 39 -6 53 -6c38.667 0 71.834 12.167 99.501 36.5s41.5 63.166 41.5 116.499
s-14.5 95.333 -43.5 126s-70.833 46 -125.5 46h-31v69h28c40.667 0 71.667 10.667 93 32s32 51 32 89c0 38.667 -10.833 68.167 -32.5 88.5s-51.167 30.5 -88.5 30.5c-78.667 0 -118 -49 -118 -147v-553h-88v565c0 64.667 17.667 114.334 53 149.001s86.333 52 153 52
c60 0 109.833 -15 149.5 -45s59.5 -74.333 59.5 -133c0 -92.667 -51.333 -145.667 -154 -159z" />
    <glyph glyph-name="agrave" unicode="&#xe0;" horiz-adv-x="554" 
d="M328 592h-69l-101 143h91zM41 137c0 94 68.667 147.668 206 161.001l156 15v50c0 32.667 -10.5 59.167 -31.5 79.5s-51.833 30.166 -92.5 29.499c-37.333 0 -68 -8.5 -92 -25.5s-37 -42.5 -39 -76.5h-81c2 56.667 22.333 98.5 61 125.5s89 40.5 151 40.5
c68.667 0 121 -16.333 157 -49s54 -79.667 54 -141v-346h-80v108c-16.667 -38 -42 -67.5 -76 -88.5s-75.333 -31.5 -124 -31.5c-56 0 -98.167 13.833 -126.5 41.5s-42.5 63.5 -42.5 107.5zM128 140.001c0 -26 9 -47.332 27 -63.999s45 -25 81 -25
c51.333 0 92 16.167 122 48.5s45 74.166 45 125.499v32l-146 -15c-86 -8 -129 -42 -129 -102z" />
    <glyph glyph-name="aacute" unicode="&#xe1;" horiz-adv-x="554" 
d="M227 592l78 143h92l-101 -143h-69zM41 137c0 94 68.667 147.668 206 161.001l156 15v50c0 32.667 -10.5 59.167 -31.5 79.5s-51.833 30.166 -92.5 29.499c-37.333 0 -68 -8.5 -92 -25.5s-37 -42.5 -39 -76.5h-81c2 56.667 22.333 98.5 61 125.5s89 40.5 151 40.5
c68.667 0 121 -16.333 157 -49s54 -79.667 54 -141v-346h-80v108c-16.667 -38 -42 -67.5 -76 -88.5s-75.333 -31.5 -124 -31.5c-56 0 -98.167 13.833 -126.5 41.5s-42.5 63.5 -42.5 107.5zM128 140.001c0 -26 9 -47.332 27 -63.999s45 -25 81 -25
c51.333 0 92 16.167 122 48.5s45 74.166 45 125.499v32l-146 -15c-86 -8 -129 -42 -129 -102z" />
    <glyph glyph-name="acircumflex" unicode="&#xe2;" horiz-adv-x="554" 
d="M420 592h-65l-78 110l-77 -110h-66l95 143h97zM41 137c0 94 68.667 147.668 206 161.001l156 15v50c0 32.667 -10.5 59.167 -31.5 79.5s-51.833 30.166 -92.5 29.499c-37.333 0 -68 -8.5 -92 -25.5s-37 -42.5 -39 -76.5h-81c2 56.667 22.333 98.5 61 125.5
s89 40.5 151 40.5c68.667 0 121 -16.333 157 -49s54 -79.667 54 -141v-346h-80v108c-16.667 -38 -42 -67.5 -76 -88.5s-75.333 -31.5 -124 -31.5c-56 0 -98.167 13.833 -126.5 41.5s-42.5 63.5 -42.5 107.5zM128 140.001c0 -26 9 -47.332 27 -63.999s45 -25 81 -25
c51.333 0 92 16.167 122 48.5s45 74.166 45 125.499v32l-146 -15c-86 -8 -129 -42 -129 -102z" />
    <glyph glyph-name="atilde" unicode="&#xe3;" horiz-adv-x="554" 
d="M378 698h50.999c0 -67.333 -27.333 -101 -82 -101c-24 0 -49.5 9.33301 -76.5 28s-46.5 28 -58.5 28c-11.333 0 -20.166 -4.5 -26.499 -13.5s-9.5 -20.5 -9.5 -34.5h-51c0 29.333 6.5 53.5 19.5 72.5s34.167 28.5 63.5 28.5c24 0 49.5 -9.33301 76.5 -28
s46.167 -28 57.5 -28c24 0 36 16 36 48zM40.999 137c0 94 68.667 147.668 206 161.001l156 15v50c0 32.667 -10.5 59.167 -31.5 79.5s-51.833 30.166 -92.5 29.499c-37.333 0 -68 -8.5 -92 -25.5s-37 -42.5 -39 -76.5h-81c2 56.667 22.333 98.5 61 125.5s89 40.5 151 40.5
c68.667 0 121 -16.333 157 -49s54 -79.667 54 -141v-346h-80v108c-16.667 -38 -42 -67.5 -76 -88.5s-75.333 -31.5 -124 -31.5c-56 0 -98.167 13.833 -126.5 41.5s-42.5 63.5 -42.5 107.5zM127.999 140.001c0 -26 9 -47.332 27 -63.999s45 -25 81 -25
c51.333 0 92 16.167 122 48.5s45 74.166 45 125.499v32l-146 -15c-86 -8 -129 -42 -129 -102z" />
    <glyph glyph-name="adieresis" unicode="&#xe4;" horiz-adv-x="554" 
d="M152 610v106h81v-106h-81zM322 610v106h81v-106h-81zM41 137c0 94 68.667 147.668 206 161.001l156 15v50c0 32.667 -10.5 59.167 -31.5 79.5s-51.833 30.166 -92.5 29.499c-37.333 0 -68 -8.5 -92 -25.5s-37 -42.5 -39 -76.5h-81c2 56.667 22.333 98.5 61 125.5
s89 40.5 151 40.5c68.667 0 121 -16.333 157 -49s54 -79.667 54 -141v-346h-80v108c-16.667 -38 -42 -67.5 -76 -88.5s-75.333 -31.5 -124 -31.5c-56 0 -98.167 13.833 -126.5 41.5s-42.5 63.5 -42.5 107.5zM128 140.001c0 -26 9 -47.332 27 -63.999s45 -25 81 -25
c51.333 0 92 16.167 122 48.5s45 74.166 45 125.499v32l-146 -15c-86 -8 -129 -42 -129 -102z" />
    <glyph glyph-name="aring" unicode="&#xe5;" horiz-adv-x="554" 
d="M277 782c28 0 52.333 -8.16699 73 -24.5s31 -40.166 31 -71.499c0 -32 -10.333 -56.167 -31 -72.5s-45 -24.5 -73 -24.5s-52.167 8.16699 -72.5 24.5s-30.5 40.5 -30.5 72.5c0 31.333 10.167 55.166 30.5 71.499s44.5 24.5 72.5 24.5zM277 631c16 0 29.5 5 40.5 15
s16.5 23.333 16.5 40s-5.5 29.834 -16.5 39.501s-24.5 14.5 -40.5 14.5c-15.333 0 -28.5 -4.83301 -39.5 -14.5s-16.5 -22.834 -16.5 -39.501s5.33301 -30 16 -40s24 -15 40 -15zM41 137c0 94 68.667 147.668 206 161.001l156 15v50c0 32.667 -10.5 59.167 -31.5 79.5
s-51.833 30.166 -92.5 29.499c-37.333 0 -68 -8.5 -92 -25.5s-37 -42.5 -39 -76.5h-81c2 56.667 22.333 98.5 61 125.5s89 40.5 151 40.5c68.667 0 121 -16.333 157 -49s54 -79.667 54 -141v-346h-80v108c-16.667 -38 -42 -67.5 -76 -88.5s-75.333 -31.5 -124 -31.5
c-56 0 -98.167 13.833 -126.5 41.5s-42.5 63.5 -42.5 107.5zM128 140.001c0 -26 9 -47.332 27 -63.999s45 -25 81 -25c51.333 0 92 16.167 122 48.5s45 74.166 45 125.499v32l-146 -15c-86 -8 -129 -42 -129 -102z" />
    <glyph glyph-name="ae" unicode="&#xe6;" horiz-adv-x="909" 
d="M872 249v-12h-380c3.33301 -59.333 19.5 -105 48.5 -137s65.833 -48 110.5 -48c30.667 0 57.5 8.16699 80.5 24.5s39.833 38.166 50.5 65.499l83 -5c-13.333 -46 -38.666 -82.333 -75.999 -109s-83.333 -40 -138 -40c-108 0 -179.333 46.667 -214 140
c-17.333 -43.333 -45.333 -77.5 -84 -102.5s-85.334 -37.5 -140.001 -37.5c-57.333 0 -100.333 13.833 -129 41.5s-43 63.5 -43 107.5c0 97.333 68.667 150 206 158l156 11v56c0 32.667 -10.333 59.334 -31 80.001s-51.667 30.667 -93 30c-37.333 0 -68 -8.5 -92 -25.5
s-37 -42.5 -39 -76.5h-81c2 56.667 22.167 98.5 60.5 125.5s87.833 40.5 148.5 40.5c98 0 158.667 -34.333 182 -103c39.333 68.667 102 103 188 103c71.333 0 126.833 -24 166.5 -72s59.5 -119.667 59.5 -215zM493 295l293.002 0.000976562
c-1.33301 54 -14.833 97 -40.5 129s-59.5 48 -101.5 48c-40.667 0 -74.834 -15.333 -102.501 -46s-43.834 -74.334 -48.501 -131.001zM403.002 225.001v24.001l-146 -10c-86 -6 -129 -39 -129 -99c0 -26 9 -47.333 27 -64s45 -25 81 -25c51.333 0 92 16.167 122 48.5
s45 74.166 45 125.499z" />
    <glyph glyph-name="ccedilla" unicode="&#xe7;" horiz-adv-x="542" 
d="M282 -12l-2.99902 0.000976562l-29 -51c16 8 32.333 12 49 12c20.667 0 39.5 -6.5 56.5 -19.5s25.5 -32.167 25.5 -57.5c0 -27.333 -9.5 -47.5 -28.5 -60.5s-41.833 -19.5 -68.5 -19.5c-26 0 -47.667 6 -65 18s-28.333 29 -33 51l43 3c4.66699 -22.667 20.667 -34 48 -34
c30.667 0 46 14 46 42c0 14 -4.16699 24.667 -12.5 32s-18.833 11 -31.5 11c-10.667 0 -24 -3.66699 -40 -11l-37 16l39 71c-63.333 8 -112.833 35.333 -148.5 82s-53.5 109.667 -53.5 189c0 87.333 21.667 154.833 65 202.5s102 71.5 176 71.5c60 0 110.5 -16 151.5 -48
s65.5 -77.667 73.5 -137l-84 -8c-6.66699 40.667 -22.834 71.5 -48.501 92.5s-56.5 31.5 -92.5 31.5c-46.667 0 -84 -18.167 -112 -54.5s-42 -86.5 -42 -150.5s14.167 -114.167 42.5 -150.5s66.166 -54.5 113.499 -54.5c37.333 0 68.833 11.167 94.5 33.5
s42.167 54.166 49.5 95.499l84 -7c-8 -60.667 -32.667 -107.667 -74 -141s-92.666 -50 -153.999 -50z" />
    <glyph glyph-name="egrave" unicode="&#xe8;" horiz-adv-x="559" 
d="M328 592h-70l-101 143h92zM39 262c0 89.333 22.5 157.333 67.5 204s104.833 70 179.5 70c76.667 0 135.167 -23.667 175.5 -71s60.5 -119.333 60.5 -216v-12h-395c3.33301 -60 19.833 -105.833 49.5 -137.5s68.5 -47.5 116.5 -47.5c68 0 114.333 30 139 90l83 -5
c-14 -46.667 -40 -83.167 -78 -109.5s-86 -39.5 -144 -39.5c-78 0 -139.833 23.167 -185.5 69.5s-68.5 114.5 -68.5 204.5zM128 295l307 -0.00195312c-0.666992 54.667 -14.5 97.834 -41.5 129.501s-62.833 47.5 -107.5 47.5c-44 0 -80.333 -15.167 -109 -45.5
s-45 -74.166 -49 -131.499z" />
    <glyph glyph-name="eacute" unicode="&#xe9;" horiz-adv-x="559" 
d="M226 592l79 143h92l-101 -143h-70zM39 262c0 89.333 22.5 157.333 67.5 204s104.833 70 179.5 70c76.667 0 135.167 -23.667 175.5 -71s60.5 -119.333 60.5 -216v-12h-395c3.33301 -60 19.833 -105.833 49.5 -137.5s68.5 -47.5 116.5 -47.5c68 0 114.333 30 139 90l83 -5
c-14 -46.667 -40 -83.167 -78 -109.5s-86 -39.5 -144 -39.5c-78 0 -139.833 23.167 -185.5 69.5s-68.5 114.5 -68.5 204.5zM128 295l307 -0.00195312c-0.666992 54.667 -14.5 97.834 -41.5 129.501s-62.833 47.5 -107.5 47.5c-44 0 -80.333 -15.167 -109 -45.5
s-45 -74.166 -49 -131.499z" />
    <glyph glyph-name="ecircumflex" unicode="&#xea;" horiz-adv-x="559" 
d="M420 592h-65l-78 110l-78 -110h-65l94 143h98zM39 262c0 89.333 22.5 157.333 67.5 204s104.833 70 179.5 70c76.667 0 135.167 -23.667 175.5 -71s60.5 -119.333 60.5 -216v-12h-395c3.33301 -60 19.833 -105.833 49.5 -137.5s68.5 -47.5 116.5 -47.5
c68 0 114.333 30 139 90l83 -5c-14 -46.667 -40 -83.167 -78 -109.5s-86 -39.5 -144 -39.5c-78 0 -139.833 23.167 -185.5 69.5s-68.5 114.5 -68.5 204.5zM128 295l307 -0.00195312c-0.666992 54.667 -14.5 97.834 -41.5 129.501s-62.833 47.5 -107.5 47.5
c-44 0 -80.333 -15.167 -109 -45.5s-45 -74.166 -49 -131.499z" />
    <glyph glyph-name="edieresis" unicode="&#xeb;" horiz-adv-x="559" 
d="M151 610v106h81v-106h-81zM322 610v106h81v-106h-81zM39 262c0 89.333 22.5 157.333 67.5 204s104.833 70 179.5 70c76.667 0 135.167 -23.667 175.5 -71s60.5 -119.333 60.5 -216v-12h-395c3.33301 -60 19.833 -105.833 49.5 -137.5s68.5 -47.5 116.5 -47.5
c68 0 114.333 30 139 90l83 -5c-14 -46.667 -40 -83.167 -78 -109.5s-86 -39.5 -144 -39.5c-78 0 -139.833 23.167 -185.5 69.5s-68.5 114.5 -68.5 204.5zM128 295l307 -0.00195312c-0.666992 54.667 -14.5 97.834 -41.5 129.501s-62.833 47.5 -107.5 47.5
c-44 0 -80.333 -15.167 -109 -45.5s-45 -74.166 -49 -131.499z" />
    <glyph glyph-name="igrave" unicode="&#xec;" horiz-adv-x="223" 
d="M150 592h-68l-84 143h90zM66 0v524h88v-524h-88z" />
    <glyph glyph-name="iacute" unicode="&#xed;" horiz-adv-x="227" 
d="M73 592l62 143h90l-83 -143h-69zM69 0v524h88v-524h-88z" />
    <glyph glyph-name="icircumflex" unicode="&#xee;" horiz-adv-x="233" 
d="M260 592h-66l-77 110l-78 -110h-65l94 143h97zM73 0v524h87v-524h-87z" />
    <glyph glyph-name="idieresis" unicode="&#xef;" horiz-adv-x="220" 
d="M-1 610v106h76v-106h-76zM146 610v106h75v-106h-75zM66 0v524h88v-524h-88z" />
    <glyph glyph-name="eth" unicode="&#xf0;" horiz-adv-x="579" 
d="M371 665c108.667 -74.667 163.002 -193.666 163.002 -356.999c0 -109.333 -22.667 -190 -68 -242s-105.666 -78 -180.999 -78c-74 0 -133.5 23.333 -178.5 70s-67.5 110 -67.5 190c0 79.333 21.667 142.5 65 189.5s99 70.5 167 70.5c48 0 88.833 -12.333 122.5 -37
s58.167 -59.334 73.5 -104.001c-8.66699 62.667 -26.334 114.667 -53.001 156s-64.334 75.333 -113.001 102l-126 -73l-20 34l103 59c-39.333 16.667 -89 30.667 -149 42l16 71c81.333 -15.333 150.666 -38.333 207.999 -69l103 59l19 -34zM287.002 57.001
c49.333 0 88.333 17.167 117 51.5s43 80.833 43 139.5s-14.333 105.167 -43 139.5s-67.667 51.5 -117 51.5s-88.5 -17.167 -117.5 -51.5s-43.5 -80.833 -43.5 -139.5s14.5 -105.167 43.5 -139.5s68.167 -51.5 117.5 -51.5z" />
    <glyph glyph-name="ntilde" unicode="&#xf1;" horiz-adv-x="580" 
d="M390 698h51c0 -67.333 -27.333 -101 -82 -101c-24.667 0 -50.5 9.33301 -77.5 28s-46.167 28 -57.5 28c-24 0 -36 -16 -36 -48h-51c0 67.333 27.333 101 82 101c24.667 0 50.334 -9.33301 77.001 -28s46 -28 58 -28c11.333 0 20.166 4.5 26.499 13.5s9.5 20.5 9.5 34.5z
M69 0v524h81v-101c32 75.333 94.333 113 187 113c58 0 102.333 -15.833 133 -47.5s46 -79.167 46 -142.5v-346h-88v318c0 97.333 -40.333 146 -121 146c-48 0 -85 -15.5 -111 -46.5s-39 -73.167 -39 -126.5v-291h-88z" />
    <glyph glyph-name="ograve" unicode="&#xf2;" horiz-adv-x="573" 
d="M337 592h-69l-101 143h92zM39 262c0 84.667 22.5 151.5 67.5 200.5s105.167 73.5 180.5 73.5s135.333 -24.5 180 -73.5s67 -115.833 67 -200.5s-22.333 -151.5 -67 -200.5s-104.667 -73.5 -180 -73.5s-135.5 24.5 -180.5 73.5s-67.5 115.833 -67.5 200.5zM126 262
c0 -62 14.5 -111.667 43.5 -149s68.167 -56 117.5 -56c48.667 0 87.5 18.667 116.5 56s43.5 87 43.5 149s-14.5 111.667 -43.5 149s-67.833 56 -116.5 56c-49.333 0 -88.5 -18.667 -117.5 -56s-43.5 -87 -43.5 -149z" />
    <glyph glyph-name="oacute" unicode="&#xf3;" horiz-adv-x="573" 
d="M236 592l79 143h91l-101 -143h-69zM39 262c0 84.667 22.5 151.5 67.5 200.5s105.167 73.5 180.5 73.5s135.333 -24.5 180 -73.5s67 -115.833 67 -200.5s-22.333 -151.5 -67 -200.5s-104.667 -73.5 -180 -73.5s-135.5 24.5 -180.5 73.5s-67.5 115.833 -67.5 200.5z
M126 262c0 -62 14.5 -111.667 43.5 -149s68.167 -56 117.5 -56c48.667 0 87.5 18.667 116.5 56s43.5 87 43.5 149s-14.5 111.667 -43.5 149s-67.833 56 -116.5 56c-49.333 0 -88.5 -18.667 -117.5 -56s-43.5 -87 -43.5 -149z" />
    <glyph glyph-name="ocircumflex" unicode="&#xf4;" horiz-adv-x="573" 
d="M430 592h-66l-77 110l-78 -110h-65l94 143h97zM39 262c0 84.667 22.5 151.5 67.5 200.5s105.167 73.5 180.5 73.5s135.333 -24.5 180 -73.5s67 -115.833 67 -200.5s-22.333 -151.5 -67 -200.5s-104.667 -73.5 -180 -73.5s-135.5 24.5 -180.5 73.5
s-67.5 115.833 -67.5 200.5zM126 262c0 -62 14.5 -111.667 43.5 -149s68.167 -56 117.5 -56c48.667 0 87.5 18.667 116.5 56s43.5 87 43.5 149s-14.5 111.667 -43.5 149s-67.833 56 -116.5 56c-49.333 0 -88.5 -18.667 -117.5 -56s-43.5 -87 -43.5 -149z" />
    <glyph glyph-name="otilde" unicode="&#xf5;" horiz-adv-x="573" 
d="M388 698l51 0.000976562c0 -67.333 -27.667 -101 -83 -101c-24 0 -49.5 9.33301 -76.5 28s-46.167 28 -57.5 28c-12 0 -21.167 -4.33301 -27.5 -13s-9.5 -20.334 -9.5 -35.001h-51c0 29.333 6.5 53.5 19.5 72.5s34.167 28.5 63.5 28.5c24 0 49.5 -9.33301 76.5 -28
s46.167 -28 57.5 -28c24.667 0 37 16 37 48zM39 262.001c0 84.667 22.5 151.5 67.5 200.5s105.167 73.5 180.5 73.5s135.333 -24.5 180 -73.5s67 -115.833 67 -200.5s-22.333 -151.5 -67 -200.5s-104.667 -73.5 -180 -73.5s-135.5 24.5 -180.5 73.5
s-67.5 115.833 -67.5 200.5zM126 262.001c0 -62 14.5 -111.667 43.5 -149s68.167 -56 117.5 -56c48.667 0 87.5 18.667 116.5 56s43.5 87 43.5 149s-14.5 111.667 -43.5 149s-67.833 56 -116.5 56c-49.333 0 -88.5 -18.667 -117.5 -56s-43.5 -87 -43.5 -149z" />
    <glyph glyph-name="odieresis" unicode="&#xf6;" horiz-adv-x="573" 
d="M161 610v106h81v-106h-81zM332 610v106h80v-106h-80zM39 262c0 84.667 22.5 151.5 67.5 200.5s105.167 73.5 180.5 73.5s135.333 -24.5 180 -73.5s67 -115.833 67 -200.5s-22.333 -151.5 -67 -200.5s-104.667 -73.5 -180 -73.5s-135.5 24.5 -180.5 73.5
s-67.5 115.833 -67.5 200.5zM126 262c0 -62 14.5 -111.667 43.5 -149s68.167 -56 117.5 -56c48.667 0 87.5 18.667 116.5 56s43.5 87 43.5 149s-14.5 111.667 -43.5 149s-67.833 56 -116.5 56c-49.333 0 -88.5 -18.667 -117.5 -56s-43.5 -87 -43.5 -149z" />
    <glyph glyph-name="divide" unicode="&#xf7;" horiz-adv-x="499" 
d="M249 442c-12.667 0 -23.334 4.5 -32.001 13.5s-13 19.833 -13 32.5s4.33301 23.5 13 32.5s19.334 13.5 32.001 13.5s23.5 -4.33301 32.5 -13s13.5 -19.667 13.5 -33c0 -12.667 -4.5 -23.5 -13.5 -32.5s-19.833 -13.5 -32.5 -13.5zM59 364h381v-63h-381v63zM249 131
c-12.667 0 -23.334 4.5 -32.001 13.5s-13 19.833 -13 32.5s4.33301 23.5 13 32.5s19.334 13.5 32.001 13.5s23.5 -4.5 32.5 -13.5s13.5 -19.833 13.5 -32.5s-4.5 -23.5 -13.5 -32.5s-19.833 -13.5 -32.5 -13.5z" />
    <glyph glyph-name="oslash" unicode="&#xf8;" horiz-adv-x="573" 
d="M469 461c43.333 -48.667 65 -115 65 -199c0 -84.667 -22.333 -151.5 -67 -200.5s-104.667 -73.5 -180 -73.5c-56.667 0 -104.667 13.667 -144 41l-43 -56l-44 26l48 64c-43.333 50 -65 116.333 -65 199c0 84.667 22.5 151.5 67.5 200.5s105.167 73.5 180.5 73.5
c56 0 103.667 -13.667 143 -41l42 56l45 -26zM126 262c0 -51.333 10.333 -94.667 31 -130l226 301c-26.667 22.667 -58.667 34 -96 34c-49.333 0 -88.5 -18.667 -117.5 -56s-43.5 -87 -43.5 -149zM287 56.999c48.667 0 87.5 18.667 116.5 56s43.5 87 43.5 149
c0 50.667 -10 94 -30 130l-227 -300c26.667 -23.333 59 -35 97 -35z" />
    <glyph glyph-name="ugrave" unicode="&#xf9;" horiz-adv-x="580" 
d="M342 592h-70l-101 143h92zM423 524h88v-524h-81v108c-33.333 -80 -95.666 -120 -186.999 -120c-56.667 0 -100.667 16.667 -132 50s-47 82.333 -47 147v339h87v-313c0 -100.667 40.667 -151 122 -151c47.333 0 84.166 17 110.499 51s39.5 78 39.5 132v281z" />
    <glyph glyph-name="uacute" unicode="&#xfa;" horiz-adv-x="580" 
d="M240 592l79 143h92l-101 -143h-70zM423 524h88v-524h-81v108c-33.333 -80 -95.666 -120 -186.999 -120c-56.667 0 -100.667 16.667 -132 50s-47 82.333 -47 147v339h87v-313c0 -100.667 40.667 -151 122 -151c47.333 0 84.166 17 110.499 51s39.5 78 39.5 132v281z" />
    <glyph glyph-name="ucircumflex" unicode="&#xfb;" horiz-adv-x="580" 
d="M434 592h-65l-78 110l-78 -110h-65l94 143h98zM423 524h88v-524h-81v108c-33.333 -80 -95.666 -120 -186.999 -120c-56.667 0 -100.667 16.667 -132 50s-47 82.333 -47 147v339h87v-313c0 -100.667 40.667 -151 122 -151c47.333 0 84.166 17 110.499 51s39.5 78 39.5 132
v281z" />
    <glyph glyph-name="udieresis" unicode="&#xfc;" horiz-adv-x="580" 
d="M165 610v106h81v-106h-81zM336 610v106h81v-106h-81zM423 524h88v-524h-81v108c-33.333 -80 -95.666 -120 -186.999 -120c-56.667 0 -100.667 16.667 -132 50s-47 82.333 -47 147v339h87v-313c0 -100.667 40.667 -151 122 -151c47.333 0 84.166 17 110.499 51
s39.5 78 39.5 132v281z" />
    <glyph glyph-name="yacute" unicode="&#xfd;" horiz-adv-x="546" 
d="M392 735l-101 -143h-69l79 143h91zM432 524l94 0.000976562l-195 -584c-18 -58 -39.333 -97.833 -64 -119.5s-62 -32.5 -112 -32.5c-16.667 0 -36 1 -58 3v68c24 -1.33301 41.667 -2 53 -2c27.333 0 48 6.66699 62 20s27 38.666 39 75.999l15 47h-49l-198 524h96
l172 -489z" />
    <glyph glyph-name="thorn" unicode="&#xfe;" horiz-adv-x="591" 
d="M69 -200v936h88v-310c17.333 34.667 41.333 61.667 72 81s65.667 29 105 29c65.333 0 118 -24.333 158 -73s60 -115.667 60 -201s-20 -152.333 -60 -201s-92.667 -73 -158 -73c-39.333 0 -74.333 9.66699 -105 29s-54.667 47 -72 83v-300h-88zM152 262
c0 -62 14.167 -111.667 42.5 -149s66.5 -56 114.5 -56s86 18.667 114 56s42 87 42 149s-14 111.667 -42 149s-66 56 -114 56s-86.167 -18.667 -114.5 -56s-42.5 -87 -42.5 -149z" />
    <glyph glyph-name="ydieresis" unicode="&#xff;" horiz-adv-x="546" 
d="M228 716v-106h-81v106h81zM398 716v-106h-80v106h80zM432 524l94 0.000976562l-195 -584c-18 -58 -39.333 -97.833 -64 -119.5s-62 -32.5 -112 -32.5c-16.667 0 -36 1 -58 3v68c24 -1.33301 41.667 -2 53 -2c27.333 0 48 6.66699 62 20s27 38.666 39 75.999l15 47h-49
l-198 524h96l172 -489z" />
    <glyph glyph-name="Amacron" unicode="&#x100;" horiz-adv-x="668" 
d="M487 834v-62h-305v62h305zM554 0l-62 184h-318l-63 -184h-92l245 700h140l245 -700h-95zM333 650l-135 -396h269z" />
    <glyph glyph-name="amacron" unicode="&#x101;" horiz-adv-x="554" 
d="M135 627v61h285v-61h-285zM41 137c0 94 68.667 147.668 206 161.001l156 15v50c0 32.667 -10.5 59.167 -31.5 79.5s-51.833 30.166 -92.5 29.499c-37.333 0 -68 -8.5 -92 -25.5s-37 -42.5 -39 -76.5h-81c2 56.667 22.333 98.5 61 125.5s89 40.5 151 40.5
c68.667 0 121 -16.333 157 -49s54 -79.667 54 -141v-346h-80v108c-16.667 -38 -42 -67.5 -76 -88.5s-75.333 -31.5 -124 -31.5c-56 0 -98.167 13.833 -126.5 41.5s-42.5 63.5 -42.5 107.5zM128 140.001c0 -26 9 -47.332 27 -63.999s45 -25 81 -25
c51.333 0 92 16.167 122 48.5s45 74.166 45 125.499v32l-146 -15c-86 -8 -129 -42 -129 -102z" />
    <glyph glyph-name="Abreve" unicode="&#x102;" horiz-adv-x="668" 
d="M334 759c-46 0 -81.334 11.5 -106.001 34.5s-37.667 53.5 -39 91.5h56c2 -20 9.83301 -36.833 23.5 -50.5s35.5 -20.5 65.5 -20.5s52 6.83301 66 20.5s22 30.5 24 50.5h55c-1.33301 -38 -14.166 -68.5 -38.499 -91.5s-59.833 -34.5 -106.5 -34.5zM553.999 0l-62 184h-318
l-63 -184h-92l245 700h140l245 -700h-95zM332.999 650l-135 -396h269z" />
    <glyph glyph-name="abreve" unicode="&#x103;" horiz-adv-x="554" 
d="M365 731h53.002c-1.33301 -42 -13.833 -75.5 -37.5 -100.5s-58.167 -37.5 -103.5 -37.5c-44.667 0 -78.834 12.5 -102.501 37.5s-36.167 58.5 -37.5 100.5h53c4 -55.333 33 -83 87 -83c53.333 0 82.666 27.667 87.999 83zM41.002 137c0 94 68.667 147.668 206 161.001
l156 15v50c0 32.667 -10.5 59.167 -31.5 79.5s-51.833 30.166 -92.5 29.499c-37.333 0 -68 -8.5 -92 -25.5s-37 -42.5 -39 -76.5h-81c2 56.667 22.333 98.5 61 125.5s89 40.5 151 40.5c68.667 0 121 -16.333 157 -49s54 -79.667 54 -141v-346h-80v108
c-16.667 -38 -42 -67.5 -76 -88.5s-75.333 -31.5 -124 -31.5c-56 0 -98.167 13.833 -126.5 41.5s-42.5 63.5 -42.5 107.5zM128.002 140.001c0 -26 9 -47.332 27 -63.999s45 -25 81 -25c51.333 0 92 16.167 122 48.5s45 74.166 45 125.499v32l-146 -15
c-86 -8 -129 -42 -129 -102z" />
    <glyph glyph-name="Aogonek" unicode="&#x104;" horiz-adv-x="668" 
d="M628 -104l36.999 -9.99902c-5.33301 -26 -16.666 -46.167 -33.999 -60.5s-39 -21.5 -65 -21.5c-24.667 0 -44.5 6.33301 -59.5 19s-22.5 31 -22.5 55c0 28 10 51.167 30 69.5s47.333 35.833 82 52.5h-42l-62 184h-318l-63 -184h-92l245 700h140l245 -700
c-22.667 -14 -40.5 -25.833 -53.5 -35.5s-25 -21.834 -36 -36.501s-16.5 -29.667 -16.5 -45c0 -25.333 11.667 -38 35 -38c27.333 0 44 17 50 51zM332.999 650.001l-135 -396h269z" />
    <glyph glyph-name="aogonek" unicode="&#x105;" horiz-adv-x="554" 
d="M469 -104l38.001 -9.99805c-12 -54.667 -45.333 -82 -100 -82c-24.667 0 -44.5 6.33301 -59.5 19s-22.5 31 -22.5 55c0 28 10 51.167 30 69.5s47.333 35.833 82 52.5h-27v108c-16.667 -38 -42 -67.5 -76 -88.5s-75.333 -31.5 -124 -31.5
c-56 0 -98.167 13.833 -126.5 41.5s-42.5 63.5 -42.5 107.5c0 94 68.667 147.667 206 161l156 15v50c0 32.667 -10.5 59.167 -31.5 79.5s-51.833 30.166 -92.5 29.499c-37.333 0 -68 -8.5 -92 -25.5s-37 -42.5 -39 -76.5h-81c2 56.667 22.333 98.5 61 125.5
s89 40.5 151 40.5c68.667 0 121 -16.333 157 -49s54 -79.667 54 -141v-346c-22.667 -14 -40.5 -25.833 -53.5 -35.5s-25 -21.834 -36 -36.501s-16.5 -29.667 -16.5 -45c0 -25.333 12 -38 36 -38c27.333 0 43.666 17 48.999 51zM403.001 225.002v32.001l-146 -15
c-86 -8 -129 -42 -129 -102c0 -26 9 -47.333 27 -64s45 -25 81 -25c51.333 0 92 16.167 122 48.5s45 74.166 45 125.499z" />
    <glyph glyph-name="Cacute" unicode="&#x106;" horiz-adv-x="665" 
d="M292 763l89 116h92l-110 -116h-71zM44 350c0 108 26.1719 195.334 78.5049 262.001s126.166 100 221.499 100c77.333 0 140.666 -20.833 189.999 -62.5s78.666 -97.834 87.999 -168.501l-87 -9c-6.66699 50 -27.667 90 -63 120s-78 45 -128 45
c-67.333 0 -118.833 -27.5 -154.5 -82.5s-53.5 -123.167 -53.5 -204.5c0 -83.333 18.833 -152 56.5 -206s90.834 -81 159.501 -81c53.333 0 96.666 16.5 129.999 49.5s53.333 75.167 60 126.5l87 -7c-8.66699 -73.333 -36.834 -132.333 -84.501 -177
s-111.834 -67 -192.501 -67c-98.667 0 -174.667 33 -228 99s-80 153.667 -80 263z" />
    <glyph glyph-name="cacute" unicode="&#x107;" horiz-adv-x="542" 
d="M221 592l79 143h92l-101 -143h-70zM39 262c0 87.333 21.667 154.834 65 202.501s102 71.5 176 71.5c60 0 110.5 -16 151.5 -48s65.5 -77.667 73.5 -137l-84 -8c-6.66699 40.667 -22.834 71.5 -48.501 92.5s-56.5 31.5 -92.5 31.5c-46.667 0 -84 -18.167 -112 -54.5
s-42 -86.5 -42 -150.5s14.167 -114.167 42.5 -150.5s66.166 -54.5 113.499 -54.5c37.333 0 68.833 11.167 94.5 33.5s42.167 54.166 49.5 95.499l84 -7c-8 -60.667 -32.667 -107.667 -74 -141s-92.666 -50 -153.999 -50c-75.333 0 -134.666 23.667 -177.999 71
s-65 115 -65 203z" />
    <glyph glyph-name="Cdotaccent" unicode="&#x10a;" horiz-adv-x="665" 
d="M283 764v97h99v-97h-99zM44 350c0 108 26.1719 195.334 78.5049 262.001s126.166 100 221.499 100c77.333 0 140.666 -20.833 189.999 -62.5s78.666 -97.834 87.999 -168.501l-87 -9c-6.66699 50 -27.667 90 -63 120s-78 45 -128 45
c-67.333 0 -118.833 -27.5 -154.5 -82.5s-53.5 -123.167 -53.5 -204.5c0 -83.333 18.833 -152 56.5 -206s90.834 -81 159.501 -81c53.333 0 96.666 16.5 129.999 49.5s53.333 75.167 60 126.5l87 -7c-8.66699 -73.333 -36.834 -132.333 -84.501 -177
s-111.834 -67 -192.501 -67c-98.667 0 -174.667 33 -228 99s-80 153.667 -80 263z" />
    <glyph glyph-name="cdotaccent" unicode="&#x10b;" horiz-adv-x="542" 
d="M226 610v112h92v-112h-92zM39 262c0 87.333 21.667 154.834 65 202.501s102 71.5 176 71.5c60 0 110.5 -16 151.5 -48s65.5 -77.667 73.5 -137l-84 -8c-6.66699 40.667 -22.834 71.5 -48.501 92.5s-56.5 31.5 -92.5 31.5c-46.667 0 -84 -18.167 -112 -54.5
s-42 -86.5 -42 -150.5s14.167 -114.167 42.5 -150.5s66.166 -54.5 113.499 -54.5c37.333 0 68.833 11.167 94.5 33.5s42.167 54.166 49.5 95.499l84 -7c-8 -60.667 -32.667 -107.667 -74 -141s-92.666 -50 -153.999 -50c-75.333 0 -134.666 23.667 -177.999 71
s-65 115 -65 203z" />
    <glyph glyph-name="Ccaron" unicode="&#x10c;" horiz-adv-x="665" 
d="M418 879h66l-99 -117h-104l-100 117h67l85 -88zM44 350c0 108 26.1719 195.334 78.5049 262.001s126.166 100 221.499 100c77.333 0 140.666 -20.833 189.999 -62.5s78.666 -97.834 87.999 -168.501l-87 -9c-6.66699 50 -27.667 90 -63 120s-78 45 -128 45
c-67.333 0 -118.833 -27.5 -154.5 -82.5s-53.5 -123.167 -53.5 -204.5c0 -83.333 18.833 -152 56.5 -206s90.834 -81 159.501 -81c53.333 0 96.666 16.5 129.999 49.5s53.333 75.167 60 126.5l87 -7c-8.66699 -73.333 -36.834 -132.333 -84.501 -177
s-111.834 -67 -192.501 -67c-98.667 0 -174.667 33 -228 99s-80 153.667 -80 263z" />
    <glyph glyph-name="ccaron" unicode="&#x10d;" horiz-adv-x="542" 
d="M350 732h65l-94 -143h-98l-94 143h65l78 -110zM39 262c0 87.333 21.667 154.834 65 202.501s102 71.5 176 71.5c60 0 110.5 -16 151.5 -48s65.5 -77.667 73.5 -137l-84 -8c-6.66699 40.667 -22.834 71.5 -48.501 92.5s-56.5 31.5 -92.5 31.5
c-46.667 0 -84 -18.167 -112 -54.5s-42 -86.5 -42 -150.5s14.167 -114.167 42.5 -150.5s66.166 -54.5 113.499 -54.5c37.333 0 68.833 11.167 94.5 33.5s42.167 54.166 49.5 95.499l84 -7c-8 -60.667 -32.667 -107.667 -74 -141s-92.666 -50 -153.999 -50
c-75.333 0 -134.666 23.667 -177.999 71s-65 115 -65 203z" />
    <glyph glyph-name="Dcaron" unicode="&#x10e;" horiz-adv-x="690" 
d="M430 879h67l-100 -117h-104l-100 117h67l85 -88zM84 0v700h256c96.667 0 171.667 -30.833 225 -92.5s80 -147.5 80 -257.5s-26.667 -195.833 -80 -257.5s-128.333 -92.5 -225 -92.5h-256zM176 75h155c71.333 0 126.166 24.333 164.499 73s57.5 116 57.5 202
s-19.167 153.333 -57.5 202s-93.166 73 -164.499 73h-155v-550z" />
    <glyph glyph-name="dcaron" unicode="&#x10f;" horiz-adv-x="608" 
d="M39 262c0 84.667 20.167 151.5 60.5 200.5s92.833 73.5 157.5 73.5c39.333 0 74.333 -9.66699 105 -29s54.667 -46.333 72 -81v310h88v-736h-81v114c-16.667 -40 -41 -71 -73 -93s-69 -33 -111 -33c-64.667 0 -117.167 24.5 -157.5 73.5s-60.5 115.833 -60.5 200.5z
M584 583v153h67v-54l-33 -99h-34zM126 262c0 -62 14 -111.667 42 -149s66 -56 114 -56s86.167 18.667 114.5 56s42.5 87 42.5 149s-14.167 111.667 -42.5 149s-66.5 56 -114.5 56s-86 -18.667 -114 -56s-42 -87 -42 -149z" />
    <glyph glyph-name="Dcroat" unicode="&#x110;" horiz-adv-x="704" 
d="M354 700c97.333 0 172.666 -30.833 225.999 -92.5s80 -147.5 80 -257.5s-26.667 -195.833 -80 -257.5s-128.666 -92.5 -225.999 -92.5h-255v317h-68v66h68v317h255zM346 75c71.333 0 126.166 24.5 164.499 73.5s57.5 116.167 57.5 201.5s-19.167 152.5 -57.5 201.5
s-93.166 73.5 -164.499 73.5h-155v-242h195v-66h-195v-242h155z" />
    <glyph glyph-name="dcroat" unicode="&#x111;" horiz-adv-x="591" 
d="M583 647v-46h-61v-601h-81v114c-16.667 -40 -41 -71 -73 -93s-69 -33 -111 -33c-64.667 0 -117.167 24.5 -157.5 73.5s-60.5 115.833 -60.5 200.5s20.167 151.5 60.5 200.5s92.833 73.5 157.5 73.5c39.333 0 74.333 -9.66699 105 -29s54.667 -46.333 72 -81v175h-188v46
h188v89h88v-89h61zM282 57c48 0 86.167 18.667 114.5 56s42.5 87 42.5 149s-14.167 111.667 -42.5 149s-66.5 56 -114.5 56s-86 -18.667 -114 -56s-42 -87 -42 -149s14 -111.667 42 -149s66 -56 114 -56z" />
    <glyph glyph-name="Emacron" unicode="&#x112;" horiz-adv-x="609" 
d="M155 772v62h304v-62h-304zM84 0v700h468v-73h-376v-236h298v-70h-298v-248h390v-73h-482z" />
    <glyph glyph-name="emacron" unicode="&#x113;" horiz-adv-x="559" 
d="M135 627v61h284v-61h-284zM39 262c0 89.333 22.5 157.333 67.5 204s104.833 70 179.5 70c76.667 0 135.167 -23.667 175.5 -71s60.5 -119.333 60.5 -216v-12h-395c3.33301 -60 19.833 -105.833 49.5 -137.5s68.5 -47.5 116.5 -47.5c68 0 114.333 30 139 90l83 -5
c-14 -46.667 -40 -83.167 -78 -109.5s-86 -39.5 -144 -39.5c-78 0 -139.833 23.167 -185.5 69.5s-68.5 114.5 -68.5 204.5zM128 295l307 -0.00195312c-0.666992 54.667 -14.5 97.834 -41.5 129.501s-62.833 47.5 -107.5 47.5c-44 0 -80.333 -15.167 -109 -45.5
s-45 -74.166 -49 -131.499z" />
    <glyph glyph-name="Edotaccent" unicode="&#x116;" horiz-adv-x="609" 
d="M258 764v97h99v-97h-99zM84 0v700h468v-73h-376v-236h298v-70h-298v-248h390v-73h-482z" />
    <glyph glyph-name="edotaccent" unicode="&#x117;" horiz-adv-x="559" 
d="M231 610v112h92v-112h-92zM39 262c0 89.333 22.5 157.333 67.5 204s104.833 70 179.5 70c76.667 0 135.167 -23.667 175.5 -71s60.5 -119.333 60.5 -216v-12h-395c3.33301 -60 19.833 -105.833 49.5 -137.5s68.5 -47.5 116.5 -47.5c68 0 114.333 30 139 90l83 -5
c-14 -46.667 -40 -83.167 -78 -109.5s-86 -39.5 -144 -39.5c-78 0 -139.833 23.167 -185.5 69.5s-68.5 114.5 -68.5 204.5zM128 295l307 -0.00195312c-0.666992 54.667 -14.5 97.834 -41.5 129.501s-62.833 47.5 -107.5 47.5c-44 0 -80.333 -15.167 -109 -45.5
s-45 -74.166 -49 -131.499z" />
    <glyph glyph-name="Eogonek" unicode="&#x118;" horiz-adv-x="609" 
d="M548 0c-22.667 -14 -40.5 -25.832 -53.5 -35.499s-25 -21.834 -36 -36.501s-16.5 -29.667 -16.5 -45c0 -25.333 11.667 -38 35 -38c27.333 0 44 17 50 51l37 -10c-12 -54.667 -45 -82 -99 -82c-24.667 0 -44.667 6.33301 -60 19s-23 31 -23 55
c0 28.667 10 52.167 30 70.5s47.667 35.5 83 51.5h-411v700h468v-73h-376v-236h298v-70h-298v-248h390v-73h-18z" />
    <glyph glyph-name="eogonek" unicode="&#x119;" horiz-adv-x="559" 
d="M522 249v-12h-395c3.33301 -60 19.833 -105.833 49.5 -137.5s68.5 -47.5 116.5 -47.5c68 0 114.333 30 139 90l83 -5c-14 -50 -42.333 -88 -85 -114c-56.667 -36.667 -94 -64 -112 -82s-27 -37.333 -27 -58c0 -25.333 11.667 -38 35 -38c27.333 0 44 17 50 51l37 -10
c-5.33301 -26 -16.666 -46.167 -33.999 -60.5s-39 -21.5 -65 -21.5c-24.667 0 -44.667 6.33301 -60 19s-23 31 -23 55c0 44 30.333 81 91 111c-6.66699 -0.666992 -16.334 -1 -29.001 -1c-78 0 -139.833 23.167 -185.5 69.5s-68.5 114.5 -68.5 204.5
c0 89.333 22.5 157.333 67.5 204s104.833 70 179.5 70c76.667 0 135.167 -23.667 175.5 -71s60.5 -119.333 60.5 -216zM128 295l307 -0.00195312c-0.666992 54.667 -14.5 97.834 -41.5 129.501s-62.833 47.5 -107.5 47.5c-44 0 -80.333 -15.167 -109 -45.5
s-45 -74.166 -49 -131.499z" />
    <glyph glyph-name="Ecaron" unicode="&#x11a;" horiz-adv-x="609" 
d="M392 879h67l-100 -117h-104l-99 117h66l85 -88zM84 0v700h468v-73h-376v-236h298v-70h-298v-248h390v-73h-482z" />
    <glyph glyph-name="ecaron" unicode="&#x11b;" horiz-adv-x="559" 
d="M355 732h65l-94 -143h-98l-94 143h65l78 -110zM39 262c0 89.333 22.5 157.333 67.5 204s104.833 70 179.5 70c76.667 0 135.167 -23.667 175.5 -71s60.5 -119.333 60.5 -216v-12h-395c3.33301 -60 19.833 -105.833 49.5 -137.5s68.5 -47.5 116.5 -47.5
c68 0 114.333 30 139 90l83 -5c-14 -46.667 -40 -83.167 -78 -109.5s-86 -39.5 -144 -39.5c-78 0 -139.833 23.167 -185.5 69.5s-68.5 114.5 -68.5 204.5zM128 295l307 -0.00195312c-0.666992 54.667 -14.5 97.834 -41.5 129.501s-62.833 47.5 -107.5 47.5
c-44 0 -80.333 -15.167 -109 -45.5s-45 -74.166 -49 -131.499z" />
    <glyph glyph-name="Gbreve" unicode="&#x11e;" horiz-adv-x="678" 
d="M429 885h54.998c-1.33301 -38 -14.166 -68.5 -38.499 -91.5s-59.833 -34.5 -106.5 -34.5s-82.167 11.5 -106.5 34.5s-37.166 53.5 -38.499 91.5h55c5.33301 -47.333 35.333 -71 90 -71s84.667 23.667 90 71zM43.998 350c0 108 26.1641 195.333 78.4971 262
s126.5 100 222.5 100c74 0 135.5 -19.5 184.5 -58.5s79.167 -91.833 90.5 -158.5l-87 -8c-9.33301 45.333 -31.166 81.666 -65.499 108.999s-75.166 41 -122.499 41c-46 0 -85.167 -13.667 -117.5 -41s-55.666 -62.166 -69.999 -104.499s-21.5 -89.5 -21.5 -141.5
c0 -83.333 20.667 -152 62 -206s100.333 -81 177 -81c60 0 117.333 13.667 172 41v188h-191v64h275v-302c-86.667 -44 -173 -66 -259 -66c-106 0 -187.167 33.167 -243.5 99.5s-84.5 153.833 -84.5 262.5z" />
    <glyph glyph-name="gbreve" unicode="&#x11f;" horiz-adv-x="587" 
d="M380 731h52.998c-1.33301 -42 -13.666 -75.5 -36.999 -100.5s-57.666 -37.5 -102.999 -37.5s-79.833 12.5 -103.5 37.5s-36.167 58.5 -37.5 100.5h53c4 -55.333 33.333 -83 88 -83c54 0 83 27.667 87 83zM38.998 273c0 79.333 20.499 143 61.499 191s94.167 72 159.5 72
c40 0 75.5 -9.83301 106.5 -29.5s54.5 -47.167 70.5 -82.5v100h81v-486c0 -86 -18.5 -149.167 -55.5 -189.5s-95.167 -60.5 -174.5 -60.5c-66 0 -118 14.167 -156 42.5s-58 70.833 -60 127.5h81c2 -34 14.833 -59.667 38.5 -77s55.834 -26 96.501 -26
c50.667 0 87 13.5 109 40.5s33 66.833 33 119.5v95c-35.333 -66.667 -92 -100 -170 -100c-65.333 0 -118.5 24 -159.5 72s-61.5 111.667 -61.5 191zM125.997 271c0 -58 14.333 -104.833 43 -140.5s66.334 -53.5 113.001 -53.5c47.333 0 85.333 17.833 114 53.5
s43 82.5 43 140.5s-14.333 105.167 -43 141.5s-66.667 54.5 -114 54.5c-46.667 0 -84.334 -18.167 -113.001 -54.5s-43 -83.5 -43 -141.5z" />
    <glyph glyph-name="Gdotaccent" unicode="&#x120;" horiz-adv-x="678" 
d="M290 764v97h99v-97h-99zM44 350c0 108 26.1641 195.333 78.4971 262s126.5 100 222.5 100c74 0 135.5 -19.5 184.5 -58.5s79.167 -91.833 90.5 -158.5l-87 -8c-9.33301 45.333 -31.166 81.666 -65.499 108.999s-75.166 41 -122.499 41c-46 0 -85.167 -13.667 -117.5 -41
s-55.666 -62.166 -69.999 -104.499s-21.5 -89.5 -21.5 -141.5c0 -83.333 20.667 -152 62 -206s100.333 -81 177 -81c60 0 117.333 13.667 172 41v188h-191v64h275v-302c-86.667 -44 -173 -66 -259 -66c-106 0 -187.167 33.167 -243.5 99.5s-84.5 153.833 -84.5 262.5z" />
    <glyph glyph-name="gdotaccent" unicode="&#x121;" horiz-adv-x="587" 
d="M246 610v112h93v-112h-93zM39 273c0 79.333 20.499 143 61.499 191s94.167 72 159.5 72c40 0 75.5 -9.83301 106.5 -29.5s54.5 -47.167 70.5 -82.5v100h81v-486c0 -86 -18.5 -149.167 -55.5 -189.5s-95.167 -60.5 -174.5 -60.5c-66 0 -118 14.167 -156 42.5
s-58 70.833 -60 127.5h81c2 -34 14.833 -59.667 38.5 -77s55.834 -26 96.501 -26c50.667 0 87 13.5 109 40.5s33 66.833 33 119.5v95c-35.333 -66.667 -92 -100 -170 -100c-65.333 0 -118.5 24 -159.5 72s-61.5 111.667 -61.5 191zM125.999 271
c0 -58 14.333 -104.833 43 -140.5s66.334 -53.5 113.001 -53.5c47.333 0 85.333 17.833 114 53.5s43 82.5 43 140.5s-14.333 105.167 -43 141.5s-66.667 54.5 -114 54.5c-46.667 0 -84.334 -18.167 -113.001 -54.5s-43 -83.5 -43 -141.5z" />
    <glyph glyph-name="Gcommaaccent" unicode="&#x122;" horiz-adv-x="678" 
d="M44 350c0 108 26.1641 195.333 78.4971 262s126.5 100 222.5 100c74 0 135.5 -19.5 184.5 -58.5s79.167 -91.833 90.5 -158.5l-87 -8c-9.33301 45.333 -31.166 81.666 -65.499 108.999s-75.166 41 -122.499 41c-46 0 -85.167 -13.667 -117.5 -41
s-55.666 -62.166 -69.999 -104.499s-21.5 -89.5 -21.5 -141.5c0 -83.333 20.667 -152 62 -206s100.333 -81 177 -81c60 0 117.333 13.667 172 41v188h-191v64h275v-302c-86.667 -44 -173 -66 -259 -66c-106 0 -187.167 33.167 -243.5 99.5s-84.5 153.833 -84.5 262.5z
M308.997 -214v161h80v-57l-41 -104h-39z" />
    <glyph glyph-name="gcommaaccent" unicode="&#x123;" horiz-adv-x="587" 
d="M333 775v-161h-81v58l42 103h39zM39 273c0 79.333 20.499 143 61.499 191s94.167 72 159.5 72c40 0 75.5 -9.83301 106.5 -29.5s54.5 -47.167 70.5 -82.5v100h81v-486c0 -86 -18.5 -149.167 -55.5 -189.5s-95.167 -60.5 -174.5 -60.5c-66 0 -118 14.167 -156 42.5
s-58 70.833 -60 127.5h81c2 -34 14.833 -59.667 38.5 -77s55.834 -26 96.501 -26c50.667 0 87 13.5 109 40.5s33 66.833 33 119.5v95c-35.333 -66.667 -92 -100 -170 -100c-65.333 0 -118.5 24 -159.5 72s-61.5 111.667 -61.5 191zM125.999 271
c0 -58 14.333 -104.833 43 -140.5s66.334 -53.5 113.001 -53.5c47.333 0 85.333 17.833 114 53.5s43 82.5 43 140.5s-14.333 105.167 -43 141.5s-66.667 54.5 -114 54.5c-46.667 0 -84.334 -18.167 -113.001 -54.5s-43 -83.5 -43 -141.5z" />
    <glyph glyph-name="Hbar" unicode="&#x126;" horiz-adv-x="713" 
d="M697 581v-55h-68v-526h-92v318h-361v-318h-92v526h-68v55h68v119h92v-119h361v119h92v-119h68zM537 394v132h-361v-132h361z" />
    <glyph glyph-name="hbar" unicode="&#x127;" horiz-adv-x="581" 
d="M338 536c58 0 102.333 -15.833 133 -47.5s46 -79.167 46 -142.5v-346h-88v318c0 97.333 -40.333 146 -121 146c-48 0 -85 -15.5 -111 -46.5s-39 -73.167 -39 -126.5v-291h-88v601h-61v46h61v89h88v-89h187v-46h-187v-164c34 66 94 99 180 99z" />
    <glyph glyph-name="Imacron" unicode="&#x12a;" horiz-adv-x="261" 
d="M-22 772v62h305v-62h-305zM84 0v700h92v-700h-92z" />
    <glyph glyph-name="imacron" unicode="&#x12b;" horiz-adv-x="226" 
d="M-9 627v61h244v-61h-244zM69 0v524h88v-524h-88z" />
    <glyph glyph-name="Iogonek" unicode="&#x12e;" horiz-adv-x="261" 
d="M165 -104l36.999 -9.99805c-5.33301 -26 -16.666 -46.167 -33.999 -60.5s-39 -21.5 -65 -21.5c-24.667 0 -44.667 6.5 -60 19.5s-23 32.167 -23 57.5c0 27.333 9.16699 50.166 27.5 68.499s43.833 35.166 76.5 50.499h-40v700h92v-700c-64 -40 -96 -78.333 -96 -115
c0 -26.667 11.667 -40 35 -40c27.333 0 44 17 50 51z" />
    <glyph glyph-name="iogonek" unicode="&#x12f;" horiz-adv-x="227" 
d="M159 722v-112h-93v112h93zM145 -104l36.999 -9.99805c-5.33301 -26 -16.666 -46.167 -33.999 -60.5s-39 -21.5 -65 -21.5c-24.667 0 -44.5 6.5 -59.5 19.5s-22.5 32.167 -22.5 57.5c0 27.333 9 50.166 27 68.499s43.333 35.166 76 50.499h-35v524h88v-524
c-64.667 -40 -97 -78.333 -97 -115c0 -26.667 11.667 -40 35 -40c27.333 0 44 17 50 51z" />
    <glyph glyph-name="Idotaccent" unicode="&#x130;" horiz-adv-x="261" 
d="M81 764v97h99v-97h-99zM84 0v700h92v-700h-92z" />
    <glyph glyph-name="dotlessi" unicode="&#x131;" horiz-adv-x="233" 
d="M73 0v524h87v-524h-87z" />
    <glyph glyph-name="Kcommaaccent" unicode="&#x136;" horiz-adv-x="668" 
d="M359 360l286 -360h-110l-247 318h-112v-318h-92v700h92v-310h111l232 310h106zM290 -214v161h80v-57l-41 -104h-39z" />
    <glyph glyph-name="kcommaaccent" unicode="&#x137;" horiz-adv-x="545" 
d="M294 272l240 -272h-109l-196 231h-72v-231h-88v736h88v-436h74l185 224h106zM234 -214v161h80v-57l-41 -104h-39z" />
    <glyph glyph-name="Lacute" unicode="&#x139;" horiz-adv-x="548" 
d="M92 763l89 116h92l-110 -116h-71zM84 0v700h92v-625h339v-75h-431z" />
    <glyph glyph-name="lacute" unicode="&#x13a;" horiz-adv-x="226" 
d="M72 799l89 116h92l-110 -116h-71zM69 736h88v-736h-88v736z" />
    <glyph glyph-name="Lcommaaccent" unicode="&#x13b;" horiz-adv-x="548" 
d="M84 0v700h92v-625h339v-75h-431zM234 -214v161h81v-57l-42 -104h-39z" />
    <glyph glyph-name="lcommaaccent" unicode="&#x13c;" horiz-adv-x="226" 
d="M69 736h88v-736h-88v736zM73 -214v161h80v-57l-42 -104h-38z" />
    <glyph glyph-name="Lcaron" unicode="&#x13d;" horiz-adv-x="548" 
d="M84 0v700h92v-625h339v-75h-431zM272 547v153h67v-54l-33 -99h-34z" />
    <glyph glyph-name="lcaron" unicode="&#x13e;" horiz-adv-x="243" 
d="M69 736h88v-736h-88v736zM219 583v153h66v-54l-33 -99h-33z" />
    <glyph glyph-name="Ldot" unicode="&#x13f;" horiz-adv-x="548" 
d="M84 0v700h92v-625h339v-75h-431zM297 307v115h102v-115h-102z" />
    <glyph glyph-name="ldot" unicode="&#x140;" horiz-adv-x="333" 
d="M69 736h88v-736h-88v736zM222 252v115h101v-115h-101z" />
    <glyph glyph-name="Lslash" unicode="&#x141;" horiz-adv-x="579" 
d="M207 75h339v-75h-431v282l-85 -35v61l85 35v357h92v-319l195 81v-61l-195 -81v-245z" />
    <glyph glyph-name="lslash" unicode="&#x142;" horiz-adv-x="257" 
d="M225 490v-65l-53 -49v-376h-88v294l-52 -48v65l52 49v376h88v-294z" />
    <glyph glyph-name="Nacute" unicode="&#x143;" horiz-adv-x="724" 
d="M503 879l-111 -116h-70l88 116h93zM551 700h89v-700h-155l-312 645v-645h-89v700h155l312 -645v645z" />
    <glyph glyph-name="nacute" unicode="&#x144;" horiz-adv-x="580" 
d="M238 592l79 143h92l-101 -143h-70zM69 0v524h81v-101c32 75.333 94.333 113 187 113c58 0 102.333 -15.833 133 -47.5s46 -79.167 46 -142.5v-346h-88v318c0 97.333 -40.333 146 -121 146c-48 0 -85 -15.5 -111 -46.5s-39 -73.167 -39 -126.5v-291h-88z" />
    <glyph glyph-name="Ncommaaccent" unicode="&#x145;" horiz-adv-x="724" 
d="M551 700h89v-700h-155l-312 645v-645h-89v700h155l312 -645v645zM322 -214v161h81v-57l-42 -104h-39z" />
    <glyph glyph-name="ncommaaccent" unicode="&#x146;" horiz-adv-x="580" 
d="M69 0v524h81v-101c32 75.333 94.333 113 187 113c58 0 102.333 -15.833 133 -47.5s46 -79.167 46 -142.5v-346h-88v318c0 97.333 -40.333 146 -121 146c-48 0 -85 -15.5 -111 -46.5s-39 -73.167 -39 -126.5v-291h-88zM249 -214v161h80v-57l-41 -104h-39z" />
    <glyph glyph-name="Ncaron" unicode="&#x147;" horiz-adv-x="724" 
d="M414 762h-104l-99 117h66l85 -88l85 88h67zM551 700h89v-700h-155l-312 645v-645h-89v700h155l312 -645v645z" />
    <glyph glyph-name="ncaron" unicode="&#x148;" horiz-adv-x="580" 
d="M367 732h65l-94 -143h-98l-94 143h65l78 -110zM69 0v524h81v-101c32 75.333 94.333 113 187 113c58 0 102.333 -15.833 133 -47.5s46 -79.167 46 -142.5v-346h-88v318c0 97.333 -40.333 146 -121 146c-48 0 -85 -15.5 -111 -46.5s-39 -73.167 -39 -126.5v-291h-88z" />
    <glyph glyph-name="Eng" unicode="&#x14a;" horiz-adv-x="724" 
d="M551 700h89.001v-740c0 -116 -62 -174 -186 -174c-16.667 0 -40.334 1.33301 -71.001 4v73c14 -2.66699 31 -4 51 -4c78 0 117 37 117 111v30h-66l-312 645v-645h-89v700h155l312 -645v645z" />
    <glyph glyph-name="eng" unicode="&#x14b;" horiz-adv-x="580" 
d="M69 0l0.00195312 523.999h81v-101c32 75.333 94.333 113 187 113c58 0 102.333 -15.833 133 -47.5s46 -79.167 46 -142.5v-431c0 -46 -9.33301 -78.667 -28 -98s-50 -29 -94 -29c-14.667 0 -37.334 1.33301 -68.001 4v70c21.333 -1.33301 34.666 -2 39.999 -2
c23.333 0 39.5 5.33301 48.5 16s13.5 31.334 13.5 62.001v380c0 97.333 -40.333 146 -121 146c-48 0 -85 -15.5 -111 -46.5s-39 -73.167 -39 -126.5v-291h-88z" />
    <glyph glyph-name="Omacron" unicode="&#x14c;" horiz-adv-x="713" 
d="M204 772v62h305v-62h-305zM44 350c0 108 27.167 195.333 81.5 262s131.166 100 230.499 100c100 0 177.167 -33.333 231.5 -100s81.5 -154 81.5 -262s-27.167 -195.333 -81.5 -262s-131.5 -100 -231.5 -100c-99.333 0 -176.166 33.333 -230.499 100s-81.5 154 -81.5 262z
M136 350c0 -84 19.333 -152.833 58 -206.5s92.667 -80.5 162 -80.5c70 0 124.333 26.833 163 80.5s58 122.5 58 206.5s-19.333 152.833 -58 206.5s-93 80.5 -163 80.5c-69.333 0 -123.333 -26.833 -162 -80.5s-58 -122.5 -58 -206.5z" />
    <glyph glyph-name="omacron" unicode="&#x14d;" horiz-adv-x="573" 
d="M144 627v61h285v-61h-285zM39 262c0 84.667 22.5 151.5 67.5 200.5s105.167 73.5 180.5 73.5s135.333 -24.5 180 -73.5s67 -115.833 67 -200.5s-22.333 -151.5 -67 -200.5s-104.667 -73.5 -180 -73.5s-135.5 24.5 -180.5 73.5s-67.5 115.833 -67.5 200.5zM126 262
c0 -62 14.5 -111.667 43.5 -149s68.167 -56 117.5 -56c48.667 0 87.5 18.667 116.5 56s43.5 87 43.5 149s-14.5 111.667 -43.5 149s-67.833 56 -116.5 56c-49.333 0 -88.5 -18.667 -117.5 -56s-43.5 -87 -43.5 -149z" />
    <glyph glyph-name="Ohungarumlaut" unicode="&#x150;" horiz-adv-x="713" 
d="M222 763l79 116h80l-87 -116h-72zM382 763l79 116h79l-87 -116h-71zM44 350c0 108 27.167 195.333 81.5 262s131.166 100 230.499 100c100 0 177.167 -33.333 231.5 -100s81.5 -154 81.5 -262s-27.167 -195.333 -81.5 -262s-131.5 -100 -231.5 -100
c-99.333 0 -176.166 33.333 -230.499 100s-81.5 154 -81.5 262zM136 350c0 -84 19.333 -152.833 58 -206.5s92.667 -80.5 162 -80.5c70 0 124.333 26.833 163 80.5s58 122.5 58 206.5s-19.333 152.833 -58 206.5s-93 80.5 -163 80.5c-69.333 0 -123.333 -26.833 -162 -80.5
s-58 -122.5 -58 -206.5z" />
    <glyph glyph-name="ohungarumlaut" unicode="&#x151;" horiz-adv-x="573" 
d="M166 592l74 143h71l-80 -143h-65zM309 592l74 143h71l-80 -143h-65zM39 262c0 84.667 22.5 151.5 67.5 200.5s105.167 73.5 180.5 73.5s135.333 -24.5 180 -73.5s67 -115.833 67 -200.5s-22.333 -151.5 -67 -200.5s-104.667 -73.5 -180 -73.5s-135.5 24.5 -180.5 73.5
s-67.5 115.833 -67.5 200.5zM126 262c0 -62 14.5 -111.667 43.5 -149s68.167 -56 117.5 -56c48.667 0 87.5 18.667 116.5 56s43.5 87 43.5 149s-14.5 111.667 -43.5 149s-67.833 56 -116.5 56c-49.333 0 -88.5 -18.667 -117.5 -56s-43.5 -87 -43.5 -149z" />
    <glyph glyph-name="OE" unicode="&#x152;" horiz-adv-x="1017" 
d="M44 350c0 110 26.667 195.833 80 257.5s128.666 92.5 225.999 92.5h610v-73h-375v-236h297v-70h-297v-248h389v-73h-624c-97.333 -0 -172.666 30.833 -225.999 92.5s-80 147.5 -80 257.5zM136 350c0 -85.333 19.167 -152.5 57.5 -201.5s93.166 -73.5 164.499 -73.5h135
v550h-135c-71.333 0 -126.166 -24.5 -164.499 -73.5s-57.5 -116.167 -57.5 -201.5z" />
    <glyph glyph-name="oe" unicode="&#x153;" horiz-adv-x="967" 
d="M930 249v-12h-395c3.33301 -60 19.833 -105.833 49.5 -137.5s68.5 -47.5 116.5 -47.5c69.333 0 115.666 30 138.999 90l83 -5c-13.333 -46.667 -38.833 -83.167 -76.5 -109.5s-85.167 -39.5 -142.5 -39.5c-105.333 0 -176.666 43.667 -213.999 131
c-38 -87.333 -106.667 -131 -206 -131c-74 0 -133.333 24.5 -178 73.5s-67 115.833 -67 200.5s22.333 151.5 67 200.5s104 73.5 178 73.5c99.333 0 168 -43.667 206 -131c36 87.333 105 131 207 131c75.333 0 133 -23.833 173 -71.5s60 -119.5 60 -215.5zM536 295
l308 -0.00195312c-1.33301 54.667 -15.5 97.834 -42.5 129.501s-62.833 47.5 -107.5 47.5c-44 0 -80.167 -15.167 -108.5 -45.5s-44.833 -74.166 -49.5 -131.499zM287 56.998c48.667 0 87.5 18.667 116.5 56s43.5 87 43.5 149s-14.5 111.667 -43.5 149s-67.833 56 -116.5 56
c-49.333 0 -88.5 -18.667 -117.5 -56s-43.5 -87 -43.5 -149s14.5 -111.667 43.5 -149s68.167 -56 117.5 -56z" />
    <glyph glyph-name="Racute" unicode="&#x154;" horiz-adv-x="661" 
d="M471 879l-110 -116h-71l89 116h92zM634 0h-111l-205 288h-142v-288h-92v700h286c68 0 124.333 -17.167 169 -51.5s67 -86.5 67 -156.5c0 -62 -17.5 -109.667 -52.5 -143s-81.167 -53 -138.5 -59zM176 358h184c47.333 0 84.833 11.333 112.5 34s41.5 56 41.5 100
s-13.833 77.333 -41.5 100s-65.167 34 -112.5 34h-184v-268z" />
    <glyph glyph-name="racute" unicode="&#x155;" horiz-adv-x="398" 
d="M154 592l79 143h91l-101 -143h-69zM307 534c14.667 0 34 -2 58 -6v-80c-22 4 -44.667 6 -68 6c-47.333 0 -82.5 -15.333 -105.5 -46s-34.5 -78 -34.5 -142v-266h-88l1 524h80v-108c13.333 38 33.5 67.167 60.5 87.5s59.167 30.5 96.5 30.5z" />
    <glyph glyph-name="Rcommaaccent" unicode="&#x156;" horiz-adv-x="661" 
d="M415 290l219 -290h-111l-205 288h-142v-288h-92v700h286c68 0 124.333 -17.167 169 -51.5s67 -86.5 67 -156.5c0 -62 -17.5 -109.667 -52.5 -143s-81.167 -53 -138.5 -59zM176 358h184c47.333 0 84.833 11.333 112.5 34s41.5 56 41.5 100s-13.833 77.333 -41.5 100
s-65.167 34 -112.5 34h-184v-268zM291 -214v161h80v-57l-41 -104h-39z" />
    <glyph glyph-name="rcommaaccent" unicode="&#x157;" horiz-adv-x="398" 
d="M307 534c14.667 0 34 -2 58 -6v-80c-22 4 -44.667 6 -68 6c-47.333 0 -82.5 -15.333 -105.5 -46s-34.5 -78 -34.5 -142v-266h-88l1 524h80v-108c13.333 38 33.5 67.167 60.5 87.5s59.167 30.5 96.5 30.5zM73 -214v161h81v-57l-42 -104h-39z" />
    <glyph glyph-name="Rcaron" unicode="&#x158;" horiz-adv-x="661" 
d="M383 762h-104l-100 117h67l85 -88l85 88h67zM634 0h-111l-205 288h-142v-288h-92v700h286c68 0 124.333 -17.167 169 -51.5s67 -86.5 67 -156.5c0 -62 -17.5 -109.667 -52.5 -143s-81.167 -53 -138.5 -59zM176 358h184c47.333 0 84.833 11.333 112.5 34s41.5 56 41.5 100
s-13.833 77.333 -41.5 100s-65.167 34 -112.5 34h-184v-268z" />
    <glyph glyph-name="rcaron" unicode="&#x159;" horiz-adv-x="398" 
d="M283 732h65l-94 -143h-98l-94 143h65l78 -110zM307 534c14.667 0 34 -2 58 -6v-80c-22 4 -44.667 6 -68 6c-47.333 0 -82.5 -15.333 -105.5 -46s-34.5 -78 -34.5 -142v-266h-88l1 524h80v-108c13.333 38 33.5 67.167 60.5 87.5s59.167 30.5 96.5 30.5z" />
    <glyph glyph-name="Sacute" unicode="&#x15a;" horiz-adv-x="605" 
d="M261 763l89 116h92l-110 -116h-71zM33 215l85.998 3c2 -50 18.667 -88.667 50 -116s77.333 -41 138 -41c48 0 87.667 9.33301 119 28s47 48 47 88c0 28 -9.33301 51 -28 69s-50 34.333 -94 49l-144 46c-100 32 -150 93 -150 183c0 62.667 22 109.667 66 141
s99.667 47 167 47c72.667 0 132 -18 178 -54s71.333 -86 76 -150l-85 -6c-2.66699 41.333 -18.667 74.5 -48 99.5s-70 37.5 -122 37.5c-44 0 -78.333 -9.5 -103 -28.5s-37 -45.833 -37 -80.5c0 -54 36.667 -92.333 110 -115l144 -46
c54.667 -17.333 95.334 -40.666 122.001 -69.999s40 -68 40 -116c0 -64.667 -23 -113.334 -69 -146.001s-109.333 -49 -190 -49c-86 0 -152.167 19.5 -198.5 58.5s-71.166 95.167 -74.499 168.5z" />
    <glyph glyph-name="sacute" unicode="&#x15b;" horiz-adv-x="496" 
d="M193 592l79 143h92l-101 -143h-70zM25 149l80 4.00098c6.66699 -67.333 54 -101 142 -101c40 0 71.667 7 95 21s35 34 35 60c0 19.333 -7.83301 35.333 -23.5 48s-41.5 24.667 -77.5 36l-113 33c-81.333 24 -122 72 -122 144c0 48 17.5 83.667 52.5 107s81.5 35 139.5 35
c61.333 0 111.833 -12.833 151.5 -38.5s61.834 -64.5 66.501 -116.5l-80 -5c-4 32 -18.5 56 -43.5 72s-56.5 24 -94.5 24c-32 1.33301 -57.667 -4.83398 -77 -18.501s-29 -32.5 -29 -56.5c0 -38 28.333 -65.333 85 -82l114 -33c92 -26 138 -74.333 138 -145
c0 -48 -19.333 -84.833 -58 -110.5s-92.334 -38.5 -161.001 -38.5c-138 0 -211.333 53.667 -220 161z" />
    <glyph glyph-name="Scedilla" unicode="&#x15e;" horiz-adv-x="605" 
d="M565 183c0 -64 -22.834 -112.333 -68.501 -145s-108.167 -49.334 -187.5 -50.001l-29 -51c16 8 32.333 12 49 12c20.667 0 39.5 -6.5 56.5 -19.5s25.5 -32.167 25.5 -57.5c0 -27.333 -9.5 -47.5 -28.5 -60.5s-41.833 -19.5 -68.5 -19.5c-26 0 -47.667 6 -65 18
s-28.333 29 -33 51l43 3c4.66699 -22.667 20.667 -34 48 -34c30.667 0 46 14 46 42c0 14 -4.16699 24.667 -12.5 32s-18.833 11 -31.5 11c-10.667 0 -24 -3.66699 -40 -11l-37 16l38 69c-74.667 5.33301 -132 27.333 -172 66s-61.667 92 -65 160l86 3
c2 -50 18.667 -88.667 50 -116s77.333 -41 138 -41c48 0 87.667 9.33301 119 28s47 48 47 88c0 28 -9.33301 51 -28 69s-50 34.333 -94 49l-144 46c-100 32 -150 93 -150 183c0 62.667 22 109.667 66 141s99.667 47 167 47c72.667 0 132 -18 178 -54s71.333 -86 76 -150
l-85 -6c-2.66699 41.333 -18.667 74.5 -48 99.5s-70 37.5 -122 37.5c-44 0 -78.333 -9.5 -103 -28.5s-37 -45.833 -37 -80.5c0 -54 36.667 -92.333 110 -115l144 -46c54.667 -17.333 95.334 -40.666 122.001 -69.999s40 -68 40 -116z" />
    <glyph glyph-name="scedilla" unicode="&#x15f;" horiz-adv-x="496" 
d="M464 137c0 -46.667 -18.833 -82.832 -56.5 -108.499s-89.834 -39.167 -156.501 -40.5l-28 -51c14.667 8 30.667 12 48 12c21.333 0 40.333 -6.5 57 -19.5s25 -32.167 25 -57.5c0 -27.333 -9.5 -47.5 -28.5 -60.5s-41.833 -19.5 -68.5 -19.5c-26 0 -47.667 6 -65 18
s-28.333 29 -33 51l43 3c4.66699 -22.667 20.667 -34 48 -34c31.333 0 47 14 47 42c0 14 -4.33301 24.667 -13 32s-19 11 -31 11c-11.333 0 -25 -3.66699 -41 -11l-37 16l38 69c-116.667 8.66699 -179 62 -187 160l80 4c6.66699 -67.333 54 -101 142 -101
c40 0 71.667 7 95 21s35 34 35 60c0 19.333 -7.83301 35.333 -23.5 48s-41.5 24.667 -77.5 36l-113 33c-81.333 24 -122 72 -122 144c0 48 17.5 83.667 52.5 107s81.5 35 139.5 35c61.333 0 111.833 -12.833 151.5 -38.5s61.834 -64.5 66.501 -116.5l-80 -5
c-4 32 -18.5 56 -43.5 72s-56.5 24 -94.5 24c-32 1.33301 -57.667 -4.83398 -77 -18.501s-29 -32.5 -29 -56.5c0 -38 28.333 -65.333 85 -82l114 -33c92 -26 138 -74.333 138 -145z" />
    <glyph glyph-name="Scaron" unicode="&#x160;" horiz-adv-x="605" 
d="M387 879h67l-100 -117h-104l-100 117h67l85 -88zM33 215l85.998 3c2 -50 18.667 -88.667 50 -116s77.333 -41 138 -41c48 0 87.667 9.33301 119 28s47 48 47 88c0 28 -9.33301 51 -28 69s-50 34.333 -94 49l-144 46c-100 32 -150 93 -150 183c0 62.667 22 109.667 66 141
s99.667 47 167 47c72.667 0 132 -18 178 -54s71.333 -86 76 -150l-85 -6c-2.66699 41.333 -18.667 74.5 -48 99.5s-70 37.5 -122 37.5c-44 0 -78.333 -9.5 -103 -28.5s-37 -45.833 -37 -80.5c0 -54 36.667 -92.333 110 -115l144 -46
c54.667 -17.333 95.334 -40.666 122.001 -69.999s40 -68 40 -116c0 -64.667 -23 -113.334 -69 -146.001s-109.333 -49 -190 -49c-86 0 -152.167 19.5 -198.5 58.5s-71.166 95.167 -74.499 168.5z" />
    <glyph glyph-name="scaron" unicode="&#x161;" horiz-adv-x="496" 
d="M322 732h65l-94 -143h-98l-94 143h65l78 -110zM25 149l80 4.00098c6.66699 -67.333 54 -101 142 -101c40 0 71.667 7 95 21s35 34 35 60c0 19.333 -7.83301 35.333 -23.5 48s-41.5 24.667 -77.5 36l-113 33c-81.333 24 -122 72 -122 144c0 48 17.5 83.667 52.5 107
s81.5 35 139.5 35c61.333 0 111.833 -12.833 151.5 -38.5s61.834 -64.5 66.501 -116.5l-80 -5c-4 32 -18.5 56 -43.5 72s-56.5 24 -94.5 24c-32 1.33301 -57.667 -4.83398 -77 -18.501s-29 -32.5 -29 -56.5c0 -38 28.333 -65.333 85 -82l114 -33
c92 -26 138 -74.333 138 -145c0 -48 -19.333 -84.833 -58 -110.5s-92.334 -38.5 -161.001 -38.5c-138 0 -211.333 53.667 -220 161z" />
    <glyph glyph-name="uni0162" unicode="&#x162;" horiz-adv-x="580" 
d="M336 0h-30l-35 -63c14.667 8 30.667 12 48 12c21.333 0 40.333 -6.5 57 -19.5s25 -32.167 25 -57.5c0 -27.333 -9.5 -47.5 -28.5 -60.5s-41.833 -19.5 -68.5 -19.5c-26 0 -47.667 6 -65 18s-28.333 29 -33 51l43 3c4.66699 -22.667 20.667 -34 48 -34
c31.333 0 47 14 47 42c0 14 -4.33301 24.667 -13 32s-19 11 -31 11c-11.333 0 -25 -3.66699 -41 -11l-37 16l44 80h-22v625h-219v75h530v-75h-219v-625z" />
    <glyph glyph-name="uni0163" unicode="&#x163;" horiz-adv-x="378" 
d="M273 -51c21.333 0 40.335 -6.50098 57.002 -19.501s25 -32.167 25 -57.5c0 -27.333 -9.5 -47.5 -28.5 -60.5s-41.5 -19.5 -67.5 -19.5s-47.833 6 -65.5 18s-28.834 29 -33.501 51l44 3c4.66699 -22.667 20.667 -34 48 -34c30.667 0 46 14 46 42
c0 14 -4.33301 24.667 -13 32s-19 11 -31 11c-11.333 0 -25 -3.66699 -41 -11l-36 16l41 76c-32 6.66699 -55 21 -69 43s-21 54.667 -21 98v320h-110v65h84c21.333 0 32 10.333 32 31v86h82v-115h128v-67h-128v-306c0 -33.333 4.66699 -56.166 14 -68.499s27 -18.5 53 -18.5
c17.333 0 37.666 1.66699 60.999 5v-70c-23.333 -4.66699 -49 -7 -77 -7h-11l-31 -55c16 8 32 12 48 12z" />
    <glyph glyph-name="Tcaron" unicode="&#x164;" horiz-adv-x="580" 
d="M375 879h67l-100 -117h-104l-99 117h66l85 -88zM25 625v75h530v-75h-219v-625h-92v625h-219z" />
    <glyph glyph-name="tcaron" unicode="&#x165;" horiz-adv-x="377" 
d="M277 583v153h66v-54l-33 -99h-33zM344 457l-127.999 -0.000976562v-306c0 -33.333 4.66699 -56.166 14 -68.499s27 -18.5 53 -18.5c17.333 0 37.666 1.66699 60.999 5v-70c-23.333 -4.66699 -49 -7 -77 -7c-50.667 0 -86.5 11 -107.5 33s-31.5 59.333 -31.5 112v320h-110
v65h84c21.333 0 32 10.333 32 31v86h82v-115h128v-67z" />
    <glyph glyph-name="Tbar" unicode="&#x166;" horiz-adv-x="580" 
d="M555 625h-219v-197h148v-56h-148v-372h-92v372h-148v56h148v197h-219v75h530v-75z" />
    <glyph glyph-name="tbar" unicode="&#x167;" horiz-adv-x="378" 
d="M344 457l-127.999 -0.000976562v-139h120v-61h-120v-106c0 -33.333 4.66699 -56.166 14 -68.499s27 -18.5 53 -18.5c17.333 0 37.666 1.66699 60.999 5v-70c-23.333 -4.66699 -49 -7 -77 -7c-50.667 0 -86.5 11 -107.5 33s-31.5 59.333 -31.5 112v120h-96v61h96v139h-110
v65h84c21.333 0 32 10.333 32 31v86h82v-115h128v-67z" />
    <glyph glyph-name="Umacron" unicode="&#x16a;" horiz-adv-x="717" 
d="M207 772v62h304v-62h-304zM84 263l0.000976562 437h92v-429c0 -70.667 15.167 -123 45.5 -157s76.166 -51 137.499 -51s107 16.833 137 50.5s45 86.167 45 157.5v429h92v-437c0 -92.667 -22.5 -161.667 -67.5 -207s-113.833 -68 -206.5 -68
c-183.333 0 -275 91.667 -275 275z" />
    <glyph glyph-name="umacron" unicode="&#x16b;" horiz-adv-x="580" 
d="M148 627v61h285v-61h-285zM423 524h88v-524h-81v108c-33.333 -80 -95.666 -120 -186.999 -120c-56.667 0 -100.667 16.667 -132 50s-47 82.333 -47 147v339h87v-313c0 -100.667 40.667 -151 122 -151c47.333 0 84.166 17 110.499 51s39.5 78 39.5 132v281z" />
    <glyph glyph-name="Uring" unicode="&#x16e;" horiz-adv-x="717" 
d="M359 936c28 0 52.167 -8.16699 72.5 -24.5s30.5 -39.833 30.5 -70.5s-10.167 -54 -30.5 -70s-44.5 -24 -72.5 -24s-52.333 8 -73 24s-31 39.333 -31 70s10.333 54.167 31 70.5s45 24.5 73 24.5zM359 789c15.333 0 28.5 4.83301 39.5 14.5s16.5 22.167 16.5 37.5
c0 16 -5.33301 28.667 -16 38s-24 14 -40 14s-29.5 -4.66699 -40.5 -14s-16.5 -22 -16.5 -38c0 -15.333 5.5 -27.833 16.5 -37.5s24.5 -14.5 40.5 -14.5zM84 263l0.000976562 437h92v-429c0 -70.667 15.167 -123 45.5 -157s76.166 -51 137.499 -51s107 16.833 137 50.5
s45 86.167 45 157.5v429h92v-437c0 -92.667 -22.5 -161.667 -67.5 -207s-113.833 -68 -206.5 -68c-183.333 0 -275 91.667 -275 275z" />
    <glyph glyph-name="uring" unicode="&#x16f;" horiz-adv-x="580" 
d="M291 782c28 0 52.167 -8.16699 72.5 -24.5s30.5 -40.166 30.5 -71.499c0 -32 -10.167 -56.167 -30.5 -72.5s-44.5 -24.5 -72.5 -24.5s-52.167 8.16699 -72.5 24.5s-30.5 40.5 -30.5 72.5c0 31.333 10.167 55.166 30.5 71.499s44.5 24.5 72.5 24.5zM291 631
c16 0 29.333 5 40 15s16 23.333 16 40s-5.5 29.834 -16.5 39.501s-24.167 14.5 -39.5 14.5c-16 0 -29.5 -4.83301 -40.5 -14.5s-16.5 -22.834 -16.5 -39.501s5.5 -30 16.5 -40s24.5 -15 40.5 -15zM423 524h88v-524h-81v108c-33.333 -80 -95.666 -120 -186.999 -120
c-56.667 0 -100.667 16.667 -132 50s-47 82.333 -47 147v339h87v-313c0 -100.667 40.667 -151 122 -151c47.333 0 84.166 17 110.499 51s39.5 78 39.5 132v281z" />
    <glyph glyph-name="Uhungarumlaut" unicode="&#x170;" horiz-adv-x="717" 
d="M225 763l79 116h79l-87 -116h-71zM384 763l79 116h79l-87 -116h-71zM84 263l0.000976562 437h92v-429c0 -70.667 15.167 -123 45.5 -157s76.166 -51 137.499 -51s107 16.833 137 50.5s45 86.167 45 157.5v429h92v-437c0 -92.667 -22.5 -161.667 -67.5 -207
s-113.833 -68 -206.5 -68c-183.333 0 -275 91.667 -275 275z" />
    <glyph glyph-name="uhungarumlaut" unicode="&#x171;" horiz-adv-x="580" 
d="M171 592l73 143h71l-79 -143h-65zM314 592l73 143h71l-79 -143h-65zM423 524h88v-524h-81v108c-33.333 -80 -95.666 -120 -186.999 -120c-56.667 0 -100.667 16.667 -132 50s-47 82.333 -47 147v339h87v-313c0 -100.667 40.667 -151 122 -151
c47.333 0 84.166 17 110.499 51s39.5 78 39.5 132v281z" />
    <glyph glyph-name="Uogonek" unicode="&#x172;" horiz-adv-x="717" 
d="M541 700h92v-437c0 -147.333 -58 -235.333 -174 -264c-32.667 -20 -58.167 -39 -76.5 -57s-27.5 -37.667 -27.5 -59c0 -25.333 11.667 -38 35 -38c27.333 0 44 17 50 51l37 -10c-12 -54.667 -45 -82 -99 -82c-24.667 0 -44.667 6.33301 -60 19s-23 31 -23 55
c0 42.667 29.667 79.667 89 111c-5.33301 -0.666992 -13.666 -1 -24.999 -1c-183.333 0 -275 91.667 -275 275v437h92v-429c0 -70.667 15.167 -123 45.5 -157s76.166 -51 137.499 -51s107 16.833 137 50.5s45 86.167 45 157.5v429z" />
    <glyph glyph-name="uogonek" unicode="&#x173;" horiz-adv-x="580" 
d="M489 -104l38.001 -9.99902c-12 -54.667 -45 -82 -99 -82c-24.667 0 -44.667 6.33301 -60 19s-23 31 -23 55c0 28.667 10 52.167 30 70.5s47.667 35.5 83 51.5h-28v108c-33.333 -80 -95.666 -120 -186.999 -120c-56.667 0 -100.667 16.667 -132 50s-47 82.333 -47 147v339
h87v-313c0 -100.667 40.667 -151 122 -151c47.333 0 84.166 17 110.499 51s39.5 78 39.5 132v281h88v-524c-22.667 -14 -40.5 -25.833 -53.5 -35.5s-25.167 -21.834 -36.5 -36.501s-17 -29.667 -17 -45c0 -25.333 12 -38 36 -38c27.333 0 43.666 17 48.999 51z" />
    <glyph glyph-name="Wcircumflex" unicode="&#x174;" horiz-adv-x="961" 
d="M481 853l-85 -88h-66l99 117h104l100 -117h-67zM839 700h96l-176 -700h-137l-141 635l-144 -635h-138l-173 700h99l147 -632l144 632h132l142 -632z" />
    <glyph glyph-name="wcircumflex" unicode="&#x175;" horiz-adv-x="847" 
d="M423 702l-78 -110h-65l94 143h98l94 -143h-65zM728 524h95l-159 -524h-123l-116 479l-118 -479h-126l-158 524h98l127 -462l117 462h122l114 -454z" />
    <glyph glyph-name="Ycircumflex" unicode="&#x176;" horiz-adv-x="654" 
d="M327 853l-85 -88h-66l99 117h104l100 -117h-67zM536 700h102l-265 -411v-289h-92v288l-264 412h105l205 -338z" />
    <glyph glyph-name="ycircumflex" unicode="&#x177;" horiz-adv-x="546" 
d="M273 702l-78 -110h-65l94 143h98l94 -143h-65zM432 524l94 0.000976562l-195 -584c-18 -58 -39.333 -97.833 -64 -119.5s-62 -32.5 -112 -32.5c-16.667 0 -36 1 -58 3v68c24 -1.33301 41.667 -2 53 -2c27.333 0 48 6.66699 62 20s27 38.666 39 75.999l15 47h-49l-198 524
h96l172 -489z" />
    <glyph glyph-name="Ydieresis" unicode="&#x178;" horiz-adv-x="654" 
d="M277 860v-95h-89v95h89zM467 860v-95h-89v95h89zM536 700h102l-265 -411v-289h-92v288l-264 412h105l205 -338z" />
    <glyph glyph-name="Zacute" unicode="&#x179;" horiz-adv-x="576" 
d="M428 879l-110 -116h-70l88 116h92zM134 75h415v-75h-528v64l405 561h-383v75h496v-64z" />
    <glyph glyph-name="zacute" unicode="&#x17a;" horiz-adv-x="480" 
d="M189 592l79 143h92l-101 -143h-70zM133 69h321v-69h-433v61l315 394h-295v69h406v-61z" />
    <glyph glyph-name="Zdotaccent" unicode="&#x17b;" horiz-adv-x="576" 
d="M338 861v-97h-99v97h99zM134 75h415v-75h-528v64l405 561h-383v75h496v-64z" />
    <glyph glyph-name="zdotaccent" unicode="&#x17c;" horiz-adv-x="480" 
d="M194 610v112h92v-112h-92zM133 69h321v-69h-433v61l315 394h-295v69h406v-61z" />
    <glyph glyph-name="Zcaron" unicode="&#x17d;" horiz-adv-x="576" 
d="M340 762h-104l-99 117h66l85 -88l85 88h67zM134 75h415v-75h-528v64l405 561h-383v75h496v-64z" />
    <glyph glyph-name="zcaron" unicode="&#x17e;" horiz-adv-x="480" 
d="M318 732h65l-94 -143h-98l-94 143h65l78 -110zM133 69h321v-69h-433v61l315 394h-295v69h406v-61z" />
    <glyph glyph-name="Scommaaccent" unicode="&#x218;" horiz-adv-x="605" 
d="M33 215l85.998 3c2 -50 18.667 -88.667 50 -116s77.333 -41 138 -41c48 0 87.667 9.33301 119 28s47 48 47 88c0 28 -9.33301 51 -28 69s-50 34.333 -94 49l-144 46c-100 32 -150 93 -150 183c0 62.667 22 109.667 66 141s99.667 47 167 47c72.667 0 132 -18 178 -54
s71.333 -86 76 -150l-85 -6c-2.66699 41.333 -18.667 74.5 -48 99.5s-70 37.5 -122 37.5c-44 0 -78.333 -9.5 -103 -28.5s-37 -45.833 -37 -80.5c0 -54 36.667 -92.333 110 -115l144 -46c54.667 -17.333 95.334 -40.666 122.001 -69.999s40 -68 40 -116
c0 -64.667 -23 -113.334 -69 -146.001s-109.333 -49 -190 -49c-86 0 -152.167 19.5 -198.5 58.5s-71.166 95.167 -74.499 168.5zM261.998 -214v161h80v-57l-41 -104h-39z" />
    <glyph glyph-name="scommaaccent" unicode="&#x219;" horiz-adv-x="496" 
d="M25 149l80 4.00098c6.66699 -67.333 54 -101 142 -101c40 0 71.667 7 95 21s35 34 35 60c0 19.333 -7.83301 35.333 -23.5 48s-41.5 24.667 -77.5 36l-113 33c-81.333 24 -122 72 -122 144c0 48 17.5 83.667 52.5 107s81.5 35 139.5 35
c61.333 0 111.833 -12.833 151.5 -38.5s61.834 -64.5 66.501 -116.5l-80 -5c-4 32 -18.5 56 -43.5 72s-56.5 24 -94.5 24c-32 1.33301 -57.667 -4.83398 -77 -18.501s-29 -32.5 -29 -56.5c0 -38 28.333 -65.333 85 -82l114 -33c92 -26 138 -74.333 138 -145
c0 -48 -19.333 -84.833 -58 -110.5s-92.334 -38.5 -161.001 -38.5c-138 0 -211.333 53.667 -220 161zM204 -213.999v161h80v-57l-41 -104h-39z" />
    <glyph glyph-name="uni021A" unicode="&#x21a;" horiz-adv-x="580" 
d="M25 625v75h530v-75h-219v-625h-92v625h-219zM250 -214v161h80v-57l-41 -104h-39z" />
    <glyph glyph-name="uni021B" unicode="&#x21b;" horiz-adv-x="378" 
d="M344 457l-127.999 -0.000976562v-306c0 -33.333 4.66699 -56.166 14 -68.499s27 -18.5 53 -18.5c17.333 0 37.666 1.66699 60.999 5v-70c-23.333 -4.66699 -49 -7 -77 -7c-50.667 0 -86.5 11 -107.5 33s-31.5 59.333 -31.5 112v320h-110v65h84c21.333 0 32 10.333 32 31
v86h82v-115h128v-67zM206.001 -214.001v161h81v-57l-42 -104h-39z" />
    <glyph glyph-name="circumflex" unicode="&#x2c6;" horiz-adv-x="366" 
d="M40 592l94 143h98l94 -143h-65l-78 110l-78 -110h-65z" />
    <glyph glyph-name="caron" unicode="&#x2c7;" horiz-adv-x="366" 
d="M40 732h65l78 -110l78 110h65l-94 -143h-98z" />
    <glyph glyph-name="breve" unicode="&#x2d8;" horiz-adv-x="361" 
d="M40 731h52.999c4 -55.333 33 -83 87 -83c53.333 0 82.666 27.667 87.999 83h53c-1.33301 -42 -13.833 -75.5 -37.5 -100.5s-58.167 -37.5 -103.5 -37.5s-79.666 12.5 -102.999 37.5s-35.666 58.5 -36.999 100.5z" />
    <glyph glyph-name="dotaccent" unicode="&#x2d9;" horiz-adv-x="173" 
d="M40 610v112h93v-112h-93z" />
    <glyph glyph-name="ring" unicode="&#x2da;" horiz-adv-x="287" 
d="M40 686c0 31.333 10.167 55.166 30.5 71.499s44.5 24.5 72.5 24.5s52.333 -8.16699 73 -24.5s31 -40.166 31 -71.499c0 -32 -10.333 -56.167 -31 -72.5s-45 -24.5 -73 -24.5s-52.167 8.16699 -72.5 24.5s-30.5 40.5 -30.5 72.5zM87 686c0 -16.667 5.33301 -30 16 -40
s24 -15 40 -15s29.5 5 40.5 15s16.5 23.333 16.5 40s-5.5 29.834 -16.5 39.501s-24.5 14.5 -40.5 14.5c-15.333 0 -28.5 -4.83301 -39.5 -14.5s-16.5 -22.834 -16.5 -39.501z" />
    <glyph glyph-name="ogonek" unicode="&#x2db;" horiz-adv-x="262" 
d="M40 -122c0 28.667 10.001 52.168 30.001 70.501s47.667 35.5 83 51.5h53c-22.667 -14 -40.5 -25.833 -53.5 -35.5s-25.167 -21.834 -36.5 -36.501s-17 -29.667 -17 -45c0 -25.333 12 -38 36 -38c27.333 0 43.666 17 48.999 51l38 -10c-12 -54.667 -45 -82 -99 -82
c-24.667 0 -44.667 6.33301 -60 19s-23 31 -23 55z" />
    <glyph glyph-name="tilde" unicode="&#x2dc;" horiz-adv-x="384" 
d="M40 605c0 67.333 27.667 101 83 101c24 0 49.333 -9.33301 76 -28s46 -28 58 -28c24 0 36 16 36 48h51c0 -67.333 -27.333 -101 -82 -101c-24 0 -49.5 9.33301 -76.5 28s-46.5 28 -58.5 28c-24 0 -36 -16 -36 -48h-51z" />
    <glyph glyph-name="hungarumlaut" unicode="&#x2dd;" horiz-adv-x="368" 
d="M40 592l74 143h70l-79 -143h-65zM183 592l74 143h71l-80 -143h-65z" />
    <glyph glyph-name="pi" unicode="&#x3c0;" horiz-adv-x="609" 
d="M570 458h-80v-328c0 -25.333 4 -42.333 12 -51s19 -13 33 -13c4 0 15.333 0.666992 34 2v-70c-26.667 -2.66699 -46 -4 -58 -4c-36.667 0 -63.167 8.5 -79.5 25.5s-24.5 46.167 -24.5 87.5v351h-212v-458h-86v458h-80v66h541v-66z" />
    <glyph glyph-name="uni0401" unicode="&#x401;" horiz-adv-x="609" 
d="M168 765v95h89v-95h-89zM358 765v95h89v-95h-89zM84 0v700h468v-73h-376v-236h298v-70h-298v-248h390v-73h-482z" />
    <glyph glyph-name="uni0404" unicode="&#x404;" horiz-adv-x="667" 
d="M544 228l88.001 -6c-11.333 -70.667 -41.166 -127.334 -89.499 -170.001s-111.833 -64 -190.5 -64c-98 0 -173.833 33.5 -227.5 100.5s-80.5 154.167 -80.5 261.5c0 108 26.167 195.333 78.5 262s126.166 100 221.499 100c75.333 0 138 -19.833 188 -59.5
s81 -93.5 93 -161.5l-88 -8c-8.66699 46 -30.834 83.167 -66.501 111.5s-77.834 42.5 -126.501 42.5c-61.333 0 -109.5 -23.167 -144.5 -69.5s-55.5 -105.166 -61.5 -176.499h278v-70h-279c4.66699 -76 25.667 -138 63 -186s88 -72 152 -72c52 0 94.833 15.5 128.5 46.5
s54.834 70.5 63.501 118.5z" />
    <glyph glyph-name="uni0406" unicode="&#x406;" horiz-adv-x="261" 
d="M84 0v700h92v-700h-92z" />
    <glyph glyph-name="uni0407" unicode="&#x407;" horiz-adv-x="261" 
d="M12 765v95h80v-95h-80zM169 765v95h80v-95h-80zM84 0v700h92v-700h-92z" />
    <glyph glyph-name="uni040E" unicode="&#x40e;" horiz-adv-x="643" 
d="M323 759c-46.667 0 -82.1689 11.334 -106.502 34.001s-37.166 53.334 -38.499 92.001h59c2 -20.667 9.66699 -38.334 23 -53.001s34.333 -22 63 -22c51.333 0 80 25 86 75h59c-1.33301 -38.667 -14.166 -69.334 -38.499 -92.001s-59.833 -34 -106.5 -34zM523.998 700.001
h101l-220 -537c-26 -64.667 -52.667 -109 -80 -133s-61.666 -36 -102.999 -36c-22.667 0 -50.334 2 -83.001 6v71c24 -2.66699 45 -4 63 -4c24 0 43.833 6 59.5 18s30.5 35.667 44.5 71l12 30h-40l-255 514h104l220 -467z" />
    <glyph glyph-name="uni0410" unicode="&#x410;" horiz-adv-x="668" 
d="M554 0l-62 184h-318l-63 -184h-92l245 700h140l245 -700h-95zM333 650l-135 -396h269z" />
    <glyph glyph-name="uni0411" unicode="&#x411;" horiz-adv-x="644" 
d="M364 409c69.333 0 126.666 -16.668 171.999 -50.001s68 -84.666 68 -153.999s-22.667 -120.833 -68 -154.5s-102.666 -50.5 -171.999 -50.5h-280v700h470v-72h-378v-219h188zM357 71.999c48.667 0 86.667 11.333 114 34s41 55.667 41 99s-13.667 76.5 -41 99.5
s-65.333 34.5 -114 34.5h-181v-267h181z" />
    <glyph glyph-name="uni0412" unicode="&#x412;" horiz-adv-x="663" 
d="M413 359c62.667 -4 112.667 -20.834 150 -50.501s56 -71.167 56 -124.5c0 -58 -21.5 -103.167 -64.5 -135.5s-100.167 -48.5 -171.5 -48.5h-299v700h295c66.667 0 120.167 -14.833 160.5 -44.5s60.5 -73.167 60.5 -130.5c0 -49.333 -16 -88.166 -48 -116.499
s-78.333 -44.833 -139 -49.5zM176 627.999v-236.998h201c40.667 0 72.667 10.667 96 32s35 50.666 35 87.999s-12.167 66.166 -36.5 86.499s-57.833 30.5 -100.5 30.5h-195zM376 72.001c48 0 85.168 10.6689 111.501 32.002s39.5 51.666 39.5 90.999
s-12.833 70.166 -38.5 92.499s-61.834 33.5 -108.501 33.5h-204v-249h200z" />
    <glyph glyph-name="uni0413" unicode="&#x413;" horiz-adv-x="543" 
d="M84 0v700h431v-75h-339v-625h-92z" />
    <glyph glyph-name="uni0414" unicode="&#x414;" horiz-adv-x="657" 
d="M579 75h62v-239h-86v164h-459v-164h-86v239h49c24 52 42.167 129.167 54.5 231.5s21.5 233.5 27.5 393.5h438v-625zM487 75l0.000976562 549.999h-262c-8.66699 -163.333 -19.667 -286.666 -33 -369.999c-10.667 -69.333 -26.334 -129.333 -47.001 -180h342z" />
    <glyph glyph-name="uni0415" unicode="&#x415;" horiz-adv-x="609" 
d="M84 0v700h468v-73h-376v-236h298v-70h-298v-248h390v-73h-482z" />
    <glyph glyph-name="uni0416" unicode="&#x416;" horiz-adv-x="1010" 
d="M987 0h-109l-231 318h-98v-318h-90v318h-96l-232 -318h-109l269 360l-259 340h106l224 -310h97v310h90v-310h99l224 310h105l-258 -340z" />
    <glyph glyph-name="uni0417" unicode="&#x417;" horiz-adv-x="608" 
d="M347 359c68 -4 121.335 -21.168 160.002 -51.501s58 -72.833 58 -127.5c0 -61.333 -23.5 -108.666 -70.5 -141.999s-110.5 -50 -190.5 -50c-168.667 0 -259.667 73 -273 219l87 5c9.33301 -101.333 71.333 -152 186 -152c53.333 0 94.833 11.167 124.5 33.5
s44.5 55.166 44.5 98.499c0 41.333 -14.167 73.166 -42.5 95.499s-70.5 33.5 -126.5 33.5h-89v70h88c48.667 0 86 10.833 112 32.5s39 51.834 39 90.501c0 40.667 -13.333 71.834 -40 93.501s-63 32.5 -109 32.5c-46.667 0 -85.834 -11.5 -117.501 -34.5
s-49.834 -58.5 -54.501 -106.5l-87 7c6.66699 69.333 33 121 79 155s106 51 180 51c72 0 130.167 -15.5 174.5 -46.5s66.5 -76.167 66.5 -135.5c0 -50.667 -16.833 -90.667 -50.5 -120s-83.167 -46.333 -148.5 -51z" />
    <glyph glyph-name="uni0418" unicode="&#x418;" horiz-adv-x="728" 
d="M500 700h144v-700h-90v636l-326 -636h-144v700h91v-636z" />
    <glyph glyph-name="uni0419" unicode="&#x419;" horiz-adv-x="728" 
d="M364 759c-46.667 0 -82.1689 11.332 -106.502 33.999s-37.166 53.334 -38.499 92.001h59c6 -50 34.667 -75 86 -75c28.667 0 49.667 7.33301 63 22s21 32.334 23 53.001h59c-1.33301 -38.667 -14.166 -69.334 -38.499 -92.001s-59.833 -34 -106.5 -34zM499.998 699.999
h144v-700h-90v636l-326 -636h-144v700h91v-636z" />
    <glyph glyph-name="uni041A" unicode="&#x41a;" horiz-adv-x="668" 
d="M645 0h-110l-247 318h-112v-318h-92v700h92v-310h111l232 310h106l-266 -340z" />
    <glyph glyph-name="uni041B" unicode="&#x41b;" horiz-adv-x="695" 
d="M155 700l455 -0.000976562v-700h-92v625h-279c-7.33301 -215.333 -11.666 -332 -12.999 -350c-8.66699 -124.667 -29 -205.667 -61 -243c-21.333 -25.333 -50 -38 -86 -38c-10 0 -30.333 1.33301 -61 4v74c21.333 -1.33301 35 -2 41 -2c10 0 19.167 3 27.5 9
s15.333 15.667 21 29s10.667 27.833 15 43.5s7.83301 36.334 10.5 62.001s5 50.167 7 73.5s3.66699 52.833 5 88.5s2.33301 68.167 3 97.5s1.66699 66 3 110s2.66602 83 3.99902 117z" />
    <glyph glyph-name="uni041C" unicode="&#x41c;" horiz-adv-x="905" 
d="M661 700h159v-700h-89l1 648l-217 -648h-126l-216 646v-646h-89v700h161l208 -648z" />
    <glyph glyph-name="uni041D" unicode="&#x41d;" horiz-adv-x="713" 
d="M537 700h92v-700h-92v318h-361v-318h-92v700h92v-306h361v306z" />
    <glyph glyph-name="uni041E" unicode="&#x41e;" horiz-adv-x="713" 
d="M44 350c0 108 27.167 195.333 81.5 262s131.166 100 230.499 100c100 0 177.167 -33.333 231.5 -100s81.5 -154 81.5 -262s-27.167 -195.333 -81.5 -262s-131.5 -100 -231.5 -100c-99.333 0 -176.166 33.333 -230.499 100s-81.5 154 -81.5 262zM136 350
c0 -84 19.333 -152.833 58 -206.5s92.667 -80.5 162 -80.5c70 0 124.333 26.833 163 80.5s58 122.5 58 206.5s-19.333 152.833 -58 206.5s-93 80.5 -163 80.5c-69.333 0 -123.333 -26.833 -162 -80.5s-58 -122.5 -58 -206.5z" />
    <glyph glyph-name="uni041F" unicode="&#x41f;" horiz-adv-x="709" 
d="M625 700v-700h-92v625h-357v-625h-92v700h541z" />
    <glyph glyph-name="uni0420" unicode="&#x420;" horiz-adv-x="638" 
d="M84 0l0.000976562 700h278c68 0 124.333 -17.333 169 -52s67 -88 67 -160c0 -71.333 -21.833 -123.833 -65.5 -157.5s-99.834 -50.5 -168.501 -50.5h-188v-280h-92zM176.001 351h176c47.333 0 84.833 11.333 112.5 34s41.5 57 41.5 103s-13.833 80.333 -41.5 103
s-65.167 34 -112.5 34h-176v-274z" />
    <glyph glyph-name="uni0421" unicode="&#x421;" horiz-adv-x="665" 
d="M44 350c0 108 26.1719 195.334 78.5049 262.001s126.166 100 221.499 100c77.333 0 140.666 -20.833 189.999 -62.5s78.666 -97.834 87.999 -168.501l-87 -9c-6.66699 50 -27.667 90 -63 120s-78 45 -128 45c-67.333 0 -118.833 -27.5 -154.5 -82.5
s-53.5 -123.167 -53.5 -204.5c0 -83.333 18.833 -152 56.5 -206s90.834 -81 159.501 -81c53.333 0 96.666 16.5 129.999 49.5s53.333 75.167 60 126.5l87 -7c-8.66699 -73.333 -36.834 -132.333 -84.501 -177s-111.834 -67 -192.501 -67c-98.667 0 -174.667 33 -228 99
s-80 153.667 -80 263z" />
    <glyph glyph-name="uni0422" unicode="&#x422;" horiz-adv-x="580" 
d="M25 625v75h530v-75h-219v-625h-92v625h-219z" />
    <glyph glyph-name="uni0423" unicode="&#x423;" horiz-adv-x="643" 
d="M524 700h101l-220 -537c-26 -64.667 -52.667 -109 -80 -133s-61.666 -36 -102.999 -36c-22.667 0 -50.334 2 -83.001 6v71c24 -2.66699 45 -4 63 -4c24 0 43.833 6 59.5 18s30.5 35.667 44.5 71l12 30h-40l-255 514h104l220 -467z" />
    <glyph glyph-name="uni0424" unicode="&#x424;" horiz-adv-x="837" 
d="M478 651c96 0 173 -24.167 231 -72.5s87 -118.833 87 -211.5c0 -92 -29 -162.167 -87 -210.5s-135 -72.5 -231 -72.5h-15v-84h-89v84h-16c-95.333 0 -172 24.167 -230 72.5s-87 118.5 -87 210.5c0 92.667 29 163.167 87 211.5s134.667 72.5 230 72.5h16v61h89v-61h15z
M364 156h10v423h-10c-68.667 0 -124.334 -18 -167.001 -54s-64 -88.667 -64 -158c0 -68.667 21.333 -121 64 -157s98.334 -54 167.001 -54zM473 156c68.667 0 124.334 18 167.001 54s64 88.333 64 157c0 69.333 -21.333 122 -64 158s-98.334 54 -167.001 54h-10v-423h10z
" />
    <glyph glyph-name="uni0425" unicode="&#x425;" horiz-adv-x="650" 
d="M27 0l244 356l-226 344h108l171 -271l173 271h102l-224 -340l246 -360h-107l-192 287l-193 -287h-102z" />
    <glyph glyph-name="uni0426" unicode="&#x426;" horiz-adv-x="703" 
d="M84 0v700h92v-625h357v625h92v-625h61v-239h-85v164h-517z" />
    <glyph glyph-name="uni0427" unicode="&#x427;" horiz-adv-x="664" 
d="M487 700h91.999v-700h-92v304c-66 -21.333 -132.667 -32 -200 -32c-150.667 0 -226 71 -226 213v215h92v-199c0 -55.333 13 -94.833 39 -118.5s66.667 -35.5 122 -35.5c58.667 0 116.334 11 173.001 33v320z" />
    <glyph glyph-name="uni0428" unicode="&#x428;" horiz-adv-x="987" 
d="M84 0v700h91v-625h273v625h91v-625h273v625h91v-700h-819z" />
    <glyph glyph-name="uni0429" unicode="&#x429;" horiz-adv-x="980" 
d="M84 0v700h91v-625h273v625h91v-625h273v625h91v-625h61v-239h-86v164h-794z" />
    <glyph glyph-name="uni042A" unicode="&#x42a;" horiz-adv-x="725" 
d="M454 417c68.667 0 125.167 -17.167 169.5 -51.5s66.5 -86.5 66.5 -156.5c0 -70.667 -22.333 -123.167 -67 -157.5s-101 -51.5 -169 -51.5h-272v625h-160v75h252v-283h180zM444 75c46.667 0 84 11.167 112 33.5s42 55.833 42 100.5s-14 78.167 -42 100.5
s-65.333 33.5 -112 33.5h-170v-268h170z" />
    <glyph glyph-name="uni042B" unicode="&#x42b;" horiz-adv-x="846" 
d="M342 417c68.667 0 125.167 -17.167 169.5 -51.5s66.5 -86.5 66.5 -156.5c0 -70.667 -22.333 -123.167 -67 -157.5s-101 -51.5 -169 -51.5h-258v700h92v-283h166zM669 700h92v-700h-92v700zM332 75c47.333 0 84.833 11.167 112.5 33.5s41.5 55.833 41.5 100.5
s-13.833 78.167 -41.5 100.5s-65.167 33.5 -112.5 33.5h-156v-268h156z" />
    <glyph glyph-name="uni042C" unicode="&#x42c;" horiz-adv-x="627" 
d="M356 417c68.667 0 125.167 -17.167 169.5 -51.5s66.5 -86.5 66.5 -156.5c0 -70.667 -22.333 -123.167 -67 -157.5s-101 -51.5 -169 -51.5h-272v700h92v-283h180zM346 75c47.333 0 84.833 11.167 112.5 33.5s41.5 55.833 41.5 100.5s-13.833 78.167 -41.5 100.5
s-65.167 33.5 -112.5 33.5h-170v-268h170z" />
    <glyph glyph-name="uni042D" unicode="&#x42d;" horiz-adv-x="667" 
d="M323 712c95.333 0 169.166 -33.333 221.499 -100s78.5 -154 78.5 -262c0 -107.333 -26.833 -194.5 -80.5 -261.5s-129.5 -100.5 -227.5 -100.5c-78.667 0 -142.167 21.333 -190.5 64s-78.166 99.334 -89.499 170.001l88 6c8.66699 -48 30 -87.5 64 -118.5
s76.667 -46.5 128 -46.5c64 0 114.833 24 152.5 72s58.5 110 62.5 186h-278v70h277c-6 71.333 -26.5 130.166 -61.5 176.499s-83.167 69.5 -144.5 69.5c-48 0 -90 -14.167 -126 -42.5s-58.333 -65.5 -67 -111.5l-88 8c12 68 43.167 121.833 93.5 161.5
s112.833 59.5 187.5 59.5z" />
    <glyph glyph-name="uni042E" unicode="&#x42e;" horiz-adv-x="959" 
d="M610 712c100 0 175.833 -32.8311 227.5 -98.498s77.5 -153.5 77.5 -263.5s-25.833 -197.833 -77.5 -263.5s-127.5 -98.5 -227.5 -98.5c-94.667 0 -167.667 29.667 -219 89s-79.333 139.666 -84 240.999h-131v-318h-92v700h92v-306h131
c6.66699 97.333 35.667 174.666 87 231.999s123.333 86 216 86zM610 63.002c69.333 0 122.166 26.333 158.499 79s54.5 122 54.5 208s-18.167 155.333 -54.5 208s-89.166 79 -158.499 79c-68 0 -120.333 -26.333 -157 -79s-55 -122 -55 -208s18.333 -155.333 55 -208
s89 -79 157 -79z" />
    <glyph glyph-name="uni042F" unicode="&#x42f;" horiz-adv-x="661" 
d="M577 700v-699.999h-92v288h-162l-185 -288h-110l201 291c-54.667 7.33301 -98.667 27.666 -132 60.999s-50 80 -50 140c0 70 22.333 122.167 67 156.5s101 51.5 169 51.5h294zM485 358.001v268h-192c-47.333 0 -84.833 -11.333 -112.5 -34s-41.5 -56 -41.5 -100
s13.833 -77.333 41.5 -100s65.167 -34 112.5 -34h192z" />
    <glyph glyph-name="uni0430" unicode="&#x430;" horiz-adv-x="554" 
d="M41 137c0 94 68.667 147.668 206 161.001l156 15v50c0 32.667 -10.5 59.167 -31.5 79.5s-51.833 30.166 -92.5 29.499c-37.333 0 -68 -8.5 -92 -25.5s-37 -42.5 -39 -76.5h-81c2 56.667 22.333 98.5 61 125.5s89 40.5 151 40.5c68.667 0 121 -16.333 157 -49
s54 -79.667 54 -141v-346h-80v108c-16.667 -38 -42 -67.5 -76 -88.5s-75.333 -31.5 -124 -31.5c-56 0 -98.167 13.833 -126.5 41.5s-42.5 63.5 -42.5 107.5zM128 140.001c0 -26 9 -47.332 27 -63.999s45 -25 81 -25c51.333 0 92 16.167 122 48.5s45 74.166 45 125.499v32
l-146 -15c-86 -8 -129 -42 -129 -102z" />
    <glyph glyph-name="uni0431" unicode="&#x431;" horiz-adv-x="579" 
d="M308 508c69.333 0 125.333 -23.332 168 -69.999s64 -110 64 -190c0 -80.667 -22.167 -144.167 -66.5 -190.5s-104.5 -69.5 -180.5 -69.5c-165.333 0 -248 111 -248 333c0 116.667 16.333 205.667 49 267s86 99.666 160 114.999c14 3.33301 28.5 6.16602 43.5 8.49902
s31 4.5 48 6.5s29.833 3.66699 38.5 5c44 6.66699 78.667 15 104 25v-69c-18 -11.333 -49 -20.333 -93 -27l-46 -6c-20.667 -2.66699 -38 -5 -52 -7c-27.333 -3.33301 -50.5 -9.5 -69.5 -18.5s-37.5 -23.333 -55.5 -43s-32.333 -48.167 -43 -85.5
s-17.667 -83.666 -21 -138.999c14 48.667 38.167 86.667 72.5 114s76.833 41 127.5 41zM293 57.001c49.333 0 88.333 17.167 117 51.5s43 80.833 43 139.5s-14.333 105.167 -43 139.5s-67.667 51.5 -117 51.5c-50 0 -89.333 -17.167 -118 -51.5s-43 -80.833 -43 -139.5
s14.333 -105.167 43 -139.5s68 -51.5 118 -51.5z" />
    <glyph glyph-name="uni0432" unicode="&#x432;" horiz-adv-x="545" 
d="M351 270c102.667 -9.33301 154 -52 154 -128c0 -41.333 -15 -75.333 -45 -102s-78 -40 -144 -40h-247v524h235c60.667 0 106.667 -12 138 -36s47 -56 47 -96c0 -68 -46 -108.667 -138 -122zM157 458v-162.001h140c35.333 0 61.5 7.33301 78.5 22s25.5 34.334 25.5 59.001
c0 54 -36.333 81 -109 81h-135zM306 65.999c74 0 111 29 111 87c0 56.667 -38.667 85 -116 85h-144v-172h149z" />
    <glyph glyph-name="uni0433" unicode="&#x433;" horiz-adv-x="442" 
d="M69 0v524h346v-72h-258v-452h-88z" />
    <glyph glyph-name="uni0434" unicode="&#x434;" horiz-adv-x="557" 
d="M476 72l60.999 0.00292969v-213h-83v141h-359v-141h-83v213h39c8 17.333 14.833 38.166 20.5 62.499s10.667 62.166 15 113.499s7.33301 89.166 9 113.499s4.83398 78.5 9.50098 162.5h371v-452zM387.999 72.0029v379.999h-207
c-12 -171.333 -21.667 -277.666 -29 -318.999c-4.66699 -24 -10 -44.333 -16 -61h252z" />
    <glyph glyph-name="uni0435" unicode="&#x435;" horiz-adv-x="559" 
d="M39 262c0 89.333 22.5 157.333 67.5 204s104.833 70 179.5 70c76.667 0 135.167 -23.667 175.5 -71s60.5 -119.333 60.5 -216v-12h-395c3.33301 -60 19.833 -105.833 49.5 -137.5s68.5 -47.5 116.5 -47.5c68 0 114.333 30 139 90l83 -5
c-14 -46.667 -40 -83.167 -78 -109.5s-86 -39.5 -144 -39.5c-78 0 -139.833 23.167 -185.5 69.5s-68.5 114.5 -68.5 204.5zM128 295l307 -0.00195312c-0.666992 54.667 -14.5 97.834 -41.5 129.501s-62.833 47.5 -107.5 47.5c-44 0 -80.333 -15.167 -109 -45.5
s-45 -74.166 -49 -131.499z" />
    <glyph glyph-name="uni0436" unicode="&#x436;" horiz-adv-x="806" 
d="M795 0h-108l-176 231h-65v-231h-86v231h-65l-176 -231h-108l218 272l-210 252h104l169 -224h68v224h86v-224h68l169 224h104l-210 -252z" />
    <glyph glyph-name="uni0437" unicode="&#x437;" horiz-adv-x="519" 
d="M319 271c106.667 -11.333 159.999 -55.666 159.999 -132.999c0 -44.667 -17.333 -80.834 -52 -108.501s-91 -41.5 -169 -41.5c-144.667 0 -221.667 57 -231 171l84 4c6.66699 -72 55.667 -108 147 -108c44 0 77.167 8.5 99.5 25.5s33.5 40.167 33.5 69.5
c0 58.667 -47.667 88 -143 88h-66v58h62c44 0 76.833 7.83301 98.5 23.5s32.5 36.167 32.5 61.5c0 26.667 -10.667 48 -32 64s-49.666 24 -84.999 24c-36 0 -65.833 -8.66699 -89.5 -26s-37.167 -43 -40.5 -77l-85 5c4 55.333 25.333 96.666 64 123.999s89 41 151 41
c66.667 0 117.5 -12.5 152.5 -37.5s52.5 -58.5 52.5 -100.5c0 -71.333 -48 -113.666 -144 -126.999z" />
    <glyph glyph-name="uni0438" unicode="&#x438;" horiz-adv-x="598" 
d="M398 524h131v-524h-84v461l-244 -461h-132v524h85v-461z" />
    <glyph glyph-name="uni0439" unicode="&#x439;" horiz-adv-x="598" 
d="M299 594c-45.333 0 -79.6689 12.167 -103.002 36.5s-35.666 56.833 -36.999 97.5h59c2 -22.667 9.33301 -42 22 -58s32.334 -24 59.001 -24c48.667 0 76 27.333 82 82h59c-1.33301 -40.667 -13.833 -73.167 -37.5 -97.5s-58.167 -36.5 -103.5 -36.5zM397.997 524h131
v-524h-84v461l-244 -461h-132v524h85v-461z" />
    <glyph glyph-name="uni043A" unicode="&#x43a;" horiz-adv-x="545" 
d="M534 0h-109l-196 231h-72v-231h-88v524h88v-224h74l185 224h106l-228 -252z" />
    <glyph glyph-name="uni043B" unicode="&#x43b;" horiz-adv-x="559" 
d="M122 524l367.997 -0.00195312v-524h-88v452h-202l-8 -119c-2.66699 -49.333 -4.83398 -85 -6.50098 -107s-4.5 -49.333 -8.5 -82s-8.66699 -55.667 -14 -69s-12.666 -27.833 -21.999 -43.5s-20.666 -26 -33.999 -31s-29.333 -7.5 -48 -7.5c-10 0 -24.333 1.33301 -43 4
v70c6.66699 -0.666992 14.667 -1 24 -1c14.667 0 26.334 6.33301 35.001 19s15.834 37.834 21.501 75.501s9.5 70.834 11.5 99.501s4.66699 78.334 8 149.001c2.66699 49.333 4.66699 87.666 6 114.999z" />
    <glyph glyph-name="uni043C" unicode="&#x43c;" horiz-adv-x="765" 
d="M550 524h146v-524h-85v463l-174 -463h-110l-173 463v-463h-85v524h147l167 -476z" />
    <glyph glyph-name="uni043D" unicode="&#x43d;" horiz-adv-x="584" 
d="M69 0v524h88v-221h271v221h87v-524h-87v231h-271v-231h-88z" />
    <glyph glyph-name="uni043E" unicode="&#x43e;" horiz-adv-x="573" 
d="M39 262c0 84.667 22.5 151.5 67.5 200.5s105.167 73.5 180.5 73.5s135.333 -24.5 180 -73.5s67 -115.833 67 -200.5s-22.333 -151.5 -67 -200.5s-104.667 -73.5 -180 -73.5s-135.5 24.5 -180.5 73.5s-67.5 115.833 -67.5 200.5zM126 262c0 -62 14.5 -111.667 43.5 -149
s68.167 -56 117.5 -56c48.667 0 87.5 18.667 116.5 56s43.5 87 43.5 149s-14.5 111.667 -43.5 149s-67.833 56 -116.5 56c-49.333 0 -88.5 -18.667 -117.5 -56s-43.5 -87 -43.5 -149z" />
    <glyph glyph-name="uni043F" unicode="&#x43f;" horiz-adv-x="578" 
d="M69 0v524h440v-524h-87v452h-265v-452h-88z" />
    <glyph glyph-name="uni0440" unicode="&#x440;" horiz-adv-x="591" 
d="M69 -200v724h81v-112c16 39.333 40.167 69.833 72.5 91.5s69.5 32.5 111.5 32.5c65.333 0 118 -24.333 158 -73s60 -115.667 60 -201s-20 -152.333 -60 -201s-92.667 -73 -158 -73c-39.333 0 -74.333 9.66699 -105 29s-54.667 47 -72 83v-300h-88zM152 262
c0 -62 14.167 -111.667 42.5 -149s66.5 -56 114.5 -56s86 18.667 114 56s42 87 42 149s-14 111.667 -42 149s-66 56 -114 56s-86.167 -18.667 -114.5 -56s-42.5 -87 -42.5 -149z" />
    <glyph glyph-name="uni0441" unicode="&#x441;" horiz-adv-x="542" 
d="M39 262c0 87.333 21.667 154.834 65 202.501s102 71.5 176 71.5c60 0 110.5 -16 151.5 -48s65.5 -77.667 73.5 -137l-84 -8c-6.66699 40.667 -22.834 71.5 -48.501 92.5s-56.5 31.5 -92.5 31.5c-46.667 0 -84 -18.167 -112 -54.5s-42 -86.5 -42 -150.5
s14.167 -114.167 42.5 -150.5s66.166 -54.5 113.499 -54.5c37.333 0 68.833 11.167 94.5 33.5s42.167 54.166 49.5 95.499l84 -7c-8 -60.667 -32.667 -107.667 -74 -141s-92.666 -50 -153.999 -50c-75.333 0 -134.666 23.667 -177.999 71s-65 115 -65 203z" />
    <glyph glyph-name="uni0442" unicode="&#x442;" horiz-adv-x="488" 
d="M23 452v72h442v-72h-177v-452h-88v452h-177z" />
    <glyph glyph-name="uni0443" unicode="&#x443;" horiz-adv-x="546" 
d="M432 524l94 0.000976562l-195 -584c-18 -58 -39.333 -97.833 -64 -119.5s-62 -32.5 -112 -32.5c-16.667 0 -36 1 -58 3v68c24 -1.33301 41.667 -2 53 -2c27.333 0 48 6.66699 62 20s27 38.666 39 75.999l15 47h-49l-198 524h96l172 -489z" />
    <glyph glyph-name="uni0444" unicode="&#x444;" horiz-adv-x="722" 
d="M411 536c84 0 150 -24.167 198 -72.5s72 -115.5 72 -201.5s-24 -153.167 -72 -201.5s-114 -72.5 -198 -72.5h-7v-188h-85v188h-6c-84.667 0 -151.334 24.167 -200.001 72.5s-73 115.5 -73 201.5s24.333 153.167 73 201.5s115.334 72.5 200.001 72.5h6v200h85v-200h7z
M315 57h4v410h-4c-58 0 -104 -18 -138 -54s-51 -86.333 -51 -151s17 -115 51 -151s80 -54 138 -54zM408 57c58 0 103.833 18 137.5 54s50.5 86.333 50.5 151s-16.833 115 -50.5 151s-79.5 54 -137.5 54h-4v-410h4z" />
    <glyph glyph-name="uni0445" unicode="&#x445;" horiz-adv-x="554" 
d="M532 0h-107l-150 205l-150 -205h-102l201 264l-192 260h106l139 -198l139 198h102l-189 -257z" />
    <glyph glyph-name="uni0446" unicode="&#x446;" horiz-adv-x="591" 
d="M69 0v524h88v-452h265v452h87v-452h62v-213h-83v141h-419z" />
    <glyph glyph-name="uni0447" unicode="&#x447;" horiz-adv-x="551" 
d="M395 524h87v-524h-87v218c-66 -14 -121 -21 -165 -21c-120 0 -180 58.667 -180 176v151h88v-139c0 -41.333 9.83301 -71 29.5 -89s50.5 -27 92.5 -27c36 0 81 7.33301 135 22v233z" />
    <glyph glyph-name="uni0448" unicode="&#x448;" horiz-adv-x="854" 
d="M69 0v524h86v-452h229v452h86v-452h229v452h86v-524h-716z" />
    <glyph glyph-name="uni0449" unicode="&#x449;" horiz-adv-x="867" 
d="M69 0v524h86v-452h229v452h86v-452h229v452h86v-452h62v-213h-83v141h-695z" />
    <glyph glyph-name="uni044A" unicode="&#x44a;" horiz-adv-x="610" 
d="M375 323c133.333 0 200 -53.667 200 -161c0 -108 -66.667 -162 -200 -162h-185h-42v452h-125v72h213v-201h139zM368 67c79.333 0 119 32 119 96c0 62.667 -39.667 94 -119 94h-132v-190h132z" />
    <glyph glyph-name="uni044B" unicode="&#x44b;" horiz-adv-x="723" 
d="M284 323c132.667 0 199 -53.667 199 -161c0 -108 -66.333 -162 -199 -162h-173h-42v524h88v-201h127zM566 524h88v-524h-88v524zM277 67c79.333 0 119 32 119 96c0 62.667 -39.667 94 -119 94h-120v-190h120z" />
    <glyph glyph-name="uni044C" unicode="&#x44c;" horiz-adv-x="531" 
d="M296 323c132.667 0 199 -53.667 199 -161c0 -108 -66.333 -162 -199 -162h-185h-42v524h88v-201h139zM289 67c79.333 0 119 32 119 96c0 62.667 -39.667 94 -119 94h-132v-190h132z" />
    <glyph glyph-name="uni044D" unicode="&#x44d;" horiz-adv-x="540" 
d="M261 536c74 0 132.498 -23.8311 175.498 -71.498s64.5 -115.167 64.5 -202.5c0 -88 -21.667 -155.667 -65 -203s-102.666 -71 -177.999 -71c-59.333 0 -109.333 15.667 -150 47s-66 76 -76 134l85 6c8.66699 -38.667 25.5 -68.334 50.5 -89.001s55.167 -31 90.5 -31
c44.667 0 80.834 16 108.501 48s43.5 76.667 47.5 134h-204v60h203c-4.66699 54.667 -20.667 97 -48 127s-62 45 -104 45c-34 0 -63.667 -9.83301 -89 -29.5s-42 -47.834 -50 -84.501l-85 6c10 56 35.333 99.167 76 129.5s90 45.5 148 45.5z" />
    <glyph glyph-name="uni044E" unicode="&#x44e;" horiz-adv-x="785" 
d="M505 536c74.667 0 133.5 -23.832 176.5 -71.499s64.5 -115.167 64.5 -202.5s-21.5 -154.833 -64.5 -202.5s-101.833 -71.5 -176.5 -71.5c-70 0 -126.333 21.167 -169 63.5s-66.667 102.166 -72 179.499h-107v-231h-88v524h88v-221h108
c6.66699 74.667 31.167 132.167 73.5 172.5s97.833 60.5 166.5 60.5zM505 57.001c47.333 0 84.833 18.167 112.5 54.5s41.5 86.5 41.5 150.5s-13.833 114.167 -41.5 150.5s-65.167 54.5 -112.5 54.5s-85 -18.167 -113 -54.5s-42 -86.5 -42 -150.5s14 -114.167 42 -150.5
s65.667 -54.5 113 -54.5z" />
    <glyph glyph-name="uni044F" unicode="&#x44f;" horiz-adv-x="546" 
d="M241 524h236v-524h-89v216h-114l-139 -216h-105l157 220c-44.667 7.33301 -79 23.833 -103 49.5s-36 59.167 -36 100.5c0 49.333 16.833 87.333 50.5 114s81.167 40 142.5 40zM388 274v183h-136c-36.667 0 -65.167 -8.16699 -85.5 -24.5s-30.5 -38.833 -30.5 -67.5
c0 -28 10.167 -50.167 30.5 -66.5s48.833 -24.5 85.5 -24.5h136z" />
    <glyph glyph-name="uni0451" unicode="&#x451;" horiz-adv-x="559" 
d="M151 610v106h81v-106h-81zM322 610v106h81v-106h-81zM39 262c0 89.333 22.5 157.333 67.5 204s104.833 70 179.5 70c76.667 0 135.167 -23.667 175.5 -71s60.5 -119.333 60.5 -216v-12h-395c3.33301 -60 19.833 -105.833 49.5 -137.5s68.5 -47.5 116.5 -47.5
c68 0 114.333 30 139 90l83 -5c-14 -46.667 -40 -83.167 -78 -109.5s-86 -39.5 -144 -39.5c-78 0 -139.833 23.167 -185.5 69.5s-68.5 114.5 -68.5 204.5zM128 295l307 -0.00195312c-0.666992 54.667 -14.5 97.834 -41.5 129.501s-62.833 47.5 -107.5 47.5
c-44 0 -80.333 -15.167 -109 -45.5s-45 -74.166 -49 -131.499z" />
    <glyph glyph-name="uni0454" unicode="&#x454;" horiz-adv-x="540" 
d="M424 175l84.999 -6.00195c-10 -58 -35.5 -102.667 -76.5 -134s-91.167 -47 -150.5 -47c-75.333 0 -134.666 23.667 -177.999 71s-65 115 -65 203c0 87.333 21.667 154.833 65 202.5s102 71.5 176 71.5c58 0 107.167 -15.167 147.5 -45.5s65.5 -73.5 75.5 -129.5l-84 -6
c-8 36.667 -24.667 64.834 -50 84.501s-55 29.5 -89 29.5c-42 0 -76.667 -15 -104 -45s-43.333 -72.333 -48 -127h203v-60h-204c3.33301 -57.333 18.833 -102 46.5 -134s63.834 -48 108.501 -48c35.333 0 65.666 10.333 90.999 31s42.333 50.334 51 89.001z" />
    <glyph glyph-name="uni0456" unicode="&#x456;" horiz-adv-x="228" 
d="M68 610v112h92v-112h-92zM70 0v524h88v-524h-88z" />
    <glyph glyph-name="uni0457" unicode="&#x457;" horiz-adv-x="220" 
d="M-1 610v106h76v-106h-76zM146 610v106h75v-106h-75zM66 0v524h88v-524h-88z" />
    <glyph glyph-name="uni045E" unicode="&#x45e;" horiz-adv-x="546" 
d="M273 594c-45.333 0 -79.8359 12.167 -103.503 36.5s-36.167 56.833 -37.5 97.5h59c6 -54.667 33.333 -82 82 -82c26.667 0 46.334 8 59.001 24s20 35.333 22 58h59c-1.33301 -40.667 -13.666 -73.167 -36.999 -97.5s-57.666 -36.5 -102.999 -36.5zM431.997 524
l94 0.000976562l-195 -584c-18 -58 -39.333 -97.833 -64 -119.5s-62 -32.5 -112 -32.5c-16.667 0 -36 1 -58 3v68c24 -1.33301 41.667 -2 53 -2c27.333 0 48 6.66699 62 20s27 38.666 39 75.999l15 47h-49l-198 524h96l172 -489z" />
    <glyph glyph-name="uni0490" unicode="&#x490;" horiz-adv-x="549" 
d="M84 0v700h345v169h86v-244h-339v-625h-92z" />
    <glyph glyph-name="uni0491" unicode="&#x491;" horiz-adv-x="446" 
d="M69 0v524h264v146h82v-218h-258v-452h-88z" />
    <glyph glyph-name="uni04C1" unicode="&#x4c1;" horiz-adv-x="1010" 
d="M505 759c-46.667 0 -82.1689 11.333 -106.502 34s-37.166 53.334 -38.499 92.001h59c2 -20.667 9.66699 -38.334 23 -53.001s34.333 -22 63 -22s49.667 7.33301 63 22s21 32.334 23 53.001h59c-1.33301 -38.667 -14.166 -69.334 -38.499 -92.001s-59.833 -34 -106.5 -34z
M986.998 0h-109l-231 318h-98v-318h-90v318h-96l-232 -318h-109l269 360l-259 340h106l224 -310h97v310h90v-310h99l224 310h105l-258 -340z" />
    <glyph glyph-name="uni04C2" unicode="&#x4c2;" horiz-adv-x="806" 
d="M403 594c-45.333 0 -79.6709 12.167 -103.004 36.5s-35.666 56.833 -36.999 97.5h59c2 -22.667 9.33301 -42 22 -58s32.334 -24 59.001 -24c48.667 0 76 27.333 82 82h58c-1.33301 -40.667 -13.666 -73.167 -36.999 -97.5s-57.666 -36.5 -102.999 -36.5zM794.995 0h-108
l-176 231h-65v-231h-86v231h-65l-176 -231h-108l218 272l-210 252h104l169 -224h68v224h86v-224h68l169 224h104l-210 -252z" />
    <glyph glyph-name="Wgrave" unicode="&#x1e80;" horiz-adv-x="961" 
d="M522 763h-71l-110 116h92zM839 700h96l-176 -700h-137l-141 635l-144 -635h-138l-173 700h99l147 -632l144 632h132l142 -632z" />
    <glyph glyph-name="wgrave" unicode="&#x1e81;" horiz-adv-x="847" 
d="M474 592h-69l-101 143h91zM728 524h95l-159 -524h-123l-116 479l-118 -479h-126l-158 524h98l127 -462l117 462h122l114 -454z" />
    <glyph glyph-name="Wacute" unicode="&#x1e82;" horiz-adv-x="961" 
d="M621 879l-110 -116h-71l89 116h92zM839 700h96l-176 -700h-137l-141 635l-144 -635h-138l-173 700h99l147 -632l144 632h132l142 -632z" />
    <glyph glyph-name="wacute" unicode="&#x1e83;" horiz-adv-x="847" 
d="M543 735l-101 -143h-70l79 143h92zM728 524h95l-159 -524h-123l-116 479l-118 -479h-126l-158 524h98l127 -462l117 462h122l114 -454z" />
    <glyph glyph-name="Wdieresis" unicode="&#x1e84;" horiz-adv-x="961" 
d="M431 860v-95h-89v95h89zM621 860v-95h-89v95h89zM839 700h96l-176 -700h-137l-141 635l-144 -635h-138l-173 700h99l147 -632l144 632h132l142 -632z" />
    <glyph glyph-name="wdieresis" unicode="&#x1e85;" horiz-adv-x="847" 
d="M378 716v-106h-80v106h80zM549 716v-106h-81v106h81zM728 524h95l-159 -524h-123l-116 479l-118 -479h-126l-158 524h98l127 -462l117 462h122l114 -454z" />
    <glyph glyph-name="uni1E9E" unicode="&#x1e9e;" horiz-adv-x="651" 
d="M540 354c47.333 -38 70.998 -91.001 70.998 -159.001c0 -66 -21.167 -116.333 -63.5 -151s-99.166 -52 -170.499 -52c-30 0 -57.333 2.66699 -82 8v70c26.667 -4 48 -6 64 -6c46.667 0 85 11.833 115 35.5s45 58.834 45 105.501c0 45.333 -14.167 79.333 -42.5 102
s-65.833 34 -112.5 34c-21.333 0 -47 -3 -77 -9v68l170 228h-159c-41.333 0 -73.666 -12.833 -96.999 -38.5s-35 -64.5 -35 -116.5v-473h-92v485c0 143.333 77 215 231 215h251v-61l-184 -239c70 2 126 -13.333 168 -46z" />
    <glyph glyph-name="Ygrave" unicode="&#x1ef2;" horiz-adv-x="654" 
d="M368 763h-70l-111 116h92zM536 700h102l-265 -411v-289h-92v288l-264 412h105l205 -338z" />
    <glyph glyph-name="ygrave" unicode="&#x1ef3;" horiz-adv-x="546" 
d="M324 592h-70l-101 143h92zM432 524l94 0.000976562l-195 -584c-18 -58 -39.333 -97.833 -64 -119.5s-62 -32.5 -112 -32.5c-16.667 0 -36 1 -58 3v68c24 -1.33301 41.667 -2 53 -2c27.333 0 48 6.66699 62 20s27 38.666 39 75.999l15 47h-49l-198 524h96l172 -489z" />
    <glyph glyph-name="endash" unicode="&#x2013;" horiz-adv-x="551" 
d="M57 332h437v-68h-437v68z" />
    <glyph glyph-name="emdash" unicode="&#x2014;" horiz-adv-x="680" 
d="M57 332h566v-68h-566v68z" />
    <glyph glyph-name="quoteleft" unicode="&#x2018;" horiz-adv-x="193" 
d="M135 712v-210h-87v65l49 145h38z" />
    <glyph glyph-name="quoteright" unicode="&#x2019;" horiz-adv-x="193" 
d="M58 490v210h87v-65l-49 -145h-38z" />
    <glyph glyph-name="quotesinglbase" unicode="&#x201a;" horiz-adv-x="193" 
d="M58 -95v210h87v-65l-49 -145h-38z" />
    <glyph glyph-name="quotedblleft" unicode="&#x201c;" horiz-adv-x="343" 
d="M135 712v-210h-87v65l49 145h38zM285 712v-210h-87v65l48 145h39z" />
    <glyph glyph-name="quotedblright" unicode="&#x201d;" horiz-adv-x="343" 
d="M58 490v210h87v-65l-49 -145h-38zM208 490v210h87v-65l-49 -145h-38z" />
    <glyph glyph-name="quotedblbase" unicode="&#x201e;" horiz-adv-x="343" 
d="M58 -95v210h87v-65l-49 -145h-38zM208 -95v210h87v-65l-49 -145h-38z" />
    <glyph glyph-name="dagger" unicode="&#x2020;" horiz-adv-x="426" 
d="M374 524v-66h-120v-513h-82v513h-120v66h120v176h82v-176h120z" />
    <glyph glyph-name="daggerdbl" unicode="&#x2021;" horiz-adv-x="434" 
d="M378 458h-120v-261h120v-66h-120v-186h-82v186h-120v66h120v261h-120v66h120v176h82v-176h120v-66z" />
    <glyph glyph-name="bullet" unicode="&#x2022;" horiz-adv-x="379" 
d="M189 211c-31.333 0 -56.668 9.66699 -76.001 29s-29 44.333 -29 75c0 30 9.83301 54.833 29.5 74.5s44.834 29.5 75.501 29.5s56 -9.83301 76 -29.5s30 -44.5 30 -74.5c0 -30.667 -10 -55.667 -30 -75s-45.333 -29 -76 -29z" />
    <glyph glyph-name="ellipsis" unicode="&#x2026;" horiz-adv-x="631" 
d="M64 0v115h101v-115h-101zM265 0v115h102v-115h-102zM466 0v115h102v-115h-102z" />
    <glyph glyph-name="perthousand" unicode="&#x2030;" horiz-adv-x="1146" 
d="M31 538c0 52.667 14.333 93.834 43 123.501s67.667 44.5 117 44.5s88.333 -14.833 117 -44.5s43 -70.834 43 -123.501s-14.333 -94.167 -43 -124.5s-67.667 -45.5 -117 -45.5s-88.333 15.167 -117 45.5s-43 71.833 -43 124.5zM123 0l475 700h60l-474 -700h-61zM95 538
c0 -36.667 8.33398 -65.334 25.001 -86.001s40.334 -31 71.001 -31c29.333 0 52.666 10.333 69.999 31s26 49.334 26 86.001c0 36 -8.5 64.167 -25.5 84.5s-40.5 30.5 -70.5 30.5c-30.667 0 -54.334 -10 -71.001 -30s-25 -48.333 -25 -85zM431.001 163
c0 52 14.167 93.167 42.5 123.5s67.166 45.5 116.499 45.5c50 0 89.333 -15.167 118 -45.5s43 -71.5 43 -123.5s-14.333 -93.167 -43 -123.5s-68 -45.5 -118 -45.5c-49.333 0 -88.166 15.167 -116.499 45.5s-42.5 71.5 -42.5 123.5zM804.001 163
c0 52 14.167 93.167 42.5 123.5s67.166 45.5 116.499 45.5c50 0 89.167 -15.167 117.5 -45.5s42.5 -71.5 42.5 -123.5s-14.167 -93.167 -42.5 -123.5s-67.5 -45.5 -117.5 -45.5c-49.333 0 -88.166 15.167 -116.499 45.5s-42.5 71.5 -42.5 123.5zM494.001 163
c0 -36 8.5 -64.5 25.5 -85.5s40.5 -31.5 70.5 -31.5s53.5 10.5 70.5 31.5s25.5 49.5 25.5 85.5s-8.5 64.5 -25.5 85.5s-40.5 31.5 -70.5 31.5s-53.5 -10.5 -70.5 -31.5s-25.5 -49.5 -25.5 -85.5zM867.001 163c0 -36 8.5 -64.5 25.5 -85.5s40.5 -31.5 70.5 -31.5
s53.5 10.5 70.5 31.5s25.5 49.5 25.5 85.5s-8.5 64.5 -25.5 85.5s-40.5 31.5 -70.5 31.5s-53.5 -10.5 -70.5 -31.5s-25.5 -49.5 -25.5 -85.5z" />
    <glyph glyph-name="guilsinglleft" unicode="&#x2039;" horiz-adv-x="284" 
d="M241 456l-142 -176l142 -176h-88l-122 155v42l122 155h88z" />
    <glyph glyph-name="guilsinglright" unicode="&#x203a;" horiz-adv-x="284" 
d="M130 456l123 -155v-42l-123 -155h-87l141 176l-141 176h87z" />
    <glyph glyph-name="fraction" unicode="&#x2044;" horiz-adv-x="165" 
d="M-189 0l475 700h68l-475 -700h-68z" />
    <glyph glyph-name="uni2070" unicode="&#x2070;" horiz-adv-x="444" 
d="M45 548c0 70 15.333 125 46 165s74.334 60 131.001 60s100.334 -20 131.001 -60s46 -95 46 -165s-15.333 -125 -46 -165s-74.334 -60 -131.001 -60s-100.334 20 -131.001 60s-46 95 -46 165zM115 548c0 -53.333 9.5 -94.666 28.5 -123.999s45.167 -44 78.5 -44
s59.5 14.667 78.5 44s28.5 70.666 28.5 123.999s-9.5 94.666 -28.5 123.999s-45.167 44 -78.5 44s-59.5 -14.667 -78.5 -44s-28.5 -70.666 -28.5 -123.999z" />
    <glyph glyph-name="uni2074" unicode="&#x2074;" horiz-adv-x="431" 
d="M332 487h74v-57h-74v-97h-70v97h-239v53l195 281h114v-277zM92 487h170v242z" />
    <glyph glyph-name="uni2075" unicode="&#x2075;" horiz-adv-x="400" 
d="M219 614c44 0 79.333 -11.999 106 -35.999s40 -58.333 40 -103c0 -47.333 -15.333 -84 -46 -110s-70.667 -39 -120 -39c-44.667 0 -82.334 10.667 -113.001 32s-49 51.333 -55 90l68 4c4 -22.667 15.333 -39.834 34 -51.501s40.667 -17.5 66 -17.5
c28 0 51 7.83301 69 23.5s27 38.5 27 68.5c0 30.667 -9 53.667 -27 69s-41.333 23 -70 23c-41.333 0 -72.666 -14.667 -93.999 -44l-62 5l19 236h279v-57h-226l-11 -135c28 28 66.667 42 116 42z" />
    <glyph glyph-name="uni2076" unicode="&#x2076;" horiz-adv-x="429" 
d="M242 609c43.333 0 79.001 -12 107.001 -36s42 -58.333 42 -103c0 -45.333 -15.167 -81 -45.5 -107s-71.166 -39 -122.499 -39c-118.667 0 -178 72.333 -178 217c0 76.667 15.667 134.667 47 174s75.666 59 132.999 59c43.333 0 78.166 -10.667 104.499 -32
s41.5 -51.333 45.5 -90l-68 -4c-2 20.667 -10.167 37.334 -24.5 50.001s-33.5 19 -57.5 19c-41.333 0 -71 -19.667 -89 -59c-13.333 -26.667 -20 -63.334 -20 -110.001c25.333 40.667 67.333 61 126 61zM223.001 381c30 0 53.833 8 71.5 24s26.5 37.667 26.5 65
c0 28 -8.83301 50.167 -26.5 66.5s-41.5 24.5 -71.5 24.5c-29.333 0 -52.833 -8.16699 -70.5 -24.5s-26.5 -38.5 -26.5 -66.5c0 -26.667 8.83301 -48.167 26.5 -64.5s41.167 -24.5 70.5 -24.5z" />
    <glyph glyph-name="uni2077" unicode="&#x2077;" horiz-adv-x="348" 
d="M20 764h314.001v-48c-86.667 -125.333 -143.334 -253 -170.001 -383h-75c28 126 86.667 250.667 176 374h-245v57z" />
    <glyph glyph-name="uni2078" unicode="&#x2078;" horiz-adv-x="423" 
d="M278 559c33.333 -8 59.667 -21.667 79 -41s29 -43.333 29 -72c0 -38.667 -16.5 -68.667 -49.5 -90s-74.5 -32 -124.5 -32s-91.667 10.667 -125 32s-50 51.333 -50 90c0 28.667 9.83301 52.667 29.5 72s46.167 33 79.5 41c-30.667 6.66699 -54.667 18.667 -72 36
s-26 39.333 -26 66c0 36 15.5 63.833 46.5 83.5s70.167 29.5 117.5 29.5c46.667 0 85.5 -9.83301 116.5 -29.5s46.5 -47.5 46.5 -83.5c0 -52.667 -32.333 -86.667 -97 -102zM117.001 651c0 -22.667 8.66699 -39.834 26 -51.501s40.333 -17.5 69 -17.5
s51.5 5.83301 68.5 17.5s25.5 28.834 25.5 51.501s-8.5 40 -25.5 52s-39.833 18 -68.5 18s-51.667 -6 -69 -18s-26 -29.333 -26 -52zM212.001 377c32 0 57.667 6.66699 77 20s29 32.333 29 57c0 24 -9.66699 42.667 -29 56s-45 20 -77 20
c-32.667 0 -58.5 -6.66699 -77.5 -20s-28.5 -32 -28.5 -56c0 -24.667 9.5 -43.667 28.5 -57s44.833 -20 77.5 -20z" />
    <glyph glyph-name="uni2079" unicode="&#x2079;" horiz-adv-x="429" 
d="M206 774c118.667 0 178.002 -72.332 178.002 -216.999c0 -77.333 -15.333 -135.5 -46 -174.5s-75 -58.5 -133 -58.5c-43.333 0 -78.333 10.667 -105 32s-42 51.333 -46 90l68 4c2.66699 -20.667 11.167 -37.334 25.5 -50.001s33.5 -19 57.5 -19c43.333 0 74 21.667 92 65
c11.333 27.333 16.666 63 15.999 107c-24.667 -41.333 -67 -62 -127 -62c-42.667 0 -78 12 -106 36s-42 57.667 -42 101c0 45.333 15.167 81 45.5 107s71.166 39 122.499 39zM206.002 540.001c29.333 0 52.833 8 70.5 24s26.5 37.333 26.5 64s-8.83301 48.167 -26.5 64.5
s-41.167 24.5 -70.5 24.5s-53 -8.16699 -71 -24.5s-27 -37.833 -27 -64.5s9 -48 27 -64s41.667 -24 71 -24z" />
    <glyph glyph-name="uni2080" unicode="&#x2080;" horiz-adv-x="444" 
d="M45 98c0 70 15.333 125 46 165s74.334 60 131.001 60s100.334 -20 131.001 -60s46 -95 46 -165s-15.333 -125 -46 -165s-74.334 -60 -131.001 -60s-100.334 20 -131.001 60s-46 95 -46 165zM115 98c0 -53.333 9.5 -94.666 28.5 -123.999s45.167 -44 78.5 -44
s59.5 14.667 78.5 44s28.5 70.666 28.5 123.999s-9.5 94.666 -28.5 123.999s-45.167 44 -78.5 44s-59.5 -14.667 -78.5 -44s-28.5 -70.666 -28.5 -123.999z" />
    <glyph glyph-name="uni2081" unicode="&#x2081;" horiz-adv-x="274" 
d="M128 315h58v-431h-71v348l-80 -66v74z" />
    <glyph glyph-name="uni2082" unicode="&#x2082;" horiz-adv-x="361" 
d="M111 -62l224 0.00195312v-57h-317v52l145 139l48.5 47.5c10.333 10.333 19.833 23.166 28.5 38.499s13 30.333 13 45c0 20.667 -6.5 36.5 -19.5 47.5s-30.167 16.5 -51.5 16.5c-51.333 0 -80 -33.667 -86 -101l-68 6c3.33301 50.667 19 88.667 47 114s63.667 38 107 38
c41.333 0 75.166 -10.5 101.499 -31.5s39.5 -50.833 39.5 -89.5c0 -26 -7.16699 -50.333 -21.5 -73s-39.166 -50.334 -74.499 -83.001z" />
    <glyph glyph-name="uni2083" unicode="&#x2083;" horiz-adv-x="377" 
d="M292 121c35.333 -22 53.001 -56.667 53.001 -104c0 -45.333 -15.833 -80 -47.5 -104s-71.834 -36 -120.501 -36c-46.667 0 -84.5 11 -113.5 33s-45.833 54.667 -50.5 98l68 5c6.66699 -52.667 38.667 -79 96 -79c29.333 0 52.833 7.16699 70.5 21.5
s26.5 34.833 26.5 61.5c0 24.667 -8 44.167 -24 58.5s-39.667 21.5 -71 21.5c-18 0 -40.667 -2.33301 -68 -7v48l131 120h-207v57h297v-50l-143 -120c42 0 76.333 -8 103 -24z" />
    <glyph glyph-name="uni2084" unicode="&#x2084;" horiz-adv-x="431" 
d="M332 38h74v-57h-74v-97h-70v97h-239v53l195 281h114v-277zM92 38h170v242z" />
    <glyph glyph-name="uni2085" unicode="&#x2085;" horiz-adv-x="400" 
d="M219 165c44 0 79.333 -11.999 106 -35.999s40 -58.333 40 -103c0 -47.333 -15.333 -84 -46 -110s-70.667 -39 -120 -39c-44.667 0 -82.334 10.667 -113.001 32s-49 51.333 -55 90l68 4c4 -22.667 15.333 -39.834 34 -51.501s40.667 -17.5 66 -17.5
c28 0 51 7.83301 69 23.5s27 38.5 27 68.5c0 30.667 -9 53.667 -27 69s-41.333 23 -70 23c-41.333 0 -72.666 -14.667 -93.999 -44l-62 5l19 236h279v-57h-226l-11 -135c28 28 66.667 42 116 42z" />
    <glyph glyph-name="uni2086" unicode="&#x2086;" horiz-adv-x="429" 
d="M242 159c43.333 0 79.001 -12 107.001 -36s42 -58.333 42 -103c0 -45.333 -15.167 -81 -45.5 -107s-71.166 -39 -122.499 -39c-118.667 0 -178 72.333 -178 217c0 76.667 15.667 134.667 47 174s75.666 59 132.999 59c43.333 0 78.166 -10.667 104.499 -32
s41.5 -51.333 45.5 -90l-68 -4c-2 20.667 -10.167 37.334 -24.5 50.001s-33.5 19 -57.5 19c-41.333 0 -71 -19.667 -89 -59c-13.333 -26.667 -20 -63.334 -20 -110.001c25.333 40.667 67.333 61 126 61zM223.001 -69c30 0 53.833 8 71.5 24s26.5 37.667 26.5 65
c0 28 -8.83301 50.167 -26.5 66.5s-41.5 24.5 -71.5 24.5c-29.333 0 -52.833 -8.16699 -70.5 -24.5s-26.5 -38.5 -26.5 -66.5c0 -26.667 8.83301 -48.167 26.5 -64.5s41.167 -24.5 70.5 -24.5z" />
    <glyph glyph-name="uni2087" unicode="&#x2087;" horiz-adv-x="348" 
d="M20 315h314.001v-48c-86.667 -125.333 -143.334 -253 -170.001 -383h-75c28 126 86.667 250.667 176 374h-245v57z" />
    <glyph glyph-name="uni2088" unicode="&#x2088;" horiz-adv-x="423" 
d="M278 109c33.333 -8 59.667 -21.667 79 -41s29 -43.333 29 -72c0 -38.667 -16.5 -68.667 -49.5 -90s-74.5 -32 -124.5 -32s-91.667 10.667 -125 32s-50 51.333 -50 90c0 28.667 9.83301 52.667 29.5 72s46.167 33 79.5 41c-30.667 6.66699 -54.667 18.667 -72 36
s-26 39.333 -26 66c0 36 15.5 63.833 46.5 83.5s70.167 29.5 117.5 29.5c46.667 0 85.5 -9.83301 116.5 -29.5s46.5 -47.5 46.5 -83.5c0 -52.667 -32.333 -86.667 -97 -102zM117.001 201c0 -22.667 8.66699 -39.834 26 -51.501s40.333 -17.5 69 -17.5
s51.5 5.83301 68.5 17.5s25.5 28.834 25.5 51.501s-8.5 40 -25.5 52s-39.833 18 -68.5 18s-51.667 -6 -69 -18s-26 -29.333 -26 -52zM212.001 -73c32 0 57.667 6.66699 77 20s29 32.333 29 57c0 24 -9.66699 42.667 -29 56s-45 20 -77 20
c-32.667 0 -58.5 -6.66699 -77.5 -20s-28.5 -32 -28.5 -56c0 -24.667 9.5 -43.667 28.5 -57s44.833 -20 77.5 -20z" />
    <glyph glyph-name="uni2089" unicode="&#x2089;" horiz-adv-x="429" 
d="M206 324c118.667 0 178.002 -72.332 178.002 -216.999c0 -77.333 -15.333 -135.5 -46 -174.5s-75 -58.5 -133 -58.5c-43.333 0 -78.333 10.667 -105 32s-42 51.333 -46 90l68 4c2.66699 -20.667 11.167 -37.334 25.5 -50.001s33.5 -19 57.5 -19c43.333 0 74 21.667 92 65
c11.333 27.333 16.666 63 15.999 107c-24.667 -41.333 -67 -62 -127 -62c-42.667 0 -78 12 -106 36s-42 57.667 -42 101c0 45.333 15.167 81 45.5 107s71.166 39 122.499 39zM206.002 90.001c29.333 0 52.833 8 70.5 24s26.5 37.333 26.5 64s-8.83301 48.167 -26.5 64.5
s-41.167 24.5 -70.5 24.5s-53 -8.16699 -71 -24.5s-27 -37.833 -27 -64.5s9 -48 27 -64s41.667 -24 71 -24z" />
    <glyph glyph-name="Euro" unicode="&#x20ac;" horiz-adv-x="643" 
d="M528 212l83.0029 -3.99805c-11.333 -66.667 -38.833 -120 -82.5 -160s-101.167 -60 -172.5 -60c-78 0 -141.167 25 -189.5 75s-78.833 116.667 -91.5 200h-65v47h60c0 3.33301 -0.166992 8.83301 -0.5 16.5s-0.5 13.5 -0.5 17.5s0.166992 9.83301 0.5 17.5
s0.5 13.167 0.5 16.5h-58v47h63c11.333 84 40.666 150.833 87.999 200.5s109.333 74.5 186 74.5c66 0 121.333 -17.333 166 -52s73.667 -82.334 87 -143.001l-84 -6c-10.667 39.333 -30.834 70.666 -60.501 93.999s-64.834 35 -105.501 35
c-51.333 0 -92.833 -18.667 -124.5 -56s-52.5 -86.333 -62.5 -147h269v-47h-275c0 -3.33301 -0.166992 -8.83301 -0.5 -16.5s-0.5 -13.5 -0.5 -17.5c0 -8 0.666992 -19.333 2 -34h271v-47h-266c10.667 -61.333 32.667 -110.5 66 -147.5s75.666 -55.5 126.999 -55.5
c45.333 0 82.833 14 112.5 42s48.834 64.667 57.501 110z" />
    <glyph glyph-name="uni20B4" unicode="&#x20b4;" horiz-adv-x="544" 
d="M418 390c-17.333 -13.333 -36.334 -24.9951 -57.001 -34.9951l-75 -37h232v-40h-308c-47.333 -28.667 -71 -65.667 -71 -111c0 -37.333 12.5 -64.833 37.5 -82.5s56.5 -26.5 94.5 -26.5c42 0 76.833 10.333 104.5 31s42.834 53 45.501 97l83 -3
c-4.66699 -66.667 -27.5 -115.834 -68.5 -147.501s-95.5 -47.5 -163.5 -47.5s-122 15.167 -162 45.5s-60 73.5 -60 129.5c0 45.333 14.667 83.666 44 114.999h-63v40h111c13.333 8 29.333 16.667 48 26l92 46h-251v39h320c32.667 26 49 58 49 96
c0 32.667 -10.333 58.334 -31 77.001s-49 28 -85 28c-13.333 0 -26.5 -1.66699 -39.5 -5s-26 -8.5 -39 -15.5s-24 -17.833 -33 -32.5s-14.5 -32.334 -16.5 -53.001l-82 5c2.66699 32 11.167 59.667 25.5 83s32 41.166 53 53.499s42.5 21.166 64.5 26.499s45 8 69 8
c58.667 0 107 -14.333 145 -43s57 -71.334 57 -128.001c0 -38 -10 -71.333 -30 -100h60v-39h-100z" />
    <glyph glyph-name="uni20BD" unicode="&#x20bd;" horiz-adv-x="605" 
d="M344 287l-163 0.000976562v-73h219v-55h-219v-159h-89v159h-65v55h65v73h-65v66h65v335h89h160c64.667 0 118.167 -16.833 160.5 -50.5s63.5 -84.5 63.5 -152.5c0 -68.667 -20.5 -118.834 -61.5 -150.501s-94.167 -47.5 -159.5 -47.5zM181 616.001v-263h151
c44 0 79 11 105 33s39 55 39 99c0 43.333 -13 76 -39 98s-61 33 -105 33h-151z" />
    <glyph glyph-name="uni2116" unicode="&#x2116;" horiz-adv-x="1160" 
d="M930 333c-54.667 0 -98.167 17 -130.5 51s-48.5 80.333 -48.5 139c0 58 16.167 104 48.5 138s75.833 51 130.5 51c54 0 97.167 -17 129.5 -51s48.5 -80 48.5 -138s-16.167 -104.167 -48.5 -138.5s-75.5 -51.5 -129.5 -51.5zM551 55v645h89v-700h-155l-312 645v-645h-89
v700h155zM930 652c-32 0 -57.167 -11.6689 -75.5 -35.002s-27.5 -54.666 -27.5 -93.999s9.16699 -70.833 27.5 -94.5s43.5 -35.5 75.5 -35.5s57.167 11.833 75.5 35.5s27.5 55.167 27.5 94.5c0 38.667 -9.16699 69.834 -27.5 93.501s-43.5 35.5 -75.5 35.5zM764 211.998v59
h331v-59h-331z" />
    <glyph glyph-name="trademark" unicode="&#x2122;" horiz-adv-x="793" 
d="M16 658v42h280v-42h-114v-327h-52v327h-114zM651 700h90v-369h-51v335l-107 -335h-72l-106 333v-333h-52v369h90l105 -339z" />
    <glyph glyph-name="oneeighth" unicode="&#x215b;" horiz-adv-x="771" 
d="M102 340v285l-74 -49v66l87 58h49v-360h-62zM521 700h67l-475 -700h-68zM643 185c29.333 -6 52.499 -17.1689 69.499 -33.502s25.5 -36.5 25.5 -60.5c0 -32.667 -14.667 -58 -44 -76s-65.666 -27 -108.999 -27s-79.666 9 -108.999 27s-44 43.333 -44 76
c0 24 8.66699 44.167 26 60.5s40.666 27.5 69.999 33.5c-57.333 12 -86 40.333 -86 85c0 30.667 13.667 54.334 41 71.001s61.333 25 102 25s74.5 -8.16699 101.5 -24.5s40.5 -40.166 40.5 -71.499c0 -44.667 -28 -73 -84 -85zM501.999 261.998c0 -18 7.66699 -32 23 -42
s35.333 -15 60 -15s44.5 5 59.5 15s22.5 24 22.5 42c0 18.667 -7.5 32.834 -22.5 42.501s-34.833 14.5 -59.5 14.5s-44.667 -4.83301 -60 -14.5s-23 -23.834 -23 -42.501zM584.999 34.998c27.333 0 49.5 5.5 66.5 16.5s25.5 26.5 25.5 46.5s-8.5 35.5 -25.5 46.5
s-39.167 16.5 -66.5 16.5s-49.5 -5.5 -66.5 -16.5s-25.5 -26.5 -25.5 -46.5s8.5 -35.5 25.5 -46.5s39.167 -16.5 66.5 -16.5z" />
    <glyph glyph-name="threeeighths" unicode="&#x215c;" horiz-adv-x="871" 
d="M308 448c0 -39.333 -13.833 -69.168 -41.5 -89.501s-63.834 -30.5 -108.501 -30.5c-40.667 0 -74 9.33301 -100 28s-41.333 46.667 -46 84l61 4c4.66699 -44 33 -66 85 -66c26 0 47.167 6.16699 63.5 18.5s24.5 29.5 24.5 51.5c0 20 -7.33301 36 -22 48s-36 18 -64 18
c-13.333 0 -33.666 -2 -60.999 -6v42l118 100h-185v50h265v-45l-127 -97c42.667 -1.33301 75 -9.66602 97 -24.999c27.333 -18.667 41 -47 41 -85zM621 699.998h68l-475 -700h-68zM743 184.998c29.333 -6 52.5 -17 69.5 -33s25.5 -36.333 25.5 -61
c0 -32.667 -14.5 -58 -43.5 -76s-65.167 -27 -108.5 -27c-44 0 -80.5 9 -109.5 27s-43.5 43.333 -43.5 76c0 24 8.5 44.167 25.5 60.5s40.167 27.5 69.5 33.5c-56.667 12 -85 40.333 -85 85c0 31.333 13.5 55.166 40.5 71.499s61.167 24.5 102.5 24.5
c40.667 0 74.5 -8.16699 101.5 -24.5s40.5 -40.166 40.5 -71.499c0 -44.667 -28.333 -73 -85 -85zM603 261.998c0 -18 7.66699 -32 23 -42s35.333 -15 60 -15s44.5 5 59.5 15s22.5 24 22.5 42c0 18.667 -7.5 32.834 -22.5 42.501s-34.833 14.5 -59.5 14.5
s-44.667 -4.83301 -60 -14.5s-23 -23.834 -23 -42.501zM686 34.998c27.333 0 49.5 5.5 66.5 16.5s25.5 26.5 25.5 46.5s-8.5 35.5 -25.5 46.5s-39.167 16.5 -66.5 16.5c-28 0 -50.5 -5.5 -67.5 -16.5s-25.5 -26.5 -25.5 -46.5s8.5 -35.5 25.5 -46.5s39.5 -16.5 67.5 -16.5z
" />
    <glyph glyph-name="fiveeighths" unicode="&#x215d;" horiz-adv-x="885" 
d="M322 457c0 -40.667 -13.5 -72 -40.5 -94s-62.833 -33 -107.5 -33c-40 0 -73.667 9 -101 27s-43.666 43.667 -48.999 77l58 4c4 -19.333 14.167 -34.166 30.5 -44.499s36.833 -15.5 61.5 -15.5c26 0 47.333 6.66699 64 20s25 32.666 25 57.999
c0 26 -8.33301 45.5 -25 58.5s-38 19.5 -64 19.5c-40 0 -69.333 -12.333 -88 -37l-52 4l17 201h248v-48h-204l-10 -115c24.667 26 59.667 39 105 39c39.333 0 71.166 -10.5 95.499 -31.5s36.5 -50.833 36.5 -89.5zM635 700h67l-474 -700h-68zM757 185
c29.333 -6 52.5 -17 69.5 -33s25.5 -36.333 25.5 -61c0 -32.667 -14.5 -58 -43.5 -76s-65.167 -27 -108.5 -27c-44 0 -80.5 9 -109.5 27s-43.5 43.333 -43.5 76c0 24 8.5 44.167 25.5 60.5s40.167 27.5 69.5 33.5c-56.667 12 -85 40.333 -85 85
c0 31.333 13.5 55.166 40.5 71.499s61.167 24.5 102.5 24.5c40.667 0 74.5 -8.16699 101.5 -24.5s40.5 -40.166 40.5 -71.499c0 -44.667 -28.333 -73 -85 -85zM617 262c0 -18 7.66699 -32 23 -42s35.333 -15 60 -15s44.5 5 59.5 15s22.5 24 22.5 42
c0 18.667 -7.5 32.834 -22.5 42.501s-34.833 14.5 -59.5 14.5s-44.667 -4.83301 -60 -14.5s-23 -23.834 -23 -42.501zM700 35c27.333 0 49.5 5.5 66.5 16.5s25.5 26.5 25.5 46.5s-8.5 35.5 -25.5 46.5s-39.167 16.5 -66.5 16.5c-28 0 -50.5 -5.5 -67.5 -16.5
s-25.5 -26.5 -25.5 -46.5s8.5 -35.5 25.5 -46.5s39.5 -16.5 67.5 -16.5z" />
    <glyph glyph-name="seveneighths" unicode="&#x215e;" horiz-adv-x="826" 
d="M144 340l-65.001 0.000976562c24 105.333 74 208.666 150 309.999h-211v50h274v-42c-75.333 -104.667 -124.666 -210.667 -147.999 -318zM575.999 700.001h67l-475 -700h-67zM697.999 185.001c29.333 -6 52.499 -17.165 69.499 -33.498s25.5 -36.5 25.5 -60.5
c0 -32.667 -14.667 -58 -44 -76s-65.666 -27 -108.999 -27s-79.666 9 -108.999 27s-44 43.333 -44 76c0 24 8.66699 44.167 26 60.5s40.666 27.5 69.999 33.5c-56.667 12 -85 40.333 -85 85c0 31.333 13.5 55.166 40.5 71.499s60.833 24.5 101.5 24.5
s74.667 -8.33301 102 -25s41 -40.334 41 -71.001c0 -44.667 -28.333 -73 -85 -85zM557.998 262.003c0 -18 7.5 -32 22.5 -42s34.833 -15 59.5 -15s44.667 5 60 15s23 24 23 42c0 18.667 -7.66699 32.834 -23 42.501s-35.333 14.5 -60 14.5s-44.5 -4.83301 -59.5 -14.5
s-22.5 -23.834 -22.5 -42.501zM639.998 35.0029c27.333 0 49.5 5.5 66.5 16.5s25.5 26.5 25.5 46.5s-8.5 35.5 -25.5 46.5s-39.167 16.5 -66.5 16.5s-49.5 -5.5 -66.5 -16.5s-25.5 -26.5 -25.5 -46.5s8.5 -35.5 25.5 -46.5s39.167 -16.5 66.5 -16.5z" />
    <glyph glyph-name="arrowleft" unicode="&#x2190;" horiz-adv-x="761" 
d="M694 391v-70h-493l234 -228h-106l-262 263l263 263h105l-234 -228h493z" />
    <glyph glyph-name="arrowup" unicode="&#x2191;" horiz-adv-x="660" 
d="M594 497v-107l-227 231v-626h-74v626l-226 -231l1 108l262 262z" />
    <glyph glyph-name="arrowright" unicode="&#x2192;" horiz-adv-x="761" 
d="M431 619l263 -263l-262 -263h-106l234 228h-493v70h493l-234 228h105z" />
    <glyph glyph-name="arrowdown" unicode="&#x2193;" horiz-adv-x="660" 
d="M367 79l227 231v-107l-264 -263l-262 262l-1 108l226 -231v626h74v-626z" />
    <glyph glyph-name="arrowboth" unicode="&#x2194;" horiz-adv-x="1010" 
d="M713 586l230 -230l-230 -230h-105l200 195h-606l200 -195h-105l-230 230l230 230h105l-200 -195h606l-200 195h105z" />
    <glyph glyph-name="arrowupdn" unicode="&#x2195;" horiz-adv-x="586" 
d="M519 457l-193 197v-604l193 198v-106l-230 -230l-222 222v106l185 -189v603l-185 -189v106l222 221l230 -230v-105z" />
    <glyph glyph-name="uni2196" unicode="&#x2196;" horiz-adv-x="627" 
d="M560 151l-50 -51l-368 367l3 -326l-78 76v371h372l75 -72l-321 3z" />
    <glyph glyph-name="uni2197" unicode="&#x2197;" horiz-adv-x="627" 
d="M188 588h372v-371l-78 -76l3 326l-367 -367l-51 51l368 368l-322 -3z" />
    <glyph glyph-name="uni2198" unicode="&#x2198;" horiz-adv-x="627" 
d="M482 564l78 -76v-372h-372l-75 73l322 -4l-368 368l51 51l367 -367z" />
    <glyph glyph-name="uni2199" unicode="&#x2199;" horiz-adv-x="627" 
d="M560 553l-367 -368l321 4l-75 -73h-372v372l78 76l-3 -327l368 367z" />
    <glyph glyph-name="partialdiff" unicode="&#x2202;" horiz-adv-x="553" 
d="M251 756c84.667 0 147.998 -32.5 189.998 -97.5s63 -165.5 63 -301.5c0 -128 -22.333 -221.5 -67 -280.5s-104.667 -88.5 -180 -88.5c-67.333 0 -120.5 21.167 -159.5 63.5s-58.5 102.833 -58.5 181.5c0 73.333 20.333 132.5 61 177.5s93.334 67.5 158.001 67.5
c68 0 120.667 -26.333 158 -79c-4 99.333 -20 172.5 -48 219.5s-68.667 70.5 -122 70.5c-55.333 0 -102.666 -25 -141.999 -75l-47 54c50 58.667 114.667 88 194 88zM252.998 57c48 0 85.999 20 113.999 60s44.333 99.667 49 179c-11.333 36 -29.666 63.833 -54.999 83.5
s-54.333 29.5 -87 29.5c-45.333 0 -81.333 -16.333 -108 -49s-40 -75 -40 -127c0 -57.333 11.667 -101 35 -131s54 -45 92 -45z" />
    <glyph glyph-name="emptyset" unicode="&#x2205;" horiz-adv-x="572" 
d="M536 519l-76 -75.998c30 -38.667 45 -86 45 -142c0 -67.333 -20.333 -120.333 -61 -159s-93.334 -58 -158.001 -58c-56.667 0 -103.667 14.667 -141 44l-78 -78l-32 32l77 77c-30 37.333 -45 84.666 -45 141.999c0 67.333 20.333 120.166 61 158.499
s93.334 57.5 158.001 57.5c56 0 103 -14.333 141 -43l77 77zM142 301.002c0 -34 8.00098 -63.667 24.001 -89l209 210c-24.667 18 -54.334 27 -89.001 27c-44 0 -79 -13.333 -105 -40s-39 -62.667 -39 -108zM429.001 301.002c0 34 -7.66699 63.333 -23 88l-210 -210
c24.667 -17.333 54.667 -26 90 -26c44 0 78.833 13.333 104.5 40s38.5 62.667 38.5 108z" />
    <glyph glyph-name="product" unicode="&#x220f;" horiz-adv-x="633" 
d="M548 700v-787h-85v717h-293v-717h-86v787h464z" />
    <glyph glyph-name="summation" unicode="&#x2211;" horiz-adv-x="495" 
d="M135 -17h335v-70h-434v62l229 350l-217 313v62h414v-70h-314l212 -305z" />
    <glyph glyph-name="minus" unicode="&#x2212;" horiz-adv-x="495" 
d="M57 364h381v-63h-381v63z" />
    <glyph glyph-name="radical" unicode="&#x221a;" horiz-adv-x="568" 
d="M462 712h74l-212 -805h-102l-119 403h-77v65h133l114 -406z" />
    <glyph glyph-name="infinity" unicode="&#x221e;" horiz-adv-x="606" 
d="M442 468c40.667 0 73.334 -12 98.001 -36s37 -59 37 -105c0 -46.667 -12.333 -82.167 -37 -106.5s-57.334 -36.5 -98.001 -36.5c-28 0 -52.667 6.83301 -74 20.5s-43 37.834 -65 72.501c-22 -34.667 -43.667 -58.834 -65 -72.501s-46 -20.5 -74 -20.5
c-40 0 -72.333 12.167 -97 36.5s-37 59.833 -37 106.5c0 46 12.333 81 37 105s57 36 97 36c28 0 52.667 -6.83301 74 -20.5s43 -37.834 65 -72.501c22.667 34.667 44.5 58.834 65.5 72.501s45.5 20.5 73.5 20.5zM169 238c38 0 73.332 29.333 105.999 88
c-33.333 59.333 -68.666 89 -105.999 89c-22.667 0 -41 -7.66699 -55 -23s-21 -37 -21 -65c0 -28.667 7 -50.667 21 -66s32.333 -23 55 -23zM437.999 238c22.667 0 40.999 7.66699 54.999 23s21 37.333 21 66c0 28 -7 49.667 -21 65s-32.333 23 -55 23
c-38 0 -73.667 -29.667 -107 -89c32.667 -58.667 68.334 -88 107.001 -88z" />
    <glyph glyph-name="integral" unicode="&#x222b;" horiz-adv-x="395" 
d="M273 728c14.667 0 31.999 -1.66699 51.999 -5v-59c-18 2 -30.667 3 -38 3c-36.667 0 -55 -25.333 -55 -76v-556c0 -85.333 -38.667 -128 -116 -128c-21.333 0 -38.666 1.66699 -51.999 5v59c9.33301 -2 22 -3 38 -3c36.667 0 55 25.333 55 76v556
c0 85.333 38.667 128 116 128z" />
    <glyph glyph-name="approxequal" unicode="&#x2248;" horiz-adv-x="530" 
d="M176 413c-17.333 0 -30.666 -6.83203 -39.999 -20.499s-14 -30.834 -14 -51.501h-53c0 37.333 8.5 68 25.5 92s43.167 36 78.5 36c24 0 47 -7 69 -21s42.167 -28 60.5 -42s35.5 -21 51.5 -21c17.333 0 30.666 6.66699 39.999 20s14 30.333 14 51h53
c0 -36.667 -8.5 -67.167 -25.5 -91.5s-42.833 -36.5 -77.5 -36.5c-24.667 0 -48 7.16699 -70 21.5s-42.167 28.5 -60.5 42.5s-35.5 21 -51.5 21zM354 228.001c17.333 0 30.667 6.66699 40 20s14 30.333 14 51h53c0 -37.333 -8.5 -68 -25.5 -92s-42.833 -36 -77.5 -36
c-24.667 0 -48 7 -70 21s-42.167 28 -60.5 42s-35.5 21 -51.5 21c-18 0 -31.5 -6.66699 -40.5 -20s-13.5 -30.666 -13.5 -51.999h-53c0 37.333 8.5 68.166 25.5 92.499s43.167 36.5 78.5 36.5c24 0 47 -7 69 -21s42.167 -28 60.5 -42s35.5 -21 51.5 -21z" />
    <glyph glyph-name="notequal" unicode="&#x2260;" horiz-adv-x="511" 
d="M446 380h-140l-47 -108h187v-60h-212l-39 -89h-56l38 89h-112v60h138l47 108h-185v61h211l38 88h56l-38 -88h114v-61z" />
    <glyph glyph-name="lessequal" unicode="&#x2264;" horiz-adv-x="494" 
d="M418 567v-75l-290 -114l290 -87v-75l-359 118v82zM59 107v61h359v-61h-359z" />
    <glyph glyph-name="greaterequal" unicode="&#x2265;" horiz-adv-x="494" 
d="M77 567l359 -151v-82l-359 -118v75l289 87l-289 114v75zM77 107v61h359v-61h-359z" />
    <glyph glyph-name="uni2460" unicode="&#x2460;" 
d="M404 -12c-105.333 0 -191.666 33.167 -258.999 99.5s-101 153.833 -101 262.5s33.667 196.167 101 262.5s153.666 99.5 258.999 99.5s191.666 -33.167 258.999 -99.5s101 -153.833 101 -262.5s-33.667 -196.167 -101 -262.5s-153.666 -99.5 -258.999 -99.5zM404 30
c92.667 0 168.334 29.333 227.001 88s88 136 88 232s-29.333 173.333 -88 232s-134.334 88 -227.001 88s-168.334 -29.333 -227.001 -88s-88 -136 -88 -232s29.333 -173.333 88 -232s134.334 -88 227.001 -88zM321 425v60l75 43h48v-356h-59v290z" />
    <glyph glyph-name="uni2461" unicode="&#x2461;" 
d="M404 -12c-105.333 0 -191.666 33.167 -258.999 99.5s-101 153.833 -101 262.5s33.667 196.167 101 262.5s153.666 99.5 258.999 99.5s191.666 -33.167 258.999 -99.5s101 -153.833 101 -262.5s-33.667 -196.167 -101 -262.5s-153.666 -99.5 -258.999 -99.5zM404 30
c92.667 0 168.334 29.333 227.001 88s88 136 88 232s-29.333 173.333 -88 232s-134.334 88 -227.001 88s-168.334 -29.333 -227.001 -88s-88 -136 -88 -232s29.333 -173.333 88 -232s134.334 -88 227.001 -88zM281 173v43.999l114 112
c17.333 16.667 30.166 29.334 38.499 38.001s16 19.167 23 31.5s10.5 24.5 10.5 36.5c0 16 -5 28.667 -15 38s-23 14 -39 14c-40 0 -62 -27.333 -66 -82l-57 5c2.66699 42 15.167 73.333 37.5 94s50.833 31 85.5 31c33.333 0 60.5 -8.66699 81.5 -26s31.5 -42 31.5 -74
c0 -21.333 -5.66699 -41.333 -17 -60s-30.666 -41 -57.999 -67l-88 -87h173v-48h-255z" />
    <glyph glyph-name="uni2462" unicode="&#x2462;" 
d="M404 -12c-105.333 0 -191.666 33.167 -258.999 99.5s-101 153.833 -101 262.5s33.667 196.167 101 262.5s153.666 99.5 258.999 99.5s191.666 -33.167 258.999 -99.5s101 -153.833 101 -262.5s-33.667 -196.167 -101 -262.5s-153.666 -99.5 -258.999 -99.5zM404 30
c92.667 0 168.334 29.333 227.001 88s88 136 88 232s-29.333 173.333 -88 232s-134.334 88 -227.001 88s-168.334 -29.333 -227.001 -88s-88 -136 -88 -232s29.333 -173.333 88 -232s134.334 -88 227.001 -88zM271 275l57 2.99902c6 -42.667 31 -64 75 -64
c23.333 0 41.833 6 55.5 18s20.5 28.667 20.5 50c0 20 -6.16699 35.833 -18.5 47.5s-30.833 17.5 -55.5 17.5c-17.333 0 -35.333 -2 -54 -6v42l101 97h-164v48h241v-44l-109 -96c79.333 -3.33301 119 -38.666 119 -105.999c0 -37.333 -12.833 -66 -38.5 -86
s-58.167 -30 -97.5 -30c-37.333 0 -67.833 9.16699 -91.5 27.5s-37.167 45.5 -40.5 81.5z" />
    <glyph glyph-name="uni2463" unicode="&#x2463;" 
d="M404 -12c-105.333 0 -191.666 33.167 -258.999 99.5s-101 153.833 -101 262.5s33.667 196.167 101 262.5s153.666 99.5 258.999 99.5s191.666 -33.167 258.999 -99.5s101 -153.833 101 -262.5s-33.667 -196.167 -101 -262.5s-153.666 -99.5 -258.999 -99.5zM404 30
c92.667 0 168.334 29.333 227.001 88s88 136 88 232s-29.333 173.333 -88 232s-134.334 88 -227.001 88s-168.334 -29.333 -227.001 -88s-88 -136 -88 -232s29.333 -173.333 88 -232s134.334 -88 227.001 -88zM241 252v45l158 231h97v-227h59v-49h-59v-80h-60v80h-195z
M300 301h136v197z" />
    <glyph glyph-name="uni2464" unicode="&#x2464;" 
d="M404 -12c-105.333 0 -191.666 33.167 -258.999 99.5s-101 153.833 -101 262.5s33.667 196.167 101 262.5s153.666 99.5 258.999 99.5s191.666 -33.167 258.999 -99.5s101 -153.833 101 -262.5s-33.667 -196.167 -101 -262.5s-153.666 -99.5 -258.999 -99.5zM404 30
c92.667 0 168.334 29.333 227.001 88s88 136 88 232s-29.333 173.333 -88 232s-134.334 88 -227.001 88s-168.334 -29.333 -227.001 -88s-88 -136 -88 -232s29.333 -173.333 88 -232s134.334 -88 227.001 -88zM271 267l57.002 4c4 -18.667 13.167 -32.834 27.5 -42.501
s31.166 -14.5 50.499 -14.5c22.667 0 41 6.66699 55 20s21 32 21 56s-7.16699 42.5 -21.5 55.5s-32.5 19.5 -54.5 19.5c-32.667 0 -57.334 -12.333 -74.001 -37l-53 5l16 195h227v-48h-182l-9 -109c22.667 24 53.667 36 93 36c35.333 0 63.833 -10.167 85.5 -30.5
s32.5 -49.166 32.5 -86.499c0 -39.333 -12.5 -69.833 -37.5 -91.5s-57.833 -32.5 -98.5 -32.5c-35.333 0 -65.5 8.83301 -90.5 26.5s-39.833 42.5 -44.5 74.5z" />
    <glyph glyph-name="uni2465" unicode="&#x2465;" 
d="M404 -12c-105.333 0 -191.666 33.167 -258.999 99.5s-101 153.833 -101 262.5s33.667 196.167 101 262.5s153.666 99.5 258.999 99.5s191.666 -33.167 258.999 -99.5s101 -153.833 101 -262.5s-33.667 -196.167 -101 -262.5s-153.666 -99.5 -258.999 -99.5zM404 30
c92.667 0 168.334 29.333 227.001 88s88 136 88 232s-29.333 173.333 -88 232s-134.334 88 -227.001 88s-168.334 -29.333 -227.001 -88s-88 -136 -88 -232s29.333 -173.333 88 -232s134.334 -88 227.001 -88zM264 344c0 62 13.002 109.166 39.002 141.499
s61.667 48.5 107 48.5c35.333 0 63.666 -8.83301 84.999 -26.5s33.666 -42.167 36.999 -73.5l-57 -3c-2 16.667 -8.66699 30.167 -20 40.5s-26.333 15.5 -45 15.5c-54.667 0 -83.667 -45.667 -87 -137c20 34 53.333 51 100 51c36 0 65.333 -10 88 -30s34 -48.333 34 -85
c0 -37.333 -12.167 -66.666 -36.5 -87.999s-57.5 -32 -99.5 -32c-96.667 0 -145 59.333 -145 178zM332.002 285.999c0 -21.333 7 -38.666 21 -51.999s32.333 -20 55 -20c23.333 0 42.166 6.66699 56.499 20s21.5 30.666 21.5 51.999c0 22 -7.16699 39.5 -21.5 52.5
s-33.166 19.5 -56.499 19.5s-41.833 -6.5 -55.5 -19.5s-20.5 -30.5 -20.5 -52.5z" />
    <glyph glyph-name="uni2466" unicode="&#x2466;" 
d="M404 -12c-105.333 0 -191.666 33.167 -258.999 99.5s-101 153.833 -101 262.5s33.667 196.167 101 262.5s153.666 99.5 258.999 99.5s191.666 -33.167 258.999 -99.5s101 -153.833 101 -262.5s-33.667 -196.167 -101 -262.5s-153.666 -99.5 -258.999 -99.5zM404 30
c92.667 0 168.334 29.333 227.001 88s88 136 88 232s-29.333 173.333 -88 232s-134.334 88 -227.001 88s-168.334 -29.333 -227.001 -88s-88 -136 -88 -232s29.333 -173.333 88 -232s134.334 -88 227.001 -88zM282 480l0.000976562 48h252v-41
c-68.667 -104.667 -113 -209.667 -133 -315h-65c21.333 102 67.666 204.667 138.999 308h-193z" />
    <glyph glyph-name="uni2467" unicode="&#x2467;" 
d="M404 -12c-105.333 0 -191.666 33.167 -258.999 99.5s-101 153.833 -101 262.5s33.667 196.167 101 262.5s153.666 99.5 258.999 99.5s191.666 -33.167 258.999 -99.5s101 -153.833 101 -262.5s-33.667 -196.167 -101 -262.5s-153.666 -99.5 -258.999 -99.5zM405 30
c92.667 0 168.334 29.333 227.001 88s88 136 88 232s-29.333 173.333 -88 232s-134.334 88 -227.001 88s-168.334 -29.333 -227.001 -88s-88 -136 -88 -232s29.333 -173.333 88 -232s134.334 -88 227.001 -88zM262 266c0 48 29 78.667 87 92c-52 12 -78 40 -78 84
c0 29.333 12.667 52 38 68s57 24 95 24s69.667 -8 95 -24s38 -38.667 38 -68c0 -44 -26 -72 -78 -84c58.667 -13.333 88 -44 88 -92c0 -32 -13.667 -56.667 -41 -74s-61.333 -26 -102 -26s-74.5 8.66699 -101.5 26s-40.5 42 -40.5 74zM329 434
c0 -17.333 6.6709 -30.666 20.0039 -39.999s31.666 -14 54.999 -14s41.666 4.66699 54.999 14s20 22.666 20 39.999s-6.83301 30.666 -20.5 39.999s-31.834 14 -54.501 14s-40.834 -4.66699 -54.501 -14s-20.5 -22.666 -20.5 -39.999zM320.004 273
c0 -18.667 7.83301 -33.334 23.5 -44.001s35.834 -16 60.501 -16s45 5.33301 61 16s24 25.334 24 44.001s-8 33.334 -24 44.001s-36.333 16 -61 16s-44.834 -5.33301 -60.501 -16s-23.5 -25.334 -23.5 -44.001z" />
    <glyph glyph-name="uni2468" unicode="&#x2468;" 
d="M404 -12c-105.333 0 -191.666 33.167 -258.999 99.5s-101 153.833 -101 262.5s33.667 196.167 101 262.5s153.666 99.5 258.999 99.5s191.666 -33.167 258.999 -99.5s101 -153.833 101 -262.5s-33.667 -196.167 -101 -262.5s-153.666 -99.5 -258.999 -99.5zM406 30
c92.667 0 168.334 29.333 227.001 88s88 136 88 232s-29.333 173.333 -88 232s-134.334 88 -227.001 88s-168.334 -29.333 -227.001 -88s-88 -136 -88 -232s29.333 -173.333 88 -232s134.334 -88 227.001 -88zM263 415c0 37.333 12.3311 66.5 36.998 87.5
s57.667 31.5 99 31.5c98 0 147 -59.333 147 -178c0 -62.667 -12.833 -110 -38.5 -142s-61.5 -48 -107.5 -48c-35.333 0 -63.833 8.83301 -85.5 26.5s-34.167 42.167 -37.5 73.5l57 4c2 -16.667 8.83301 -30.167 20.5 -40.5s26.834 -15.5 45.501 -15.5
c54.667 0 83.334 46.667 86.001 140c-18.667 -34 -52 -51 -100 -51c-36 0 -65.5 9.83301 -88.5 29.5s-34.5 47.167 -34.5 82.5zM322.998 415c0 -21.333 7.16699 -38.333 21.5 -51s33.166 -19 56.499 -19s42 6.5 56 19.5s21 29.833 21 50.5
c0 21.333 -7.16699 38.666 -21.5 51.999s-32.833 20 -55.5 20c-23.333 0 -42.166 -6.66699 -56.499 -20s-21.5 -30.666 -21.5 -51.999z" />
    <glyph glyph-name="uni24EA" unicode="&#x24ea;" 
d="M404 -12c-105.333 0 -191.666 33.167 -258.999 99.5s-101 153.833 -101 262.5s33.667 196.167 101 262.5s153.666 99.5 258.999 99.5s191.666 -33.167 258.999 -99.5s101 -153.833 101 -262.5s-33.667 -196.167 -101 -262.5s-153.666 -99.5 -258.999 -99.5zM404 30
c92.667 0 168.334 29.333 227.001 88s88 136 88 232s-29.333 173.333 -88 232s-134.334 88 -227.001 88s-168.334 -29.333 -227.001 -88s-88 -136 -88 -232s29.333 -173.333 88 -232s134.334 -88 227.001 -88zM260 350c0 57.333 12.5 102.333 37.5 135s60.5 49 106.5 49
s81.667 -16.333 107 -49s38 -77.667 38 -135s-12.667 -102.333 -38 -135s-61 -49 -107 -49s-81.5 16.333 -106.5 49s-37.5 77.667 -37.5 135zM319 350c0 -43.333 7.5 -76.833 22.5 -100.5s35.833 -35.5 62.5 -35.5s47.5 11.833 62.5 35.5s22.5 57.167 22.5 100.5
s-7.5 76.833 -22.5 100.5s-35.833 35.5 -62.5 35.5s-47.5 -11.833 -62.5 -35.5s-22.5 -57.167 -22.5 -100.5z" />
    <glyph glyph-name="uni24FF" unicode="&#x24ff;" 
d="M404 -12c-105.333 0 -191.666 33.167 -258.999 99.5s-101 153.833 -101 262.5s33.667 196.167 101 262.5s153.666 99.5 258.999 99.5s191.666 -33.167 258.999 -99.5s101 -153.833 101 -262.5s-33.667 -196.167 -101 -262.5s-153.666 -99.5 -258.999 -99.5zM260 350
c0 -57.333 12.5 -102.333 37.5 -135s60.5 -49 106.5 -49s81.667 16.333 107 49s38 77.667 38 135s-12.667 102.333 -38 135s-61 49 -107 49s-81.5 -16.333 -106.5 -49s-37.5 -77.667 -37.5 -135zM319 350c0 43.333 7.5 76.833 22.5 100.5s35.833 35.5 62.5 35.5
s47.5 -11.833 62.5 -35.5s22.5 -57.167 22.5 -100.5s-7.5 -76.833 -22.5 -100.5s-35.833 -35.5 -62.5 -35.5s-47.5 11.833 -62.5 35.5s-22.5 57.167 -22.5 100.5z" />
    <glyph glyph-name="lozenge" unicode="&#x25ca;" horiz-adv-x="490" 
d="M291 700l163 -350l-163 -350h-93l-163 350l163 350h93zM245 51l134 299l-134 299l-134 -299z" />
    <glyph glyph-name="uni2776" unicode="&#x2776;" 
d="M404 -12c-105.333 0 -191.666 33.167 -258.999 99.5s-101 153.833 -101 262.5s33.667 196.167 101 262.5s153.666 99.5 258.999 99.5s191.666 -33.167 258.999 -99.5s101 -153.833 101 -262.5s-33.667 -196.167 -101 -262.5s-153.666 -99.5 -258.999 -99.5zM321 425
l64 37v-290h59v356h-48l-75 -43v-60z" />
    <glyph glyph-name="uni2777" unicode="&#x2777;" 
d="M404 -12c-105.333 0 -191.666 33.167 -258.999 99.5s-101 153.833 -101 262.5s33.667 196.167 101 262.5s153.666 99.5 258.999 99.5s191.666 -33.167 258.999 -99.5s101 -153.833 101 -262.5s-33.667 -196.167 -101 -262.5s-153.666 -99.5 -258.999 -99.5zM281 173
l255.001 0.00195312v48h-173l88 87c27.333 26 46.666 48.333 57.999 67s17 38.667 17 60c0 32 -10.5 56.667 -31.5 74s-48.167 26 -81.5 26c-34.667 0 -63.167 -10.333 -85.5 -31s-34.833 -52 -37.5 -94l57 -5c4 54.667 26 82 66 82c16 0 29 -4.66699 39 -14s15 -22 15 -38
c0 -16.667 -5.5 -32.334 -16.5 -47.001s-29.5 -34.334 -55.5 -59.001l-114 -112v-44z" />
    <glyph glyph-name="uni2778" unicode="&#x2778;" 
d="M404 -12c-105.333 0 -191.666 33.167 -258.999 99.5s-101 153.833 -101 262.5s33.667 196.167 101 262.5s153.666 99.5 258.999 99.5s191.666 -33.167 258.999 -99.5s101 -153.833 101 -262.5s-33.667 -196.167 -101 -262.5s-153.666 -99.5 -258.999 -99.5zM271 275
c3.33301 -36 16.833 -63.166 40.5 -81.499s54.167 -27.5 91.5 -27.5c39.333 0 71.833 10 97.5 30s38.5 48.667 38.5 86c0 67.333 -39.667 102.666 -119 105.999l109 96v44h-241v-48h164l-101 -97v-42c18.667 4 36.667 6 54 6c24.667 0 43.167 -5.83301 55.5 -17.5
s18.5 -27.5 18.5 -47.5c0 -21.333 -6.83301 -38 -20.5 -50s-32.167 -18 -55.5 -18c-44 0 -69 21.333 -75 64z" />
    <glyph glyph-name="uni2779" unicode="&#x2779;" 
d="M404 -12c-105.333 0 -191.666 33.167 -258.999 99.5s-101 153.833 -101 262.5s33.667 196.167 101 262.5s153.666 99.5 258.999 99.5s191.666 -33.167 258.999 -99.5s101 -153.833 101 -262.5s-33.667 -196.167 -101 -262.5s-153.666 -99.5 -258.999 -99.5zM241 252h195
v-80h60v80h59v49h-59v227h-97l-158 -231v-45zM300 301l136 197v-197h-136z" />
    <glyph glyph-name="uni277A" unicode="&#x277a;" 
d="M404 -12c-105.333 0 -191.666 33.167 -258.999 99.5s-101 153.833 -101 262.5s33.667 196.167 101 262.5s153.666 99.5 258.999 99.5s191.666 -33.167 258.999 -99.5s101 -153.833 101 -262.5s-33.667 -196.167 -101 -262.5s-153.666 -99.5 -258.999 -99.5zM271 267
c4.66699 -32 19.498 -56.833 44.498 -74.5s55.167 -26.5 90.5 -26.5c40.667 0 73.5 10.833 98.5 32.5s37.5 52.167 37.5 91.5c0 37.333 -10.833 66.166 -32.5 86.499s-50.167 30.5 -85.5 30.5c-39.333 0 -70.333 -12 -93 -36l9 109h182v48h-227l-16 -195l53 -5
c16.667 24.667 41.334 37 74.001 37c22 0 40.167 -6.5 54.5 -19.5s21.5 -31.5 21.5 -55.5s-7 -42.667 -21 -56s-32.333 -20 -55 -20c-19.333 0 -36.166 4.83301 -50.499 14.5s-23.5 23.834 -27.5 42.501z" />
    <glyph glyph-name="uni277B" unicode="&#x277b;" 
d="M404 -12c-105.333 0 -191.666 33.167 -258.999 99.5s-101 153.833 -101 262.5s33.667 196.167 101 262.5s153.666 99.5 258.999 99.5s191.666 -33.167 258.999 -99.5s101 -153.833 101 -262.5s-33.667 -196.167 -101 -262.5s-153.666 -99.5 -258.999 -99.5zM264 344
c0 -118.667 48.3311 -177.999 144.998 -177.999c42 0 75.167 10.667 99.5 32s36.5 50.666 36.5 87.999c0 36.667 -11.333 65 -34 85s-52 30 -88 30c-46.667 0 -80 -17 -100 -51c3.33301 91.333 32.333 137 87 137c18.667 0 33.667 -5.16699 45 -15.5s18 -23.833 20 -40.5
l57 3c-3.33301 31.333 -15.666 55.833 -36.999 73.5s-49.666 26.5 -84.999 26.5c-45.333 0 -81 -16.167 -107 -48.5s-39 -79.5 -39 -141.5zM331.998 286.001c0 22 6.83301 39.5 20.5 52.5s32.167 19.5 55.5 19.5s42.166 -6.5 56.499 -19.5s21.5 -30.5 21.5 -52.5
c0 -21.333 -7.16699 -38.666 -21.5 -51.999s-33.166 -20 -56.499 -20c-22.667 0 -41 6.66699 -55 20s-21 30.666 -21 51.999z" />
    <glyph glyph-name="uni277C" unicode="&#x277c;" 
d="M404 -12c-105.333 0 -191.666 33.167 -258.999 99.5s-101 153.833 -101 262.5s33.667 196.167 101 262.5s153.666 99.5 258.999 99.5s191.666 -33.167 258.999 -99.5s101 -153.833 101 -262.5s-33.667 -196.167 -101 -262.5s-153.666 -99.5 -258.999 -99.5zM282 480
h192.999c-71.333 -103.333 -117.666 -206 -138.999 -308h65c20 105.333 64.333 210.333 133 315v41h-252v-48z" />
    <glyph glyph-name="uni277D" unicode="&#x277d;" 
d="M404 -12c-105.333 0 -191.666 33.167 -258.999 99.5s-101 153.833 -101 262.5s33.667 196.167 101 262.5s153.666 99.5 258.999 99.5s191.666 -33.167 258.999 -99.5s101 -153.833 101 -262.5s-33.667 -196.167 -101 -262.5s-153.666 -99.5 -258.999 -99.5zM262 266
c0 -32 13.5 -56.667 40.5 -74s60.833 -26 101.5 -26s74.667 8.66699 102 26s41 42 41 74c0 48 -29.333 78.667 -88 92c52 12 78 40 78 84c0 29.333 -12.667 52 -38 68s-57 24 -95 24s-69.667 -8 -95 -24s-38 -38.667 -38 -68c0 -44 26 -72 78 -84
c-58 -13.333 -87 -44 -87 -92zM329 434c0 17.333 6.8291 30.666 20.4961 39.999s31.834 14 54.501 14s40.834 -4.66699 54.501 -14s20.5 -22.666 20.5 -39.999s-6.66699 -30.666 -20 -39.999s-31.666 -14 -54.999 -14s-41.666 4.66699 -54.999 14s-20 22.666 -20 39.999z
M319.996 273c0 18.667 7.83301 33.334 23.5 44.001s35.834 16 60.501 16s45 -5.33301 61 -16s24 -25.334 24 -44.001s-8 -33.334 -24 -44.001s-36.333 -16 -61 -16s-44.834 5.33301 -60.501 16s-23.5 25.334 -23.5 44.001z" />
    <glyph glyph-name="uni277E" unicode="&#x277e;" 
d="M404 -12c-105.333 0 -191.666 33.167 -258.999 99.5s-101 153.833 -101 262.5s33.667 196.167 101 262.5s153.666 99.5 258.999 99.5s191.666 -33.167 258.999 -99.5s101 -153.833 101 -262.5s-33.667 -196.167 -101 -262.5s-153.666 -99.5 -258.999 -99.5zM263 415
c0 -35.333 11.502 -62.833 34.502 -82.5s52.5 -29.5 88.5 -29.5c48 0 81.333 17 100 51c-2.66699 -93.333 -31.334 -140 -86.001 -140c-18.667 0 -33.834 5.16699 -45.501 15.5s-18.5 23.833 -20.5 40.5l-57 -4c3.33301 -31.333 15.833 -55.833 37.5 -73.5
s50.167 -26.5 85.5 -26.5c46 0 81.833 16 107.5 48s38.5 79.333 38.5 142c0 118.667 -49 178 -147 178c-41.333 0 -74.333 -10.5 -99 -31.5s-37 -50.167 -37 -87.5zM323.002 415c0 21.333 7.16699 38.666 21.5 51.999s33.166 20 56.499 20
c22.667 0 41.167 -6.66699 55.5 -20s21.5 -30.666 21.5 -51.999c0 -20.667 -7 -37.5 -21 -50.5s-32.667 -19.5 -56 -19.5s-42.166 6.33301 -56.499 19s-21.5 29.667 -21.5 51z" />
    <glyph glyph-name=".null" horiz-adv-x="0" 
 />
    <glyph glyph-name="nonmarkingreturn" horiz-adv-x="333" 
 />
    <glyph glyph-name="i.loclTRK" horiz-adv-x="233" 
d="M70 610v112h93v-112h-93zM73 0v524h87v-524h-87z" />
    <glyph glyph-name="zero.osf" horiz-adv-x="602" 
d="M45 283c0 90.667 22.667 162.167 68 214.5s108 78.5 188 78.5s142.667 -26.167 188 -78.5s68 -123.833 68 -214.5s-22.667 -162.167 -68 -214.5s-108 -78.5 -188 -78.5s-142.667 26.167 -188 78.5s-68 123.833 -68 214.5zM132 283c0 -69.333 15 -123.668 45 -163.001
s71.333 -59 124 -59c53.333 0 94.833 19.5 124.5 58.5s44.5 93.5 44.5 163.5s-14.833 124.5 -44.5 163.5s-71.167 58.5 -124.5 58.5c-52.667 0 -94 -19.667 -124 -59s-45 -93.666 -45 -162.999z" />
    <glyph glyph-name="one.osf" horiz-adv-x="492" 
d="M311 71h151v-71h-411v71h173v399l-149 -88v86l166 98h70v-495z" />
    <glyph glyph-name="two.osf" horiz-adv-x="520" 
d="M145 71h349.999v-71h-475v65l239 188l53 44c10 8.66699 22.833 21 38.5 37s26.334 30.5 32.001 43.5s8.5 26.833 8.5 41.5c0 28 -11.333 49.333 -34 64s-52.667 22 -90 22c-42 0 -76 -11 -102 -33s-41.333 -55.333 -46 -100l-83 7c5.33301 66 28.833 115.333 70.5 148
s95.167 49 160.5 49c63.333 0 114.333 -13.5 153 -40.5s58 -65.167 58 -114.5c0 -34.667 -11.333 -67.167 -34 -97.5s-61 -65.833 -115 -106.5z" />
    <glyph glyph-name="three.osf" horiz-adv-x="546" 
d="M445 243c44 -35.333 66.001 -86.668 66.001 -154.001c0 -70 -23 -124.167 -69 -162.5s-105.667 -57.5 -179 -57.5c-68 0 -123.833 17.167 -167.5 51.5s-68.834 85.5 -75.501 153.5l85 6c5.33301 -47.333 22 -82.333 50 -105s64 -34 108 -34c48 0 86.667 13 116 39
s44 62.333 44 109c0 42.667 -13.333 76.834 -40 102.501s-65.667 38.5 -117 38.5c-30 0 -63.667 -3.66699 -101 -11v62l214 213h-327v72h441v-65l-226 -211c78 2 137.333 -13.667 178 -47z" />
    <glyph glyph-name="four.osf" horiz-adv-x="597" 
d="M461 93h106v-72h-106v-142h-88v142h-348v66l292 479h144v-473zM112 93h261v427z" />
    <glyph glyph-name="five.osf" horiz-adv-x="555" 
d="M299 334c66 0 119.332 -20.333 159.999 -61s61 -96.667 61 -168c0 -74 -22.667 -131.833 -68 -173.5s-104.666 -62.5 -177.999 -62.5c-66.667 0 -122.5 16.5 -167.5 49.5s-71.833 79.833 -80.5 140.5l86 6c6.66699 -40 24.834 -70.667 54.501 -92s65.5 -32 107.5 -32
c45.333 0 82.833 14 112.5 42s44.5 68.667 44.5 122s-14.833 93.666 -44.5 120.999s-66.834 41 -111.501 41c-31.333 0 -60.833 -6.66699 -88.5 -20s-49.5 -32.666 -65.5 -57.999l-78 6l29 371h411v-72h-344l-18 -232c44 48 103.333 72 178 72z" />
    <glyph glyph-name="six.osf" horiz-adv-x="593" 
d="M329 454c65.333 0 119.167 -20.668 161.5 -62.001s63.5 -97.666 63.5 -168.999c0 -73.333 -22 -130.833 -66 -172.5s-103.667 -62.5 -179 -62.5c-173.333 0 -260 115.667 -260 347c0 122.667 22.833 216.167 68.5 280.5s110.5 96.5 194.5 96.5
c62.667 0 113.167 -17.333 151.5 -52s60.166 -81.667 65.499 -141l-85 -6c-3.33301 38 -16.666 68.667 -39.999 92s-54 35 -92 35c-67.333 0 -115.666 -36.667 -144.999 -110c-18.667 -46 -28.334 -109.667 -29.001 -191c16 36.667 41 65 75 85s72.667 30 116 30z
M309.001 59.999c47.333 0 85.333 14.833 114 44.5s43 69.167 43 118.5c0 48.667 -14.333 87.834 -43 117.501s-66.667 44.5 -114 44.5s-85.166 -14.833 -113.499 -44.5s-42.5 -68.834 -42.5 -117.501c0 -49.333 14.167 -88.833 42.5 -118.5s66.166 -44.5 113.499 -44.5z" />
    <glyph glyph-name="seven.osf" horiz-adv-x="531" 
d="M31 566l473 0.000976562v-61c-136.667 -208.667 -227 -417.334 -271 -626.001h-91c47.333 209.333 139.333 414.333 276 615h-387v72z" />
    <glyph glyph-name="eight.osf" horiz-adv-x="586" 
d="M386 365c50.667 -12 90.168 -33.833 118.501 -65.5s42.5 -70.5 42.5 -116.5c0 -61.333 -24 -109.166 -72 -143.499s-108.667 -51.5 -182 -51.5s-134 17.167 -182 51.5s-72 82.166 -72 143.499c0 46 14.667 84.833 44 116.5s69.333 53.5 120 65.5
c-46.667 10.667 -82.834 30 -108.501 58s-38.5 64 -38.5 108c0 58 22.5 102.667 67.5 134s101.5 47 169.5 47c68.667 0 125.5 -15.667 170.5 -47s67.5 -76 67.5 -134c0 -44 -12.667 -80 -38 -108s-61 -47.333 -107 -58zM142.001 520c0 -40 13.833 -70.667 41.5 -92
s64.167 -32 109.5 -32s81.833 10.667 109.5 32s41.5 52 41.5 92c0 39.333 -13.833 69.5 -41.5 90.5s-64.167 31.5 -109.5 31.5s-81.833 -10.5 -109.5 -31.5s-41.5 -51.167 -41.5 -90.5zM293.001 58c50 0 90.5 11.833 121.5 35.5s46.5 56.834 46.5 99.501
s-15.5 75.834 -46.5 99.501s-71.5 35.5 -121.5 35.5c-49.333 0 -89.666 -11.833 -120.999 -35.5s-47 -56.834 -47 -99.501s15.667 -75.834 47 -99.501s71.666 -35.5 120.999 -35.5z" />
    <glyph glyph-name="nine.osf" horiz-adv-x="593" 
d="M282 576c174.667 0 262.003 -113.002 262.003 -339.002c0 -121.333 -22.333 -212.833 -67 -274.5s-109.334 -92.5 -194.001 -92.5c-64 0 -115.167 16.833 -153.5 50.5s-60.5 79.5 -66.5 137.5l85 6c4 -36.667 17.667 -66.167 41 -88.5s54.666 -33.5 93.999 -33.5
c67.333 0 115.333 36 144 108c18.667 46.667 28 109.334 28 188.001c-16.667 -35.333 -42 -62.666 -76 -81.999s-72.667 -29 -116 -29c-64.667 0 -118.334 20.167 -161.001 60.5s-64 94.5 -64 162.5c0 70 22.167 125.167 66.5 165.5s103.5 60.5 177.5 60.5zM283.003 195.998
c47.333 0 85.3311 14.167 113.998 42.5s43 65.5 43 111.5c0 46.667 -14.333 84 -43 112s-66.667 42 -114 42s-85.166 -14 -113.499 -42s-42.5 -65.333 -42.5 -112c0 -46 14.333 -83.167 43 -111.5s66.334 -42.5 113.001 -42.5z" />
    <glyph glyph-name="zero.subs" horiz-adv-x="444" 
d="M45 98c0 70 15.333 125 46 165s74.334 60 131.001 60s100.334 -20 131.001 -60s46 -95 46 -165s-15.333 -125 -46 -165s-74.334 -60 -131.001 -60s-100.334 20 -131.001 60s-46 95 -46 165zM115 98c0 -53.333 9.5 -94.666 28.5 -123.999s45.167 -44 78.5 -44
s59.5 14.667 78.5 44s28.5 70.666 28.5 123.999s-9.5 94.666 -28.5 123.999s-45.167 44 -78.5 44s-59.5 -14.667 -78.5 -44s-28.5 -70.666 -28.5 -123.999z" />
    <glyph glyph-name="one.subs" horiz-adv-x="274" 
d="M128 315h58v-431h-71v348l-80 -66v74z" />
    <glyph glyph-name="two.subs" horiz-adv-x="361" 
d="M111 -62l224 0.00195312v-57h-317v52l145 139l48.5 47.5c10.333 10.333 19.833 23.166 28.5 38.499s13 30.333 13 45c0 20.667 -6.5 36.5 -19.5 47.5s-30.167 16.5 -51.5 16.5c-51.333 0 -80 -33.667 -86 -101l-68 6c3.33301 50.667 19 88.667 47 114s63.667 38 107 38
c41.333 0 75.166 -10.5 101.499 -31.5s39.5 -50.833 39.5 -89.5c0 -26 -7.16699 -50.333 -21.5 -73s-39.166 -50.334 -74.499 -83.001z" />
    <glyph glyph-name="three.subs" horiz-adv-x="377" 
d="M292 121c35.333 -22 53.001 -56.667 53.001 -104c0 -45.333 -15.833 -80 -47.5 -104s-71.834 -36 -120.501 -36c-46.667 0 -84.5 11 -113.5 33s-45.833 54.667 -50.5 98l68 5c6.66699 -52.667 38.667 -79 96 -79c29.333 0 52.833 7.16699 70.5 21.5
s26.5 34.833 26.5 61.5c0 24.667 -8 44.167 -24 58.5s-39.667 21.5 -71 21.5c-18 0 -40.667 -2.33301 -68 -7v48l131 120h-207v57h297v-50l-143 -120c42 0 76.333 -8 103 -24z" />
    <glyph glyph-name="four.subs" horiz-adv-x="431" 
d="M332 38h74v-57h-74v-97h-70v97h-239v53l195 281h114v-277zM92 38h170v242z" />
    <glyph glyph-name="five.subs" horiz-adv-x="400" 
d="M219 165c44 0 79.333 -11.999 106 -35.999s40 -58.333 40 -103c0 -47.333 -15.333 -84 -46 -110s-70.667 -39 -120 -39c-44.667 0 -82.334 10.667 -113.001 32s-49 51.333 -55 90l68 4c4 -22.667 15.333 -39.834 34 -51.501s40.667 -17.5 66 -17.5
c28 0 51 7.83301 69 23.5s27 38.5 27 68.5c0 30.667 -9 53.667 -27 69s-41.333 23 -70 23c-41.333 0 -72.666 -14.667 -93.999 -44l-62 5l19 236h279v-57h-226l-11 -135c28 28 66.667 42 116 42z" />
    <glyph glyph-name="six.subs" horiz-adv-x="429" 
d="M242 159c43.333 0 79.001 -12 107.001 -36s42 -58.333 42 -103c0 -45.333 -15.167 -81 -45.5 -107s-71.166 -39 -122.499 -39c-118.667 0 -178 72.333 -178 217c0 76.667 15.667 134.667 47 174s75.666 59 132.999 59c43.333 0 78.166 -10.667 104.499 -32
s41.5 -51.333 45.5 -90l-68 -4c-2 20.667 -10.167 37.334 -24.5 50.001s-33.5 19 -57.5 19c-41.333 0 -71 -19.667 -89 -59c-13.333 -26.667 -20 -63.334 -20 -110.001c25.333 40.667 67.333 61 126 61zM223.001 -69c30 0 53.833 8 71.5 24s26.5 37.667 26.5 65
c0 28 -8.83301 50.167 -26.5 66.5s-41.5 24.5 -71.5 24.5c-29.333 0 -52.833 -8.16699 -70.5 -24.5s-26.5 -38.5 -26.5 -66.5c0 -26.667 8.83301 -48.167 26.5 -64.5s41.167 -24.5 70.5 -24.5z" />
    <glyph glyph-name="seven.subs" horiz-adv-x="348" 
d="M20 315h314.001v-48c-86.667 -125.333 -143.334 -253 -170.001 -383h-75c28 126 86.667 250.667 176 374h-245v57z" />
    <glyph glyph-name="eight.subs" horiz-adv-x="423" 
d="M278 109c33.333 -8 59.667 -21.667 79 -41s29 -43.333 29 -72c0 -38.667 -16.5 -68.667 -49.5 -90s-74.5 -32 -124.5 -32s-91.667 10.667 -125 32s-50 51.333 -50 90c0 28.667 9.83301 52.667 29.5 72s46.167 33 79.5 41c-30.667 6.66699 -54.667 18.667 -72 36
s-26 39.333 -26 66c0 36 15.5 63.833 46.5 83.5s70.167 29.5 117.5 29.5c46.667 0 85.5 -9.83301 116.5 -29.5s46.5 -47.5 46.5 -83.5c0 -52.667 -32.333 -86.667 -97 -102zM117.001 201c0 -22.667 8.66699 -39.834 26 -51.501s40.333 -17.5 69 -17.5
s51.5 5.83301 68.5 17.5s25.5 28.834 25.5 51.501s-8.5 40 -25.5 52s-39.833 18 -68.5 18s-51.667 -6 -69 -18s-26 -29.333 -26 -52zM212.001 -73c32 0 57.667 6.66699 77 20s29 32.333 29 57c0 24 -9.66699 42.667 -29 56s-45 20 -77 20
c-32.667 0 -58.5 -6.66699 -77.5 -20s-28.5 -32 -28.5 -56c0 -24.667 9.5 -43.667 28.5 -57s44.833 -20 77.5 -20z" />
    <glyph glyph-name="nine.subs" horiz-adv-x="429" 
d="M206 324c118.667 0 178.002 -72.332 178.002 -216.999c0 -77.333 -15.333 -135.5 -46 -174.5s-75 -58.5 -133 -58.5c-43.333 0 -78.333 10.667 -105 32s-42 51.333 -46 90l68 4c2.66699 -20.667 11.167 -37.334 25.5 -50.001s33.5 -19 57.5 -19c43.333 0 74 21.667 92 65
c11.333 27.333 16.666 63 15.999 107c-24.667 -41.333 -67 -62 -127 -62c-42.667 0 -78 12 -106 36s-42 57.667 -42 101c0 45.333 15.167 81 45.5 107s71.166 39 122.499 39zM206.002 90.001c29.333 0 52.833 8 70.5 24s26.5 37.333 26.5 64s-8.83301 48.167 -26.5 64.5
s-41.167 24.5 -70.5 24.5s-53 -8.16699 -71 -24.5s-27 -37.833 -27 -64.5s9 -48 27 -64s41.667 -24 71 -24z" />
    <glyph glyph-name="zero.tf" horiz-adv-x="630" 
d="M67 350c0 112.667 21.667 201.167 65 265.5s104.333 96.5 183 96.5s139.667 -32.167 183 -96.5s65 -152.833 65 -265.5s-21.667 -201.167 -65 -265.5s-104.333 -96.5 -183 -96.5s-139.667 32.167 -183 96.5s-65 152.833 -65 265.5zM153 350
c0 -90.667 14.167 -162 42.5 -214s68.166 -78 119.499 -78s91.166 26 119.499 78s42.5 123.333 42.5 214s-14.167 161.834 -42.5 213.501s-68.166 77.5 -119.499 77.5s-91.166 -25.833 -119.499 -77.5s-42.5 -122.834 -42.5 -213.501z" />
    <glyph glyph-name="one.tf" horiz-adv-x="630" 
d="M386 72h178v-72h-477v72h210v526l-187 -134v89l205 147h71v-628z" />
    <glyph glyph-name="two.tf" horiz-adv-x="630" 
d="M191 70h348.999v-70h-464v64l226 241c34 36 58.5 62.833 73.5 80.5s29.167 39.5 42.5 65.5s20 51.333 20 76c0 37.333 -11 65.833 -33 85.5s-51 29.5 -87 29.5c-41.333 0 -74.666 -14.5 -99.999 -43.5s-40.333 -73.5 -45 -133.5l-81 7c4.66699 80 27.5 140 68.5 180
s93.5 60 157.5 60c61.333 0 111 -16 149 -48s57 -77.667 57 -137c0 -42 -11 -81.333 -33 -118s-59.667 -83 -113 -139z" />
    <glyph glyph-name="three.tf" horiz-adv-x="630" 
d="M470 377c48.667 -36.667 73 -91.667 73 -165c0 -70.667 -22.667 -125.667 -68 -165s-104 -59 -176 -59c-67.333 0 -122.333 17.5 -165 52.5s-67 87.167 -73 156.5l85 6c9.33301 -95.333 60.333 -143 153 -143c46.667 0 84.167 13.333 112.5 40s42.5 64 42.5 112
c0 44 -12.833 79.333 -38.5 106s-63.5 40 -113.5 40c-30.667 0 -63.667 -4 -99 -12v62l207 220h-318v72h433v-65l-219 -216c70 1.33301 124.667 -12.667 164 -42z" />
    <glyph glyph-name="four.tf" horiz-adv-x="630" 
d="M476 234h103v-69h-103v-165h-85v165h-342v64l285 471h142v-466zM134 234h257v423z" />
    <glyph glyph-name="five.tf" horiz-adv-x="630" 
d="M343 462c64.667 0 116.834 -20.667 156.501 -62s59.5 -98.333 59.5 -171c0 -76 -22.167 -135.167 -66.5 -177.5s-102.5 -63.5 -174.5 -63.5c-64.667 0 -119.334 17 -164.001 51s-71 81.667 -79 143l85 6c6.66699 -41.333 24.5 -73 53.5 -95s63.833 -33 104.5 -33
c44 0 80.5 14.5 109.5 43.5s43.5 70.833 43.5 125.5s-14.333 96 -43 124s-65 42 -109 42c-66.667 0 -116.667 -26.667 -150 -80l-78 6l29 379h403v-72h-337l-17 -239c43.333 48.667 101.333 73 174 73z" />
    <glyph glyph-name="six.tf" horiz-adv-x="630" 
d="M353 453c64 0 116.67 -20.5 158.003 -61.5s62 -97.5 62 -169.5c0 -72.667 -21.5 -129.834 -64.5 -171.501s-101.167 -62.5 -174.5 -62.5c-170 0 -255 115.667 -255 347c0 122.667 22.333 216.167 67 280.5s108 96.5 190 96.5c61.333 0 110.666 -17.333 147.999 -52
s58.666 -81.667 63.999 -141l-82 -6c-3.33301 38.667 -16.5 70 -39.5 94s-53.167 36 -90.5 36c-60 0 -105.333 -32.333 -136 -97c-22.667 -48.667 -34.334 -117.667 -35.001 -207c16.667 36.667 41.5 64.834 74.5 84.501s70.833 29.5 113.5 29.5zM334.003 57
c46 0 83 15 111 45s42 70 42 120s-14 90 -42 120s-65 45 -111 45c-46.667 0 -84 -15 -112 -45s-42 -70 -42 -120s14 -90 42 -120s65.333 -45 112 -45z" />
    <glyph glyph-name="seven.tf" horiz-adv-x="630" 
d="M80 700h463.999v-62c-131.333 -210 -218.666 -422.667 -261.999 -638h-96c45.333 210 136.333 419.333 273 628h-379v72z" />
    <glyph glyph-name="eight.tf" horiz-adv-x="630" 
d="M403 365c50 -12 89.165 -33.833 117.498 -65.5s42.5 -70.834 42.5 -117.501c0 -60.667 -23.5 -108.167 -70.5 -142.5s-106.167 -51.5 -177.5 -51.5s-130.5 17.167 -177.5 51.5s-70.5 81.833 -70.5 142.5c0 46.667 14.167 85.834 42.5 117.501s67.5 53.5 117.5 65.5
c-45.333 10.667 -80.666 30 -105.999 58s-38 64 -38 108c0 58 21.833 102.667 65.5 134s99.167 47 166.5 47s122.833 -15.667 166.5 -47s65.5 -76 65.5 -134c0 -44 -12.667 -80.167 -38 -108.5s-60.666 -47.5 -105.999 -57.5zM166.998 520c0 -40 13.5 -70.833 40.5 -92.5
s62.833 -32.5 107.5 -32.5s80.5 10.833 107.5 32.5s40.5 52.5 40.5 92.5c0 40.667 -13.5 71.667 -40.5 93s-62.833 32 -107.5 32s-80.5 -10.667 -107.5 -32s-40.5 -52.333 -40.5 -93zM314.998 55c48 0 87.5 12 118.5 36s46.5 57.667 46.5 101s-15.5 77 -46.5 101
s-70.5 36 -118.5 36s-87.5 -12 -118.5 -36s-46.5 -57.667 -46.5 -101s15.5 -77 46.5 -101s70.5 -36 118.5 -36z" />
    <glyph glyph-name="nine.tf" horiz-adv-x="630" 
d="M295 712c170.667 0 255.998 -115.666 255.998 -346.999c0 -124 -22 -217.833 -66 -281.5s-107 -95.5 -189 -95.5c-62 0 -111.833 17.333 -149.5 52s-59.5 81.334 -65.5 140.001l83 7c3.33301 -38.667 16.5 -70 39.5 -94s53.833 -36 92.5 -36
c62.667 0 108.334 34.333 137.001 103c21.333 52 32 121 32 207c-16.667 -36.667 -41.667 -64.834 -75 -84.501s-71.333 -29.5 -114 -29.5c-63.333 0 -115.666 20.5 -156.999 61.5s-62 96.5 -62 166.5c0 71.333 21.667 127.666 65 168.999s101 62 173 62zM295.998 319.001
c46.667 0 84 14.833 112 44.5s42 68.834 42 117.501s-14 87.834 -42 117.501s-65.333 44.5 -112 44.5c-46 0 -83 -14.833 -111 -44.5s-42 -68.834 -42 -117.501s14 -87.834 42 -117.501s65 -44.5 111 -44.5z" />
    <glyph glyph-name="zero.tosf" horiz-adv-x="630" 
d="M67 283c0 90.667 22 162.167 66 214.5s104.667 78.5 182 78.5s138 -26.167 182 -78.5s66 -123.833 66 -214.5s-22 -162.167 -66 -214.5s-104.667 -78.5 -182 -78.5s-138 26.167 -182 78.5s-66 123.833 -66 214.5zM152 283c0 -70 14.333 -124.833 43 -164.5
s68.667 -59.5 120 -59.5s91.333 19.833 120 59.5s43 94.5 43 164.5s-14.333 124.833 -43 164.5s-68.667 59.5 -120 59.5s-91.333 -19.833 -120 -59.5s-43 -94.5 -43 -164.5z" />
    <glyph glyph-name="one.tosf" horiz-adv-x="630" 
d="M388 71h184v-71h-479v71h208v401l-180 -90v86l198 98h69v-495z" />
    </font>
</defs>
</svg>
