<?xml version="1.0" standalone="no"?>
<!DOCTYPE svg PUBLIC "-//W3C//DTD SVG 1.1//EN" "http://www.w3.org/Graphics/SVG/1.1/DTD/svg11.dtd" >
<svg>
<metadata>
Created by FontForge 20090914 at Tue Dec 21 11:54:54 2021
 By www-data
Copyright &#194;&#169; 2018 by Russian Fonts. All rights reserved.
</metadata>
<defs>
<font id="RFDewi-Semibold" horiz-adv-x="806" >
  <font-face 
    font-family="RF Dewi Semibold"
    font-weight="600"
    font-stretch="normal"
    units-per-em="1000"
    panose-1="0 0 7 0 0 0 0 0 0 0"
    ascent="800"
    descent="-200"
    x-height="524"
    cap-height="700"
    bbox="-196 -221.002 1156 941"
    underline-thickness="50"
    underline-position="-150"
    unicode-range="U+0020-U+277E"
  />
<missing-glyph horiz-adv-x="600" 
 />
    <glyph glyph-name="f_f.liga" unicode="ff" horiz-adv-x="665" 
d="M597 664c-27.333 0 -46.501 -6.16504 -57.501 -18.498s-16.5 -33.5 -16.5 -63.5v-58h116v-81h-116v-443h-107v443h-191v-443h-107v443h-99v81h99v59c0 57.333 12 97.166 36 119.499s61 33.5 111 33.5c14.667 0 36.334 -1.66699 65.001 -5v-81
c-26.667 1.33301 -41.334 2 -44.001 2c-22.667 0 -38.5 -6 -47.5 -18s-13.5 -34 -13.5 -66v-44h191v71c0 57.333 12.667 97.166 38 119.499s65.333 33.5 120 33.5c22.667 0 48.334 -1.66699 77.001 -5v-81c-29.333 1.33301 -47.333 2 -54 2z" />
    <glyph glyph-name="f_f_i.liga" unicode="ffi" horiz-adv-x="907" 
d="M416 595c0 56.667 12.168 96.334 36.501 119.001s61.5 34 111.5 34c22.667 0 46.667 -1.66699 72 -5v-81c-24 1.33301 -39.667 2 -47 2c-24.667 0 -41.834 -5.83301 -51.501 -17.5s-14.5 -33.167 -14.5 -64.5v-58h113v-81h-113v-443h-107v443h-191v-443h-107v443h-99v81
h99v59c0 57.333 12 97.166 36 119.499s61 33.5 111 33.5c14.667 0 36.334 -1.66699 65.001 -5v-81c-26.667 1.33301 -41.334 2 -44.001 2c-22.667 0 -38.5 -6 -47.5 -18s-13.5 -34 -13.5 -66v-44h191v71zM730.001 724h113v-119h-113v119zM733.001 0v524h107v-524h-107z" />
    <glyph glyph-name="f_i.liga" unicode="fi" horiz-adv-x="609" 
d="M118 595c0 56.667 12.168 96.333 36.501 119s61.5 34 111.5 34c22.667 0 46.667 -1.66699 72 -5v-81c-24 1.33301 -39.667 2 -47 2c-24.667 0 -41.834 -5.83301 -51.501 -17.5s-14.5 -33.167 -14.5 -64.5v-58h113v-81h-113v-443h-107v443h-99v81h99v71zM432.001 723.999
h113v-119h-113v119zM435.001 -0.000976562v524h107v-524h-107z" />
    <glyph glyph-name="f_l.liga" unicode="fl" horiz-adv-x="606" 
d="M118 595c0 56.667 12.168 96.333 36.501 119s61.5 34 111.5 34c22.667 0 46.667 -1.66699 72 -5v-81c-24 1.33301 -39.667 2 -47 2c-24.667 0 -41.834 -5.83301 -51.501 -17.5s-14.5 -33.167 -14.5 -64.5v-58h113v-81h-113v-443h-107v443h-99v81h99v71zM433.001 735.999
h107v-736h-107v736z" />
    <glyph glyph-name=".notdef" horiz-adv-x="600" 
 />
    <glyph glyph-name="space" unicode=" " horiz-adv-x="237" 
 />
    <glyph glyph-name="exclam" unicode="!" horiz-adv-x="291" 
d="M189 215h-88l-12 485h112zM85 0v130h121v-130h-121z" />
    <glyph glyph-name="quotedbl" unicode="&#x22;" horiz-adv-x="357" 
d="M64 461l-9 239h93l-9 -239h-75zM218 461l-8 239h92l-8 -239h-76z" />
    <glyph glyph-name="numbersign" unicode="#" horiz-adv-x="595" 
d="M577 436h-118l-19 -171h109v-66h-117l-22 -201h-87l23 201h-130l-22 -201h-87l22 201h-111v66h119l19 171h-110v66h117l21 186h87l-21 -186h129l21 186h87l-21 -186h111v-66zM353 265l19 171h-130l-19 -171h130z" />
    <glyph glyph-name="dollar" unicode="$" horiz-adv-x="594" 
d="M556 185c0 -62 -20.6689 -109.335 -62.002 -142.002s-98 -50.667 -170 -54v-85h-54v85c-152 9.33301 -231.667 85 -239 227l101 4c4.66699 -88 50.667 -136.667 138 -146v232l-73 24c-94.667 32 -142 92.667 -142 182c0 60.667 20 106.667 60 138s91.667 48.333 155 51
v84h54v-86c60.667 -6.66699 109.834 -27.667 147.501 -63s58.834 -82.333 63.501 -141l-101 -6c-2 32 -12.333 59.167 -31 81.5s-45 36.5 -79 42.5v-218l74 -25c52.667 -17.333 92.167 -40.666 118.5 -69.999s39.5 -67.666 39.5 -114.999zM260.998 415.998l9 -2.99902v203
c-34.667 -2 -61.167 -11.333 -79.5 -28s-27.5 -39.334 -27.5 -68.001c0 -47.333 32.667 -82 98 -104zM323.998 73.999c36.667 2.66699 66.5 12.3311 89.5 28.998s34.5 41.667 34.5 75c0 24.667 -8.83301 45.334 -26.5 62.001s-46.5 31.334 -86.5 44.001l-11 4v-214z" />
    <glyph glyph-name="percent" unicode="%" horiz-adv-x="805" 
d="M30 535c0 53.333 15 95.166 45 125.499s70.333 45.5 121 45.5c51.333 0 91.833 -15.167 121.5 -45.5s44.5 -72.166 44.5 -125.499s-14.833 -95.166 -44.5 -125.499s-70.167 -45.5 -121.5 -45.5c-50.667 0 -91 15.167 -121 45.5s-45 72.166 -45 125.499zM127 0l480 700h71
l-480 -700h-71zM107 535c0 -34 8 -60.5 24 -79.5s37.667 -28.5 65 -28.5s49 9.5 65 28.5s24 45.5 24 79.5s-7.83301 60.5 -23.5 79.5s-37.5 28.5 -65.5 28.5s-49.833 -9.5 -65.5 -28.5s-23.5 -45.5 -23.5 -79.5zM443 166c0 52.667 14.833 94.334 44.5 125.001
s70.167 46 121.5 46c52 0 92.667 -15.333 122 -46s44 -72.334 44 -125.001c0 -53.333 -14.667 -95.333 -44 -126s-70 -46 -122 -46c-51.333 0 -91.833 15.333 -121.5 46s-44.5 72.667 -44.5 126zM519 166c0 -34 7.99805 -60.667 23.998 -80s38 -29 66 -29s50 9.66699 66 29
s24 46 24 80s-8.16699 60.667 -24.5 80s-38.166 29 -65.499 29s-49.166 -9.66699 -65.499 -29s-24.5 -46 -24.5 -80z" />
    <glyph glyph-name="ampersand" unicode="&#x26;" horiz-adv-x="643" 
d="M637 0h-112l-58 70c-49.333 -54.667 -116.333 -82 -201 -82c-75.333 0 -131.833 16.333 -169.5 49s-56.5 76.334 -56.5 131.001c0 19.333 2.83301 37.166 8.5 53.499s11.5 29.833 17.5 40.5s17 23 33 37s28.167 23.833 36.5 29.5l47.5 32.5l26 19l-9 11
c-33.333 40.667 -56.333 73.834 -69 99.501s-19 49.834 -19 72.501c0 47.333 16.5 84 49.5 110s76.167 39 129.5 39c55.333 0 98.833 -14 130.5 -42s47.5 -66.333 47.5 -115c0 -32 -8.16699 -60.5 -24.5 -85.5s-43.5 -50.5 -81.5 -76.5l-33 -24l138 -165
c14 33.333 23 71.666 27 114.999h82c-9.33301 -72.667 -27 -133.334 -53 -182.001zM278 432l4.00098 -5.00098l26 19c45.333 32 68 67.333 68 106c0 26 -7.83301 46.833 -23.5 62.5s-36.167 23.5 -61.5 23.5c-22 0 -41.167 -6.66699 -57.5 -20s-24.5 -32.666 -24.5 -57.999
c0 -18.667 5.16699 -37 15.5 -55s28.166 -42.333 53.499 -73zM271.001 65.999c62 0 110.332 21.999 144.999 65.999l-158 190l-29 -21c-29.333 -21.333 -50.666 -41.166 -63.999 -59.499s-20 -40.5 -20 -66.5c0 -32 10.5 -58.167 31.5 -78.5s52.5 -30.5 94.5 -30.5z" />
    <glyph glyph-name="quotesingle" unicode="'" horiz-adv-x="203" 
d="M64 461l-9 239h93l-9 -239h-75z" />
    <glyph glyph-name="parenleft" unicode="(" horiz-adv-x="328" 
d="M319 736c-108.667 -110.667 -163 -256.335 -163 -437.002c0 -180 54.333 -325.333 163 -436h-91c-48 42.667 -88.667 100.334 -122 173.001s-50 160.334 -50 263.001s16.667 190.5 50 263.5s74 130.833 122 173.5h91z" />
    <glyph glyph-name="parenright" unicode=")" horiz-adv-x="328" 
d="M101 736c47.333 -43.333 87.666 -101.334 120.999 -174.001s50 -160.334 50 -263.001s-16.667 -190.167 -50 -262.5s-73.666 -130.166 -120.999 -173.499h-92c108.667 110.667 163 256 163 436c0 180.667 -54.333 326.334 -163 437.001h92z" />
    <glyph glyph-name="asterisk" unicode="*" horiz-adv-x="379" 
d="M227 535l78 -32l55 -32l-31 -52l-55 33l-66 50l11 -82v-64h-60v64l11 82l-66 -50l-55 -33l-30 52l55 32l78 32l-78 32l-55 31l30 53l55 -33l66 -50l-11 82v64h60v-64l-11 -82l66 50l55 33l31 -53l-55 -31z" />
    <glyph glyph-name="plus" unicode="+" horiz-adv-x="497" 
d="M442 368v-73h-157v-152h-73v152h-157v73h157v152h73v-152h157z" />
    <glyph glyph-name="comma" unicode="," horiz-adv-x="247" 
d="M63 -120v250h121v-80l-73 -170h-48z" />
    <glyph glyph-name="hyphen" unicode="-" horiz-adv-x="374" 
d="M55 340h264v-83h-264v83z" />
    <glyph glyph-name="period" unicode="." horiz-adv-x="247" 
d="M63 0v130h121v-130h-121z" />
    <glyph glyph-name="slash" unicode="/" horiz-adv-x="400" 
d="M270 728h97l-253 -786h-97z" />
    <glyph glyph-name="zero" unicode="0" horiz-adv-x="627" 
d="M48 350c0 113.333 23 202 69 266s111.333 96 196 96c85.333 0 151 -32 197 -96s69 -152.667 69 -266s-23 -202 -69 -266s-111.667 -96 -197 -96c-84.667 0 -150 32 -196 96s-69 152.667 -69 266zM156 350c0 -86.667 13.833 -154 41.5 -202s66.167 -72 115.5 -72
s88 24 116 72s42 115.333 42 202s-14 154 -42 202s-66.667 72 -116 72s-87.833 -24 -115.5 -72s-41.5 -115.333 -41.5 -202z" />
    <glyph glyph-name="one" unicode="1" horiz-adv-x="402" 
d="M210 700h87v-700h-108v578l-154 -102v106z" />
    <glyph glyph-name="two" unicode="2" horiz-adv-x="537" 
d="M161 88l347.001 -0.00195312v-88h-493v81l227 226c35.333 34 60.666 59.333 75.999 76s30 37.5 44 62.5s21 49.167 21 72.5c0 34 -10.333 60.167 -31 78.5s-47.667 27.5 -81 27.5c-38 0 -69 -13.5 -93 -40.5s-38.333 -68.167 -43 -123.5l-104 8
c6 81.333 30.667 142.333 74 183s98.666 61 165.999 61c64 0 116.667 -16.833 158 -50.5s62 -81.5 62 -143.5c0 -41.333 -11.167 -80.166 -33.5 -116.499s-61.166 -81.166 -116.499 -134.499z" />
    <glyph glyph-name="three" unicode="3" horiz-adv-x="562" 
d="M464 372c42.667 -36 63.999 -88.333 63.999 -157c0 -73.333 -24 -129.5 -72 -168.5s-109.667 -58.5 -185 -58.5c-70.667 0 -128.5 17.833 -173.5 53.5s-70.833 88.5 -77.5 158.5l104 8c9.33301 -88 58.333 -132 147 -132c45.333 0 81.5 12.167 108.5 36.5
s40.5 58.5 40.5 102.5c0 40.667 -12.333 73.167 -37 97.5s-61 36.5 -109 36.5c-29.333 0 -63.666 -4 -102.999 -12v75l199 200h-316v88h455v-79l-215 -199c74 -1.33301 130.667 -18 170 -50z" />
    <glyph glyph-name="four" unicode="4" horiz-adv-x="610" 
d="M476 248h106v-88h-106v-160h-108v160h-345v81l278 459h175v-452zM129 248h239v394z" />
    <glyph glyph-name="five" unicode="5" horiz-adv-x="571" 
d="M313 465c66 0 119.667 -20.833 161 -62.5s62 -98.834 62 -171.501c0 -77.333 -23.5 -137.166 -70.5 -179.499s-108.5 -63.5 -184.5 -63.5c-68 0 -125.5 17.167 -172.5 51.5s-74.833 82.833 -83.5 145.5l104 8c7.33301 -38 25 -67 53 -87s61 -30 99 -30
c42.667 0 77.834 13.333 105.501 40s41.5 65 41.5 115s-13.833 87.833 -41.5 113.5s-62.834 38.5 -105.501 38.5c-64.667 0 -112.667 -24.667 -144 -74l-95 8l29 383h426v-88h-345l-16 -219c44 48 103 72 177 72z" />
    <glyph glyph-name="six" unicode="6" horiz-adv-x="608" 
d="M343 456c66.667 0 121.333 -20.665 164 -61.998s64 -98 64 -170c0 -73.333 -23 -131 -69 -173s-107.667 -63 -185 -63c-179.333 0 -269 116.333 -269 349c0 123.333 23.667 216.666 71 279.999s114 95 200 95c65.333 0 118 -17.333 158 -52s63 -82.334 69 -143.001
l-104 -7c-3.33301 34 -15.833 61.667 -37.5 83s-50.167 32 -85.5 32c-61.333 0 -106.333 -34 -135 -102c-18 -44.667 -27.333 -101.667 -28 -171c18 33.333 43.333 59 76 77s69.667 27 111 27zM316.999 75.002c44 0 79.167 13.5 105.5 40.5s39.5 63.167 39.5 108.5
c0 44.667 -13.167 80.5 -39.5 107.5s-61.5 40.5 -105.5 40.5s-79.167 -13.5 -105.5 -40.5s-39.5 -62.833 -39.5 -107.5c0 -45.333 13.167 -81.5 39.5 -108.5s61.5 -40.5 105.5 -40.5z" />
    <glyph glyph-name="seven" unicode="7" horiz-adv-x="546" 
d="M30 700h490.001v-75c-135.333 -206 -224 -414.333 -266 -625h-116c43.333 203.333 135.666 407.333 276.999 612h-385v88z" />
    <glyph glyph-name="eight" unicode="8" horiz-adv-x="602" 
d="M402 365c50 -12.667 89.5 -34.502 118.5 -65.502s43.5 -69.5 43.5 -115.5c0 -62 -25.167 -110.167 -75.5 -144.5s-112.833 -51.5 -187.5 -51.5c-75.333 0 -138 17.167 -188 51.5s-75 82.5 -75 144.5c0 46.667 14.667 85.334 44 116.001s69.333 52.334 120 65.001
c-46 11.333 -82 31 -108 59s-39 63.333 -39 106c0 58.667 23.5 103.667 70.5 135s105.5 47 175.5 47s128.333 -15.667 175 -47s70 -76.333 70 -135c0 -85.333 -48 -140.333 -144 -165zM160 515.998c0 -35.333 12.833 -62.833 38.5 -82.5s59.834 -29.5 102.501 -29.5
s76.667 9.66699 102 29s38 47 38 83c0 35.333 -12.667 62.666 -38 81.999s-59.333 29 -102 29s-76.834 -9.66699 -102.501 -29s-38.5 -46.666 -38.5 -81.999zM301 72.998c46 0 83.833 10.833 113.5 32.5s44.5 52.167 44.5 91.5c0 38.667 -14.833 68.834 -44.5 90.501
s-67.5 32.5 -113.5 32.5s-83.833 -10.833 -113.5 -32.5s-44.5 -51.834 -44.5 -90.501c0 -39.333 14.833 -69.833 44.5 -91.5s67.5 -32.5 113.5 -32.5z" />
    <glyph glyph-name="nine" unicode="9" horiz-adv-x="608" 
d="M289 712c180.667 0 271 -116.332 271 -348.999c0 -124 -23.333 -217.5 -70 -280.5s-113.334 -94.5 -200.001 -94.5c-66 0 -119 17.167 -159 51.5s-63 82.166 -69 143.499l104 7c3.33301 -34 15.833 -61.667 37.5 -83s50.5 -32 86.5 -32c61.333 0 106 34.333 134 103
c18 44.667 27 103 27 175c-18 -33.333 -43.333 -58.833 -76 -76.5s-69.667 -26.5 -111 -26.5c-66 0 -120.333 20.5 -163 61.5s-64 96.833 -64 167.5c0 72 22.833 128.833 68.5 170.5s106.834 62.5 183.501 62.5zM291 334.001c44 0 79.167 13.333 105.5 40
s39.5 61.667 39.5 105c0 44 -13.167 79.333 -39.5 106s-61.5 40 -105.5 40s-79.333 -13.5 -106 -40.5s-40 -62.167 -40 -105.5s13.333 -78.333 40 -105s62 -40 106 -40z" />
    <glyph glyph-name="colon" unicode=":" horiz-adv-x="247" 
d="M63 382v130h121v-130h-121zM63 0v130h121v-130h-121z" />
    <glyph glyph-name="semicolon" unicode=";" horiz-adv-x="247" 
d="M63 382v130h121v-130h-121zM63 -120v250h121v-80l-73 -170h-48z" />
    <glyph glyph-name="less" unicode="&#x3c;" horiz-adv-x="489" 
d="M416 543v-88l-289 -124l289 -113v-88l-365 152v96z" />
    <glyph glyph-name="equal" unicode="=" horiz-adv-x="501" 
d="M57 447h387v-73h-387v73zM57 276h387v-73h-387v73z" />
    <glyph glyph-name="greater" unicode="&#x3e;" horiz-adv-x="489" 
d="M73 543l365 -165v-96l-365 -152v88l289 113l-289 124v88z" />
    <glyph glyph-name="question" unicode="?" horiz-adv-x="513" 
d="M263 712c63.333 0 115.334 -15.3311 156.001 -45.998s61 -76.667 61 -138c0 -38.667 -9.16699 -72.334 -27.5 -101.001s-47.833 -58.334 -88.5 -89.001c-28.667 -20.667 -47.834 -37.834 -57.501 -51.501s-14.5 -32.5 -14.5 -56.5v-12h-103v16
c0 38.667 6 68.334 18 89.001s33.667 42 65 64c22 16 39 29.5 51 40.5s23.333 25.333 34 43s16 36.5 16 56.5c0 32 -10 56 -30 72s-46.667 24 -80 24c-42 0 -75.167 -12.667 -99.5 -38s-38.833 -63 -43.5 -113l-101 7c5.33301 77.333 30 135.5 74 174.5
s100.667 58.5 170 58.5zM180.001 0.00195312v130h121v-130h-121z" />
    <glyph glyph-name="at" unicode="@" horiz-adv-x="866" 
d="M519 464h81.002v-228c0 -38.667 5.66699 -67.167 17 -85.5s30 -27.5 56 -27.5c64.667 0 97 50.333 97 151c0 92 -31.667 170.167 -95 234.5s-144 96.5 -242 96.5c-94 0 -173.667 -33 -239 -99s-98 -146.667 -98 -242c0 -102.667 31.667 -185.334 95 -248.001
s147.333 -94 252 -94c78 0 144.667 15.333 200 46l28 -39c-62.667 -34.667 -138.667 -52 -228 -52c-120 0 -216.167 35 -288.5 105s-108.5 164 -108.5 282c0 110.667 37.167 202.667 111.5 276s166.166 110 275.499 110c113.333 0 206.166 -35.5 278.499 -106.5
s108.5 -159.833 108.5 -266.5c0 -68 -14.5 -120.333 -43.5 -157s-69.167 -55 -120.5 -55c-64.667 0 -107 27.333 -127 82c-14 -30 -33.167 -52.833 -57.5 -68.5s-50.833 -23.5 -79.5 -23.5c-46.667 0 -85.334 18.833 -116.001 56.5s-46 88.5 -46 152.5
c0 64.667 15.333 115.834 46 153.501s69.334 56.5 116.001 56.5c56.667 0 99 -26.333 127 -79v69zM414.002 120c32 0 57.5 13 76.5 39s28.5 61 28.5 105s-9.5 79.167 -28.5 105.5s-44.5 39.5 -76.5 39.5s-57.333 -13.167 -76 -39.5s-28 -61.5 -28 -105.5
s9.33301 -79 28 -105s44 -39 76 -39z" />
    <glyph glyph-name="A" unicode="A" horiz-adv-x="681" 
d="M549 0l-57 175h-306l-58 -175h-111l238 700h171l238 -700h-115zM214 261h249l-124 379z" />
    <glyph glyph-name="B" unicode="B" horiz-adv-x="675" 
d="M418 359c65.333 -4 117.667 -20.5 157 -49.5s59 -70.5 59 -124.5c0 -59.333 -22.667 -105 -68 -137s-104.333 -48 -177 -48h-307v700h302c68.667 0 124.167 -14.667 166.5 -44s63.5 -73.333 63.5 -132c0 -100.667 -65.333 -155.667 -196 -165zM194.001 613
l0.000976562 -215h184c39.333 0 69.833 9.66699 91.5 29s32.5 46 32.5 80c0 33.333 -11.333 59.333 -34 78s-54.334 28 -95.001 28h-179zM379.002 87c46 0 81.333 9.83398 106 29.501s37 47.5 37 83.5c0 35.333 -11.833 63.166 -35.5 83.499s-57.5 30.5 -101.5 30.5h-191
v-227h185z" />
    <glyph glyph-name="C" unicode="C" horiz-adv-x="679" 
d="M43 350c0 108.667 27 196.167 81 262.5s129.667 99.5 227 99.5c80 0 145.333 -21.167 196 -63.5s80.667 -99.5 90 -171.5l-106 -9c-6.66699 46 -26.5 83 -59.5 111s-73.167 42 -120.5 42c-64 0 -112.667 -26 -146 -78s-50 -116.333 -50 -193
c0 -78.667 18 -143.5 54 -194.5s86 -76.5 150 -76.5c50.667 0 91.667 15.5 123 46.5s50 70.167 56 117.5l107 -7c-9.33301 -76 -38.5 -136.333 -87.5 -181s-115.167 -67 -198.5 -67c-100.667 0 -178.5 32.833 -233.5 98.5s-82.5 153.5 -82.5 263.5z" />
    <glyph glyph-name="D" unicode="D" horiz-adv-x="703" 
d="M82 0v700h266c100 0 177 -30.833 231 -92.5s81 -147.5 81 -257.5s-27 -195.833 -81 -257.5s-131 -92.5 -231 -92.5h-266zM194 92h143c68 0 120.167 23 156.5 69s54.5 109 54.5 189s-18.167 143 -54.5 189s-88.5 69 -156.5 69h-143v-516z" />
    <glyph glyph-name="E" unicode="E" horiz-adv-x="623" 
d="M82 0v700h485v-88h-373v-214h294v-84h-294v-226h387v-88h-499z" />
    <glyph glyph-name="F" unicode="F" horiz-adv-x="591" 
d="M82 0v700h472v-92h-360v-222h290v-90h-290v-296h-112z" />
    <glyph glyph-name="G" unicode="G" horiz-adv-x="694" 
d="M43 350c0 108.667 27.002 196.167 81.002 262.5s129.667 99.5 227 99.5c76.667 0 140 -19.667 190 -59s81.333 -93 94 -161l-107 -10c-9.33301 42 -30 75.667 -62 101s-70.333 38 -115 38c-64 0 -112.667 -26 -146 -78s-50 -116.333 -50 -193
c0 -80 19.667 -145.167 59 -195.5s95.333 -75.5 168 -75.5c57.333 0 111.666 12.667 162.999 38v168h-185v77h287v-307c-88 -44.667 -177.333 -67 -268 -67c-108.667 0 -191.834 33 -249.501 99s-86.5 153.667 -86.5 263z" />
    <glyph glyph-name="H" unicode="H" horiz-adv-x="726" 
d="M532 700h112v-700h-112v310h-338v-310h-112v700h112v-298h338v298z" />
    <glyph glyph-name="I" unicode="I" horiz-adv-x="276" 
d="M82 0v700h112v-700h-112z" />
    <glyph glyph-name="J" unicode="J" horiz-adv-x="578" 
d="M38 207l0.00195312 67.001h104v-65c0 -42 11 -74.167 33 -96.5s51.667 -33.5 89 -33.5s66.666 11.667 87.999 35s32 58.333 32 105v481h112v-488c0 -74 -20.333 -129.833 -61 -167.5s-97 -56.5 -169 -56.5c-72.667 0 -128.834 19.167 -168.501 57.5
s-59.5 92.166 -59.5 161.499z" />
    <glyph glyph-name="K" unicode="K" horiz-adv-x="680" 
d="M660 0h-133l-238 310h-95v-310h-112v700h112v-303h94l221 303h130l-264 -339z" />
    <glyph glyph-name="L" unicode="L" horiz-adv-x="562" 
d="M82 0v700h112v-608h336v-92h-448z" />
    <glyph glyph-name="M" unicode="M" horiz-adv-x="920" 
d="M644 700h194v-700h-108v635l-194 -635h-152l-195 635v-635h-107v700h196l183 -636z" />
    <glyph glyph-name="N" unicode="N" horiz-adv-x="738" 
d="M549 700h107v-700h-188l-279 632v-632h-107v700h188l279 -632v632z" />
    <glyph glyph-name="O" unicode="O" horiz-adv-x="728" 
d="M43 350c0 109.333 27.833 197 83.5 263s134.834 99 237.501 99s181.834 -33 237.501 -99s83.5 -153.667 83.5 -263s-27.833 -197 -83.5 -263s-134.834 -99 -237.501 -99s-181.834 33 -237.501 99s-83.5 153.667 -83.5 263zM155 350c0 -80 18.333 -145.167 55 -195.5
s88 -75.5 154 -75.5s117.333 25.167 154 75.5s55 115.5 55 195.5s-18.333 145.167 -55 195.5s-88 75.5 -154 75.5s-117.333 -25.167 -154 -75.5s-55 -115.5 -55 -195.5z" />
    <glyph glyph-name="P" unicode="P" horiz-adv-x="651" 
d="M82 0l0.000976562 699.999h288c70 0 128 -17.667 174 -53s69 -89.666 69 -162.999s-22.333 -126.833 -67 -160.5s-102.334 -50.5 -173.001 -50.5h-179v-273h-112zM194.001 358.999h163c44.667 0 79.834 10.333 105.501 31s38.5 52 38.5 94
c0 41.333 -12.833 72.333 -38.5 93s-60.834 31 -105.501 31h-163v-249z" />
    <glyph glyph-name="Q" unicode="Q" horiz-adv-x="728" 
d="M685 350c0 -139.333 -42.334 -240.333 -127.001 -303l67 -89l-74 -48l-72 96c-34 -12 -72.333 -18 -115 -18c-102.667 0 -181.834 33 -237.501 99s-83.5 153.667 -83.5 263s27.833 197 83.5 263s134.834 99 237.501 99s181.834 -33 237.501 -99s83.5 -153.667 83.5 -263z
M363.999 79c16 0 34 2.33398 54 7.00098l-52 69l74 49l56 -74c51.333 49.333 77 122.666 77 219.999c0 80 -18.333 145.167 -55 195.5s-88 75.5 -154 75.5s-117.333 -25.167 -154 -75.5s-55 -115.5 -55 -195.5s18.333 -145.167 55 -195.5s88 -75.5 154 -75.5z" />
    <glyph glyph-name="R" unicode="R" horiz-adv-x="675" 
d="M650 0l-135 0.000976562l-197 281h-124v-281h-112v700h296c70 0 128.167 -17.5 174.5 -52.5s69.5 -88.167 69.5 -159.5c0 -61.333 -17 -108.833 -51 -142.5s-79 -53.834 -135 -60.501zM194 365.001l172 -0.000976562c44.667 0 79.834 10.333 105.501 31
s38.5 51.334 38.5 92.001c0 40 -12.833 70.333 -38.5 91s-60.834 31 -105.501 31h-172v-245z" />
    <glyph glyph-name="S" unicode="S" horiz-adv-x="619" 
d="M31 220l104.999 4.00195c4.66699 -98.667 64 -148 178 -148c44.667 0 81.667 8.33301 111 25s44 43 44 79c0 25.333 -9 46.166 -27 62.499s-48.333 31.5 -91 45.5l-145 47c-100 32 -150 93.333 -150 184c0 64 22.833 112.167 68.5 144.5s103.167 48.5 172.5 48.5
c74.667 0 135.834 -18.5 183.501 -55.5s73.834 -88.5 78.501 -154.5l-104 -7c-2.66699 39.333 -17.5 70.666 -44.5 93.999s-65.167 35 -114.5 35c-40.667 0 -72.167 -8.5 -94.5 -25.5s-33.5 -40.833 -33.5 -71.5c0 -47.333 34.333 -82 103 -104l145 -46
c55.333 -17.333 96.666 -41 123.999 -71s41 -69.333 41 -118c0 -66.667 -24 -116.667 -72 -150s-113.333 -50 -196 -50c-88.667 0 -157 19.833 -205 59.5s-73.667 97.167 -77 172.5z" />
    <glyph glyph-name="T" unicode="T" horiz-adv-x="596" 
d="M24 608v92h548v-92h-218v-608h-112v608h-218z" />
    <glyph glyph-name="U" unicode="U" horiz-adv-x="730" 
d="M82 267v433h112v-424c0 -66.667 14 -116 42 -148s71 -48 129 -48c114 0 171 65.333 171 196v424h112v-433c0 -186 -94.333 -279 -283 -279s-283 93 -283 279z" />
    <glyph glyph-name="V" unicode="V" horiz-adv-x="657" 
d="M522 700h116l-227 -700h-167l-225 700h118l192 -631z" />
    <glyph glyph-name="W" unicode="W" horiz-adv-x="975" 
d="M834 700h117l-168 -700h-167l-129 620l-131 -620h-168l-164 700h120l133 -616l132 616h159l130 -616z" />
    <glyph glyph-name="X" unicode="X" horiz-adv-x="662" 
d="M24 0l242 356l-223 344h129l158 -256l159 256h124l-222 -339l245 -361h-130l-179 273l-180 -273h-123z" />
    <glyph glyph-name="Y" unicode="Y" horiz-adv-x="668" 
d="M531 700h122l-263 -416v-284h-112v283l-263 417h128l191 -326z" />
    <glyph glyph-name="Z" unicode="Z" horiz-adv-x="590" 
d="M158 92h407v-92h-545v78l397 530h-374v92h512v-78z" />
    <glyph glyph-name="bracketleft" unicode="[" horiz-adv-x="309" 
d="M284 647h-101v-700h101v-84h-198v868h198v-84z" />
    <glyph glyph-name="backslash" unicode="\" horiz-adv-x="400" 
d="M130 728l253 -786h-97l-253 786h97z" />
    <glyph glyph-name="bracketright" unicode="]" horiz-adv-x="309" 
d="M223 731v-868h-198v84h102v700h-102v84h198z" />
    <glyph glyph-name="asciicircum" unicode="^" horiz-adv-x="399" 
d="M377 459h-83l-94 199l-95 -199h-83l127 241h100z" />
    <glyph glyph-name="underscore" unicode="_" horiz-adv-x="402" 
d="M13 -38h376v-72h-376v72z" />
    <glyph glyph-name="grave" unicode="`" horiz-adv-x="268" 
d="M228 590h-83l-105 145h111z" />
    <glyph glyph-name="a" unicode="a" horiz-adv-x="567" 
d="M40 139c0 96 70.333 150.666 211 163.999l148 14v40c0 30.667 -9.5 55.334 -28.5 74.001s-47.5 28 -85.5 28c-34 0 -62 -7.83301 -84 -23.5s-34 -38.5 -36 -68.5h-98c2 58 23 100.667 63 128s91.667 41 155 41c71.333 0 126 -17 164 -51s57 -84 57 -150v-335h-99v102
c-16.667 -36 -41.667 -64 -75 -84s-73.666 -30 -120.999 -30c-56.667 0 -99.334 14 -128.001 42s-43 64.333 -43 109zM146 143.999c0 -24 8.16699 -43.501 24.5 -58.501s40.833 -22.5 73.5 -22.5c47.333 0 85 14.833 113 44.5s42 67.834 42 114.501v28l-134 -13
c-79.333 -8 -119 -39 -119 -93z" />
    <glyph glyph-name="b" unicode="b" horiz-adv-x="605" 
d="M66 0l0.00292969 736h107v-303c17.333 32.667 41.166 58 71.499 76s64.166 27 101.499 27c65.333 0 118.5 -24.5 159.5 -73.5s61.5 -115.833 61.5 -200.5s-20.5 -151.5 -61.5 -200.5s-93.833 -73.5 -158.5 -73.5c-40.667 0 -76.834 10.333 -108.501 31
s-56.167 50 -73.5 88v-107h-99zM168.003 262c0 -57.333 13.167 -103.333 39.5 -138s61.833 -52 106.5 -52c45.333 0 81.166 17.333 107.499 52s39.5 80.667 39.5 138s-13.167 103.333 -39.5 138s-62.166 52 -107.499 52c-44.667 0 -80.167 -17.333 -106.5 -52
s-39.5 -80.667 -39.5 -138z" />
    <glyph glyph-name="c" unicode="c" horiz-adv-x="558" 
d="M38 262c0 87.333 22.3311 154.834 66.998 202.501s105.334 71.5 182.001 71.5c62.667 0 115.334 -16.5 158.001 -49.5s68 -79.5 76 -139.5l-103 -9c-6.66699 37.333 -21.834 65.666 -45.501 84.999s-52.167 29 -85.5 29c-43.333 0 -78 -16.667 -104 -50s-39 -80 -39 -140
s13.167 -106.667 39.5 -140s61.833 -50 106.5 -50c35.333 0 64.833 10.167 88.5 30.5s38.834 49.833 45.501 88.5l103 -8c-8 -62 -33.5 -110 -76.5 -144s-96.5 -51 -160.5 -51c-78 0 -139.5 23.667 -184.5 71s-67.5 115 -67.5 203z" />
    <glyph glyph-name="d" unicode="d" horiz-adv-x="605" 
d="M38 262c0 84.667 20.5 151.5 61.5 200.5s94.167 73.5 159.5 73.5c37.333 0 71 -9 101 -27s54 -43.333 72 -76v303h107v-736h-99v107c-17.333 -38 -42 -67.333 -74 -88s-68 -31 -108 -31c-64.667 0 -117.5 24.5 -158.5 73.5s-61.5 115.833 -61.5 200.5zM144 262
c0 -57.333 13.167 -103.333 39.5 -138s61.833 -52 106.5 -52c45.333 0 81.166 17.333 107.499 52s39.5 80.667 39.5 138s-13.167 103.333 -39.5 138s-62.166 52 -107.499 52c-44.667 0 -80.167 -17.333 -106.5 -52s-39.5 -80.667 -39.5 -138z" />
    <glyph glyph-name="e" unicode="e" horiz-adv-x="575" 
d="M38 262c0 90 23.333 158.167 70 204.5s108.667 69.5 186 69.5c163.333 0 245 -97.333 245 -292v-13h-394c4 -54 19.833 -95.167 47.5 -123.5s63.834 -42.5 108.501 -42.5c63.333 0 106.333 27 129 81l102 -7c-14 -47.333 -40.833 -84.333 -80.5 -111
s-89.834 -40 -150.501 -40c-80.667 0 -144.667 23 -192 69s-71 114.333 -71 205zM146 301h286.999c-2 49.333 -15.333 88 -40 116s-57.667 42 -99 42s-75.166 -13.333 -101.499 -40s-41.833 -66 -46.5 -118z" />
    <glyph glyph-name="f" unicode="f" horiz-adv-x="367" 
d="M19 443l-0.000976562 81.001h99v71c0 57.333 12.667 97.166 38 119.499s65.333 33.5 120 33.5c22.667 0 48.334 -1.66699 77.001 -5v-81c-29.333 1.33301 -47.333 2 -54 2c-28 0 -47.333 -6.16699 -58 -18.5s-16 -33.5 -16 -63.5v-58h116v-81h-116v-443h-107v443h-99z
" />
    <glyph glyph-name="g" unicode="g" horiz-adv-x="601" 
d="M38 273c0 79.333 20.835 143 62.502 191s95.167 72 160.5 72c38.667 0 73.167 -9.33301 103.5 -28s54.166 -44.667 71.499 -78v94h99v-477c0 -89.333 -19.333 -154.833 -58 -196.5s-99.334 -62.5 -182.001 -62.5c-68 0 -121.833 14.5 -161.5 43.5s-60.5 72.5 -62.5 130.5
h99c2 -30 13.833 -53 35.5 -69s51.5 -24 89.5 -24c47.333 0 81.333 12.5 102 37.5s31 62.833 31 113.5v83c-36 -62 -91.333 -93 -166 -93c-66 0 -119.833 24 -161.5 72s-62.5 111.667 -62.5 191zM144.002 270c0 -54 13.333 -97.333 40 -130s62 -49 106 -49
c44.667 0 80.334 16.333 107.001 49s40 76 40 130c0 54.667 -13.333 98.667 -40 132s-62.334 50 -107.001 50c-44 0 -79.333 -16.667 -106 -50s-40 -77.333 -40 -132z" />
    <glyph glyph-name="h" unicode="h" horiz-adv-x="591" 
d="M66 0l-0.000976562 736h107v-295c34 63.333 93 95 177 95c58.667 0 103.334 -16.5 134.001 -49.5s46 -81.5 46 -145.5v-341h-107v307c0 94 -37.333 141 -112 141c-44 0 -78 -14.5 -102 -43.5s-36 -68.833 -36 -119.5v-285h-107z" />
    <glyph glyph-name="i" unicode="i" horiz-adv-x="242" 
d="M64 605v119h113v-119h-113zM67 0v524h107v-524h-107z" />
    <glyph glyph-name="j" unicode="j" horiz-adv-x="242" 
d="M65 605v119h113v-119h-113zM-33 -208v86c10.667 -1.33301 24 -2 40 -2c22.667 0 38.5 5.16699 47.5 15.5s13.5 30.833 13.5 61.5v571h107v-598c0 -50 -10.167 -85.5 -30.5 -106.5s-54.833 -31.5 -103.5 -31.5c-16 0 -40.667 1.33301 -74 4z" />
    <glyph glyph-name="k" unicode="k" horiz-adv-x="559" 
d="M549 0h-133l-181 223h-62v-223h-107v736h107v-429h64l171 217h127l-222 -250z" />
    <glyph glyph-name="l" unicode="l" horiz-adv-x="239" 
d="M66 736h107v-736h-107v736z" />
    <glyph glyph-name="m" unicode="m" horiz-adv-x="890" 
d="M66 0l0.000976562 523.999h99v-95c32 71.333 88.667 107 170 107c82.667 0 134.667 -37.333 156 -112c14.667 36 37 63.667 67 83s65 29 105 29c52 0 92.833 -16.167 122.5 -48.5s44.5 -78.166 44.5 -137.499v-350h-107v322c0 38.667 -8.5 69.334 -25.5 92.001
s-41.5 34 -73.5 34c-38 0 -68 -14.333 -90 -43s-33 -68.667 -33 -120v-285h-107v322c0 39.333 -8.33301 70.166 -25 92.499s-41.334 33.5 -74.001 33.5c-37.333 0 -67 -14.333 -89 -43s-33 -68.667 -33 -120v-285h-107z" />
    <glyph glyph-name="n" unicode="n" horiz-adv-x="591" 
d="M66 0l-0.000976562 524h99v-97c33.333 72.667 95 109 185 109c58.667 0 103.334 -16.5 134.001 -49.5s46 -81.5 46 -145.5v-341h-107v307c0 94 -37.333 141 -112 141c-44 0 -78 -14.5 -102 -43.5s-36 -68.833 -36 -119.5v-285h-107z" />
    <glyph glyph-name="o" unicode="o" horiz-adv-x="589" 
d="M38 262c0 84.667 23.167 151.5 69.5 200.5s108.5 73.5 186.5 73.5c78.667 0 141.167 -24.5 187.5 -73.5s69.5 -115.833 69.5 -200.5s-23.167 -151.5 -69.5 -200.5s-108.833 -73.5 -187.5 -73.5c-78 0 -140.167 24.5 -186.5 73.5s-69.5 115.833 -69.5 200.5zM144 262
c0 -57.333 13.5 -103.333 40.5 -138s63.5 -52 109.5 -52s82.667 17.333 110 52s41 80.667 41 138s-13.667 103.333 -41 138s-64 52 -110 52s-82.5 -17.333 -109.5 -52s-40.5 -80.667 -40.5 -138z" />
    <glyph glyph-name="p" unicode="p" horiz-adv-x="605" 
d="M66 -200v724.001h99v-105c16.667 37.333 41 66.166 73 86.499s68 30.5 108 30.5c65.333 0 118.5 -24.5 159.5 -73.5s61.5 -115.833 61.5 -200.5s-20.5 -151.5 -61.5 -200.5s-93.833 -73.5 -158.5 -73.5c-78.667 0 -136.667 35 -174 105v-293h-107zM168 262.001
c0 -57.333 13.167 -103.333 39.5 -138s61.833 -52 106.5 -52c45.333 0 81.166 17.333 107.499 52s39.5 80.667 39.5 138s-13.167 103.333 -39.5 138s-62.166 52 -107.499 52c-44.667 0 -80.167 -17.333 -106.5 -52s-39.5 -80.667 -39.5 -138z" />
    <glyph glyph-name="q" unicode="q" horiz-adv-x="605" 
d="M38 262c0 84.667 20.499 151.499 61.499 200.499s94.167 73.5 159.5 73.5c40 0 76 -10.167 108 -30.5s56.333 -49.166 73 -86.499v105h99v-724h-107v293c-18 -34 -42.167 -60 -72.5 -78s-64.166 -27 -101.499 -27c-64.667 0 -117.5 24.5 -158.5 73.5
s-61.5 115.833 -61.5 200.5zM143.999 261.999c0 -57.333 13.167 -103.333 39.5 -138s61.833 -52 106.5 -52c45.333 0 81.166 17.333 107.499 52s39.5 80.667 39.5 138s-13.167 103.333 -39.5 138s-62.166 52 -107.499 52c-44.667 0 -80.167 -17.333 -106.5 -52
s-39.5 -80.667 -39.5 -138z" />
    <glyph glyph-name="r" unicode="r" horiz-adv-x="412" 
d="M321 534c21.333 0 40.999 -2.33301 58.999 -7v-95c-25.333 4.66699 -49.666 7 -72.999 7c-45.333 0 -79 -14.5 -101 -43.5s-33 -74.167 -33 -135.5v-260h-107v524h99v-105c28.667 76.667 80.667 115 156 115z" />
    <glyph glyph-name="s" unicode="s" horiz-adv-x="509" 
d="M23 153l98.001 3.99805c6.66699 -61.333 51 -92 133 -92c37.333 0 66.666 6 87.999 18s32 29.333 32 52c0 17.333 -7.16699 31.666 -21.5 42.999s-38.833 22 -73.5 32l-114 33c-84 24 -126 73 -126 147c0 50 18.5 86.833 55.5 110.5s85.5 35.5 145.5 35.5
c62.667 0 114.667 -13.167 156 -39.5s65 -66.166 71 -119.499l-98 -5c-4.66699 28.667 -18.5 50.334 -41.5 65.001s-52.167 22 -87.5 22c-30 0.666992 -53.5 -4.83301 -70.5 -16.5s-25.5 -28.167 -25.5 -49.5c0 -32.667 27 -57 81 -73l114 -32
c93.333 -25.333 140 -74.666 140 -147.999c0 -50 -20.333 -87.833 -61 -113.5s-96 -38.5 -166 -38.5c-144 0 -220.333 55 -229 165z" />
    <glyph glyph-name="t" unicode="t" horiz-adv-x="395" 
d="M361 443l-126.998 -0.000976562v-282c0 -31.333 4.5 -52.666 13.5 -63.999s26.5 -17 52.5 -17c17.333 0 37.666 1.66699 60.999 5v-86c-30 -4.66699 -57 -7 -81 -7c-54.667 0 -93.834 11.5 -117.501 34.5s-35.5 62.167 -35.5 117.5v299h-109v79h82
c12 0 20.5 2.5 25.5 7.5s7.5 13.167 7.5 24.5v87h101v-117h127v-81z" />
    <glyph glyph-name="u" unicode="u" horiz-adv-x="591" 
d="M418 524l107 0.000976562v-524h-99v104c-34 -77.333 -95.667 -116 -185 -116c-58 0 -102.5 17.167 -133.5 51.5s-46.5 84.166 -46.5 149.499v335h107v-302c0 -97.333 37.667 -146 113 -146c43.333 0 77 16 101 48s36 73.667 36 125v275z" />
    <glyph glyph-name="v" unicode="v" horiz-adv-x="554" 
d="M423 524h114l-180 -524h-161l-179 524h115l145 -462z" />
    <glyph glyph-name="w" unicode="w" horiz-adv-x="861" 
d="M724 524h115l-153 -524h-151l-103 470l-106 -470h-153l-151 524h118l115 -447l104 447h149l100 -438z" />
    <glyph glyph-name="x" unicode="x" horiz-adv-x="568" 
d="M547 0h-128l-138 192l-137 -192h-123l199 265l-190 259h129l125 -185l126 185h123l-187 -256z" />
    <glyph glyph-name="y" unicode="y" horiz-adv-x="560" 
d="M428 524l113.998 0.000976562l-186 -577c-17.333 -60.667 -39.666 -102.334 -66.999 -125.001s-68.666 -34 -123.999 -34c-20.667 0 -42 1.33301 -64 4v82c26.667 -1.33301 45.667 -2 57 -2c28 0 49.333 6.16699 64 18.5s27 35.833 37 70.5l12 39h-62l-191 524h115
l162 -481z" />
    <glyph glyph-name="z" unicode="z" horiz-adv-x="494" 
d="M156 84h314v-84h-450v74l307 366h-287v84h422v-74z" />
    <glyph glyph-name="braceleft" unicode="{" horiz-adv-x="337" 
d="M221 440c0 -82 -35.667 -129 -107 -141v-4c71.333 -12 107 -59 107 -141v-117c0 -35.333 6.83301 -60.833 20.5 -76.5s34.5 -23.5 62.5 -23.5h8v-74h-12c-56 0 -98.333 12.5 -127 37.5s-43 68.167 -43 129.5v112c0 78.667 -29 118 -87 118h-9v74h9c58 0 87 39.333 87 118
v112c0 61.333 14.333 104.5 43 129.5s71 37.5 127 37.5h12v-74h-8c-28 0 -48.833 -7.83301 -62.5 -23.5s-20.5 -41.167 -20.5 -76.5v-117z" />
    <glyph glyph-name="bar" unicode="|" horiz-adv-x="243" 
d="M82 736h80v-857h-80v857z" />
    <glyph glyph-name="braceright" unicode="}" horiz-adv-x="337" 
d="M294 334h8v-74h-8c-58 0 -87 -39.333 -87 -118v-112c0 -61.333 -14.333 -104.5 -43 -129.5s-71 -37.5 -127 -37.5h-12v74h8c28 0 48.833 7.83301 62.5 23.5s20.5 41.167 20.5 76.5v117c0 82 35.667 129 107 141v4c-71.333 12 -107 59 -107 141v117
c0 35.333 -6.83301 60.833 -20.5 76.5s-34.5 23.5 -62.5 23.5h-8v74h12c56 0 98.333 -12.5 127 -37.5s43 -68.167 43 -129.5v-112c0 -78.667 29 -118 87 -118z" />
    <glyph glyph-name="asciitilde" unicode="~" horiz-adv-x="567" 
d="M429 404h65c0 -40 -8.83301 -73.167 -26.5 -99.5s-46.167 -39.5 -85.5 -39.5c-26.667 0 -51.667 6.83301 -75 20.5s-44.333 27.334 -63 41.001s-36 20.5 -52 20.5c-17.333 0 -30.666 -6.33301 -39.999 -19s-14 -29.334 -14 -50.001h-65
c0 40.667 8.83301 74.167 26.5 100.5s46.167 39.5 85.5 39.5c26.667 0 51.667 -7 75 -21s44.333 -27.833 63 -41.5s36 -20.5 52 -20.5c17.333 0 30.666 6.5 39.999 19.5s14 29.5 14 49.5z" />
    <glyph glyph-name="uni00A0" unicode="&#xa0;" horiz-adv-x="237" 
 />
    <glyph glyph-name="exclamdown" unicode="&#xa1;" horiz-adv-x="291" 
d="M85 524h121v-130h-121v130zM189 309l12 -485h-112l12 485h88z" />
    <glyph glyph-name="cent" unicode="&#xa2;" horiz-adv-x="548" 
d="M517 176c-8.66699 -56 -31.6689 -100.166 -69.002 -132.499s-84 -50.5 -140 -54.5v-75h-50v75c-68.667 5.33301 -122.5 31.666 -161.5 78.999s-58.5 112 -58.5 194c0 82.667 19.667 147.5 59 194.5s93 73.167 161 78.5v75h50v-75c54 -4.66699 99.167 -22.5 135.5 -53.5
s58.833 -73.5 67.5 -127.5l-97 -8c-12.667 62.667 -48 99 -106 109v-387c28.667 4 52.834 15.833 72.501 35.5s32.834 46.167 39.501 79.5zM136.998 262.001c0 -54.667 10.833 -98.668 32.5 -132.001s51.167 -53.666 88.5 -60.999v386
c-37.333 -6 -66.833 -25.833 -88.5 -59.5s-32.5 -78.167 -32.5 -133.5z" />
    <glyph glyph-name="sterling" unicode="&#xa3;" horiz-adv-x="538" 
d="M116 88l403 0.000976562v-88h-502v77c64 60.667 96 123.667 96 189c0 14.667 -1.66699 32 -5 52h-79v60h65c-10.667 45.333 -16 83.333 -16 114c0 67.333 19.167 118.833 57.5 154.5s90.833 53.5 157.5 53.5c126.667 0 195.667 -69 207 -207l-103 -8
c-6 84.667 -40.667 127 -104 127c-33.333 0 -59.333 -11.5 -78 -34.5s-28 -55.5 -28 -97.5c0 -24 4.66699 -58 14 -102h188v-60h-174c4 -20 6 -39 6 -57c0 -62.667 -35 -120.334 -105 -173.001z" />
    <glyph glyph-name="currency" unicode="&#xa4;" horiz-adv-x="602" 
d="M568 93l-58 -58l-77 77c-37.333 -23.333 -81.333 -35 -132 -35s-94.667 11.667 -132 35l-76 -76l-58 58l75 76c-24.667 37.333 -37 81.333 -37 132c0 51.333 12.333 95.666 37 132.999l-76 76l57 58l78 -77c36.667 23.333 80.667 35 132 35
c50.667 0 94.667 -11.667 132 -35l76 76l58 -58l-75 -75c24 -37.333 36 -81.666 36 -132.999c0 -52 -12.333 -96.333 -37 -133zM164 302c0 -43.333 12.333 -77.666 37 -102.999s58 -38 100 -38s75.167 12.667 99.5 38s36.5 59.666 36.5 102.999
s-12.167 77.666 -36.5 102.999s-57.5 38 -99.5 38s-75.333 -12.667 -100 -38s-37 -59.666 -37 -102.999z" />
    <glyph glyph-name="yen" unicode="&#xa5;" horiz-adv-x="633" 
d="M370 313v-5h187v-56h-187v-62h187v-56h-187v-134h-108v134h-186v56h186v62h-186v56h186v6l-247 374h123l179 -293l182 293h119z" />
    <glyph glyph-name="brokenbar" unicode="&#xa6;" horiz-adv-x="243" 
d="M82 736h80v-342h-80v342zM82 237h80v-358h-80v358z" />
    <glyph glyph-name="section" unicode="&#xa7;" horiz-adv-x="509" 
d="M385 191c54 -28 80.999 -71.6641 80.999 -130.997c0 -50.667 -18.167 -89.167 -54.5 -115.5s-85.833 -39.5 -148.5 -39.5c-61.333 0 -111.333 14 -150 42s-60 70.333 -64 127l92 3c3.33301 -32.667 15.833 -57.334 37.5 -74.001s49.834 -25 84.501 -25
c30 0 55 6.66699 75 20s30 32.333 30 57c0 19.333 -6.83301 35.333 -20.5 48s-37.5 24 -71.5 34l-113 34c-40 12 -70.667 30.333 -92 55s-32 53.667 -32 87c0 55.333 30.333 95.666 91 120.999c-48.667 28.667 -73 72 -73 130c0 50 17.667 87.167 53 111.5s80 36.5 134 36.5
c56 0 103 -13.5 141 -40.5s59.667 -67.5 65 -121.5l-91 -5c-4 31.333 -16.667 55 -38 71s-47 24 -77 24c-26 0.666992 -47.167 -5.5 -63.5 -18.5s-24.5 -31.167 -24.5 -54.5c0 -37.333 25.667 -64 77 -80l108 -33c88.667 -26.667 133 -74.667 133 -144
c0 -52.667 -29.667 -92.334 -89 -119.001zM218.999 244.003l95 -28c44 16.667 66 42.667 66 78c0 38 -32 67 -96 87l-81 25c-46.667 -13.333 -70 -39 -70 -77c0 -40 28.667 -68.333 86 -85z" />
    <glyph glyph-name="dieresis" unicode="&#xa8;" horiz-adv-x="355" 
d="M40 605v111h97v-111h-97zM218 605v111h97v-111h-97z" />
    <glyph glyph-name="copyright" unicode="&#xa9;" horiz-adv-x="810" 
d="M405 -12c-105.333 0 -192 33.167 -260 99.5s-102 153.833 -102 262.5s34 196.167 102 262.5s154.667 99.5 260 99.5s192 -33.167 260 -99.5s102 -153.833 102 -262.5s-34 -196.167 -102 -262.5s-154.667 -99.5 -260 -99.5zM405 42c88 0 160.333 29.333 217 88
s85 132 85 220s-28.333 161.333 -85 220s-129 88 -217 88s-160.333 -29.333 -217 -88s-85 -132 -85 -220s28.333 -161.333 85 -220s129 -88 217 -88zM239 350c0 64.667 14.999 114.498 44.999 149.498s71 52.5 123 52.5c42.667 0 78.5 -12.167 107.5 -36.5
s46.167 -58.5 51.5 -102.5l-71 -6c-4.66699 28 -14.834 49.333 -30.501 64s-34.834 22 -57.501 22c-28.667 0 -51.5 -12.667 -68.5 -38s-25.5 -60.333 -25.5 -105s8.66699 -79.667 26 -105s41 -38 71 -38c23.333 0 42.833 7.83301 58.5 23.5s25.834 37.834 30.501 66.501
l71 -5c-4.66699 -45.333 -21.667 -80.666 -51 -105.999s-65.666 -38 -108.999 -38c-53.333 0 -95.166 17.667 -125.499 53s-45.5 85 -45.5 149z" />
    <glyph glyph-name="guillemotleft" unicode="&#xab;" horiz-adv-x="480" 
d="M257 459l-144 -179l144 -179h-104l-124 156v46l124 156h104zM439 459l-144 -179l144 -179h-104l-124 156v46l124 156h104z" />
    <glyph glyph-name="logicalnot" unicode="&#xac;" horiz-adv-x="513" 
d="M63 370h377v-190h-78v116h-299v74z" />
    <glyph glyph-name="registered" unicode="&#xae;" horiz-adv-x="570" 
d="M285 212c-70 0 -129.167 23.667 -177.5 71s-72.5 107 -72.5 179s24.167 131.667 72.5 179s107.5 71 177.5 71s129.167 -23.667 177.5 -71s72.5 -107 72.5 -179s-24.167 -131.667 -72.5 -179s-107.5 -71 -177.5 -71zM285 251c59.333 0 109 20.167 149 60.5
s60 90.5 60 150.5s-20 110.167 -60 150.5s-89.667 60.5 -149 60.5c-60 0 -109.833 -20.167 -149.5 -60.5s-59.5 -90.5 -59.5 -150.5s19.833 -110.167 59.5 -150.5s89.5 -60.5 149.5 -60.5zM211 336l-0.000976562 258.999h90c20.667 0 37.834 -6.5 51.501 -19.5
s20.5 -32.833 20.5 -59.5c0 -43.333 -16.667 -68.666 -50 -75.999l57 -104h-49l-52 102h-27v-102h-41zM251.999 471.999h42c24.667 0 37 14.667 37 44c0 28.667 -12 43 -36 43h-43v-87z" />
    <glyph glyph-name="macron" unicode="&#xaf;" horiz-adv-x="377" 
d="M40 620v73h297v-73h-297z" />
    <glyph glyph-name="degree" unicode="&#xb0;" horiz-adv-x="374" 
d="M187 386c-46 0 -84.167 14.833 -114.5 44.5s-45.5 69.167 -45.5 118.5s15.167 88.833 45.5 118.5s68.5 44.5 114.5 44.5s84.333 -14.833 115 -44.5s46 -69.167 46 -118.5s-15.333 -88.833 -46 -118.5s-69 -44.5 -115 -44.5zM187 453c26 0 47.667 9 65 27s26 41 26 69
s-8.66699 51 -26 69s-39 27 -65 27s-47.5 -9 -64.5 -27s-25.5 -41 -25.5 -69s8.5 -51 25.5 -69s38.5 -27 64.5 -27z" />
    <glyph glyph-name="plusminus" unicode="&#xb1;" horiz-adv-x="525" 
d="M299 422h157v-72h-157v-123h-73v123h-157v72h157v137h73v-137zM69 92v72h387v-72h-387z" />
    <glyph glyph-name="uni00B2" unicode="&#xb2;" horiz-adv-x="371" 
d="M130 400l216.001 0.000976562v-69h-329v63l142 129c23.333 20.667 39.666 35.667 48.999 45s18.666 21.5 27.999 36.5s14 29.5 14 43.5c0 18 -5.83301 32 -17.5 42s-26.834 15 -45.501 15c-46 0 -71.667 -30.667 -77 -92l-82 6c4 52 20.333 90.833 49 116.5
s65.334 38.5 110.001 38.5c42.667 0 77.834 -10.833 105.501 -32.5s41.5 -52.834 41.5 -93.501c0 -25.333 -7 -49.333 -21 -72s-39 -49.667 -75 -81z" />
    <glyph glyph-name="uni00B3" unicode="&#xb3;" horiz-adv-x="388" 
d="M301 573c36.667 -21.333 55.002 -56.333 55.002 -105c0 -46.667 -16.333 -82 -49 -106s-74.334 -36 -125.001 -36c-48 0 -87.167 11.167 -117.5 33.5s-47.833 55.833 -52.5 100.5l82 5c6.66699 -47.333 36 -71 88 -71c27.333 0 49 6.5 65 19.5s24 31.167 24 54.5
c0 21.333 -7.33301 38.5 -22 51.5s-36.667 19.5 -66 19.5c-21.333 0 -44 -2.33301 -68 -7v57l120 107h-200v68h308v-61l-136 -107c37.333 -1.33301 68.666 -9 93.999 -23z" />
    <glyph glyph-name="acute" unicode="&#xb4;" horiz-adv-x="268" 
d="M40 590l77 145h111l-105 -145h-83z" />
    <glyph glyph-name="paragraph" unicode="&#xb6;" horiz-adv-x="558" 
d="M50 508c0 58 18.168 104.499 54.501 139.499s85.166 52.5 146.499 52.5h57v-791h-68v407c-57.333 0 -103.333 17.833 -138 53.5s-52 81.834 -52 138.501zM396.001 699.999h68v-791h-68v791z" />
    <glyph glyph-name="periodcentered" unicode="&#xb7;" horiz-adv-x="247" 
d="M63 245v130h121v-130h-121z" />
    <glyph glyph-name="cedilla" unicode="&#xb8;" horiz-adv-x="287" 
d="M161 -50c22 0 41.833 -6.5 59.5 -19.5s26.5 -32.833 26.5 -59.5c0 -28 -10.167 -48.667 -30.5 -62s-44.5 -20 -72.5 -20s-51.167 6.16699 -69.5 18.5s-29.833 29.833 -34.5 52.5l49 3c5.33301 -21.333 20.666 -32 45.999 -32c29.333 0 44 13.333 44 40
c0 13.333 -4 23.5 -12 30.5s-18 10.5 -30 10.5c-10.667 0 -24 -3.66699 -40 -11l-40 18l45 81h44l-35 -62c18.667 8 35.334 12 50.001 12z" />
    <glyph glyph-name="uni00B9" unicode="&#xb9;" horiz-adv-x="287" 
d="M132 764h69v-431h-85v334l-81 -64v85z" />
    <glyph glyph-name="guillemotright" unicode="&#xbb;" horiz-adv-x="480" 
d="M145 459l124 -156v-46l-124 -156h-104l145 179l-145 179h104zM327 459l124 -156v-46l-124 -156h-104l145 179l-145 179h104z" />
    <glyph glyph-name="onequarter" unicode="&#xbc;" horiz-adv-x="732" 
d="M105 340v274l-78 -48v76l92 58h58v-360h-72zM531 700h79l-480 -700h-79zM648 138h63v-59h-63v-79h-72v79h-204v54l158 227h118v-222zM443 138h133v188z" />
    <glyph glyph-name="onehalf" unicode="&#xbd;" horiz-adv-x="743" 
d="M105 340v274l-78 -48v76l92 58h58v-360h-72zM531 700h79l-480 -700h-79zM526 59l192.003 -0.00390625v-59h-288v54l125 108c28 22.667 48.167 41.334 60.5 56.001s18.5 30.334 18.5 47.001c0 14.667 -5 26.334 -15 35.001s-23.667 13 -41 13
c-40.667 0 -63.334 -25.667 -68.001 -77l-70 6c3.33301 43.333 17.5 75.833 42.5 97.5s56.833 32.5 95.5 32.5c37.333 0 68.166 -9.16699 92.499 -27.5s36.5 -44.833 36.5 -79.5c0 -21.333 -6.33301 -41.666 -19 -60.999s-34.334 -41.333 -65.001 -66z" />
    <glyph glyph-name="threequarters" unicode="&#xbe;" horiz-adv-x="831" 
d="M320 449c0 -40 -14.668 -70.167 -44.001 -90.5s-66.666 -30.5 -111.999 -30.5c-42.667 0 -77.5 9.5 -104.5 28.5s-42.833 47.5 -47.5 85.5l72 5c4.66699 -40.667 31.334 -61 80.001 -61c24.667 0 44.667 5.5 60 16.5s23 26.5 23 46.5c0 18 -6.83301 32.5 -20.5 43.5
s-33.834 16.5 -60.501 16.5c-16 0 -37 -2.33301 -63 -7v50l111 90h-182v58h277v-53l-124 -88c39.333 -0.666992 71 -9 95 -25c26.667 -18.667 40 -47 40 -85zM629.999 700h79l-480 -700h-79zM746.999 138h63v-59h-63v-79h-72v79h-204v54l158 227h118v-222zM541.999 138h133
v188z" />
    <glyph glyph-name="questiondown" unicode="&#xbf;" horiz-adv-x="513" 
d="M333 524v-130h-121v130h121zM250 -188c-63.333 0 -115.334 15.332 -156.001 45.999s-61 76.667 -61 138c0 39.333 9.16699 73.333 27.5 102s47.833 58 88.5 88c28.667 20.667 47.834 37.834 57.501 51.501s14.5 32.5 14.5 56.5v12h103v-16c0 -38 -6 -67.5 -18 -88.5
s-33.667 -42.5 -65 -64.5c-22 -16 -39 -29.5 -51 -40.5s-23.333 -25.333 -34 -43s-16 -36.5 -16 -56.5c0 -32 10 -56 30 -72s46.667 -24 80 -24c42 0 75.167 12.667 99.5 38s38.833 63 43.5 113l101 -7c-6 -77.333 -30.833 -135.5 -74.5 -174.5s-100.167 -58.5 -169.5 -58.5
z" />
    <glyph glyph-name="Agrave" unicode="&#xc0;" horiz-adv-x="681" 
d="M387 762h-84l-114 118h111zM549 0l-57 175h-306l-58 -175h-111l238 700h171l238 -700h-115zM339 639l-125 -378h249z" />
    <glyph glyph-name="Aacute" unicode="&#xc1;" horiz-adv-x="681" 
d="M494 880l-114 -118h-84l87 118h111zM549 0l-57 175h-306l-58 -175h-111l238 700h171l238 -700h-115zM339 639l-125 -378h249z" />
    <glyph glyph-name="Acircumflex" unicode="&#xc2;" horiz-adv-x="681" 
d="M341 849l-83 -85h-79l100 119h123l100 -119h-78zM549 0l-57 175h-306l-58 -175h-111l238 700h171l238 -700h-115zM339 639l-125 -378h249z" />
    <glyph glyph-name="Atilde" unicode="&#xc3;" horiz-adv-x="681" 
d="M278 810c-22 0 -33 -14.667 -33 -44h-57c0 70 27.667 105 83 105c24.667 0 50.334 -8.66699 77.001 -26s45 -26 55 -26c22 0 33 14.667 33 44h58c0 -70 -28 -105 -84 -105c-24 0 -49.333 8.66699 -76 26s-45.334 26 -56.001 26zM549 0l-57 175h-306l-58 -175h-111
l238 700h171l238 -700h-115zM339 639l-125 -378h249z" />
    <glyph glyph-name="Adieresis" unicode="&#xc4;" horiz-adv-x="681" 
d="M295 864v-101h-107v101h107zM493 864v-101h-106v101h106zM549 0l-57 175h-306l-58 -175h-111l238 700h171l238 -700h-115zM339 639l-125 -378h249z" />
    <glyph glyph-name="Aring" unicode="&#xc5;" horiz-adv-x="681" 
d="M341 746c-29.333 0 -54.5 8.5 -75.5 25.5s-31.5 41.167 -31.5 72.5s10.5 55.333 31.5 72s46.167 25 75.5 25s54.5 -8.33301 75.5 -25s31.5 -40.667 31.5 -72s-10.5 -55.5 -31.5 -72.5s-46.167 -25.5 -75.5 -25.5zM341 893c-15.333 0 -28.166 -4.5 -38.499 -13.5
s-15.5 -20.833 -15.5 -35.5c0 -15.333 5.16699 -27.5 15.5 -36.5s23.166 -13.5 38.499 -13.5s28.166 4.5 38.499 13.5s15.5 21.167 15.5 36.5c0 14.667 -5.16699 26.5 -15.5 35.5s-23.166 13.5 -38.499 13.5zM549 0l-57 175h-306l-58 -175h-111l238 700h171l238 -700h-115z
M339 639l-125 -378h249z" />
    <glyph glyph-name="AE" unicode="&#xc6;" horiz-adv-x="1021" 
d="M11 0l365 700h589v-88h-373v-214h294v-84h-294v-226h387v-88h-499v175h-260l-90 -175h-119zM261 261h219v351h-38z" />
    <glyph glyph-name="Ccedilla" unicode="&#xc7;" horiz-adv-x="679" 
d="M359 -12h-9.99902l-29 -50c16 8 33 12 51 12c22 0 41.667 -6.5 59 -19.5s26 -32.833 26 -59.5c0 -28 -10.167 -48.667 -30.5 -62s-44.5 -20 -72.5 -20s-51.167 6.16699 -69.5 18.5s-29.833 29.833 -34.5 52.5l49 3c5.33301 -21.333 20.666 -32 45.999 -32
c29.333 0 44 13.333 44 40c0 13.333 -4 23.5 -12 30.5s-18 10.5 -30 10.5c-10.667 0 -24 -3.66699 -40 -11l-40 18l40 73c-84 11.333 -148.833 48.833 -194.5 112.5s-68.5 145.5 -68.5 245.5c0 108.667 27 196.167 81 262.5s129.667 99.5 227 99.5
c80 0 145.333 -21.167 196 -63.5s80.667 -99.5 90 -171.5l-106 -9c-6.66699 46 -26.5 83 -59.5 111s-73.167 42 -120.5 42c-64 0 -112.667 -26 -146 -78s-50 -116.333 -50 -193c0 -78.667 18 -143.5 54 -194.5s86 -76.5 150 -76.5c50.667 0 91.667 15.5 123 46.5
s50 70.167 56 117.5l107 -7c-9.33301 -76 -38.5 -136.333 -87.5 -181s-115.167 -67 -198.5 -67z" />
    <glyph glyph-name="Egrave" unicode="&#xc8;" horiz-adv-x="623" 
d="M362 762h-84l-114 118h111zM82 0v700h485v-88h-373v-214h294v-84h-294v-226h387v-88h-499z" />
    <glyph glyph-name="Eacute" unicode="&#xc9;" horiz-adv-x="623" 
d="M266 762l88 118h110l-113 -118h-85zM82 0v700h485v-88h-373v-214h294v-84h-294v-226h387v-88h-499z" />
    <glyph glyph-name="Ecircumflex" unicode="&#xca;" horiz-adv-x="623" 
d="M476 764h-79l-83 85l-83 -85h-78l100 119h123zM82 0v700h485v-88h-373v-214h294v-84h-294v-226h387v-88h-499z" />
    <glyph glyph-name="Edieresis" unicode="&#xcb;" horiz-adv-x="623" 
d="M162 763v101h107v-101h-107zM360 763v101h107v-101h-107zM82 0v700h485v-88h-373v-214h294v-84h-294v-226h387v-88h-499z" />
    <glyph glyph-name="Igrave" unicode="&#xcc;" horiz-adv-x="276" 
d="M180 762h-80l-101 118h108zM82 0v700h112v-700h-112z" />
    <glyph glyph-name="Iacute" unicode="&#xcd;" horiz-adv-x="276" 
d="M96 762l73 118h108l-101 -118h-80zM82 0v700h112v-700h-112z" />
    <glyph glyph-name="Icircumflex" unicode="&#xce;" horiz-adv-x="276" 
d="M299 764h-78l-83 85l-83 -85h-79l100 119h123zM82 0v700h112v-700h-112z" />
    <glyph glyph-name="Idieresis" unicode="&#xcf;" horiz-adv-x="276" 
d="M6 763v101h96v-101h-96zM174 763v101h96v-101h-96zM82 0v700h112v-700h-112z" />
    <glyph glyph-name="Eth" unicode="&#xd0;" horiz-adv-x="718" 
d="M363 700c100 0 177 -30.833 231 -92.5s81 -147.5 81 -257.5s-27 -195.833 -81 -257.5s-131 -92.5 -231 -92.5h-266v311h-67v78h67v311h266zM352 92c68 0 120.167 22.8311 156.5 68.498s54.5 108.834 54.5 189.501s-18.167 143.834 -54.5 189.501s-88.5 68.5 -156.5 68.5
h-143v-219h182v-78h-182v-219h143z" />
    <glyph glyph-name="Ntilde" unicode="&#xd1;" horiz-adv-x="738" 
d="M307 810c-22.667 0 -34 -14.667 -34 -44h-57c0 70 28 105 84 105c24 0 49.333 -8.66699 76 -26s45 -26 55 -26c22.667 0 34 14.667 34 44h57c0 -70 -28 -105 -84 -105c-24.667 0 -50.167 8.66699 -76.5 26s-44.5 26 -54.5 26zM549 700h107v-700h-188l-279 632v-632h-107
v700h188l279 -632v632z" />
    <glyph glyph-name="Ograve" unicode="&#xd2;" horiz-adv-x="728" 
d="M412 762h-84l-114 118h110zM43 350c0 109.333 27.833 197 83.5 263s134.834 99 237.501 99s181.834 -33 237.501 -99s83.5 -153.667 83.5 -263s-27.833 -197 -83.5 -263s-134.834 -99 -237.501 -99s-181.834 33 -237.501 99s-83.5 153.667 -83.5 263zM155 350
c0 -80 18.333 -145.167 55 -195.5s88 -75.5 154 -75.5s117.333 25.167 154 75.5s55 115.5 55 195.5s-18.333 145.167 -55 195.5s-88 75.5 -154 75.5s-117.333 -25.167 -154 -75.5s-55 -115.5 -55 -195.5z" />
    <glyph glyph-name="Oacute" unicode="&#xd3;" horiz-adv-x="728" 
d="M316 762l87 118h111l-114 -118h-84zM43 350c0 109.333 27.833 197 83.5 263s134.834 99 237.501 99s181.834 -33 237.501 -99s83.5 -153.667 83.5 -263s-27.833 -197 -83.5 -263s-134.834 -99 -237.501 -99s-181.834 33 -237.501 99s-83.5 153.667 -83.5 263zM155 350
c0 -80 18.333 -145.167 55 -195.5s88 -75.5 154 -75.5s117.333 25.167 154 75.5s55 115.5 55 195.5s-18.333 145.167 -55 195.5s-88 75.5 -154 75.5s-117.333 -25.167 -154 -75.5s-55 -115.5 -55 -195.5z" />
    <glyph glyph-name="Ocircumflex" unicode="&#xd4;" horiz-adv-x="728" 
d="M525 764h-78l-83 85l-83 -85h-79l100 119h123zM43 350c0 109.333 27.833 197 83.5 263s134.834 99 237.501 99s181.834 -33 237.501 -99s83.5 -153.667 83.5 -263s-27.833 -197 -83.5 -263s-134.834 -99 -237.501 -99s-181.834 33 -237.501 99s-83.5 153.667 -83.5 263z
M155 350c0 -80 18.333 -145.167 55 -195.5s88 -75.5 154 -75.5s117.333 25.167 154 75.5s55 115.5 55 195.5s-18.333 145.167 -55 195.5s-88 75.5 -154 75.5s-117.333 -25.167 -154 -75.5s-55 -115.5 -55 -195.5z" />
    <glyph glyph-name="Otilde" unicode="&#xd5;" horiz-adv-x="728" 
d="M459 863h58c0 -70 -28 -105 -84 -105c-24.667 0 -50.334 8.66699 -77.001 26s-45 26 -55 26c-22 0 -33 -14.667 -33 -44h-57c0 70 27.667 105 83 105c24.667 0 50.334 -8.66699 77.001 -26s45 -26 55 -26c22 0 33 14.667 33 44zM43 350c0 109.333 27.833 197 83.5 263
s134.834 99 237.501 99s181.834 -33 237.501 -99s83.5 -153.667 83.5 -263s-27.833 -197 -83.5 -263s-134.834 -99 -237.501 -99s-181.834 33 -237.501 99s-83.5 153.667 -83.5 263zM155 350c0 -80 18.333 -145.167 55 -195.5s88 -75.5 154 -75.5s117.333 25.167 154 75.5
s55 115.5 55 195.5s-18.333 145.167 -55 195.5s-88 75.5 -154 75.5s-117.333 -25.167 -154 -75.5s-55 -115.5 -55 -195.5z" />
    <glyph glyph-name="Odieresis" unicode="&#xd6;" horiz-adv-x="728" 
d="M211 763v101h107v-101h-107zM410 763v101h107v-101h-107zM43 350c0 109.333 27.833 197 83.5 263s134.834 99 237.501 99s181.834 -33 237.501 -99s83.5 -153.667 83.5 -263s-27.833 -197 -83.5 -263s-134.834 -99 -237.501 -99s-181.834 33 -237.501 99
s-83.5 153.667 -83.5 263zM155 350c0 -80 18.333 -145.167 55 -195.5s88 -75.5 154 -75.5s117.333 25.167 154 75.5s55 115.5 55 195.5s-18.333 145.167 -55 195.5s-88 75.5 -154 75.5s-117.333 -25.167 -154 -75.5s-55 -115.5 -55 -195.5z" />
    <glyph glyph-name="multiply" unicode="&#xd7;" horiz-adv-x="508" 
d="M445 470l-138 -139l138 -138l-52 -53l-139 139l-139 -139l-52 53l139 138l-139 139l52 53l139 -139l139 139z" />
    <glyph glyph-name="Oslash" unicode="&#xd8;" horiz-adv-x="728" 
d="M603 610c54.667 -64 82.001 -150.667 82.001 -260s-27.833 -197 -83.5 -263s-134.834 -99 -237.501 -99c-74.667 0 -137.334 18 -188.001 54l-50 -67l-63 35l61 80c-54 64 -81 150.667 -81 260s27.833 197 83.5 263s134.834 99 237.501 99c74 0 136.333 -18 187 -54
l50 67l63 -34zM155.001 350c0 -65.333 12.667 -121.333 38 -168l296 394c-34 30 -75.667 45 -125 45c-66 0 -117.333 -25.167 -154 -75.5s-55 -115.5 -55 -195.5zM364.001 79c66 0 117.333 25.167 154 75.5s55 115.5 55 195.5c0 66 -12.667 122.333 -38 169l-297 -394
c34.667 -30.667 76.667 -46 126 -46z" />
    <glyph glyph-name="Ugrave" unicode="&#xd9;" horiz-adv-x="730" 
d="M413 762h-85l-113 118h110zM82 267v433h112v-424c0 -66.667 14 -116 42 -148s71 -48 129 -48c114 0 171 65.333 171 196v424h112v-433c0 -186 -94.333 -279 -283 -279s-283 93 -283 279z" />
    <glyph glyph-name="Uacute" unicode="&#xda;" horiz-adv-x="730" 
d="M317 762l87 118h111l-114 -118h-84zM82 267v433h112v-424c0 -66.667 14 -116 42 -148s71 -48 129 -48c114 0 171 65.333 171 196v424h112v-433c0 -186 -94.333 -279 -283 -279s-283 93 -283 279z" />
    <glyph glyph-name="Ucircumflex" unicode="&#xdb;" horiz-adv-x="730" 
d="M526 764h-78l-83 85l-83 -85h-79l100 119h123zM82 267v433h112v-424c0 -66.667 14 -116 42 -148s71 -48 129 -48c114 0 171 65.333 171 196v424h112v-433c0 -186 -94.333 -279 -283 -279s-283 93 -283 279z" />
    <glyph glyph-name="Udieresis" unicode="&#xdc;" horiz-adv-x="730" 
d="M212 763v101h107v-101h-107zM411 763v101h106v-101h-106zM82 267v433h112v-424c0 -66.667 14 -116 42 -148s71 -48 129 -48c114 0 171 65.333 171 196v424h112v-433c0 -186 -94.333 -279 -283 -279s-283 93 -283 279z" />
    <glyph glyph-name="Yacute" unicode="&#xdd;" horiz-adv-x="668" 
d="M484 880l-113 -118h-85l88 118h110zM531 700h122l-263 -416v-284h-112v283l-263 417h128l191 -326z" />
    <glyph glyph-name="Thorn" unicode="&#xde;" horiz-adv-x="651" 
d="M370 581c69.333 0 127.168 -17.5 173.501 -52.5s69.5 -88.167 69.5 -159.5c0 -70.667 -22.333 -122.667 -67 -156s-102.334 -50 -173.001 -50h-179v-163h-112v700h112v-119h176zM357.002 250c44.667 0 79.834 10 105.501 30s38.5 49.667 38.5 89
c0 40 -12.833 70 -38.5 90s-60.834 30 -105.501 30h-163v-239h163z" />
    <glyph glyph-name="germandbls" unicode="&#xdf;" horiz-adv-x="579" 
d="M342 426c135.333 -13.333 203.001 -84.668 203.001 -214.001c0 -72 -20.667 -126.333 -62 -163s-94.333 -55 -159 -55c-17.333 0 -39.333 2 -66 6v87c21.333 -4 38.333 -6 51 -6c36.667 0 67.334 11.333 92.001 34s37 58.667 37 108c0 50 -13.333 88.667 -40 116
s-65.667 41 -117 41h-29v83h24c37.333 0 65.666 9.83301 84.999 29.5s29 47.5 29 83.5c0 35.333 -9.66699 62.5 -29 81.5s-46 28.5 -80 28.5c-72 0 -108 -45.667 -108 -137v-549h-107v562c0 66.667 18.5 117.334 55.5 152.001s90.167 52 159.5 52
c61.333 0 112.666 -15 153.999 -45s62 -75.333 62 -136c0 -92.667 -51.667 -145.667 -155 -159z" />
    <glyph glyph-name="agrave" unicode="&#xe0;" horiz-adv-x="567" 
d="M344 590h-83l-105 145h111zM40 139c0 96 70.333 150.666 211 163.999l148 14v40c0 30.667 -9.5 55.334 -28.5 74.001s-47.5 28 -85.5 28c-34 0 -62 -7.83301 -84 -23.5s-34 -38.5 -36 -68.5h-98c2 58 23 100.667 63 128s91.667 41 155 41c71.333 0 126 -17 164 -51
s57 -84 57 -150v-335h-99v102c-16.667 -36 -41.667 -64 -75 -84s-73.666 -30 -120.999 -30c-56.667 0 -99.334 14 -128.001 42s-43 64.333 -43 109zM146 143.999c0 -24 8.16699 -43.501 24.5 -58.501s40.833 -22.5 73.5 -22.5c47.333 0 85 14.833 113 44.5
s42 67.834 42 114.501v28l-134 -13c-79.333 -8 -119 -39 -119 -93z" />
    <glyph glyph-name="aacute" unicode="&#xe1;" horiz-adv-x="567" 
d="M225 590l78 145h111l-105 -145h-84zM40 139c0 96 70.333 150.666 211 163.999l148 14v40c0 30.667 -9.5 55.334 -28.5 74.001s-47.5 28 -85.5 28c-34 0 -62 -7.83301 -84 -23.5s-34 -38.5 -36 -68.5h-98c2 58 23 100.667 63 128s91.667 41 155 41
c71.333 0 126 -17 164 -51s57 -84 57 -150v-335h-99v102c-16.667 -36 -41.667 -64 -75 -84s-73.666 -30 -120.999 -30c-56.667 0 -99.334 14 -128.001 42s-43 64.333 -43 109zM146 143.999c0 -24 8.16699 -43.501 24.5 -58.501s40.833 -22.5 73.5 -22.5
c47.333 0 85 14.833 113 44.5s42 67.834 42 114.501v28l-134 -13c-79.333 -8 -119 -39 -119 -93z" />
    <glyph glyph-name="acircumflex" unicode="&#xe2;" horiz-adv-x="567" 
d="M437 590h-77l-75 106l-76 -106h-76l94 145h115zM40 139c0 96 70.333 150.666 211 163.999l148 14v40c0 30.667 -9.5 55.334 -28.5 74.001s-47.5 28 -85.5 28c-34 0 -62 -7.83301 -84 -23.5s-34 -38.5 -36 -68.5h-98c2 58 23 100.667 63 128s91.667 41 155 41
c71.333 0 126 -17 164 -51s57 -84 57 -150v-335h-99v102c-16.667 -36 -41.667 -64 -75 -84s-73.666 -30 -120.999 -30c-56.667 0 -99.334 14 -128.001 42s-43 64.333 -43 109zM146 143.999c0 -24 8.16699 -43.501 24.5 -58.501s40.833 -22.5 73.5 -22.5
c47.333 0 85 14.833 113 44.5s42 67.834 42 114.501v28l-134 -13c-79.333 -8 -119 -39 -119 -93z" />
    <glyph glyph-name="atilde" unicode="&#xe3;" horiz-adv-x="567" 
d="M384 701h59c0 -72.667 -29 -109 -87 -109c-25.333 0 -51.666 9.16699 -78.999 27.5s-46.333 27.5 -57 27.5c-23.333 0 -35 -15.333 -35 -46h-58c0 72 28.667 108 86 108c25.333 0 51.666 -9.16699 78.999 -27.5s46.333 -27.5 57 -27.5c23.333 0 35 15.667 35 47zM40 139
c0 96 70.333 150.666 211 163.999l148 14v40c0 30.667 -9.5 55.334 -28.5 74.001s-47.5 28 -85.5 28c-34 0 -62 -7.83301 -84 -23.5s-34 -38.5 -36 -68.5h-98c2 58 23 100.667 63 128s91.667 41 155 41c71.333 0 126 -17 164 -51s57 -84 57 -150v-335h-99v102
c-16.667 -36 -41.667 -64 -75 -84s-73.666 -30 -120.999 -30c-56.667 0 -99.334 14 -128.001 42s-43 64.333 -43 109zM146 143.999c0 -24 8.16699 -43.501 24.5 -58.501s40.833 -22.5 73.5 -22.5c47.333 0 85 14.833 113 44.5s42 67.834 42 114.501v28l-134 -13
c-79.333 -8 -119 -39 -119 -93z" />
    <glyph glyph-name="adieresis" unicode="&#xe4;" horiz-adv-x="567" 
d="M147 605v111h97v-111h-97zM326 605v111h96v-111h-96zM40 139c0 96 70.333 150.666 211 163.999l148 14v40c0 30.667 -9.5 55.334 -28.5 74.001s-47.5 28 -85.5 28c-34 0 -62 -7.83301 -84 -23.5s-34 -38.5 -36 -68.5h-98c2 58 23 100.667 63 128s91.667 41 155 41
c71.333 0 126 -17 164 -51s57 -84 57 -150v-335h-99v102c-16.667 -36 -41.667 -64 -75 -84s-73.666 -30 -120.999 -30c-56.667 0 -99.334 14 -128.001 42s-43 64.333 -43 109zM146 143.999c0 -24 8.16699 -43.501 24.5 -58.501s40.833 -22.5 73.5 -22.5
c47.333 0 85 14.833 113 44.5s42 67.834 42 114.501v28l-134 -13c-79.333 -8 -119 -39 -119 -93z" />
    <glyph glyph-name="aring" unicode="&#xe5;" horiz-adv-x="567" 
d="M285 786c29.333 0 54.5 -8.5 75.5 -25.5s31.5 -41.833 31.5 -74.5s-10.5 -57.5 -31.5 -74.5s-46.167 -25.5 -75.5 -25.5s-54.5 8.5 -75.5 25.5s-31.5 41.833 -31.5 74.5s10.5 57.5 31.5 74.5s46.167 25.5 75.5 25.5zM285 635c15.333 0 28.166 4.5 38.499 13.5
s15.5 21.5 15.5 37.5s-5.16699 28.5 -15.5 37.5s-23.166 13.5 -38.499 13.5s-28.166 -4.5 -38.499 -13.5s-15.5 -21.5 -15.5 -37.5s5.16699 -28.5 15.5 -37.5s23.166 -13.5 38.499 -13.5zM40 139c0 96 70.333 150.666 211 163.999l148 14v40
c0 30.667 -9.5 55.334 -28.5 74.001s-47.5 28 -85.5 28c-34 0 -62 -7.83301 -84 -23.5s-34 -38.5 -36 -68.5h-98c2 58 23 100.667 63 128s91.667 41 155 41c71.333 0 126 -17 164 -51s57 -84 57 -150v-335h-99v102c-16.667 -36 -41.667 -64 -75 -84
s-73.666 -30 -120.999 -30c-56.667 0 -99.334 14 -128.001 42s-43 64.333 -43 109zM146 143.999c0 -24 8.16699 -43.501 24.5 -58.501s40.833 -22.5 73.5 -22.5c47.333 0 85 14.833 113 44.5s42 67.834 42 114.501v28l-134 -13c-79.333 -8 -119 -39 -119 -93z" />
    <glyph glyph-name="ae" unicode="&#xe6;" horiz-adv-x="923" 
d="M887 244l-0.000976562 -13h-378c4 -54 19.333 -95.167 46 -123.5s61 -42.5 103 -42.5c57.333 0 97.333 27 120 81l102 -7c-13.333 -47.333 -39.5 -84.333 -78.5 -111s-86.833 -40 -143.5 -40c-110 0 -182.667 45 -218 135c-18 -42 -46.5 -75 -85.5 -99
s-85.5 -36 -139.5 -36c-58 0 -101.667 14 -131 42s-44 64.333 -44 109c0 98.667 70.333 152.667 211 162l148 10v44c0 31.333 -9.5 56.5 -28.5 75.5s-47.5 28.5 -85.5 28.5c-34 0 -62 -7.83301 -84 -23.5s-34 -38.5 -36 -68.5h-98c2 58 22.833 100.667 62.5 128
s90.5 41 152.5 41c95.333 0 156 -32 182 -96c40 64 103 96 189 96c74.667 0 132.334 -24.167 173.001 -72.5s61 -121.5 61 -219.5zM508.999 301h273c-2 48.667 -14.833 87.167 -38.5 115.5s-54.5 42.5 -92.5 42.5c-37.333 0 -69 -13.5 -95 -40.5s-41.667 -66.167 -47 -117.5
zM398.999 222v21.999l-134 -9c-79.333 -6 -119 -36.333 -119 -91c0 -24 8.16699 -43.5 24.5 -58.5s40.833 -22.5 73.5 -22.5c47.333 0 85 14.833 113 44.5s42 67.834 42 114.501z" />
    <glyph glyph-name="ccedilla" unicode="&#xe7;" horiz-adv-x="558" 
d="M290 -12l-1.99902 -0.000976562l-29 -50c17.333 8 34.333 12 51 12c22 0 41.667 -6.5 59 -19.5s26 -32.833 26 -59.5c0 -28 -10 -48.667 -30 -62s-44.333 -20 -73 -20c-28 0 -51 6.16699 -69 18.5s-29.333 29.833 -34 52.5l48 3c5.33301 -21.333 20.666 -32 45.999 -32
c13.333 0 24.166 3.5 32.499 10.5s12.5 16.833 12.5 29.5c0 13.333 -4 23.5 -12 30.5s-18 10.5 -30 10.5c-10.667 0 -24 -3.66699 -40 -11l-40 18l39 72c-64.667 8.66699 -115.334 36.334 -152.001 83.001s-55 109.334 -55 188.001c0 87.333 22.333 154.833 67 202.5
s105.334 71.5 182.001 71.5c62.667 0 115.334 -16.5 158.001 -49.5s68 -79.5 76 -139.5l-103 -9c-6.66699 37.333 -21.834 65.666 -45.501 84.999s-52.167 29 -85.5 29c-43.333 0 -78 -16.667 -104 -50s-39 -80 -39 -140s13.167 -106.667 39.5 -140s61.833 -50 106.5 -50
c35.333 0 64.833 10.167 88.5 30.5s38.834 49.833 45.501 88.5l103 -8c-8 -62 -33.5 -110 -76.5 -144s-96.5 -51 -160.5 -51z" />
    <glyph glyph-name="egrave" unicode="&#xe8;" horiz-adv-x="575" 
d="M344 590h-83l-105 145h111zM38 262c0 90 23.333 158.167 70 204.5s108.667 69.5 186 69.5c163.333 0 245 -97.333 245 -292v-13h-394c4 -54 19.833 -95.167 47.5 -123.5s63.834 -42.5 108.501 -42.5c63.333 0 106.333 27 129 81l102 -7
c-14 -47.333 -40.833 -84.333 -80.5 -111s-89.834 -40 -150.501 -40c-80.667 0 -144.667 23 -192 69s-71 114.333 -71 205zM146 301h286.999c-2 49.333 -15.333 88 -40 116s-57.667 42 -99 42s-75.166 -13.333 -101.499 -40s-41.833 -66 -46.5 -118z" />
    <glyph glyph-name="eacute" unicode="&#xe9;" horiz-adv-x="575" 
d="M225 590l78 145h111l-105 -145h-84zM38 262c0 90 23.333 158.167 70 204.5s108.667 69.5 186 69.5c163.333 0 245 -97.333 245 -292v-13h-394c4 -54 19.833 -95.167 47.5 -123.5s63.834 -42.5 108.501 -42.5c63.333 0 106.333 27 129 81l102 -7
c-14 -47.333 -40.833 -84.333 -80.5 -111s-89.834 -40 -150.501 -40c-80.667 0 -144.667 23 -192 69s-71 114.333 -71 205zM146 301h286.999c-2 49.333 -15.333 88 -40 116s-57.667 42 -99 42s-75.166 -13.333 -101.499 -40s-41.833 -66 -46.5 -118z" />
    <glyph glyph-name="ecircumflex" unicode="&#xea;" horiz-adv-x="575" 
d="M437 590h-77l-75 106l-75 -106h-77l94 145h115zM38 262c0 90 23.333 158.167 70 204.5s108.667 69.5 186 69.5c163.333 0 245 -97.333 245 -292v-13h-394c4 -54 19.833 -95.167 47.5 -123.5s63.834 -42.5 108.501 -42.5c63.333 0 106.333 27 129 81l102 -7
c-14 -47.333 -40.833 -84.333 -80.5 -111s-89.834 -40 -150.501 -40c-80.667 0 -144.667 23 -192 69s-71 114.333 -71 205zM146 301h286.999c-2 49.333 -15.333 88 -40 116s-57.667 42 -99 42s-75.166 -13.333 -101.499 -40s-41.833 -66 -46.5 -118z" />
    <glyph glyph-name="edieresis" unicode="&#xeb;" horiz-adv-x="575" 
d="M147 605v111h97v-111h-97zM326 605v111h96v-111h-96zM38 262c0 90 23.333 158.167 70 204.5s108.667 69.5 186 69.5c163.333 0 245 -97.333 245 -292v-13h-394c4 -54 19.833 -95.167 47.5 -123.5s63.834 -42.5 108.501 -42.5c63.333 0 106.333 27 129 81l102 -7
c-14 -47.333 -40.833 -84.333 -80.5 -111s-89.834 -40 -150.501 -40c-80.667 0 -144.667 23 -192 69s-71 114.333 -71 205zM146 301h286.999c-2 49.333 -15.333 88 -40 116s-57.667 42 -99 42s-75.166 -13.333 -101.499 -40s-41.833 -66 -46.5 -118z" />
    <glyph glyph-name="igrave" unicode="&#xec;" horiz-adv-x="237" 
d="M164 590h-82l-88 145h110zM64 0v524h107v-524h-107z" />
    <glyph glyph-name="iacute" unicode="&#xed;" horiz-adv-x="240" 
d="M73 590l60 145h110l-88 -145h-82zM66 0v524h107v-524h-107z" />
    <glyph glyph-name="icircumflex" unicode="&#xee;" horiz-adv-x="245" 
d="M274 590h-76l-76 106l-75 -106h-77l95 145h115zM69 0v524h107v-524h-107z" />
    <glyph glyph-name="idieresis" unicode="&#xef;" horiz-adv-x="236" 
d="M-5 605v111h91v-111h-91zM150 605v111h91v-111h-91zM64 0v524h107v-524h-107z" />
    <glyph glyph-name="eth" unicode="&#xf0;" horiz-adv-x="595" 
d="M386 664c110 -75.333 165.001 -193.668 165.001 -355.001c0 -109.333 -23.5 -190.166 -70.5 -242.499s-109.833 -78.5 -188.5 -78.5c-76.667 0 -138.167 23.333 -184.5 70s-69.5 109.667 -69.5 189c0 78.667 22.167 141.667 66.5 189s100.833 71 169.5 71
c48 0 88.5 -11.833 121.5 -35.5s57.5 -56.834 73.5 -99.501c-18 112.667 -74.333 193.334 -169 242.001l-123 -71l-23 39l96 55c-38.667 14 -85.334 26.333 -140.001 37l18 86c86.667 -16.667 158 -40 214 -70l100 58l23 -39zM294.001 71.998c46.667 0 83.5 15.667 110.5 47
s40.5 74 40.5 128s-13.5 96.833 -40.5 128.5s-63.833 47.5 -110.5 47.5c-46 0 -82.5 -16 -109.5 -48s-40.5 -74.667 -40.5 -128s13.5 -95.833 40.5 -127.5s63.5 -47.5 109.5 -47.5z" />
    <glyph glyph-name="ntilde" unicode="&#xf1;" horiz-adv-x="591" 
d="M394 701h59c0 -72.667 -29 -109 -87 -109c-25.333 0 -51.666 9.16699 -78.999 27.5s-46.333 27.5 -57 27.5c-23.333 0 -35 -15.333 -35 -46h-59c0 72 29 108 87 108c25.333 0 51.666 -9.16699 78.999 -27.5s46.333 -27.5 57 -27.5c23.333 0 35 15.667 35 47zM66 0
l-0.000976562 524h99v-97c33.333 72.667 95 109 185 109c58.667 0 103.334 -16.5 134.001 -49.5s46 -81.5 46 -145.5v-341h-107v307c0 94 -37.333 141 -112 141c-44 0 -78 -14.5 -102 -43.5s-36 -68.833 -36 -119.5v-285h-107z" />
    <glyph glyph-name="ograve" unicode="&#xf2;" horiz-adv-x="589" 
d="M354 590h-83l-106 145h111zM38 262c0 84.667 23.167 151.5 69.5 200.5s108.5 73.5 186.5 73.5c78.667 0 141.167 -24.5 187.5 -73.5s69.5 -115.833 69.5 -200.5s-23.167 -151.5 -69.5 -200.5s-108.833 -73.5 -187.5 -73.5c-78 0 -140.167 24.5 -186.5 73.5
s-69.5 115.833 -69.5 200.5zM144 262c0 -57.333 13.5 -103.333 40.5 -138s63.5 -52 109.5 -52s82.667 17.333 110 52s41 80.667 41 138s-13.667 103.333 -41 138s-64 52 -110 52s-82.5 -17.333 -109.5 -52s-40.5 -80.667 -40.5 -138z" />
    <glyph glyph-name="oacute" unicode="&#xf3;" horiz-adv-x="589" 
d="M235 590l77 145h111l-105 -145h-83zM38 262c0 84.667 23.167 151.5 69.5 200.5s108.5 73.5 186.5 73.5c78.667 0 141.167 -24.5 187.5 -73.5s69.5 -115.833 69.5 -200.5s-23.167 -151.5 -69.5 -200.5s-108.833 -73.5 -187.5 -73.5c-78 0 -140.167 24.5 -186.5 73.5
s-69.5 115.833 -69.5 200.5zM144 262c0 -57.333 13.5 -103.333 40.5 -138s63.5 -52 109.5 -52s82.667 17.333 110 52s41 80.667 41 138s-13.667 103.333 -41 138s-64 52 -110 52s-82.5 -17.333 -109.5 -52s-40.5 -80.667 -40.5 -138z" />
    <glyph glyph-name="ocircumflex" unicode="&#xf4;" horiz-adv-x="589" 
d="M446 590h-76l-76 106l-75 -106h-77l95 145h115zM38 262c0 84.667 23.167 151.5 69.5 200.5s108.5 73.5 186.5 73.5c78.667 0 141.167 -24.5 187.5 -73.5s69.5 -115.833 69.5 -200.5s-23.167 -151.5 -69.5 -200.5s-108.833 -73.5 -187.5 -73.5
c-78 0 -140.167 24.5 -186.5 73.5s-69.5 115.833 -69.5 200.5zM144 262c0 -57.333 13.5 -103.333 40.5 -138s63.5 -52 109.5 -52s82.667 17.333 110 52s41 80.667 41 138s-13.667 103.333 -41 138s-64 52 -110 52s-82.5 -17.333 -109.5 -52s-40.5 -80.667 -40.5 -138z" />
    <glyph glyph-name="otilde" unicode="&#xf5;" horiz-adv-x="589" 
d="M393 701h59.002c0 -72.667 -28.667 -109 -86 -109c-25.333 0 -51.833 9.16699 -79.5 27.5s-46.834 27.5 -57.501 27.5c-22.667 0 -34 -15.333 -34 -46h-59c0 72 29 108 87 108c25.333 0 51.666 -9.16699 78.999 -27.5s46.333 -27.5 57 -27.5c22.667 0 34 15.667 34 47z
M38.002 262c0 84.667 23.167 151.5 69.5 200.5s108.5 73.5 186.5 73.5c78.667 0 141.167 -24.5 187.5 -73.5s69.5 -115.833 69.5 -200.5s-23.167 -151.5 -69.5 -200.5s-108.833 -73.5 -187.5 -73.5c-78 0 -140.167 24.5 -186.5 73.5s-69.5 115.833 -69.5 200.5zM144.002 262
c0 -57.333 13.5 -103.333 40.5 -138s63.5 -52 109.5 -52s82.667 17.333 110 52s41 80.667 41 138s-13.667 103.333 -41 138s-64 52 -110 52s-82.5 -17.333 -109.5 -52s-40.5 -80.667 -40.5 -138z" />
    <glyph glyph-name="odieresis" unicode="&#xf6;" horiz-adv-x="589" 
d="M157 605v111h97v-111h-97zM335 605v111h97v-111h-97zM38 262c0 84.667 23.167 151.5 69.5 200.5s108.5 73.5 186.5 73.5c78.667 0 141.167 -24.5 187.5 -73.5s69.5 -115.833 69.5 -200.5s-23.167 -151.5 -69.5 -200.5s-108.833 -73.5 -187.5 -73.5
c-78 0 -140.167 24.5 -186.5 73.5s-69.5 115.833 -69.5 200.5zM144 262c0 -57.333 13.5 -103.333 40.5 -138s63.5 -52 109.5 -52s82.667 17.333 110 52s41 80.667 41 138s-13.667 103.333 -41 138s-64 52 -110 52s-82.5 -17.333 -109.5 -52s-40.5 -80.667 -40.5 -138z" />
    <glyph glyph-name="divide" unicode="&#xf7;" horiz-adv-x="501" 
d="M251 440c-14.667 0 -27 5 -37 15s-15 22.333 -15 37c0 14 5 26 15 36s22.333 15 37 15c14 0 26 -5 36 -15s15 -22 15 -36c0 -14.667 -5 -27 -15 -37s-22 -15 -36 -15zM57 370h387v-77h-387v77zM251 119c-14.667 0 -27 5.16699 -37 15.5s-15 22.5 -15 36.5
c0 14.667 5 27 15 37s22.333 15 37 15c14 0 26 -5 36 -15s15 -22.333 15 -37c0 -14 -5 -26.167 -15 -36.5s-22 -15.5 -36 -15.5z" />
    <glyph glyph-name="oslash" unicode="&#xf8;" horiz-adv-x="589" 
d="M482 462c46 -49.333 69 -116.001 69 -200.001c0 -84.667 -23.167 -151.5 -69.5 -200.5s-108.833 -73.5 -187.5 -73.5c-54 0 -101 12.333 -141 37l-42 -56l-52 30l47 63c-45.333 50.667 -68 117.334 -68 200.001c0 84.667 23.167 151.5 69.5 200.5s108.5 73.5 186.5 73.5
c54.667 0 102 -12.333 142 -37l42 56l52 -30zM144 261.999c0 -45.333 8.66699 -83.667 26 -115l210 278c-25.333 18 -54 27 -86 27c-46 0 -82.5 -17.333 -109.5 -52s-40.5 -80.667 -40.5 -138zM294 71.998c46 0 82.667 17.333 110 52s41 80.667 41 138
c0 46 -8.66699 84.667 -26 116l-210 -278c24 -18.667 52.333 -28 85 -28z" />
    <glyph glyph-name="ugrave" unicode="&#xf9;" horiz-adv-x="591" 
d="M356 590h-83l-105 145h111zM418 524l107 0.000976562v-524h-99v104c-34 -77.333 -95.667 -116 -185 -116c-58 0 -102.5 17.167 -133.5 51.5s-46.5 84.166 -46.5 149.499v335h107v-302c0 -97.333 37.667 -146 113 -146c43.333 0 77 16 101 48s36 73.667 36 125v275z" />
    <glyph glyph-name="uacute" unicode="&#xfa;" horiz-adv-x="591" 
d="M237 590l78 145h111l-105 -145h-84zM418 524l107 0.000976562v-524h-99v104c-34 -77.333 -95.667 -116 -185 -116c-58 0 -102.5 17.167 -133.5 51.5s-46.5 84.166 -46.5 149.499v335h107v-302c0 -97.333 37.667 -146 113 -146c43.333 0 77 16 101 48s36 73.667 36 125
v275z" />
    <glyph glyph-name="ucircumflex" unicode="&#xfb;" horiz-adv-x="591" 
d="M449 590h-77l-75 106l-76 -106h-76l94 145h115zM418 524l107 0.000976562v-524h-99v104c-34 -77.333 -95.667 -116 -185 -116c-58 0 -102.5 17.167 -133.5 51.5s-46.5 84.166 -46.5 149.499v335h107v-302c0 -97.333 37.667 -146 113 -146c43.333 0 77 16 101 48
s36 73.667 36 125v275z" />
    <glyph glyph-name="udieresis" unicode="&#xfc;" horiz-adv-x="591" 
d="M159 605v111h97v-111h-97zM338 605v111h96v-111h-96zM418 524l107 0.000976562v-524h-99v104c-34 -77.333 -95.667 -116 -185 -116c-58 0 -102.5 17.167 -133.5 51.5s-46.5 84.166 -46.5 149.499v335h107v-302c0 -97.333 37.667 -146 113 -146c43.333 0 77 16 101 48
s36 73.667 36 125v275z" />
    <glyph glyph-name="yacute" unicode="&#xfd;" horiz-adv-x="560" 
d="M409 735l-105 -145h-84l78 145h111zM428 524l113.998 0.000976562l-186 -577c-17.333 -60.667 -39.666 -102.334 -66.999 -125.001s-68.666 -34 -123.999 -34c-20.667 0 -42 1.33301 -64 4v82c26.667 -1.33301 45.667 -2 57 -2c28 0 49.333 6.16699 64 18.5
s27 35.833 37 70.5l12 39h-62l-191 524h115l162 -481z" />
    <glyph glyph-name="thorn" unicode="&#xfe;" horiz-adv-x="605" 
d="M66 -200l0.00195312 936h107v-303c17.333 32.667 41.166 58 71.499 76s64.166 27 101.499 27c65.333 0 118.5 -24.5 159.5 -73.5s61.5 -115.833 61.5 -200.5s-20.5 -151.5 -61.5 -200.5s-93.833 -73.5 -158.5 -73.5c-79.333 0 -137.333 35 -174 105v-293h-107z
M168.002 262c0 -57.333 13.167 -103.333 39.5 -138s61.833 -52 106.5 -52c45.333 0 81.166 17.333 107.499 52s39.5 80.667 39.5 138s-13.167 103.333 -39.5 138s-62.166 52 -107.499 52c-44.667 0 -80.167 -17.333 -106.5 -52s-39.5 -80.667 -39.5 -138z" />
    <glyph glyph-name="ydieresis" unicode="&#xff;" horiz-adv-x="560" 
d="M239 716v-111h-97v111h97zM417 716v-111h-96v111h96zM428 524l113.998 0.000976562l-186 -577c-17.333 -60.667 -39.666 -102.334 -66.999 -125.001s-68.666 -34 -123.999 -34c-20.667 0 -42 1.33301 -64 4v82c26.667 -1.33301 45.667 -2 57 -2
c28 0 49.333 6.16699 64 18.5s27 35.833 37 70.5l12 39h-62l-191 524h115l162 -481z" />
    <glyph glyph-name="Amacron" unicode="&#x100;" horiz-adv-x="681" 
d="M499 843v-75h-316v75h316zM549 0l-57 175h-306l-58 -175h-111l238 700h171l238 -700h-115zM339 639l-125 -378h249z" />
    <glyph glyph-name="amacron" unicode="&#x101;" horiz-adv-x="567" 
d="M136 620v73h297v-73h-297zM40 139c0 96 70.333 150.666 211 163.999l148 14v40c0 30.667 -9.5 55.334 -28.5 74.001s-47.5 28 -85.5 28c-34 0 -62 -7.83301 -84 -23.5s-34 -38.5 -36 -68.5h-98c2 58 23 100.667 63 128s91.667 41 155 41c71.333 0 126 -17 164 -51
s57 -84 57 -150v-335h-99v102c-16.667 -36 -41.667 -64 -75 -84s-73.666 -30 -120.999 -30c-56.667 0 -99.334 14 -128.001 42s-43 64.333 -43 109zM146 143.999c0 -24 8.16699 -43.501 24.5 -58.501s40.833 -22.5 73.5 -22.5c47.333 0 85 14.833 113 44.5
s42 67.834 42 114.501v28l-134 -13c-79.333 -8 -119 -39 -119 -93z" />
    <glyph glyph-name="Abreve" unicode="&#x102;" horiz-adv-x="681" 
d="M341 757c-49.333 0 -86.832 12.167 -112.499 36.5s-39.167 56.5 -40.5 96.5h65c2 -18.667 9.83301 -34.667 23.5 -48s35.167 -20 64.5 -20s50.666 6.5 63.999 19.5s21 29.167 23 48.5h66c-1.33301 -40 -14.833 -72.167 -40.5 -96.5s-63.167 -36.5 -112.5 -36.5z
M549.001 0l-57 175h-306l-58 -175h-111l238 700h171l238 -700h-115zM339.001 639l-125 -378h249z" />
    <glyph glyph-name="abreve" unicode="&#x103;" horiz-adv-x="567" 
d="M371 734h62c-1.33301 -44 -14.333 -79 -39 -105s-61 -39 -109 -39s-84.5 13 -109.5 39s-38.167 61 -39.5 105h63c4 -52.667 32.667 -79 86 -79c52 0 80.667 26.333 86 79zM40 139c0 96 70.333 150.666 211 163.999l148 14v40c0 30.667 -9.5 55.334 -28.5 74.001
s-47.5 28 -85.5 28c-34 0 -62 -7.83301 -84 -23.5s-34 -38.5 -36 -68.5h-98c2 58 23 100.667 63 128s91.667 41 155 41c71.333 0 126 -17 164 -51s57 -84 57 -150v-335h-99v102c-16.667 -36 -41.667 -64 -75 -84s-73.666 -30 -120.999 -30c-56.667 0 -99.334 14 -128.001 42
s-43 64.333 -43 109zM146 143.999c0 -24 8.16699 -43.501 24.5 -58.501s40.833 -22.5 73.5 -22.5c47.333 0 85 14.833 113 44.5s42 67.834 42 114.501v28l-134 -13c-79.333 -8 -119 -39 -119 -93z" />
    <glyph glyph-name="Aogonek" unicode="&#x104;" horiz-adv-x="681" 
d="M637 -104l42.998 -11.001c-6 -26.667 -18.167 -47.5 -36.5 -62.5s-41.166 -22.5 -68.499 -22.5c-26 0 -47.167 6.83301 -63.5 20.5s-24.5 32.834 -24.5 57.501c0 28.667 10.5 52.167 31.5 70.5s49.167 35.5 84.5 51.5h-54l-57 175h-306l-58 -175h-111l238 700h171
l238 -700c-33.333 -20.667 -59.5 -40 -78.5 -58s-28.5 -37.667 -28.5 -59c0 -24 11 -36 33 -36c24.667 0 40.334 16.333 47.001 49zM338.998 638.999l-125 -378h249z" />
    <glyph glyph-name="aogonek" unicode="&#x105;" horiz-adv-x="567" 
d="M480 -104l41.999 -11.002c-6 -26.667 -18.167 -47.5 -36.5 -62.5s-41.166 -22.5 -68.499 -22.5c-26 0 -47.167 6.83301 -63.5 20.5s-24.5 32.834 -24.5 57.501c0 28.667 10.5 52.167 31.5 70.5s49.167 35.5 84.5 51.5h-38v102c-16.667 -36 -41.667 -64 -75 -84
s-73.666 -30 -120.999 -30c-56.667 0 -99.334 14 -128.001 42s-43 64.333 -43 109c0 96 70.333 150.667 211 164l148 14v40c0 30.667 -9.5 55.334 -28.5 74.001s-47.5 28 -85.5 28c-34 0 -62 -7.83301 -84 -23.5s-34 -38.5 -36 -68.5h-98c2 58 23 100.667 63 128
s91.667 41 155 41c71.333 0 126 -17 164 -51s57 -84 57 -150v-335c-33.333 -20.667 -59.5 -40 -78.5 -58s-28.5 -37.667 -28.5 -59c0 -24 11 -36 33 -36c24 0 40 16.333 48 49zM398.999 221.998v27.999l-134 -13c-79.333 -8 -119 -39 -119 -93
c0 -24 8.16699 -43.5 24.5 -58.5s40.833 -22.5 73.5 -22.5c47.333 0 85 14.833 113 44.5s42 67.834 42 114.501z" />
    <glyph glyph-name="Cacute" unicode="&#x106;" horiz-adv-x="679" 
d="M293 762l87 118h110l-113 -118h-84zM43 350c0 108.667 27 196.167 81 262.5s129.667 99.5 227 99.5c80 0 145.333 -21.167 196 -63.5s80.667 -99.5 90 -171.5l-106 -9c-6.66699 46 -26.5 83 -59.5 111s-73.167 42 -120.5 42c-64 0 -112.667 -26 -146 -78
s-50 -116.333 -50 -193c0 -78.667 18 -143.5 54 -194.5s86 -76.5 150 -76.5c50.667 0 91.667 15.5 123 46.5s50 70.167 56 117.5l107 -7c-9.33301 -76 -38.5 -136.333 -87.5 -181s-115.167 -67 -198.5 -67c-100.667 0 -178.5 32.833 -233.5 98.5s-82.5 153.5 -82.5 263.5z
" />
    <glyph glyph-name="cacute" unicode="&#x107;" horiz-adv-x="558" 
d="M220 590l78 145h111l-105 -145h-84zM38 262c0 87.333 22.3311 154.834 66.998 202.501s105.334 71.5 182.001 71.5c62.667 0 115.334 -16.5 158.001 -49.5s68 -79.5 76 -139.5l-103 -9c-6.66699 37.333 -21.834 65.666 -45.501 84.999s-52.167 29 -85.5 29
c-43.333 0 -78 -16.667 -104 -50s-39 -80 -39 -140s13.167 -106.667 39.5 -140s61.833 -50 106.5 -50c35.333 0 64.833 10.167 88.5 30.5s38.834 49.833 45.501 88.5l103 -8c-8 -62 -33.5 -110 -76.5 -144s-96.5 -51 -160.5 -51c-78 0 -139.5 23.667 -184.5 71
s-67.5 115 -67.5 203z" />
    <glyph glyph-name="Cdotaccent" unicode="&#x10a;" horiz-adv-x="679" 
d="M280 762v104h120v-104h-120zM43 350c0 108.667 27 196.167 81 262.5s129.667 99.5 227 99.5c80 0 145.333 -21.167 196 -63.5s80.667 -99.5 90 -171.5l-106 -9c-6.66699 46 -26.5 83 -59.5 111s-73.167 42 -120.5 42c-64 0 -112.667 -26 -146 -78s-50 -116.333 -50 -193
c0 -78.667 18 -143.5 54 -194.5s86 -76.5 150 -76.5c50.667 0 91.667 15.5 123 46.5s50 70.167 56 117.5l107 -7c-9.33301 -76 -38.5 -136.333 -87.5 -181s-115.167 -67 -198.5 -67c-100.667 0 -178.5 32.833 -233.5 98.5s-82.5 153.5 -82.5 263.5z" />
    <glyph glyph-name="cdotaccent" unicode="&#x10b;" horiz-adv-x="558" 
d="M223 605v119h113v-119h-113zM38 262c0 87.333 22.3311 154.834 66.998 202.501s105.334 71.5 182.001 71.5c62.667 0 115.334 -16.5 158.001 -49.5s68 -79.5 76 -139.5l-103 -9c-6.66699 37.333 -21.834 65.666 -45.501 84.999s-52.167 29 -85.5 29
c-43.333 0 -78 -16.667 -104 -50s-39 -80 -39 -140s13.167 -106.667 39.5 -140s61.833 -50 106.5 -50c35.333 0 64.833 10.167 88.5 30.5s38.834 49.833 45.501 88.5l103 -8c-8 -62 -33.5 -110 -76.5 -144s-96.5 -51 -160.5 -51c-78 0 -139.5 23.667 -184.5 71
s-67.5 115 -67.5 203z" />
    <glyph glyph-name="Ccaron" unicode="&#x10c;" horiz-adv-x="679" 
d="M423 880h79l-100 -119h-123l-100 119h78l83 -86zM43 350c0 108.667 27 196.167 81 262.5s129.667 99.5 227 99.5c80 0 145.333 -21.167 196 -63.5s80.667 -99.5 90 -171.5l-106 -9c-6.66699 46 -26.5 83 -59.5 111s-73.167 42 -120.5 42c-64 0 -112.667 -26 -146 -78
s-50 -116.333 -50 -193c0 -78.667 18 -143.5 54 -194.5s86 -76.5 150 -76.5c50.667 0 91.667 15.5 123 46.5s50 70.167 56 117.5l107 -7c-9.33301 -76 -38.5 -136.333 -87.5 -181s-115.167 -67 -198.5 -67c-100.667 0 -178.5 32.833 -233.5 98.5s-82.5 153.5 -82.5 263.5z
" />
    <glyph glyph-name="ccaron" unicode="&#x10d;" horiz-adv-x="558" 
d="M355 732h77l-95 -145h-115l-94 145h77l75 -106zM38 262c0 87.333 22.3311 154.834 66.998 202.501s105.334 71.5 182.001 71.5c62.667 0 115.334 -16.5 158.001 -49.5s68 -79.5 76 -139.5l-103 -9c-6.66699 37.333 -21.834 65.666 -45.501 84.999s-52.167 29 -85.5 29
c-43.333 0 -78 -16.667 -104 -50s-39 -80 -39 -140s13.167 -106.667 39.5 -140s61.833 -50 106.5 -50c35.333 0 64.833 10.167 88.5 30.5s38.834 49.833 45.501 88.5l103 -8c-8 -62 -33.5 -110 -76.5 -144s-96.5 -51 -160.5 -51c-78 0 -139.5 23.667 -184.5 71
s-67.5 115 -67.5 203z" />
    <glyph glyph-name="Dcaron" unicode="&#x10e;" horiz-adv-x="703" 
d="M435 880h78l-100 -119h-123l-100 119h79l83 -86zM82 0v700h266c100 0 177 -30.833 231 -92.5s81 -147.5 81 -257.5s-27 -195.833 -81 -257.5s-131 -92.5 -231 -92.5h-266zM194 92h143c68 0 120.167 23 156.5 69s54.5 109 54.5 189s-18.167 143 -54.5 189
s-88.5 69 -156.5 69h-143v-516z" />
    <glyph glyph-name="dcaron" unicode="&#x10f;" horiz-adv-x="627" 
d="M38 262c0 84.667 20.5 151.5 61.5 200.5s94.167 73.5 159.5 73.5c37.333 0 71 -9 101 -27s54 -43.333 72 -76v303h107v-736h-99v107c-17.333 -38 -42 -67.333 -74 -88s-68 -31 -108 -31c-64.667 0 -117.5 24.5 -158.5 73.5s-61.5 115.833 -61.5 200.5zM599 575v161h79
v-59l-39 -102h-40zM144 262c0 -57.333 13.167 -103.333 39.5 -138s61.833 -52 106.5 -52c45.333 0 81.166 17.333 107.499 52s39.5 80.667 39.5 138s-13.167 103.333 -39.5 138s-62.166 52 -107.499 52c-44.667 0 -80.167 -17.333 -106.5 -52s-39.5 -80.667 -39.5 -138z" />
    <glyph glyph-name="Dcroat" unicode="&#x110;" horiz-adv-x="718" 
d="M363 700c100 0 177 -30.833 231 -92.5s81 -147.5 81 -257.5s-27 -195.833 -81 -257.5s-131 -92.5 -231 -92.5h-266v311h-67v78h67v311h266zM352 92c68 0 120.167 22.8311 156.5 68.498s54.5 108.834 54.5 189.501s-18.167 143.834 -54.5 189.501s-88.5 68.5 -156.5 68.5
h-143v-219h182v-78h-182v-219h143z" />
    <glyph glyph-name="dcroat" unicode="&#x111;" horiz-adv-x="605" 
d="M598 650v-52h-59v-598h-99v107c-17.333 -38 -42 -67.333 -74 -88s-68 -31 -108 -31c-64.667 0 -117.5 24.5 -158.5 73.5s-61.5 115.833 -61.5 200.5s20.5 151.5 61.5 200.5s94.167 73.5 159.5 73.5c37.333 0 71 -9 101 -27s54 -43.333 72 -76v165h-184v52h184v86h107v-86
h59zM290 72c45.333 0 81.166 17.333 107.499 52s39.5 80.667 39.5 138s-13.167 103.333 -39.5 138s-62.166 52 -107.499 52c-44.667 0 -80.167 -17.333 -106.5 -52s-39.5 -80.667 -39.5 -138s13.167 -103.333 39.5 -138s61.833 -52 106.5 -52z" />
    <glyph glyph-name="Emacron" unicode="&#x112;" horiz-adv-x="623" 
d="M156 768v75h317v-75h-317zM82 0v700h485v-88h-373v-214h294v-84h-294v-226h387v-88h-499z" />
    <glyph glyph-name="emacron" unicode="&#x113;" horiz-adv-x="575" 
d="M136 620v73h297v-73h-297zM38 262c0 90 23.333 158.167 70 204.5s108.667 69.5 186 69.5c163.333 0 245 -97.333 245 -292v-13h-394c4 -54 19.833 -95.167 47.5 -123.5s63.834 -42.5 108.501 -42.5c63.333 0 106.333 27 129 81l102 -7
c-14 -47.333 -40.833 -84.333 -80.5 -111s-89.834 -40 -150.501 -40c-80.667 0 -144.667 23 -192 69s-71 114.333 -71 205zM146 301h286.999c-2 49.333 -15.333 88 -40 116s-57.667 42 -99 42s-75.166 -13.333 -101.499 -40s-41.833 -66 -46.5 -118z" />
    <glyph glyph-name="Edotaccent" unicode="&#x116;" horiz-adv-x="623" 
d="M254 762v104h120v-104h-120zM82 0v700h485v-88h-373v-214h294v-84h-294v-226h387v-88h-499z" />
    <glyph glyph-name="edotaccent" unicode="&#x117;" horiz-adv-x="575" 
d="M228 605v119h113v-119h-113zM38 262c0 90 23.333 158.167 70 204.5s108.667 69.5 186 69.5c163.333 0 245 -97.333 245 -292v-13h-394c4 -54 19.833 -95.167 47.5 -123.5s63.834 -42.5 108.501 -42.5c63.333 0 106.333 27 129 81l102 -7
c-14 -47.333 -40.833 -84.333 -80.5 -111s-89.834 -40 -150.501 -40c-80.667 0 -144.667 23 -192 69s-71 114.333 -71 205zM146 301h286.999c-2 49.333 -15.333 88 -40 116s-57.667 42 -99 42s-75.166 -13.333 -101.499 -40s-41.833 -66 -46.5 -118z" />
    <glyph glyph-name="Eogonek" unicode="&#x118;" horiz-adv-x="623" 
d="M564 0c-34 -20.667 -60.502 -40.001 -79.502 -58.001s-28.5 -37.667 -28.5 -59c0 -24 11.333 -36 34 -36c24.667 0 40.334 16.333 47.001 49l42 -11c-5.33301 -26 -17.166 -46.667 -35.499 -62s-41.5 -23 -69.5 -23c-26 0 -47 6.83301 -63 20.5s-24 32.834 -24 57.501
c0 28.667 10.333 52.167 31 70.5s48.667 35.5 84 51.5h-420v700h485v-88h-373v-214h294v-84h-294v-226h387v-88h-17z" />
    <glyph glyph-name="eogonek" unicode="&#x119;" horiz-adv-x="575" 
d="M539 244l-0.00292969 -13.001h-394c4 -54 19.833 -95.167 47.5 -123.5s63.834 -42.5 108.501 -42.5c63.333 0 106.333 27 129 81l102 -7c-14.667 -49.333 -42.334 -87 -83.001 -113c-60 -39.333 -99.167 -68 -117.5 -86s-27.5 -37 -27.5 -57c0 -24 11 -36 33 -36
c24.667 0 40.334 16.333 47.001 49l43 -11c-6 -26.667 -18.167 -47.5 -36.5 -62.5s-41.166 -22.5 -68.499 -22.5c-26 0 -47.167 6.83301 -63.5 20.5s-24.5 32.834 -24.5 57.501c0 43.333 30.667 80.333 92 111c-5.33301 -0.666992 -13.666 -1 -24.999 -1
c-80.667 0 -144.667 23 -192 69s-71 114.333 -71 205c0 90 23.333 158.167 70 204.5s108.667 69.5 186 69.5c163.333 0 245 -97.333 245 -292zM145.997 300.999h286.999c-2 49.333 -15.333 88 -40 116s-57.667 42 -99 42s-75.166 -13.333 -101.499 -40
s-41.833 -66 -46.5 -118z" />
    <glyph glyph-name="Ecaron" unicode="&#x11a;" horiz-adv-x="623" 
d="M397 880h79l-100 -119h-123l-100 119h78l83 -86zM82 0v700h485v-88h-373v-214h294v-84h-294v-226h387v-88h-499z" />
    <glyph glyph-name="ecaron" unicode="&#x11b;" horiz-adv-x="575" 
d="M360 732h77l-95 -145h-115l-94 145h77l75 -106zM38 262c0 90 23.333 158.167 70 204.5s108.667 69.5 186 69.5c163.333 0 245 -97.333 245 -292v-13h-394c4 -54 19.833 -95.167 47.5 -123.5s63.834 -42.5 108.501 -42.5c63.333 0 106.333 27 129 81l102 -7
c-14 -47.333 -40.833 -84.333 -80.5 -111s-89.834 -40 -150.501 -40c-80.667 0 -144.667 23 -192 69s-71 114.333 -71 205zM146 301h286.999c-2 49.333 -15.333 88 -40 116s-57.667 42 -99 42s-75.166 -13.333 -101.499 -40s-41.833 -66 -46.5 -118z" />
    <glyph glyph-name="Gbreve" unicode="&#x11e;" horiz-adv-x="694" 
d="M434 890h66.001c-1.33301 -40 -14.833 -72.167 -40.5 -96.5s-63.167 -36.5 -112.5 -36.5s-86.833 12.167 -112.5 36.5s-39.167 56.5 -40.5 96.5h66c1.33301 -18.667 8.83301 -34.667 22.5 -48s35.167 -20 64.5 -20s50.666 6.5 63.999 19.5s21 29.167 23 48.5zM43.001 350
c0 108.667 27.002 196.167 81.002 262.5s129.667 99.5 227 99.5c76.667 0 140 -19.667 190 -59s81.333 -93 94 -161l-107 -10c-9.33301 42 -30 75.667 -62 101s-70.333 38 -115 38c-64 0 -112.667 -26 -146 -78s-50 -116.333 -50 -193c0 -80 19.667 -145.167 59 -195.5
s95.333 -75.5 168 -75.5c57.333 0 111.666 12.667 162.999 38v168h-185v77h287v-307c-88 -44.667 -177.333 -67 -268 -67c-108.667 0 -191.834 33 -249.501 99s-86.5 153.667 -86.5 263z" />
    <glyph glyph-name="gbreve" unicode="&#x11f;" horiz-adv-x="601" 
d="M386 734h62c-1.33301 -44 -14.333 -79 -39 -105s-61 -39 -109 -39s-84.5 13 -109.5 39s-38.167 61 -39.5 105h63c4 -52.667 32.667 -79 86 -79c52 0 80.667 26.333 86 79zM38 273c0 79.333 20.835 143 62.502 191s95.167 72 160.5 72c38.667 0 73.167 -9.33301 103.5 -28
s54.166 -44.667 71.499 -78v94h99v-477c0 -89.333 -19.333 -154.833 -58 -196.5s-99.334 -62.5 -182.001 -62.5c-68 0 -121.833 14.5 -161.5 43.5s-60.5 72.5 -62.5 130.5h99c2 -30 13.833 -53 35.5 -69s51.5 -24 89.5 -24c47.333 0 81.333 12.5 102 37.5
s31 62.833 31 113.5v83c-36 -62 -91.333 -93 -166 -93c-66 0 -119.833 24 -161.5 72s-62.5 111.667 -62.5 191zM144.002 270c0 -54 13.333 -97.333 40 -130s62 -49 106 -49c44.667 0 80.334 16.333 107.001 49s40 76 40 130c0 54.667 -13.333 98.667 -40 132
s-62.334 50 -107.001 50c-44 0 -79.333 -16.667 -106 -50s-40 -77.333 -40 -132z" />
    <glyph glyph-name="Gdotaccent" unicode="&#x120;" horiz-adv-x="694" 
d="M287 762v104h120v-104h-120zM43 350c0 108.667 27.002 196.167 81.002 262.5s129.667 99.5 227 99.5c76.667 0 140 -19.667 190 -59s81.333 -93 94 -161l-107 -10c-9.33301 42 -30 75.667 -62 101s-70.333 38 -115 38c-64 0 -112.667 -26 -146 -78s-50 -116.333 -50 -193
c0 -80 19.667 -145.167 59 -195.5s95.333 -75.5 168 -75.5c57.333 0 111.666 12.667 162.999 38v168h-185v77h287v-307c-88 -44.667 -177.333 -67 -268 -67c-108.667 0 -191.834 33 -249.501 99s-86.5 153.667 -86.5 263z" />
    <glyph glyph-name="gdotaccent" unicode="&#x121;" horiz-adv-x="601" 
d="M243 605v119h113v-119h-113zM38 273c0 79.333 20.835 143 62.502 191s95.167 72 160.5 72c38.667 0 73.167 -9.33301 103.5 -28s54.166 -44.667 71.499 -78v94h99v-477c0 -89.333 -19.333 -154.833 -58 -196.5s-99.334 -62.5 -182.001 -62.5
c-68 0 -121.833 14.5 -161.5 43.5s-60.5 72.5 -62.5 130.5h99c2 -30 13.833 -53 35.5 -69s51.5 -24 89.5 -24c47.333 0 81.333 12.5 102 37.5s31 62.833 31 113.5v83c-36 -62 -91.333 -93 -166 -93c-66 0 -119.833 24 -161.5 72s-62.5 111.667 -62.5 191zM144.002 270
c0 -54 13.333 -97.333 40 -130s62 -49 106 -49c44.667 0 80.334 16.333 107.001 49s40 76 40 130c0 54.667 -13.333 98.667 -40 132s-62.334 50 -107.001 50c-44 0 -79.333 -16.667 -106 -50s-40 -77.333 -40 -132z" />
    <glyph glyph-name="Gcommaaccent" unicode="&#x122;" horiz-adv-x="694" 
d="M43 350c0 108.667 27.002 196.167 81.002 262.5s129.667 99.5 227 99.5c76.667 0 140 -19.667 190 -59s81.333 -93 94 -161l-107 -10c-9.33301 42 -30 75.667 -62 101s-70.333 38 -115 38c-64 0 -112.667 -26 -146 -78s-50 -116.333 -50 -193
c0 -80 19.667 -145.167 59 -195.5s95.333 -75.5 168 -75.5c57.333 0 111.666 12.667 162.999 38v168h-185v77h287v-307c-88 -44.667 -177.333 -67 -268 -67c-108.667 0 -191.834 33 -249.501 99s-86.5 153.667 -86.5 263zM309.002 -221v169h96v-64l-51 -105h-45z" />
    <glyph glyph-name="gcommaaccent" unicode="&#x123;" horiz-adv-x="601" 
d="M348 779v-169h-96v64l50 105h46zM38 273c0 79.333 20.835 143 62.502 191s95.167 72 160.5 72c38.667 0 73.167 -9.33301 103.5 -28s54.166 -44.667 71.499 -78v94h99v-477c0 -89.333 -19.333 -154.833 -58 -196.5s-99.334 -62.5 -182.001 -62.5
c-68 0 -121.833 14.5 -161.5 43.5s-60.5 72.5 -62.5 130.5h99c2 -30 13.833 -53 35.5 -69s51.5 -24 89.5 -24c47.333 0 81.333 12.5 102 37.5s31 62.833 31 113.5v83c-36 -62 -91.333 -93 -166 -93c-66 0 -119.833 24 -161.5 72s-62.5 111.667 -62.5 191zM144.002 270
c0 -54 13.333 -97.333 40 -130s62 -49 106 -49c44.667 0 80.334 16.333 107.001 49s40 76 40 130c0 54.667 -13.333 98.667 -40 132s-62.334 50 -107.001 50c-44 0 -79.333 -16.667 -106 -50s-40 -77.333 -40 -132z" />
    <glyph glyph-name="Hbar" unicode="&#x126;" horiz-adv-x="726" 
d="M711 589v-66h-67v-523h-112v310h-338v-310h-112v523h-67v66h67v111h112v-111h338v111h112v-111h67zM532 402v121h-338v-121h338z" />
    <glyph glyph-name="hbar" unicode="&#x127;" horiz-adv-x="592" 
d="M351 536c58.667 0 103.333 -16.5 134 -49.5s46 -81.5 46 -145.5v-341h-107v307c0 94 -37.333 141 -112 141c-44 0 -78 -14.5 -102 -43.5s-36 -68.833 -36 -119.5v-285h-107v598h-61v52h61v86h107v-86h183v-52h-183v-157c34 63.333 93 95 177 95z" />
    <glyph glyph-name="Imacron" unicode="&#x12a;" horiz-adv-x="276" 
d="M-20 768v75h316v-75h-316zM82 0v700h112v-700h-112z" />
    <glyph glyph-name="imacron" unicode="&#x12b;" horiz-adv-x="239" 
d="M-9 620v73h257v-73h-257zM66 0v524h107v-524h-107z" />
    <glyph glyph-name="Iogonek" unicode="&#x12e;" horiz-adv-x="276" 
d="M174 -104l42.998 -11c-6 -26.667 -18.167 -47.5 -36.5 -62.5s-41.166 -22.5 -68.499 -22.5c-26 0 -47.167 7 -63.5 21s-24.5 33.667 -24.5 59c0 48 36 88 108 120h-50v700h112v-700c-66.667 -40 -100 -78.667 -100 -116c0 -24.667 11 -37 33 -37
c24.667 0 40.334 16.333 47.001 49z" />
    <glyph glyph-name="iogonek" unicode="&#x12f;" horiz-adv-x="240" 
d="M176 724v-119h-113v119h113zM153 -104l42.998 -11c-6 -26.667 -18.167 -47.5 -36.5 -62.5s-41.166 -22.5 -68.499 -22.5c-26 0 -47.167 7 -63.5 21s-24.5 33.667 -24.5 59c0 48 36 88 108 120h-45v524h107v-524c-66.667 -40 -100 -78.667 -100 -116
c0 -24.667 11 -37 33 -37c24.667 0 40.334 16.333 47.001 49z" />
    <glyph glyph-name="Idotaccent" unicode="&#x130;" horiz-adv-x="276" 
d="M78 762v104h120v-104h-120zM82 0v700h112v-700h-112z" />
    <glyph glyph-name="dotlessi" unicode="&#x131;" horiz-adv-x="245" 
d="M69 0v524h107v-524h-107z" />
    <glyph glyph-name="Kcommaaccent" unicode="&#x136;" horiz-adv-x="680" 
d="M375 361l285 -361h-133l-238 310h-95v-310h-112v700h112v-303h94l221 303h130zM289 -221v169h96v-64l-50 -105h-46z" />
    <glyph glyph-name="kcommaaccent" unicode="&#x137;" horiz-adv-x="559" 
d="M313 274l236 -274h-133l-181 223h-62v-223h-107v736h107v-429h64l171 217h127zM233 -221v169h96v-64l-51 -105h-45z" />
    <glyph glyph-name="Lacute" unicode="&#x139;" horiz-adv-x="562" 
d="M93 762l87 118h110l-113 -118h-84zM82 0v700h112v-608h336v-92h-448z" />
    <glyph glyph-name="lacute" unicode="&#x13a;" horiz-adv-x="239" 
d="M71 798l88 118h110l-113 -118h-85zM66 736h107v-736h-107v736z" />
    <glyph glyph-name="Lcommaaccent" unicode="&#x13b;" horiz-adv-x="562" 
d="M82 0v700h112v-608h336v-92h-448zM234 -221v169h96v-64l-51 -105h-45z" />
    <glyph glyph-name="lcommaaccent" unicode="&#x13c;" horiz-adv-x="239" 
d="M66 736h107v-736h-107v736zM71 -221v169h96v-64l-50 -105h-46z" />
    <glyph glyph-name="Lcaron" unicode="&#x13d;" horiz-adv-x="562" 
d="M82 0v700h112v-608h336v-92h-448zM284 539v161h78v-59l-39 -102h-39z" />
    <glyph glyph-name="lcaron" unicode="&#x13e;" horiz-adv-x="261" 
d="M66 736h107v-736h-107v736zM233 575v161h79v-59l-39 -102h-40z" />
    <glyph glyph-name="Ldot" unicode="&#x13f;" horiz-adv-x="562" 
d="M82 0v700h112v-608h336v-92h-448zM301 301v130h121v-130h-121z" />
    <glyph glyph-name="ldot" unicode="&#x140;" horiz-adv-x="365" 
d="M66 736h107v-736h-107v736zM234 245v130h121v-130h-121z" />
    <glyph glyph-name="Lslash" unicode="&#x141;" horiz-adv-x="593" 
d="M225 92h336v-92h-448v274l-84 -34v73l84 34v353h112v-306l197 81v-73l-197 -81v-229z" />
    <glyph glyph-name="lslash" unicode="&#x142;" horiz-adv-x="273" 
d="M243 504v-76l-53 -49v-379h-107v281l-53 -49v76l53 49v379h107v-281z" />
    <glyph glyph-name="Nacute" unicode="&#x143;" horiz-adv-x="738" 
d="M519 880l-113 -118h-85l88 118h110zM549 700h107v-700h-188l-279 632v-632h-107v700h188l279 -632v632z" />
    <glyph glyph-name="nacute" unicode="&#x144;" horiz-adv-x="591" 
d="M235 590l78 145h111l-105 -145h-84zM66 0l-0.000976562 524h99v-97c33.333 72.667 95 109 185 109c58.667 0 103.334 -16.5 134.001 -49.5s46 -81.5 46 -145.5v-341h-107v307c0 94 -37.333 141 -112 141c-44 0 -78 -14.5 -102 -43.5s-36 -68.833 -36 -119.5v-285h-107z
" />
    <glyph glyph-name="Ncommaaccent" unicode="&#x145;" horiz-adv-x="738" 
d="M549 700h107v-700h-188l-279 632v-632h-107v700h188l279 -632v632zM321 -221v169h96v-64l-50 -105h-46z" />
    <glyph glyph-name="ncommaaccent" unicode="&#x146;" horiz-adv-x="591" 
d="M66 0l-0.000976562 524h99v-97c33.333 72.667 95 109 185 109c58.667 0 103.334 -16.5 134.001 -49.5s46 -81.5 46 -145.5v-341h-107v307c0 94 -37.333 141 -112 141c-44 0 -78 -14.5 -102 -43.5s-36 -68.833 -36 -119.5v-285h-107zM246.999 -221v169h96v-64l-51 -105
h-45z" />
    <glyph glyph-name="Ncaron" unicode="&#x147;" horiz-adv-x="738" 
d="M431 761h-123l-100 119h78l83 -86l83 86h79zM549 700h107v-700h-188l-279 632v-632h-107v700h188l279 -632v632z" />
    <glyph glyph-name="ncaron" unicode="&#x148;" horiz-adv-x="591" 
d="M370 732h77l-95 -145h-115l-94 145h76l76 -106zM66 0l-0.000976562 524h99v-97c33.333 72.667 95 109 185 109c58.667 0 103.334 -16.5 134.001 -49.5s46 -81.5 46 -145.5v-341h-107v307c0 94 -37.333 141 -112 141c-44 0 -78 -14.5 -102 -43.5s-36 -68.833 -36 -119.5
v-285h-107z" />
    <glyph glyph-name="Eng" unicode="&#x14a;" horiz-adv-x="738" 
d="M549 700h107v-735c0 -120 -64.667 -180 -194 -180c-22.667 0 -48 1.66699 -76 5v88c15.333 -2.66699 33.333 -4 54 -4c72.667 0 109 34 109 102v24h-81l-279 632v-632h-107v700h188l279 -632v632z" />
    <glyph glyph-name="eng" unicode="&#x14b;" horiz-adv-x="591" 
d="M66 0l-0.000976562 524h99v-97c33.333 72.667 95 109 185 109c58.667 0 103.334 -16.5 134.001 -49.5s46 -81.5 46 -145.5v-415c0 -50 -10 -85.5 -30 -106.5s-54.333 -31.5 -103 -31.5c-16.667 0 -41.667 1.33301 -75 4v86c10.667 -1.33301 24 -2 40 -2
c23.333 0 39.333 5.16699 48 15.5s13 30.833 13 61.5v354c0 94 -37.333 141 -112 141c-44 0 -78 -14.5 -102 -43.5s-36 -68.833 -36 -119.5v-285h-107z" />
    <glyph glyph-name="Omacron" unicode="&#x14c;" horiz-adv-x="728" 
d="M206 768v75h316v-75h-316zM43 350c0 109.333 27.833 197 83.5 263s134.834 99 237.501 99s181.834 -33 237.501 -99s83.5 -153.667 83.5 -263s-27.833 -197 -83.5 -263s-134.834 -99 -237.501 -99s-181.834 33 -237.501 99s-83.5 153.667 -83.5 263zM155 350
c0 -80 18.333 -145.167 55 -195.5s88 -75.5 154 -75.5s117.333 25.167 154 75.5s55 115.5 55 195.5s-18.333 145.167 -55 195.5s-88 75.5 -154 75.5s-117.333 -25.167 -154 -75.5s-55 -115.5 -55 -195.5z" />
    <glyph glyph-name="omacron" unicode="&#x14d;" horiz-adv-x="589" 
d="M146 620v73h297v-73h-297zM38 262c0 84.667 23.167 151.5 69.5 200.5s108.5 73.5 186.5 73.5c78.667 0 141.167 -24.5 187.5 -73.5s69.5 -115.833 69.5 -200.5s-23.167 -151.5 -69.5 -200.5s-108.833 -73.5 -187.5 -73.5c-78 0 -140.167 24.5 -186.5 73.5
s-69.5 115.833 -69.5 200.5zM144 262c0 -57.333 13.5 -103.333 40.5 -138s63.5 -52 109.5 -52s82.667 17.333 110 52s41 80.667 41 138s-13.667 103.333 -41 138s-64 52 -110 52s-82.5 -17.333 -109.5 -52s-40.5 -80.667 -40.5 -138z" />
    <glyph glyph-name="Ohungarumlaut" unicode="&#x150;" horiz-adv-x="728" 
d="M217 762l77 118h94l-87 -118h-84zM386 762l78 118h94l-87 -118h-85zM43 350c0 109.333 27.833 197 83.5 263s134.834 99 237.501 99s181.834 -33 237.501 -99s83.5 -153.667 83.5 -263s-27.833 -197 -83.5 -263s-134.834 -99 -237.501 -99s-181.834 33 -237.501 99
s-83.5 153.667 -83.5 263zM155 350c0 -80 18.333 -145.167 55 -195.5s88 -75.5 154 -75.5s117.333 25.167 154 75.5s55 115.5 55 195.5s-18.333 145.167 -55 195.5s-88 75.5 -154 75.5s-117.333 -25.167 -154 -75.5s-55 -115.5 -55 -195.5z" />
    <glyph glyph-name="ohungarumlaut" unicode="&#x151;" horiz-adv-x="589" 
d="M163 590l72 145h84l-79 -145h-77zM314 590l73 145h84l-79 -145h-78zM38 262c0 84.667 23.167 151.5 69.5 200.5s108.5 73.5 186.5 73.5c78.667 0 141.167 -24.5 187.5 -73.5s69.5 -115.833 69.5 -200.5s-23.167 -151.5 -69.5 -200.5s-108.833 -73.5 -187.5 -73.5
c-78 0 -140.167 24.5 -186.5 73.5s-69.5 115.833 -69.5 200.5zM144 262c0 -57.333 13.5 -103.333 40.5 -138s63.5 -52 109.5 -52s82.667 17.333 110 52s41 80.667 41 138s-13.667 103.333 -41 138s-64 52 -110 52s-82.5 -17.333 -109.5 -52s-40.5 -80.667 -40.5 -138z" />
    <glyph glyph-name="OE" unicode="&#x152;" horiz-adv-x="1033" 
d="M43 350c0 110 27.167 195.833 81.5 257.5s131.166 92.5 230.499 92.5h622v-88h-374v-214h295v-84h-295v-226h388v-88h-636c-99.333 -0 -176.166 30.833 -230.499 92.5s-81.5 147.5 -81.5 257.5zM155 350c0 -80 18.167 -143 54.5 -189s88.5 -69 156.5 -69h125v516h-125
c-68 0 -120.167 -23 -156.5 -69s-54.5 -109 -54.5 -189z" />
    <glyph glyph-name="oe" unicode="&#x153;" horiz-adv-x="982" 
d="M946 244l-0.000976562 -13h-394c4 -54 19.833 -95.167 47.5 -123.5s63.834 -42.5 108.501 -42.5c63.333 0 106.333 27 129 81l102 -7c-14 -47.333 -40.5 -84.333 -79.5 -111s-88.167 -40 -147.5 -40c-105.333 0 -177 40.333 -215 121c-40 -80.667 -109 -121 -207 -121
c-76 0 -137 24.667 -183 74s-69 116 -69 200s23 150.667 69 200s107 74 183 74c98 0 166.667 -40.333 206 -121c39.333 80.667 109 121 209 121c160.667 0 241 -97.333 241 -292zM552.999 301h286.999c-2 49.333 -15.333 88 -40 116s-57.667 42 -99 42
s-75.166 -13.333 -101.499 -40s-41.833 -66 -46.5 -118zM293.998 72c46 0 82.667 17.333 110 52s41 80.667 41 138s-13.667 103.333 -41 138s-64 52 -110 52s-82.5 -17.333 -109.5 -52s-40.5 -80.667 -40.5 -138s13.5 -103.333 40.5 -138s63.5 -52 109.5 -52z" />
    <glyph glyph-name="Racute" unicode="&#x154;" horiz-adv-x="675" 
d="M488 880l-113 -118h-84l87 118h110zM650 0l-135 0.000976562l-197 281h-124v-281h-112v700h296c70 0 128.167 -17.5 174.5 -52.5s69.5 -88.167 69.5 -159.5c0 -61.333 -17 -108.833 -51 -142.5s-79 -53.834 -135 -60.501zM194 365.001l172 -0.000976562
c44.667 0 79.834 10.333 105.501 31s38.5 51.334 38.5 92.001c0 40 -12.833 70.333 -38.5 91s-60.834 31 -105.501 31h-172v-245z" />
    <glyph glyph-name="racute" unicode="&#x155;" horiz-adv-x="412" 
d="M150 590l78 145h111l-105 -145h-84zM321 534c21.333 0 40.999 -2.33301 58.999 -7v-95c-25.333 4.66699 -49.666 7 -72.999 7c-45.333 0 -79 -14.5 -101 -43.5s-33 -74.167 -33 -135.5v-260h-107v524h99v-105c28.667 76.667 80.667 115 156 115z" />
    <glyph glyph-name="Rcommaaccent" unicode="&#x156;" horiz-adv-x="675" 
d="M436 285l214 -284.999h-135l-197 281h-124v-281h-112v700h296c70 0 128.167 -17.5 174.5 -52.5s69.5 -88.167 69.5 -159.5c0 -61.333 -17 -108.833 -51 -142.5s-79 -53.834 -135 -60.501zM194 365.001l172 -0.000976562c44.667 0 79.834 10.333 105.501 31
s38.5 51.334 38.5 92.001c0 40 -12.833 70.333 -38.5 91s-60.834 31 -105.501 31h-172v-245zM290 -221v169h96v-64l-50 -105h-46z" />
    <glyph glyph-name="rcommaaccent" unicode="&#x157;" horiz-adv-x="412" 
d="M321 534c21.333 0 40.999 -2.33301 58.999 -7v-95c-25.333 4.66699 -49.666 7 -72.999 7c-45.333 0 -79 -14.5 -101 -43.5s-33 -74.167 -33 -135.5v-260h-107v524h99v-105c28.667 76.667 80.667 115 156 115zM71.999 -221v169h96v-64l-51 -105h-45z" />
    <glyph glyph-name="Rcaron" unicode="&#x158;" horiz-adv-x="675" 
d="M400 761h-123l-100 119h78l83 -86l83 86h79zM650 0l-135 0.000976562l-197 281h-124v-281h-112v700h296c70 0 128.167 -17.5 174.5 -52.5s69.5 -88.167 69.5 -159.5c0 -61.333 -17 -108.833 -51 -142.5s-79 -53.834 -135 -60.501zM194 365.001l172 -0.000976562
c44.667 0 79.834 10.333 105.501 31s38.5 51.334 38.5 92.001c0 40 -12.833 70.333 -38.5 91s-60.834 31 -105.501 31h-172v-245z" />
    <glyph glyph-name="rcaron" unicode="&#x159;" horiz-adv-x="412" 
d="M285 732h77l-95 -145h-115l-94 145h76l76 -106zM321 534c21.333 0 40.999 -2.33301 58.999 -7v-95c-25.333 4.66699 -49.666 7 -72.999 7c-45.333 0 -79 -14.5 -101 -43.5s-33 -74.167 -33 -135.5v-260h-107v524h99v-105c28.667 76.667 80.667 115 156 115z" />
    <glyph glyph-name="Sacute" unicode="&#x15a;" horiz-adv-x="619" 
d="M261 762l87 118h111l-114 -118h-84zM31 220l104.999 4.00195c4.66699 -98.667 64 -148 178 -148c44.667 0 81.667 8.33301 111 25s44 43 44 79c0 25.333 -9 46.166 -27 62.499s-48.333 31.5 -91 45.5l-145 47c-100 32 -150 93.333 -150 184
c0 64 22.833 112.167 68.5 144.5s103.167 48.5 172.5 48.5c74.667 0 135.834 -18.5 183.501 -55.5s73.834 -88.5 78.501 -154.5l-104 -7c-2.66699 39.333 -17.5 70.666 -44.5 93.999s-65.167 35 -114.5 35c-40.667 0 -72.167 -8.5 -94.5 -25.5s-33.5 -40.833 -33.5 -71.5
c0 -47.333 34.333 -82 103 -104l145 -46c55.333 -17.333 96.666 -41 123.999 -71s41 -69.333 41 -118c0 -66.667 -24 -116.667 -72 -150s-113.333 -50 -196 -50c-88.667 0 -157 19.833 -205 59.5s-73.667 97.167 -77 172.5z" />
    <glyph glyph-name="sacute" unicode="&#x15b;" horiz-adv-x="509" 
d="M191 590l77 145h111l-105 -145h-83zM23 153l98.001 3.99805c6.66699 -61.333 51 -92 133 -92c37.333 0 66.666 6 87.999 18s32 29.333 32 52c0 17.333 -7.16699 31.666 -21.5 42.999s-38.833 22 -73.5 32l-114 33c-84 24 -126 73 -126 147c0 50 18.5 86.833 55.5 110.5
s85.5 35.5 145.5 35.5c62.667 0 114.667 -13.167 156 -39.5s65 -66.166 71 -119.499l-98 -5c-4.66699 28.667 -18.5 50.334 -41.5 65.001s-52.167 22 -87.5 22c-30 0.666992 -53.5 -4.83301 -70.5 -16.5s-25.5 -28.167 -25.5 -49.5c0 -32.667 27 -57 81 -73l114 -32
c93.333 -25.333 140 -74.666 140 -147.999c0 -50 -20.333 -87.833 -61 -113.5s-96 -38.5 -166 -38.5c-144 0 -220.333 55 -229 165z" />
    <glyph glyph-name="Scedilla" unicode="&#x15e;" horiz-adv-x="619" 
d="M581 188c0 -66 -23.499 -115.664 -70.499 -148.997s-111.5 -50.333 -193.5 -51l-29 -50c17.333 8 34.333 12 51 12c22 0 41.667 -6.5 59 -19.5s26 -32.833 26 -59.5c0 -28 -10 -48.667 -30 -62s-44.333 -20 -73 -20c-28 0 -51 6.16699 -69 18.5s-29.333 29.833 -34 52.5
l48 3c5.33301 -21.333 20.666 -32 45.999 -32c13.333 0 24.166 3.5 32.499 10.5s12.5 16.833 12.5 29.5c0 13.333 -4 23.5 -12 30.5s-18 10.5 -30 10.5c-10.667 0 -24 -3.66699 -40 -11l-40 18l38 70c-76 6 -134.5 28.667 -175.5 68s-63.167 93.666 -66.5 162.999l105 4
c4.66699 -98.667 64 -148 178 -148c44.667 0 81.667 8.33301 111 25s44 43 44 79c0 25.333 -9 46.166 -27 62.499s-48.333 31.5 -91 45.5l-145 47c-100 32 -150 93.333 -150 184c0 64 22.833 112.167 68.5 144.5s103.167 48.5 172.5 48.5
c74.667 0 135.834 -18.5 183.501 -55.5s73.834 -88.5 78.501 -154.5l-104 -7c-2.66699 39.333 -17.5 70.666 -44.5 93.999s-65.167 35 -114.5 35c-40.667 0 -72.167 -8.5 -94.5 -25.5s-33.5 -40.833 -33.5 -71.5c0 -47.333 34.333 -82 103 -104l145 -46
c55.333 -17.333 96.666 -41 123.999 -71s41 -69.333 41 -118z" />
    <glyph glyph-name="scedilla" unicode="&#x15f;" horiz-adv-x="509" 
d="M479 140c0 -48.667 -19.665 -85.835 -58.998 -111.502s-93 -39.167 -161 -40.5l-29 -50c16 8 32.667 12 50 12c22 0 41.833 -6.5 59.5 -19.5s26.5 -32.833 26.5 -59.5c0 -28 -10.167 -48.667 -30.5 -62s-44.5 -20 -72.5 -20s-51.167 6.16699 -69.5 18.5
s-29.833 29.833 -34.5 52.5l49 3c5.33301 -21.333 20.666 -32 45.999 -32c29.333 0 44 13.333 44 40c0 13.333 -4 23.5 -12 30.5s-18 10.5 -30 10.5c-10.667 0 -24 -3.66699 -40 -11l-40 18l39 70c-119.333 10 -183.333 64.667 -192 164l98 4
c6.66699 -61.333 51 -92 133 -92c37.333 0 66.666 6 87.999 18s32 29.333 32 52c0 17.333 -7.16699 31.666 -21.5 42.999s-38.833 22 -73.5 32l-114 33c-84 24 -126 73 -126 147c0 50 18.5 86.833 55.5 110.5s85.5 35.5 145.5 35.5c62.667 0 114.667 -13.167 156 -39.5
s65 -66.166 71 -119.499l-98 -5c-4.66699 28.667 -18.5 50.334 -41.5 65.001s-52.167 22 -87.5 22c-30 0.666992 -53.5 -4.83301 -70.5 -16.5s-25.5 -28.167 -25.5 -49.5c0 -32.667 27 -57 81 -73l114 -32c93.333 -25.333 140 -74.666 140 -147.999z" />
    <glyph glyph-name="Scaron" unicode="&#x160;" horiz-adv-x="619" 
d="M392 880h78l-100 -119h-123l-100 119h79l83 -86zM31 220l104.999 4.00195c4.66699 -98.667 64 -148 178 -148c44.667 0 81.667 8.33301 111 25s44 43 44 79c0 25.333 -9 46.166 -27 62.499s-48.333 31.5 -91 45.5l-145 47c-100 32 -150 93.333 -150 184
c0 64 22.833 112.167 68.5 144.5s103.167 48.5 172.5 48.5c74.667 0 135.834 -18.5 183.501 -55.5s73.834 -88.5 78.501 -154.5l-104 -7c-2.66699 39.333 -17.5 70.666 -44.5 93.999s-65.167 35 -114.5 35c-40.667 0 -72.167 -8.5 -94.5 -25.5s-33.5 -40.833 -33.5 -71.5
c0 -47.333 34.333 -82 103 -104l145 -46c55.333 -17.333 96.666 -41 123.999 -71s41 -69.333 41 -118c0 -66.667 -24 -116.667 -72 -150s-113.333 -50 -196 -50c-88.667 0 -157 19.833 -205 59.5s-73.667 97.167 -77 172.5z" />
    <glyph glyph-name="scaron" unicode="&#x161;" horiz-adv-x="509" 
d="M326 732h76l-94 -145h-115l-95 145h77l75 -106zM23 153l98.001 3.99805c6.66699 -61.333 51 -92 133 -92c37.333 0 66.666 6 87.999 18s32 29.333 32 52c0 17.333 -7.16699 31.666 -21.5 42.999s-38.833 22 -73.5 32l-114 33c-84 24 -126 73 -126 147
c0 50 18.5 86.833 55.5 110.5s85.5 35.5 145.5 35.5c62.667 0 114.667 -13.167 156 -39.5s65 -66.166 71 -119.499l-98 -5c-4.66699 28.667 -18.5 50.334 -41.5 65.001s-52.167 22 -87.5 22c-30 0.666992 -53.5 -4.83301 -70.5 -16.5s-25.5 -28.167 -25.5 -49.5
c0 -32.667 27 -57 81 -73l114 -32c93.333 -25.333 140 -74.666 140 -147.999c0 -50 -20.333 -87.833 -61 -113.5s-96 -38.5 -166 -38.5c-144 0 -220.333 55 -229 165z" />
    <glyph glyph-name="uni0162" unicode="&#x162;" horiz-adv-x="596" 
d="M354 0h-39.999l-35 -62c16 8 33 12 51 12c22 0 41.667 -6.5 59 -19.5s26 -32.833 26 -59.5c0 -28 -10.167 -48.667 -30.5 -62s-44.5 -20 -72.5 -20s-51.167 6.16699 -69.5 18.5s-29.833 29.833 -34.5 52.5l49 3c5.33301 -21.333 20.666 -32 45.999 -32
c29.333 0 44 13.333 44 40c0 13.333 -4 23.5 -12 30.5s-18 10.5 -30 10.5c-10.667 0 -24 -3.66699 -40 -11l-40 18l45 81h-28v608h-218v92h548v-92h-218v-608z" />
    <glyph glyph-name="uni0163" unicode="&#x163;" horiz-adv-x="395" 
d="M288 -50c22 0 41.6699 -6.5 59.0029 -19.5s26 -32.833 26 -59.5c0 -28 -10 -48.667 -30 -62s-44 -20 -72 -20s-51.167 6.16699 -69.5 18.5s-29.833 29.833 -34.5 52.5l49 3c5.33301 -21.333 20.333 -32 45 -32c13.333 0 24.166 3.5 32.499 10.5s12.5 16.833 12.5 29.5
c0 13.333 -4 23.5 -12 30.5s-18 10.5 -30 10.5c-10.667 0 -24 -3.66699 -40 -11l-40 18l42 77c-34.667 6.66699 -59.834 21.667 -75.501 45s-23.5 57.666 -23.5 102.999v299h-109v79h82c12 0 20.5 2.5 25.5 7.5s7.5 13.167 7.5 24.5v87h101v-117h127v-81h-127v-282
c0 -31.333 4.5 -52.666 13.5 -63.999s26.5 -17 52.5 -17c17.333 0 37.666 1.66699 60.999 5v-86c-30 -4.66699 -57 -7 -81 -7h-11l-31 -54c16 8 32.667 12 50 12z" />
    <glyph glyph-name="Tcaron" unicode="&#x164;" horiz-adv-x="596" 
d="M381 880h78l-100 -119h-123l-100 119h79l83 -86zM24 608v92h548v-92h-218v-608h-112v608h-218z" />
    <glyph glyph-name="tcaron" unicode="&#x165;" horiz-adv-x="394" 
d="M291 575v161h79v-59l-39 -102h-40zM361 443l-126.998 -0.000976562v-282c0 -31.333 4.5 -52.666 13.5 -63.999s26.5 -17 52.5 -17c17.333 0 37.666 1.66699 60.999 5v-86c-30 -4.66699 -57 -7 -81 -7c-54.667 0 -93.834 11.5 -117.501 34.5s-35.5 62.167 -35.5 117.5v299
h-109v79h82c12 0 20.5 2.5 25.5 7.5s7.5 13.167 7.5 24.5v87h101v-117h127v-81z" />
    <glyph glyph-name="Tbar" unicode="&#x166;" horiz-adv-x="596" 
d="M572 608h-218v-175h146v-66h-146v-367h-112v367h-146v66h146v175h-218v92h548v-92z" />
    <glyph glyph-name="tbar" unicode="&#x167;" horiz-adv-x="395" 
d="M361 443l-126.998 -0.000976562v-122h117v-73h-117v-87c0 -31.333 4.5 -52.666 13.5 -63.999s26.5 -17 52.5 -17c17.333 0 37.666 1.66699 60.999 5v-86c-30 -4.66699 -57 -7 -81 -7c-54.667 0 -93.834 11.5 -117.501 34.5s-35.5 62.167 -35.5 117.5v104h-94v73h94v122
h-109v79h82c12 0 20.5 2.5 25.5 7.5s7.5 13.167 7.5 24.5v87h101v-117h127v-81z" />
    <glyph glyph-name="Umacron" unicode="&#x16a;" horiz-adv-x="730" 
d="M206 768v75h317v-75h-317zM82 267v433h112v-424c0 -66.667 14 -116 42 -148s71 -48 129 -48c114 0 171 65.333 171 196v424h112v-433c0 -186 -94.333 -279 -283 -279s-283 93 -283 279z" />
    <glyph glyph-name="umacron" unicode="&#x16b;" horiz-adv-x="591" 
d="M148 620v73h297v-73h-297zM418 524l107 0.000976562v-524h-99v104c-34 -77.333 -95.667 -116 -185 -116c-58 0 -102.5 17.167 -133.5 51.5s-46.5 84.166 -46.5 149.499v335h107v-302c0 -97.333 37.667 -146 113 -146c43.333 0 77 16 101 48s36 73.667 36 125v275z" />
    <glyph glyph-name="Uring" unicode="&#x16e;" horiz-adv-x="730" 
d="M365 941c29.333 0 54.5 -8.33301 75.5 -25s31.5 -40.667 31.5 -72s-10.5 -55.5 -31.5 -72.5s-46.167 -25.5 -75.5 -25.5s-54.5 8.5 -75.5 25.5s-31.5 41.167 -31.5 72.5s10.5 55.333 31.5 72s46.167 25 75.5 25zM365 794c15.333 0 28.166 4.5 38.499 13.5
s15.5 21.167 15.5 36.5c0 14.667 -5.16699 26.5 -15.5 35.5s-23.166 13.5 -38.499 13.5s-28.166 -4.5 -38.499 -13.5s-15.5 -20.833 -15.5 -35.5c0 -15.333 5.16699 -27.5 15.5 -36.5s23.166 -13.5 38.499 -13.5zM82 267v433h112v-424c0 -66.667 14 -116 42 -148
s71 -48 129 -48c114 0 171 65.333 171 196v424h112v-433c0 -186 -94.333 -279 -283 -279s-283 93 -283 279z" />
    <glyph glyph-name="uring" unicode="&#x16f;" horiz-adv-x="591" 
d="M297 786c29.333 0 54.5 -8.5 75.5 -25.5s31.5 -41.833 31.5 -74.5s-10.5 -57.5 -31.5 -74.5s-46.167 -25.5 -75.5 -25.5s-54.5 8.5 -75.5 25.5s-31.5 41.833 -31.5 74.5s10.5 57.5 31.5 74.5s46.167 25.5 75.5 25.5zM297 635c15.333 0 28.166 4.5 38.499 13.5
s15.5 21.5 15.5 37.5s-5.16699 28.5 -15.5 37.5s-23.166 13.5 -38.499 13.5s-28.166 -4.5 -38.499 -13.5s-15.5 -21.5 -15.5 -37.5s5.16699 -28.5 15.5 -37.5s23.166 -13.5 38.499 -13.5zM418 524l107 0.000976562v-524h-99v104c-34 -77.333 -95.667 -116 -185 -116
c-58 0 -102.5 17.167 -133.5 51.5s-46.5 84.166 -46.5 149.499v335h107v-302c0 -97.333 37.667 -146 113 -146c43.333 0 77 16 101 48s36 73.667 36 125v275z" />
    <glyph glyph-name="Uhungarumlaut" unicode="&#x170;" horiz-adv-x="730" 
d="M218 762l77 118h94l-87 -118h-84zM387 762l78 118h94l-87 -118h-85zM82 267v433h112v-424c0 -66.667 14 -116 42 -148s71 -48 129 -48c114 0 171 65.333 171 196v424h112v-433c0 -186 -94.333 -279 -283 -279s-283 93 -283 279z" />
    <glyph glyph-name="uhungarumlaut" unicode="&#x171;" horiz-adv-x="591" 
d="M165 590l73 145h84l-79 -145h-78zM317 590l72 145h84l-79 -145h-77zM418 524l107 0.000976562v-524h-99v104c-34 -77.333 -95.667 -116 -185 -116c-58 0 -102.5 17.167 -133.5 51.5s-46.5 84.166 -46.5 149.499v335h107v-302c0 -97.333 37.667 -146 113 -146
c43.333 0 77 16 101 48s36 73.667 36 125v275z" />
    <glyph glyph-name="Uogonek" unicode="&#x172;" horiz-adv-x="730" 
d="M536 700l111.997 -0.000976562v-433c0 -148.667 -60 -238 -180 -268c-34 -20.667 -60.333 -39.834 -79 -57.501s-28 -37.167 -28 -58.5c0 -24 11.333 -36 34 -36c24.667 0 40.334 16.333 47.001 49l42 -11c-5.33301 -26 -17.166 -46.667 -35.499 -62
s-41.166 -23 -68.499 -23c-26 0 -47.167 6.83301 -63.5 20.5s-24.5 32.834 -24.5 57.501c0 42.667 30.333 79.334 91 110.001h-18c-188.667 0 -283 93 -283 279v433h112v-424c0 -66.667 14 -116 42 -148s71 -48 129 -48c114 0 171 65.333 171 196v424z" />
    <glyph glyph-name="uogonek" unicode="&#x173;" horiz-adv-x="591" 
d="M498 -104l42.998 -11c-6 -26.667 -18.167 -47.5 -36.5 -62.5s-41.166 -22.5 -68.499 -22.5c-26 0 -47.167 6.83301 -63.5 20.5s-24.5 32.834 -24.5 57.501c0 28.667 10.5 52.167 31.5 70.5s49.167 35.5 84.5 51.5h-38v104c-34 -77.333 -95.667 -116 -185 -116
c-58 0 -102.5 17.167 -133.5 51.5s-46.5 84.166 -46.5 149.499v335h107v-302c0 -97.333 37.667 -146 113 -146c43.333 0 77 16 101 48s36 73.667 36 125v275h107v-524c-33.333 -20.667 -59.5 -40 -78.5 -58s-28.5 -37.667 -28.5 -59c0 -24 11 -36 33 -36
c24.667 0 40.334 16.333 47.001 49z" />
    <glyph glyph-name="Wcircumflex" unicode="&#x174;" horiz-adv-x="975" 
d="M488 849l-83 -85h-79l100 119h123l100 -119h-78zM834 700h117l-168 -700h-167l-129 620l-131 -620h-168l-164 700h120l133 -616l132 616h159l130 -616z" />
    <glyph glyph-name="wcircumflex" unicode="&#x175;" horiz-adv-x="861" 
d="M430 696l-75 -106h-77l95 145h115l94 -145h-76zM724 524h115l-153 -524h-151l-103 470l-106 -470h-153l-151 524h118l115 -447l104 447h149l100 -438z" />
    <glyph glyph-name="Ycircumflex" unicode="&#x176;" horiz-adv-x="668" 
d="M334 849l-83 -85h-78l100 119h123l100 -119h-79zM531 700h122l-263 -416v-284h-112v283l-263 417h128l191 -326z" />
    <glyph glyph-name="ycircumflex" unicode="&#x177;" horiz-adv-x="560" 
d="M280 696l-76 -106h-76l94 145h115l95 -145h-77zM428 524l113.998 0.000976562l-186 -577c-17.333 -60.667 -39.666 -102.334 -66.999 -125.001s-68.666 -34 -123.999 -34c-20.667 0 -42 1.33301 -64 4v82c26.667 -1.33301 45.667 -2 57 -2c28 0 49.333 6.16699 64 18.5
s27 35.833 37 70.5l12 39h-62l-191 524h115l162 -481z" />
    <glyph glyph-name="Ydieresis" unicode="&#x178;" horiz-adv-x="668" 
d="M289 864v-101h-107v101h107zM487 864v-101h-107v101h107zM531 700h122l-263 -416v-284h-112v283l-263 417h128l191 -326z" />
    <glyph glyph-name="Zacute" unicode="&#x179;" horiz-adv-x="590" 
d="M446 880l-114 -118h-84l87 118h111zM158 92h407v-92h-545v78l397 530h-374v92h512v-78z" />
    <glyph glyph-name="zacute" unicode="&#x17a;" horiz-adv-x="494" 
d="M188 590l77 145h111l-105 -145h-83zM156 84h314v-84h-450v74l307 366h-287v84h422v-74z" />
    <glyph glyph-name="Zdotaccent" unicode="&#x17b;" horiz-adv-x="590" 
d="M356 866v-104h-120v104h120zM158 92h407v-92h-545v78l397 530h-374v92h512v-78z" />
    <glyph glyph-name="zdotaccent" unicode="&#x17c;" horiz-adv-x="494" 
d="M191 605v119h113v-119h-113zM156 84h314v-84h-450v74l307 366h-287v84h422v-74z" />
    <glyph glyph-name="Zcaron" unicode="&#x17d;" horiz-adv-x="590" 
d="M357 761h-123l-100 119h79l83 -86l83 86h78zM158 92h407v-92h-545v78l397 530h-374v92h512v-78z" />
    <glyph glyph-name="zcaron" unicode="&#x17e;" horiz-adv-x="494" 
d="M323 732h76l-94 -145h-115l-95 145h77l75 -106zM156 84h314v-84h-450v74l307 366h-287v84h422v-74z" />
    <glyph glyph-name="Scommaaccent" unicode="&#x218;" horiz-adv-x="619" 
d="M31 220l104.999 4.00195c4.66699 -98.667 64 -148 178 -148c44.667 0 81.667 8.33301 111 25s44 43 44 79c0 25.333 -9 46.166 -27 62.499s-48.333 31.5 -91 45.5l-145 47c-100 32 -150 93.333 -150 184c0 64 22.833 112.167 68.5 144.5s103.167 48.5 172.5 48.5
c74.667 0 135.834 -18.5 183.501 -55.5s73.834 -88.5 78.501 -154.5l-104 -7c-2.66699 39.333 -17.5 70.666 -44.5 93.999s-65.167 35 -114.5 35c-40.667 0 -72.167 -8.5 -94.5 -25.5s-33.5 -40.833 -33.5 -71.5c0 -47.333 34.333 -82 103 -104l145 -46
c55.333 -17.333 96.666 -41 123.999 -71s41 -69.333 41 -118c0 -66.667 -24 -116.667 -72 -150s-113.333 -50 -196 -50c-88.667 0 -157 19.833 -205 59.5s-73.667 97.167 -77 172.5zM260.999 -220.998v169h96v-64l-51 -105h-45z" />
    <glyph glyph-name="scommaaccent" unicode="&#x219;" horiz-adv-x="509" 
d="M23 153l98.001 3.99805c6.66699 -61.333 51 -92 133 -92c37.333 0 66.666 6 87.999 18s32 29.333 32 52c0 17.333 -7.16699 31.666 -21.5 42.999s-38.833 22 -73.5 32l-114 33c-84 24 -126 73 -126 147c0 50 18.5 86.833 55.5 110.5s85.5 35.5 145.5 35.5
c62.667 0 114.667 -13.167 156 -39.5s65 -66.166 71 -119.499l-98 -5c-4.66699 28.667 -18.5 50.334 -41.5 65.001s-52.167 22 -87.5 22c-30 0.666992 -53.5 -4.83301 -70.5 -16.5s-25.5 -28.167 -25.5 -49.5c0 -32.667 27 -57 81 -73l114 -32
c93.333 -25.333 140 -74.666 140 -147.999c0 -50 -20.333 -87.833 -61 -113.5s-96 -38.5 -166 -38.5c-144 0 -220.333 55 -229 165zM202.001 -221.002v169h96v-64l-50 -105h-46z" />
    <glyph glyph-name="uni021A" unicode="&#x21a;" horiz-adv-x="596" 
d="M24 608v92h548v-92h-218v-608h-112v608h-218zM250 -221v169h96v-64l-51 -105h-45z" />
    <glyph glyph-name="uni021B" unicode="&#x21b;" horiz-adv-x="395" 
d="M361 443l-126.998 -0.000976562v-282c0 -31.333 4.5 -52.666 13.5 -63.999s26.5 -17 52.5 -17c17.333 0 37.666 1.66699 60.999 5v-86c-30 -4.66699 -57 -7 -81 -7c-54.667 0 -93.834 11.5 -117.501 34.5s-35.5 62.167 -35.5 117.5v299h-109v79h82
c12 0 20.5 2.5 25.5 7.5s7.5 13.167 7.5 24.5v87h101v-117h127v-81zM210.002 -221.001v169h96v-64l-50 -105h-46z" />
    <glyph glyph-name="circumflex" unicode="&#x2c6;" horiz-adv-x="384" 
d="M40 590l95 145h114l95 -145h-77l-75 106l-75 -106h-77z" />
    <glyph glyph-name="caron" unicode="&#x2c7;" horiz-adv-x="384" 
d="M40 732h77l75 -106l75 106h77l-95 -145h-114z" />
    <glyph glyph-name="breve" unicode="&#x2d8;" horiz-adv-x="377" 
d="M40 734h62c4 -52.667 32.667 -79 86 -79s82 26.333 86 79h63c-1.33301 -44 -14.5 -79 -39.5 -105s-61.5 -39 -109.5 -39c-47.333 0 -83.5 13 -108.5 39s-38.167 61 -39.5 105z" />
    <glyph glyph-name="dotaccent" unicode="&#x2d9;" horiz-adv-x="193" 
d="M40 605v119h113v-119h-113z" />
    <glyph glyph-name="ring" unicode="&#x2da;" horiz-adv-x="294" 
d="M40 686c0 32.667 10.5 57.5 31.5 74.5s46.167 25.5 75.5 25.5s54.5 -8.5 75.5 -25.5s31.5 -41.833 31.5 -74.5s-10.5 -57.5 -31.5 -74.5s-46.167 -25.5 -75.5 -25.5s-54.5 8.5 -75.5 25.5s-31.5 41.833 -31.5 74.5zM93 686c0 -16 5.16699 -28.5 15.5 -37.5
s23.166 -13.5 38.499 -13.5s28.166 4.5 38.499 13.5s15.5 21.5 15.5 37.5s-5.16699 28.5 -15.5 37.5s-23.166 13.5 -38.499 13.5s-28.166 -4.5 -38.499 -13.5s-15.5 -21.5 -15.5 -37.5z" />
    <glyph glyph-name="ogonek" unicode="&#x2db;" horiz-adv-x="273" 
d="M40 -122c0 28.667 10.498 52.166 31.498 70.499s49.167 35.5 84.5 51.5h61c-33.333 -20.667 -59.5 -40 -78.5 -58s-28.5 -37.667 -28.5 -59c0 -24 11 -36 33 -36c24.667 0 40.334 16.333 47.001 49l43 -11c-6 -26.667 -18.167 -47.5 -36.5 -62.5
s-41.166 -22.5 -68.499 -22.5c-26 0 -47.167 6.83301 -63.5 20.5s-24.5 32.834 -24.5 57.501z" />
    <glyph glyph-name="tilde" unicode="&#x2dc;" horiz-adv-x="396" 
d="M40 601c0 72 29.002 108 87.002 108c25.333 0 51.666 -9.16699 78.999 -27.5s46.333 -27.5 57 -27.5c22.667 0 34 15.667 34 47h59c0 -72.667 -28.667 -109 -86 -109c-25.333 0 -51.833 9.16699 -79.5 27.5s-46.834 27.5 -57.501 27.5c-22.667 0 -34 -15.333 -34 -46h-59
z" />
    <glyph glyph-name="hungarumlaut" unicode="&#x2dd;" horiz-adv-x="388" 
d="M40 590l72 145h85l-79 -145h-78zM191 590l73 145h84l-79 -145h-78z" />
    <glyph glyph-name="pi" unicode="&#x3c0;" horiz-adv-x="626" 
d="M587 444h-79v-300c0 -24.667 3.66699 -41.167 11 -49.5s18 -12.5 32 -12.5s25.667 0.666992 35 2v-86c-29.333 -2.66699 -50.333 -4 -63 -4c-42 0 -72 9.5 -90 28.5s-27 50.5 -27 94.5v327h-195v-444h-105v444h-79v80h560v-80z" />
    <glyph glyph-name="uni0401" unicode="&#x401;" horiz-adv-x="623" 
d="M162 763v101h107v-101h-107zM360 763v101h107v-101h-107zM82 0v700h485v-88h-373v-214h294v-84h-294v-226h387v-88h-499z" />
    <glyph glyph-name="uni0404" unicode="&#x404;" horiz-adv-x="682" 
d="M540 233l108.003 -8c-11.333 -72.667 -41.833 -130.334 -91.5 -173.001s-115.5 -64 -197.5 -64c-100 0 -177.667 33.333 -233 100s-83 154 -83 262c0 108.667 27 196.167 81 262.5s129.667 99.5 227 99.5c78 0 142.5 -20.167 193.5 -60.5s82.833 -95.166 95.5 -164.499
l-107 -9c-8.66699 42.667 -29.834 77.167 -63.501 103.5s-73.167 39.5 -118.5 39.5c-56.667 0 -101.334 -20.833 -134.001 -62.5s-52.667 -95.167 -60 -160.5h262v-84h-263c6 -70 26.667 -126.667 62 -170s82.333 -65 141 -65c49.333 0 89.666 14.333 120.999 43
s51.333 65.667 60 111z" />
    <glyph glyph-name="uni0406" unicode="&#x406;" horiz-adv-x="276" 
d="M82 0v700h112v-700h-112z" />
    <glyph glyph-name="uni0407" unicode="&#x407;" horiz-adv-x="276" 
d="M6 763v101h96v-101h-96zM174 763v101h96v-101h-96zM82 0v700h112v-700h-112z" />
    <glyph glyph-name="uni040E" unicode="&#x40e;" horiz-adv-x="657" 
d="M329 757c-49.333 0 -86.833 12 -112.5 36s-39.167 56.333 -40.5 97h71c2 -19.333 9.33301 -36 22 -50s32.667 -21 60 -21c49.333 0 77 23.667 83 71h70c-1.33301 -40.667 -14.833 -73 -40.5 -97s-63.167 -36 -112.5 -36zM518 700h123.001l-210 -524
c-26.667 -68.667 -54.834 -116.167 -84.501 -142.5s-68.167 -39.5 -115.5 -39.5c-30 0 -60.333 2 -91 6v87c26 -2.66699 48.667 -4 68 -4c24 0 44 5.66699 60 17s30.667 33 44 65l9 25h-49l-251 510h125l208 -452z" />
    <glyph glyph-name="uni0410" unicode="&#x410;" horiz-adv-x="681" 
d="M549 0l-57 175h-306l-58 -175h-111l238 700h171l238 -700h-115zM339 639l-125 -378h249z" />
    <glyph glyph-name="uni0411" unicode="&#x411;" horiz-adv-x="656" 
d="M371 415c72 0 131.333 -16.832 178 -50.499s70 -85.834 70 -156.501c0 -71.333 -23.333 -123.833 -70 -157.5s-106 -50.5 -178 -50.5h-289v700h485v-87h-373v-198h177zM361 87.001c47.333 0 83.5 10.5 108.5 31.5s37.5 50.833 37.5 89.5c0 39.333 -12.5 69.333 -37.5 90
s-61.167 31 -108.5 31h-167v-242h167z" />
    <glyph glyph-name="uni0412" unicode="&#x412;" horiz-adv-x="675" 
d="M418 359c65.333 -4 117.667 -20.5 157 -49.5s59 -70.5 59 -124.5c0 -59.333 -22.667 -105 -68 -137s-104.333 -48 -177 -48h-307v700h302c68.667 0 124.167 -14.667 166.5 -44s63.5 -73.333 63.5 -132c0 -100.667 -65.333 -155.667 -196 -165zM194.001 613
l0.000976562 -215h184c39.333 0 69.833 9.66699 91.5 29s32.5 46 32.5 80c0 33.333 -11.333 59.333 -34 78s-54.334 28 -95.001 28h-179zM379.002 87c46 0 81.333 9.83398 106 29.501s37 47.5 37 83.5c0 35.333 -11.833 63.166 -35.5 83.499s-57.5 30.5 -101.5 30.5h-191
v-227h185z" />
    <glyph glyph-name="uni0413" unicode="&#x413;" horiz-adv-x="558" 
d="M82 0v700h448v-92h-336v-608h-112z" />
    <glyph glyph-name="uni0414" unicode="&#x414;" horiz-adv-x="673" 
d="M594 92h64v-255h-105v163h-440v-163h-104v255h51c42 90 68.333 292.667 79 608h455v-608zM482 92l0.000976562 516h-242c-6.66699 -140 -17.334 -255.667 -32.001 -347c-12 -70.667 -26.667 -127 -44 -169h318z" />
    <glyph glyph-name="uni0415" unicode="&#x415;" horiz-adv-x="623" 
d="M82 0v700h485v-88h-373v-214h294v-84h-294v-226h387v-88h-499z" />
    <glyph glyph-name="uni0416" unicode="&#x416;" horiz-adv-x="1022" 
d="M1002 0h-132l-222 310h-83v-310h-109v310h-82l-222 -310h-132l266 361l-256 339h129l214 -303h83v303h109v-303h84l214 303h129l-256 -339z" />
    <glyph glyph-name="uni0417" unicode="&#x417;" horiz-adv-x="621" 
d="M356 360c68.667 -4 123.166 -20.833 163.499 -50.5s60.5 -72.5 60.5 -128.5c0 -62.667 -24.5 -110.5 -73.5 -143.5s-114.167 -49.5 -195.5 -49.5c-174 0 -268 74 -282 222l107 6c9.33301 -94 67.666 -141 174.999 -141c50 0 88.667 10.333 116 31s41 50.667 41 90
c0 78.667 -52.667 118 -158 118h-84v84h79c47.333 0 83 9.83301 107 29.5s36 47.5 36 83.5c0 36.667 -12.167 64.834 -36.5 84.501s-57.833 29.5 -100.5 29.5c-43.333 0 -79.666 -10.667 -108.999 -32s-46.333 -54.333 -51 -99l-107 9c8 70 35.333 122.333 82 157
s108.334 52 185.001 52c73.333 0 133.166 -15.333 179.499 -46s69.5 -76.334 69.5 -137.001c0 -50.667 -17.167 -90.5 -51.5 -119.5s-85.166 -45.5 -152.499 -49.5z" />
    <glyph glyph-name="uni0418" unicode="&#x418;" horiz-adv-x="742" 
d="M486 700h174v-700h-109v621l-295 -621h-174v700h109v-621z" />
    <glyph glyph-name="uni0419" unicode="&#x419;" horiz-adv-x="742" 
d="M371 757c-49.333 0 -86.833 12 -112.5 36s-39.167 56.333 -40.5 97h71c2 -19.333 9.33301 -36 22 -50s32.667 -21 60 -21c49.333 0 77 23.667 83 71h70c-1.33301 -40.667 -14.833 -73 -40.5 -97s-63.167 -36 -112.5 -36zM486 700h174v-700h-109v621l-295 -621h-174v700
h109v-621z" />
    <glyph glyph-name="uni041A" unicode="&#x41a;" horiz-adv-x="680" 
d="M660 0h-133l-238 310h-95v-310h-112v700h112v-303h94l221 303h130l-264 -339z" />
    <glyph glyph-name="uni041B" unicode="&#x41b;" horiz-adv-x="709" 
d="M154 700l473 -0.000976562v-700h-112v608h-259c-0.666992 -26.667 -2 -65 -4 -115c-2 -68 -3.66699 -117.667 -5 -149s-4.16602 -70.666 -8.49902 -117.999s-10 -81.5 -17 -102.5s-16.333 -43.5 -28 -67.5s-26.5 -40.167 -44.5 -48.5s-39.667 -12.5 -65 -12.5
c-22 0 -44 1.33301 -66 4v90c16 -2 30 -3 42 -3c10 0 19 2.83301 27 8.5s14.833 15 20.5 28s10.5 27 14.5 42s7.5 34.833 10.5 59.5s5.33301 48.334 7 71.001s3.16699 51.5 4.5 86.5s2.33301 66.833 3 95.5s1.66699 64.667 3 108s2.66602 81.666 3.99902 114.999z" />
    <glyph glyph-name="uni041C" unicode="&#x41c;" horiz-adv-x="920" 
d="M644 700h194v-700h-108l1 637l-195 -637h-152l-195 635v-635h-107v700h196l183 -636z" />
    <glyph glyph-name="uni041D" unicode="&#x41d;" horiz-adv-x="726" 
d="M532 700h112v-700h-112v310h-338v-310h-112v700h112v-298h338v298z" />
    <glyph glyph-name="uni041E" unicode="&#x41e;" horiz-adv-x="728" 
d="M43 350c0 109.333 27.833 197 83.5 263s134.834 99 237.501 99s181.834 -33 237.501 -99s83.5 -153.667 83.5 -263s-27.833 -197 -83.5 -263s-134.834 -99 -237.501 -99s-181.834 33 -237.501 99s-83.5 153.667 -83.5 263zM155 350c0 -80 18.333 -145.167 55 -195.5
s88 -75.5 154 -75.5s117.333 25.167 154 75.5s55 115.5 55 195.5s-18.333 145.167 -55 195.5s-88 75.5 -154 75.5s-117.333 -25.167 -154 -75.5s-55 -115.5 -55 -195.5z" />
    <glyph glyph-name="uni041F" unicode="&#x41f;" horiz-adv-x="722" 
d="M640 700v-700h-112v608h-334v-608h-112v700h558z" />
    <glyph glyph-name="uni0420" unicode="&#x420;" horiz-adv-x="651" 
d="M82 0l0.000976562 699.999h288c70 0 128 -17.667 174 -53s69 -89.666 69 -162.999s-22.333 -126.833 -67 -160.5s-102.334 -50.5 -173.001 -50.5h-179v-273h-112zM194.001 358.999h163c44.667 0 79.834 10.333 105.501 31s38.5 52 38.5 94
c0 41.333 -12.833 72.333 -38.5 93s-60.834 31 -105.501 31h-163v-249z" />
    <glyph glyph-name="uni0421" unicode="&#x421;" horiz-adv-x="679" 
d="M43 350c0 108.667 27 196.167 81 262.5s129.667 99.5 227 99.5c80 0 145.333 -21.167 196 -63.5s80.667 -99.5 90 -171.5l-106 -9c-6.66699 46 -26.5 83 -59.5 111s-73.167 42 -120.5 42c-64 0 -112.667 -26 -146 -78s-50 -116.333 -50 -193
c0 -78.667 18 -143.5 54 -194.5s86 -76.5 150 -76.5c50.667 0 91.667 15.5 123 46.5s50 70.167 56 117.5l107 -7c-9.33301 -76 -38.5 -136.333 -87.5 -181s-115.167 -67 -198.5 -67c-100.667 0 -178.5 32.833 -233.5 98.5s-82.5 153.5 -82.5 263.5z" />
    <glyph glyph-name="uni0422" unicode="&#x422;" horiz-adv-x="596" 
d="M24 608v92h548v-92h-218v-608h-112v608h-218z" />
    <glyph glyph-name="uni0423" unicode="&#x423;" horiz-adv-x="657" 
d="M518 700h123.001l-210 -524c-26.667 -68.667 -54.834 -116.167 -84.501 -142.5s-68.167 -39.5 -115.5 -39.5c-30 0 -60.333 2 -91 6v87c26 -2.66699 48.667 -4 68 -4c24 0 44 5.66699 60 17s30.667 33 44 65l9 25h-49l-251 510h125l208 -452z" />
    <glyph glyph-name="uni0424" unicode="&#x424;" horiz-adv-x="852" 
d="M496 651c97.333 0 174.333 -24.5 231 -73.5s85 -119.167 85 -210.5s-28.333 -161.5 -85 -210.5s-133.667 -73.5 -231 -73.5h-16v-83h-108v83h-16c-97.333 0 -174.333 24.5 -231 73.5s-85 119.167 -85 210.5s28.333 161.5 85 210.5s133.667 73.5 231 73.5h16v61h108v-61
h16zM363 170h9v394h-9c-64 0 -115.167 -17 -153.5 -51s-57.5 -82.667 -57.5 -146s19.167 -112 57.5 -146s89.5 -51 153.5 -51zM489 170c64 0 115.167 17 153.5 51s57.5 82.667 57.5 146s-19.167 112 -57.5 146s-89.5 51 -153.5 51h-9v-394h9z" />
    <glyph glyph-name="uni0425" unicode="&#x425;" horiz-adv-x="662" 
d="M24 0l242 356l-223 344h129l158 -256l159 256h124l-222 -339l245 -361h-130l-179 273l-180 -273h-123z" />
    <glyph glyph-name="uni0426" unicode="&#x426;" horiz-adv-x="718" 
d="M82 0v700h112v-608h334v608h112v-608h63v-255h-104v163h-517z" />
    <glyph glyph-name="uni0427" unicode="&#x427;" horiz-adv-x="677" 
d="M483 700l112 0.000976562v-700h-112v295c-64 -20 -128.667 -30 -194 -30c-153.333 0 -230 72 -230 216v219h112v-199c0 -52.667 12.167 -89.834 36.5 -111.501s62.5 -32.5 114.5 -32.5c56 0 109.667 10 161 30v313z" />
    <glyph glyph-name="uni0428" unicode="&#x428;" horiz-adv-x="999" 
d="M82 0v700h109v-608h254v608h109v-608h254v608h109v-700h-835z" />
    <glyph glyph-name="uni0429" unicode="&#x429;" horiz-adv-x="996" 
d="M82 0v700h109v-608h254v608h109v-608h254v608h109v-608h64v-255h-105v163h-794z" />
    <glyph glyph-name="uni042A" unicode="&#x42a;" horiz-adv-x="736" 
d="M460 425c70.667 0 128.833 -17.333 174.5 -52s68.5 -88 68.5 -160s-23 -125.5 -69 -160.5s-104 -52.5 -174 -52.5h-282v608h-157v92h269v-275h170zM446.999 92c44.667 0 79.834 10.167 105.501 30.5s38.5 50.5 38.5 90.5c0 40.667 -12.833 71.167 -38.5 91.5
s-60.834 30.5 -105.501 30.5h-157v-243h157z" />
    <glyph glyph-name="uni042B" unicode="&#x42b;" horiz-adv-x="873" 
d="M350 425c70.667 0 128.833 -17.333 174.5 -52s68.5 -88 68.5 -160s-23 -125.5 -69 -160.5s-104 -52.5 -174 -52.5h-268v700h112v-275h156zM678.999 700h112v-700h-112v700zM336.999 92c44.667 0 79.834 10.167 105.501 30.5s38.5 50.5 38.5 90.5
c0 40.667 -12.833 71.167 -38.5 91.5s-60.834 30.5 -105.501 30.5h-143v-243h143z" />
    <glyph glyph-name="uni042C" unicode="&#x42c;" horiz-adv-x="640" 
d="M364 425c70.667 0 128.833 -17.333 174.5 -52s68.5 -88 68.5 -160s-23 -125.5 -69 -160.5s-104 -52.5 -174 -52.5h-282v700h112v-275h170zM350.999 92c44.667 0 79.834 10.167 105.501 30.5s38.5 50.5 38.5 90.5c0 40.667 -12.833 71.167 -38.5 91.5
s-60.834 30.5 -105.501 30.5h-157v-243h157z" />
    <glyph glyph-name="uni042D" unicode="&#x42d;" horiz-adv-x="682" 
d="M330 712c98 0 174.003 -33.167 228.003 -99.5s81 -153.833 81 -262.5s-27.833 -196.167 -83.5 -262.5s-133.5 -99.5 -233.5 -99.5c-81.333 0 -146.833 21.333 -196.5 64s-80.167 100.334 -91.5 173.001l107 8c8.66699 -45.333 28.834 -82.333 60.501 -111
s71.834 -43 120.501 -43c59.333 0 106.666 21.833 141.999 65.5s55.666 100.167 60.999 169.5h-262v84h261c-6.66699 65.333 -26.334 118.833 -59.001 160.5s-77.667 62.5 -135 62.5c-44.667 0 -83.834 -13.167 -117.501 -39.5s-54.834 -60.833 -63.501 -103.5l-107 9
c12.667 69.333 44.5 124.166 95.5 164.499s115.167 60.5 192.5 60.5z" />
    <glyph glyph-name="uni042E" unicode="&#x42e;" horiz-adv-x="980" 
d="M625 712c102 0 179.5 -32.5 232.5 -97.5s79.5 -153.167 79.5 -264.5s-26.5 -199.5 -79.5 -264.5s-130.5 -97.5 -232.5 -97.5c-95.333 0 -169.5 28.667 -222.5 86s-82.5 136 -88.5 236h-120v-310h-112v700h112v-298h121c8 96 38.333 171.667 91 227s125.667 83 219 83z
M625 79c64.667 0 114.167 24.667 148.5 74s51.5 115 51.5 197s-17.167 147.667 -51.5 197s-83.833 74 -148.5 74s-114.167 -24.667 -148.5 -74s-51.5 -115 -51.5 -197s17.167 -147.667 51.5 -197s83.833 -74 148.5 -74z" />
    <glyph glyph-name="uni042F" unicode="&#x42f;" horiz-adv-x="675" 
d="M593 700v-700h-112v281h-143l-179 -281h-134l198 285c-54 8.66699 -97.333 29.667 -130 63s-49 80 -49 140c0 71.333 23.167 124.5 69.5 159.5s104.5 52.5 174.5 52.5h305zM481 365v245h-181c-44 0 -79 -10.333 -105 -31s-39 -51 -39 -91s13 -70.5 39 -91.5
s61 -31.5 105 -31.5h181z" />
    <glyph glyph-name="uni0430" unicode="&#x430;" horiz-adv-x="567" 
d="M40 139c0 96 70.333 150.666 211 163.999l148 14v40c0 30.667 -9.5 55.334 -28.5 74.001s-47.5 28 -85.5 28c-34 0 -62 -7.83301 -84 -23.5s-34 -38.5 -36 -68.5h-98c2 58 23 100.667 63 128s91.667 41 155 41c71.333 0 126 -17 164 -51s57 -84 57 -150v-335h-99v102
c-16.667 -36 -41.667 -64 -75 -84s-73.666 -30 -120.999 -30c-56.667 0 -99.334 14 -128.001 42s-43 64.333 -43 109zM146 143.999c0 -24 8.16699 -43.501 24.5 -58.501s40.833 -22.5 73.5 -22.5c47.333 0 85 14.833 113 44.5s42 67.834 42 114.501v28l-134 -13
c-79.333 -8 -119 -39 -119 -93z" />
    <glyph glyph-name="uni0431" unicode="&#x431;" horiz-adv-x="595" 
d="M321 507c70 0 126.834 -23.498 170.501 -70.498s65.5 -110.167 65.5 -189.5c0 -80 -23 -143.167 -69 -189.5s-108.667 -69.5 -188 -69.5c-170.667 0 -256 112 -256 336c0 113.333 16.333 200.5 49 261.5s85.667 99.833 159 116.5c11.333 2.66699 58 9.66699 140 21
c49.333 7.33301 86.666 15.666 111.999 24.999v-84c-19.333 -10.667 -52.666 -19.667 -99.999 -27c-13.333 -2 -30.333 -4.16699 -51 -6.5l-48 -5.5c-26 -3.33301 -48.333 -9.33301 -67 -18s-36.667 -22.334 -54 -41.001s-31.333 -45.5 -42 -80.5s-18 -78.167 -22 -129.5
c14 47.333 38.167 84.333 72.5 111s77.166 40 128.499 40zM300.001 72.002c46.667 0 83.499 15.667 110.499 47s40.5 74 40.5 128s-13.5 96.833 -40.5 128.5s-63.833 47.5 -110.5 47.5c-46 0 -82.5 -15.833 -109.5 -47.5s-40.5 -74.5 -40.5 -128.5s13.333 -96.667 40 -128
s63.334 -47 110.001 -47z" />
    <glyph glyph-name="uni0432" unicode="&#x432;" horiz-adv-x="556" 
d="M362 271c104.667 -10.667 157 -53.334 157 -128.001c0 -40.667 -15.5 -74.667 -46.5 -102s-81.167 -41 -150.5 -41h-256v524h243c64 0 112.167 -12.167 144.5 -36.5s48.5 -56.166 48.5 -95.499c0 -68 -46.667 -108.333 -140 -121zM173 444v-142h128
c62.667 0 94 23.667 94 71s-33 71 -99 71h-123zM312 80c66.667 0 100 25.667 100 77c0 50 -35 75 -105 75h-134v-152h139z" />
    <glyph glyph-name="uni0433" unicode="&#x433;" horiz-adv-x="456" 
d="M66 0v524h364v-88h-257v-436h-107z" />
    <glyph glyph-name="uni0434" unicode="&#x434;" horiz-adv-x="576" 
d="M494 88l63.998 0.000976562v-228h-101v140h-344v-140h-101v228h40c10.667 23.333 19.334 58.166 26.001 104.499s11.334 89.333 14.001 129s6.66699 107.167 12 202.5h390v-436zM386.998 88.001l0.000976562 347.996h-191c-0.666992 -10.667 -1.83398 -27 -3.50098 -49
l-3.5 -46.5l-3 -41c-1.33301 -18.333 -2.33301 -31.666 -3 -39.999s-1.66699 -19.666 -3 -33.999s-2.66602 -25.5 -3.99902 -33.5s-2.83301 -17.667 -4.5 -29s-3.33398 -20.666 -5.00098 -27.999l-5.5 -23.5c-2 -8.33301 -4.33301 -16.166 -7 -23.499h233z" />
    <glyph glyph-name="uni0435" unicode="&#x435;" horiz-adv-x="575" 
d="M38 262c0 90 23.333 158.167 70 204.5s108.667 69.5 186 69.5c163.333 0 245 -97.333 245 -292v-13h-394c4 -54 19.833 -95.167 47.5 -123.5s63.834 -42.5 108.501 -42.5c63.333 0 106.333 27 129 81l102 -7c-14 -47.333 -40.833 -84.333 -80.5 -111
s-89.834 -40 -150.501 -40c-80.667 0 -144.667 23 -192 69s-71 114.333 -71 205zM146 301h286.999c-2 49.333 -15.333 88 -40 116s-57.667 42 -99 42s-75.166 -13.333 -101.499 -40s-41.833 -66 -46.5 -118z" />
    <glyph glyph-name="uni0436" unicode="&#x436;" horiz-adv-x="825" 
d="M815 0h-131l-164 223h-56v-223h-103v223h-56l-164 -223h-131l216 273l-208 251h126l158 -217h59v217h103v-217h59l158 217h125l-208 -251z" />
    <glyph glyph-name="uni0437" unicode="&#x437;" horiz-adv-x="532" 
d="M333 271c108 -10.667 162 -54.6689 162 -132.002c0 -44.667 -17.667 -81 -53 -109s-94.333 -42 -177 -42c-151.333 0 -231 58.333 -239 175l103 5c5.33301 -65.333 50.666 -98 135.999 -98c82 0 123 28 123 84c0 52 -44 78 -132 78h-61v70h56
c40.667 0 70.834 6.83301 90.501 20.5s29.5 31.834 29.5 54.501c0 24 -9.5 42.833 -28.5 56.5s-44.5 20.5 -76.5 20.5c-33.333 0 -60.833 -7.66699 -82.5 -23s-34.167 -38.666 -37.5 -69.999l-103 6c4 57.333 26.167 99.833 66.5 127.5s92.5 41.5 156.5 41.5
c70.667 0 123.667 -12.5 159 -37.5s53 -58.5 53 -100.5c0 -70.667 -48.333 -113 -145 -127z" />
    <glyph glyph-name="uni0438" unicode="&#x438;" horiz-adv-x="614" 
d="M389 524h159v-524h-103v446l-220 -446h-159v524h103v-446z" />
    <glyph glyph-name="uni0439" unicode="&#x439;" horiz-adv-x="614" 
d="M307 591c-48 0 -84.499 12.667 -109.499 38s-38.167 59.666 -39.5 102.999h71c2 -21.333 9.16699 -39.833 21.5 -55.5s31.166 -23.5 56.499 -23.5c46 0 72 26.333 78 79h70c-1.33301 -43.333 -14.333 -77.666 -39 -102.999s-61 -38 -109 -38zM389.001 524h159v-524h-103
v446l-220 -446h-159v524h103v-446z" />
    <glyph glyph-name="uni043A" unicode="&#x43a;" horiz-adv-x="559" 
d="M549 0h-133l-181 223h-62v-223h-107v524h107v-217h64l171 217h127l-222 -250z" />
    <glyph glyph-name="uni043B" unicode="&#x43b;" horiz-adv-x="575" 
d="M122 524l387 0.000976562v-524h-107v436h-186c-2 -24.667 -4.33301 -59 -7 -103c-2 -37.333 -3.66699 -64.5 -5 -81.5s-3.33301 -39.333 -6 -67s-5.33398 -47.667 -8.00098 -60s-6.5 -27.666 -11.5 -45.999s-10.667 -31.333 -17 -39s-14.166 -15.834 -23.499 -24.501
s-20 -14.5 -32 -17.5s-25.667 -4.5 -41 -4.5c-18 0 -34 1.33301 -48 4v86c7.33301 -0.666992 15.666 -1 24.999 -1c28 0 47.333 35 58 105c4.66699 33.333 11.334 131.666 20.001 294.999z" />
    <glyph glyph-name="uni043C" unicode="&#x43c;" horiz-adv-x="781" 
d="M538 524h177v-524h-102v450l-157 -450h-131l-156 450v-450h-103v524h178l148 -464z" />
    <glyph glyph-name="uni043D" unicode="&#x43d;" horiz-adv-x="596" 
d="M66 0v524h107v-213h250v213h107v-524h-107v223h-250v-223h-107z" />
    <glyph glyph-name="uni043E" unicode="&#x43e;" horiz-adv-x="589" 
d="M38 262c0 84.667 23.167 151.5 69.5 200.5s108.5 73.5 186.5 73.5c78.667 0 141.167 -24.5 187.5 -73.5s69.5 -115.833 69.5 -200.5s-23.167 -151.5 -69.5 -200.5s-108.833 -73.5 -187.5 -73.5c-78 0 -140.167 24.5 -186.5 73.5s-69.5 115.833 -69.5 200.5zM144 262
c0 -57.333 13.5 -103.333 40.5 -138s63.5 -52 109.5 -52s82.667 17.333 110 52s41 80.667 41 138s-13.667 103.333 -41 138s-64 52 -110 52s-82.5 -17.333 -109.5 -52s-40.5 -80.667 -40.5 -138z" />
    <glyph glyph-name="uni043F" unicode="&#x43f;" horiz-adv-x="590" 
d="M66 0v524h458v-524h-107v436h-244v-436h-107z" />
    <glyph glyph-name="uni0440" unicode="&#x440;" horiz-adv-x="605" 
d="M66 -200v724.001h99v-105c16.667 37.333 41 66.166 73 86.499s68 30.5 108 30.5c65.333 0 118.5 -24.5 159.5 -73.5s61.5 -115.833 61.5 -200.5s-20.5 -151.5 -61.5 -200.5s-93.833 -73.5 -158.5 -73.5c-78.667 0 -136.667 35 -174 105v-293h-107zM168 262.001
c0 -57.333 13.167 -103.333 39.5 -138s61.833 -52 106.5 -52c45.333 0 81.166 17.333 107.499 52s39.5 80.667 39.5 138s-13.167 103.333 -39.5 138s-62.166 52 -107.499 52c-44.667 0 -80.167 -17.333 -106.5 -52s-39.5 -80.667 -39.5 -138z" />
    <glyph glyph-name="uni0441" unicode="&#x441;" horiz-adv-x="558" 
d="M38 262c0 87.333 22.3311 154.834 66.998 202.501s105.334 71.5 182.001 71.5c62.667 0 115.334 -16.5 158.001 -49.5s68 -79.5 76 -139.5l-103 -9c-6.66699 37.333 -21.834 65.666 -45.501 84.999s-52.167 29 -85.5 29c-43.333 0 -78 -16.667 -104 -50s-39 -80 -39 -140
s13.167 -106.667 39.5 -140s61.833 -50 106.5 -50c35.333 0 64.833 10.167 88.5 30.5s38.834 49.833 45.501 88.5l103 -8c-8 -62 -33.5 -110 -76.5 -144s-96.5 -51 -160.5 -51c-78 0 -139.5 23.667 -184.5 71s-67.5 115 -67.5 203z" />
    <glyph glyph-name="uni0442" unicode="&#x442;" horiz-adv-x="503" 
d="M22 436v88h459v-88h-176v-436h-107v436h-176z" />
    <glyph glyph-name="uni0443" unicode="&#x443;" horiz-adv-x="560" 
d="M428 524l113.998 0.000976562l-186 -577c-17.333 -60.667 -39.666 -102.334 -66.999 -125.001s-68.666 -34 -123.999 -34c-20.667 0 -42 1.33301 -64 4v82c26.667 -1.33301 45.667 -2 57 -2c28 0 49.333 6.16699 64 18.5s27 35.833 37 70.5l12 39h-62l-191 524h115
l162 -481z" />
    <glyph glyph-name="uni0444" unicode="&#x444;" horiz-adv-x="750" 
d="M434 536c87.333 0 155.166 -24.333 203.499 -73s72.5 -115.667 72.5 -201s-24.167 -152.333 -72.5 -201s-116.166 -73 -203.499 -73h-6v-188h-104v188h-7c-87.333 0 -155.333 24.333 -204 73s-73 115.667 -73 201s24.333 152.333 73 201s116.667 73 204 73h7v200h104
v-200h6zM320 72h4v380h-4c-54 0 -96.833 -16.833 -128.5 -50.5s-47.5 -80.167 -47.5 -139.5s15.833 -105.833 47.5 -139.5s74.5 -50.5 128.5 -50.5zM431 72c54 0 96.5 16.833 127.5 50.5s46.5 80.167 46.5 139.5s-15.5 105.833 -46.5 139.5s-73.5 50.5 -127.5 50.5h-3v-380
h3z" />
    <glyph glyph-name="uni0445" unicode="&#x445;" horiz-adv-x="568" 
d="M547 0h-128l-138 192l-137 -192h-123l199 265l-190 259h129l125 -185l126 185h123l-187 -256z" />
    <glyph glyph-name="uni0446" unicode="&#x446;" horiz-adv-x="606" 
d="M66 0v524h107v-436h244v436h107v-436h63v-228h-101v140h-420z" />
    <glyph glyph-name="uni0447" unicode="&#x447;" horiz-adv-x="564" 
d="M391 524l107 -0.000976562v-524h-107v210c-60.667 -13.333 -114 -20 -160 -20c-122 0 -183 61 -183 183v151h107v-138c0 -39.333 8.83301 -67.166 26.5 -83.499s46.5 -24.5 86.5 -24.5c34.667 0 75.667 6.66699 123 20v226z" />
    <glyph glyph-name="uni0448" unicode="&#x448;" horiz-adv-x="866" 
d="M66 0v524h105v-436h209v436h105v-436h210v436h105v-524h-734z" />
    <glyph glyph-name="uni0449" unicode="&#x449;" horiz-adv-x="882" 
d="M66 0v524h105v-436h209v436h105v-436h210v436h105v-436h63v-228h-101v140h-696z" />
    <glyph glyph-name="uni044A" unicode="&#x44a;" horiz-adv-x="622" 
d="M380 331c138.667 0 208 -55 208 -165c0 -110.667 -69.333 -166 -208 -166h-186h-50v436h-122v88h229v-193h129zM372 82c72.667 0 109 28.333 109 85c0 56 -36.333 84 -109 84h-121v-169h121z" />
    <glyph glyph-name="uni044B" unicode="&#x44b;" horiz-adv-x="749" 
d="M290 331c138.667 0 208 -55 208 -165c0 -110.667 -69.333 -166 -208 -166h-174h-50v524h107v-193h117zM576 524h107v-524h-107v524zM282 82c72.667 0 109 28.333 109 85c0 56 -36.333 84 -109 84h-109v-169h109z" />
    <glyph glyph-name="uni044C" unicode="&#x44c;" horiz-adv-x="544" 
d="M302 331c138.667 0 208 -55 208 -165c0 -110.667 -69.333 -166 -208 -166h-186h-50v524h107v-193h129zM294 82c72.667 0 109 28.333 109 85c0 56 -36.333 84 -109 84h-121v-169h121z" />
    <glyph glyph-name="uni044D" unicode="&#x44d;" horiz-adv-x="556" 
d="M269 536c76.667 0 137.331 -23.832 181.998 -71.499s67 -115.167 67 -202.5c0 -88 -22.5 -155.667 -67.5 -203s-106.5 -71 -184.5 -71c-62 0 -114.167 16 -156.5 48s-68.5 77.667 -78.5 137l104 6c8 -34.667 23.667 -61.667 47 -81s51.333 -29 84 -29
c40.667 0 73.834 14.167 99.501 42.5s40.834 68.166 45.501 119.499h-190v72h189c-5.33301 48 -20.5 85.333 -45.5 112s-56.833 40 -95.5 40c-31.333 0 -58.666 -9 -81.999 -27s-39 -44 -47 -78l-103 7c9.33301 56.667 35.166 100.667 77.499 132s93.833 47 154.5 47z" />
    <glyph glyph-name="uni044E" unicode="&#x44e;" horiz-adv-x="807" 
d="M519 536c77.333 0 138.335 -23.999 183.002 -71.999s67 -115.333 67 -202s-22.333 -154 -67 -202s-105.667 -72 -183 -72c-71.333 0 -128.833 20.5 -172.5 61.5s-68.834 98.833 -75.501 173.5h-98v-223h-107v524h107v-213h99c8.66699 71.333 34.667 126.666 78 165.999
s99.666 59 168.999 59zM519.002 72.001c44 0 79 16.833 105 50.5s39 80.167 39 139.5s-13 105.833 -39 139.5s-61 50.5 -105 50.5s-79 -16.833 -105 -50.5s-39 -80.167 -39 -139.5s13 -105.833 39 -139.5s61 -50.5 105 -50.5z" />
    <glyph glyph-name="uni044F" unicode="&#x44f;" horiz-adv-x="558" 
d="M248 524l244 -0.000976562v-524h-108v209h-97l-133 -209h-126l154 214c-90.667 16.667 -136 67.334 -136 152.001c0 50.667 17.333 89.667 52 117s84.667 41 150 41zM384 277.999v164h-123c-34.667 0 -61.334 -7.16699 -80.001 -21.5s-28 -34.5 -28 -60.5
s9.33301 -46.167 28 -60.5s45.334 -21.5 80.001 -21.5h123z" />
    <glyph glyph-name="uni0451" unicode="&#x451;" horiz-adv-x="575" 
d="M147 605v111h97v-111h-97zM326 605v111h96v-111h-96zM38 262c0 90 23.333 158.167 70 204.5s108.667 69.5 186 69.5c163.333 0 245 -97.333 245 -292v-13h-394c4 -54 19.833 -95.167 47.5 -123.5s63.834 -42.5 108.501 -42.5c63.333 0 106.333 27 129 81l102 -7
c-14 -47.333 -40.833 -84.333 -80.5 -111s-89.834 -40 -150.501 -40c-80.667 0 -144.667 23 -192 69s-71 114.333 -71 205zM146 301h286.999c-2 49.333 -15.333 88 -40 116s-57.667 42 -99 42s-75.166 -13.333 -101.499 -40s-41.833 -66 -46.5 -118z" />
    <glyph glyph-name="uni0454" unicode="&#x454;" horiz-adv-x="556" 
d="M421 179l103.997 -6.00098c-10 -59.333 -36 -105 -78 -137s-94.333 -48 -157 -48c-78 0 -139.5 23.667 -184.5 71s-67.5 115 -67.5 203c0 87.333 22.333 154.833 67 202.5s105.334 71.5 182.001 71.5c60.667 0 112.167 -15.667 154.5 -47s68.166 -75.333 77.499 -132
l-103 -7c-8 34 -23.667 60 -47 78s-50.666 27 -81.999 27c-38 0 -69.5 -13.333 -94.5 -40s-40.5 -64 -46.5 -112h189v-72h-190c4.66699 -51.333 19.834 -91.166 45.501 -119.499s58.834 -42.5 99.501 -42.5c33.333 0 61.5 9.66699 84.5 29s38.5 46.333 46.5 81z" />
    <glyph glyph-name="uni0456" unicode="&#x456;" horiz-adv-x="242" 
d="M64 605v119h113v-119h-113zM67 0v524h107v-524h-107z" />
    <glyph glyph-name="uni0457" unicode="&#x457;" horiz-adv-x="236" 
d="M-5 605v111h91v-111h-91zM150 605v111h91v-111h-91zM64 0v524h107v-524h-107z" />
    <glyph glyph-name="uni045E" unicode="&#x45e;" horiz-adv-x="560" 
d="M280 591c-48 0 -84.5 12.667 -109.5 38s-38.167 59.666 -39.5 102.999h71c4.66699 -52.667 30.667 -79 78 -79c46 0 72 26.333 78 79h70c-1.33301 -43.333 -14.333 -77.666 -39 -102.999s-61 -38 -109 -38zM428 524l113.998 0.000976562l-186 -577
c-17.333 -60.667 -39.666 -102.334 -66.999 -125.001s-68.666 -34 -123.999 -34c-20.667 0 -42 1.33301 -64 4v82c26.667 -1.33301 45.667 -2 57 -2c28 0 49.333 6.16699 64 18.5s27 35.833 37 70.5l12 39h-62l-191 524h115l162 -481z" />
    <glyph glyph-name="uni0490" unicode="&#x490;" horiz-adv-x="564" 
d="M82 0v700h343v168h105v-260h-336v-608h-112z" />
    <glyph glyph-name="uni0491" unicode="&#x491;" horiz-adv-x="460" 
d="M66 0v524h263v145h101v-233h-257v-436h-107z" />
    <glyph glyph-name="uni04C1" unicode="&#x4c1;" horiz-adv-x="1022" 
d="M511 757c-49.333 0 -86.833 12 -112.5 36s-39.167 56.333 -40.5 97h71c2 -19.333 9.33301 -36 22 -50s32.667 -21 60 -21c49.333 0 77 23.667 83 71h70c-1.33301 -40.667 -14.833 -73 -40.5 -97s-63.167 -36 -112.5 -36zM1002 0h-132l-222 310h-83v-310h-109v310h-82
l-222 -310h-132l266 361l-256 339h129l214 -303h83v303h109v-303h84l214 303h129l-256 -339z" />
    <glyph glyph-name="uni04C2" unicode="&#x4c2;" horiz-adv-x="825" 
d="M412 591c-48 0 -84.333 12.667 -109 38s-37.667 59.666 -39 102.999h71c2 -22 9 -40.667 21 -56s30.667 -23 56 -23c47.333 0 73.333 26.333 78 79h71c-1.33301 -43.333 -14.5 -77.666 -39.5 -102.999s-61.5 -38 -109.5 -38zM815 0h-131l-164 223h-56v-223h-103v223h-56
l-164 -223h-131l216 273l-208 251h126l158 -217h59v217h103v-217h59l158 217h125l-208 -251z" />
    <glyph glyph-name="Wgrave" unicode="&#x1e80;" horiz-adv-x="975" 
d="M536 762h-84l-114 118h110zM834 700h117l-168 -700h-167l-129 620l-131 -620h-168l-164 700h120l133 -616l132 616h159l130 -616z" />
    <glyph glyph-name="wgrave" unicode="&#x1e81;" horiz-adv-x="861" 
d="M490 590h-83l-106 145h111zM724 524h115l-153 -524h-151l-103 470l-106 -470h-153l-151 524h118l115 -447l104 447h149l100 -438z" />
    <glyph glyph-name="Wacute" unicode="&#x1e82;" horiz-adv-x="975" 
d="M638 880l-114 -118h-84l87 118h111zM834 700h117l-168 -700h-167l-129 620l-131 -620h-168l-164 700h120l133 -616l132 616h159l130 -616z" />
    <glyph glyph-name="wacute" unicode="&#x1e83;" horiz-adv-x="861" 
d="M559 735l-105 -145h-83l77 145h111zM724 524h115l-153 -524h-151l-103 470l-106 -470h-153l-151 524h118l115 -447l104 447h149l100 -438z" />
    <glyph glyph-name="Wdieresis" unicode="&#x1e84;" horiz-adv-x="975" 
d="M442 864v-101h-107v101h107zM640 864v-101h-106v101h106zM834 700h117l-168 -700h-167l-129 620l-131 -620h-168l-164 700h120l133 -616l132 616h159l130 -616z" />
    <glyph glyph-name="wdieresis" unicode="&#x1e85;" horiz-adv-x="861" 
d="M390 716v-111h-97v111h97zM568 716v-111h-97v111h97zM724 524h115l-153 -524h-151l-103 470l-106 -470h-153l-151 524h118l115 -447l104 447h149l100 -438z" />
    <glyph glyph-name="uni1E9E" unicode="&#x1e9e;" horiz-adv-x="664" 
d="M553 355c48.667 -37.333 72.999 -90.668 72.999 -160.001c0 -66.667 -21.5 -117.167 -64.5 -151.5s-100.5 -51.5 -172.5 -51.5c-26 0 -53 2.66699 -81 8v85c24 -4 43.333 -6 58 -6c44 0 79.667 11 107 33s41 54.333 41 97c0 40.667 -13 71.334 -39 92.001
s-60.667 31 -104 31c-19.333 0 -43.333 -2.66699 -72 -8v82l154 207h-144c-38.667 0 -69.167 -12 -91.5 -36s-33.5 -60.333 -33.5 -109v-468h-112v481c0 146 81.667 219 245 219h255v-73l-174 -225c64.667 -1.33301 116.334 -17 155.001 -47z" />
    <glyph glyph-name="Ygrave" unicode="&#x1ef2;" horiz-adv-x="668" 
d="M382 762h-84l-114 118h111zM531 700h122l-263 -416v-284h-112v283l-263 417h128l191 -326z" />
    <glyph glyph-name="ygrave" unicode="&#x1ef3;" horiz-adv-x="560" 
d="M339 590h-83l-105 145h111zM428 524l113.998 0.000976562l-186 -577c-17.333 -60.667 -39.666 -102.334 -66.999 -125.001s-68.666 -34 -123.999 -34c-20.667 0 -42 1.33301 -64 4v82c26.667 -1.33301 45.667 -2 57 -2c28 0 49.333 6.16699 64 18.5s27 35.833 37 70.5
l12 39h-62l-191 524h115l162 -481z" />
    <glyph glyph-name="endash" unicode="&#x2013;" horiz-adv-x="553" 
d="M55 340h443v-83h-443v83z" />
    <glyph glyph-name="emdash" unicode="&#x2014;" horiz-adv-x="682" 
d="M55 340h572v-83h-572v83z" />
    <glyph glyph-name="quoteleft" unicode="&#x2018;" horiz-adv-x="213" 
d="M154 712v-226h-105v74l59 152h46z" />
    <glyph glyph-name="quoteright" unicode="&#x2019;" horiz-adv-x="213" 
d="M59 474v226h105v-74l-59 -152h-46z" />
    <glyph glyph-name="quotesinglbase" unicode="&#x201a;" horiz-adv-x="213" 
d="M59 -96v226h105v-74l-59 -152h-46z" />
    <glyph glyph-name="quotedblleft" unicode="&#x201c;" horiz-adv-x="380" 
d="M154 712v-226h-105v74l59 152h46zM321 712v-226h-105v74l59 152h46z" />
    <glyph glyph-name="quotedblright" unicode="&#x201d;" horiz-adv-x="380" 
d="M59 474v226h105v-74l-59 -152h-46zM226 474v226h105v-74l-59 -152h-46z" />
    <glyph glyph-name="quotedblbase" unicode="&#x201e;" horiz-adv-x="380" 
d="M59 -96v226h105v-74l-59 -152h-46zM226 -96v226h105v-74l-59 -152h-46z" />
    <glyph glyph-name="dagger" unicode="&#x2020;" horiz-adv-x="435" 
d="M388 524v-79h-120v-503h-100v503h-120v79h120v176h100v-176h120z" />
    <glyph glyph-name="daggerdbl" unicode="&#x2021;" horiz-adv-x="443" 
d="M392 445h-120v-238h120v-79h-120v-186h-100v186h-120v79h120v238h-120v79h120v176h100v-176h120v-79z" />
    <glyph glyph-name="bullet" unicode="&#x2022;" horiz-adv-x="395" 
d="M197 202c-33.333 0 -60.666 10.5 -81.999 31.5s-32 48.167 -32 81.5c0 32.667 10.667 59.667 32 81s48.666 31.666 81.999 30.999c32.667 0.666992 60 -9.66602 82 -30.999s33 -48.333 33 -81s-10.833 -59.667 -32.5 -81s-49.167 -32 -82.5 -32z" />
    <glyph glyph-name="ellipsis" unicode="&#x2026;" horiz-adv-x="682" 
d="M63 0v130h121v-130h-121zM280 0v130h121v-130h-121zM498 0v130h121v-130h-121z" />
    <glyph glyph-name="perthousand" unicode="&#x2030;" horiz-adv-x="1178" 
d="M30 535c0 53.333 15 95.166 45 125.499s70.333 45.5 121 45.5c51.333 0 91.833 -15.167 121.5 -45.5s44.5 -72.166 44.5 -125.499s-14.833 -95.166 -44.5 -125.499s-70.167 -45.5 -121.5 -45.5c-50.667 0 -91 15.167 -121 45.5s-45 72.166 -45 125.499zM127 0l480 700h71
l-480 -700h-71zM107 535c0 -34 8 -60.5 24 -79.5s37.667 -28.5 65 -28.5s49 9.5 65 28.5s24 45.5 24 79.5s-7.83301 60.5 -23.5 79.5s-37.5 28.5 -65.5 28.5s-49.833 -9.5 -65.5 -28.5s-23.5 -45.5 -23.5 -79.5zM443 166c0 52.667 14.833 94.334 44.5 125.001
s70.167 46 121.5 46c52 0 92.667 -15.333 122 -46s44 -72.334 44 -125.001c0 -53.333 -14.667 -95.333 -44 -126s-70 -46 -122 -46c-51.333 0 -91.833 15.333 -121.5 46s-44.5 72.667 -44.5 126zM823 166c0 52.667 15 94.334 45 125.001s70.333 46 121 46
c52 0 92.833 -15.333 122.5 -46s44.5 -72.334 44.5 -125.001c0 -53.333 -14.833 -95.333 -44.5 -126s-70.5 -46 -122.5 -46c-51.333 0 -91.833 15.5 -121.5 46.5s-44.5 72.833 -44.5 125.5zM519 166c0 -34 7.99805 -60.667 23.998 -80s38 -29 66 -29s50 9.66699 66 29
s24 46 24 80s-8.16699 60.667 -24.5 80s-38.166 29 -65.499 29s-49.166 -9.66699 -65.499 -29s-24.5 -46 -24.5 -80zM898.998 166c0 -34 7.99902 -60.667 23.999 -80s38 -29 66 -29s50 9.5 66 28.5s24 45.833 24 80.5c0 34 -8 60.667 -24 80s-38 29 -66 29
c-27.333 0 -49.166 -9.66699 -65.499 -29s-24.5 -46 -24.5 -80z" />
    <glyph glyph-name="guilsinglleft" unicode="&#x2039;" horiz-adv-x="298" 
d="M257 459l-144 -179l144 -179h-104l-124 156v46l124 156h104z" />
    <glyph glyph-name="guilsinglright" unicode="&#x203a;" horiz-adv-x="298" 
d="M145 459l124 -156v-46l-124 -156h-104l145 179l-145 179h104z" />
    <glyph glyph-name="fraction" unicode="&#x2044;" horiz-adv-x="167" 
d="M-196 0l480 700h79l-480 -700h-79z" />
    <glyph glyph-name="uni2070" unicode="&#x2070;" horiz-adv-x="455" 
d="M44 549c0 70 15.833 125 47.5 165s76.834 60 135.501 60s104 -20 136 -60s48 -95 48 -165c0 -70.667 -16 -125.834 -48 -165.501s-77.333 -59.5 -136 -59.5s-103.834 19.833 -135.501 59.5s-47.5 94.834 -47.5 165.501zM128 549c0 -50.667 8.83105 -89.5 26.498 -116.5
s41.834 -40.5 72.501 -40.5s54.834 13.5 72.501 40.5s26.5 65.833 26.5 116.5c0 50 -8.66699 88.333 -26 115s-41.666 40 -72.999 40c-30.667 0 -54.834 -13.333 -72.501 -40s-26.5 -65 -26.5 -115z" />
    <glyph glyph-name="uni2074" unicode="&#x2074;" horiz-adv-x="440" 
d="M343 495h73v-68h-73v-94h-85v94h-237v63l184 274h138v-269zM103 495h155v227z" />
    <glyph glyph-name="uni2075" unicode="&#x2075;" horiz-adv-x="410" 
d="M228 613c44.667 0 80.502 -11.5 107.502 -34.5s40.5 -56.833 40.5 -101.5c0 -48.667 -16 -86 -48 -112s-73.667 -39 -125 -39c-46 0 -85 10.667 -117 32s-51 52 -57 92l82 6c4.66699 -20.667 15.5 -36.167 32.5 -46.5s36.833 -15.5 59.5 -15.5
c26.667 0 48.167 7.33301 64.5 22s24.5 35 24.5 61c0 26.667 -8.33301 47 -25 61s-38.334 21 -65.001 21c-39.333 0 -68 -13.333 -86 -40l-75 6l19 239h290v-68h-227l-10 -121c27.333 25.333 65.666 38 114.999 38z" />
    <glyph glyph-name="uni2076" unicode="&#x2076;" horiz-adv-x="440" 
d="M253 609c43.333 0 79.166 -11.834 107.499 -35.501s42.5 -57.5 42.5 -101.5c0 -46.667 -15.667 -83 -47 -109s-73.666 -39 -126.999 -39c-123.333 0 -185 72.667 -185 218c0 77.333 16.167 135.333 48.5 174s78.166 58 137.499 58c44.667 0 80.834 -10.667 108.501 -32
s43.5 -51.666 47.5 -90.999l-81 -5c-2.66699 18 -10.5 32.5 -23.5 43.5s-30.167 16.5 -51.5 16.5c-37.333 0 -65 -18 -83 -54c-12 -25.333 -18 -58 -18 -98c26.667 36.667 68 55 124 55zM229 391.999c27.333 0 49 7.16699 65 21.5s24 33.833 24 58.5s-8 44.167 -24 58.5
s-37.667 21.5 -65 21.5s-49.166 -7.16699 -65.499 -21.5s-24.5 -33.833 -24.5 -58.5s8.16699 -44.167 24.5 -58.5s38.166 -21.5 65.499 -21.5z" />
    <glyph glyph-name="uni2077" unicode="&#x2077;" horiz-adv-x="359" 
d="M19 764h326v-57c-87.333 -123.333 -143 -248 -167 -374h-90c26.667 123.333 84.667 244.333 174 363h-243v68z" />
    <glyph glyph-name="uni2078" unicode="&#x2078;" horiz-adv-x="434" 
d="M290 559c32.667 -8 58.833 -21.498 78.5 -40.498s29.5 -42.833 29.5 -71.5c0 -39.333 -17.5 -69.666 -52.5 -90.999s-77.833 -32 -128.5 -32s-93.5 10.667 -128.5 32s-52.5 51.666 -52.5 90.999c0 28.667 9.83301 52.5 29.5 71.5s46.167 32.5 79.5 40.5
c-64.667 15.333 -97 49 -97 101c0 37.333 16.167 65.666 48.5 84.999s72.5 29 120.5 29s88.167 -9.83301 120.5 -29.5s48.5 -47.834 48.5 -84.501c0 -51.333 -32 -85 -96 -101zM216.999 711.002c-27.333 0 -48.666 -5.33301 -63.999 -16s-23 -26 -23 -46
s7.66699 -35.333 23 -46s36.666 -16 63.999 -16c26.667 0 47.667 5.33301 63 16s23 26 23 46s-7.66699 35.333 -23 46s-36.333 16 -63 16zM216.999 387.002c30 0 53.833 6 71.5 18s26.5 29 26.5 51s-8.83301 39 -26.5 51s-41.5 18 -71.5 18
c-30.667 0 -54.834 -6 -72.501 -18s-26.5 -29 -26.5 -51s8.83301 -39 26.5 -51s41.834 -18 72.501 -18z" />
    <glyph glyph-name="uni2079" unicode="&#x2079;" horiz-adv-x="440" 
d="M211 774c123.333 0 185.001 -72.666 185.001 -217.999c0 -78 -16 -136.167 -48 -174.5s-78 -57.5 -138 -57.5c-45.333 0 -81.666 10.667 -108.999 32s-43.333 51.666 -48 90.999l82 5c2 -18 9.5 -32.5 22.5 -43.5s30.5 -16.5 52.5 -16.5c40 0 68.333 20 85 60
c10.667 24 16 55.667 16 95c-26 -37.333 -67.333 -56 -124 -56c-42.667 0 -78.334 11.833 -107.001 35.5s-43 57.167 -43 100.5c0 46 15.667 82 47 108s73.666 39 126.999 39zM211.001 548.001c27.333 0 49 7.16699 65 21.5s24 33.5 24 57.5s-8 43.167 -24 57.5
s-37.667 21.5 -65 21.5s-49.166 -7.16699 -65.499 -21.5s-24.5 -33.5 -24.5 -57.5s8.16699 -43.167 24.5 -57.5s38.166 -21.5 65.499 -21.5z" />
    <glyph glyph-name="uni2080" unicode="&#x2080;" horiz-adv-x="455" 
d="M44 99c0 70 15.833 125 47.5 165s76.834 60 135.501 60s104 -20 136 -60s48 -95 48 -165c0 -70.667 -16 -125.834 -48 -165.501s-77.333 -59.5 -136 -59.5s-103.834 19.833 -135.501 59.5s-47.5 94.834 -47.5 165.501zM128 99c0 -50.667 8.83105 -89.5 26.498 -116.5
s41.834 -40.5 72.501 -40.5s54.834 13.5 72.501 40.5s26.5 65.833 26.5 116.5c0 50 -8.66699 88.333 -26 115s-41.666 40 -72.999 40c-30.667 0 -54.834 -13.333 -72.501 -40s-26.5 -65 -26.5 -115z" />
    <glyph glyph-name="uni2081" unicode="&#x2081;" horiz-adv-x="287" 
d="M132 315h69v-431h-85v334l-81 -64v85z" />
    <glyph glyph-name="uni2082" unicode="&#x2082;" horiz-adv-x="371" 
d="M130 -50l216.001 0.000976562v-69h-329v63l142 129c23.333 20.667 39.666 35.667 48.999 45s18.666 21.5 27.999 36.5s14 29.5 14 43.5c0 18 -5.83301 32 -17.5 42s-26.834 15 -45.501 15c-46 0 -71.667 -30.667 -77 -92l-82 6c4 52 20.333 90.833 49 116.5
s65.334 38.5 110.001 38.5c42.667 0 77.834 -10.833 105.501 -32.5s41.5 -52.834 41.5 -93.501c0 -25.333 -7 -49.333 -21 -72s-39 -49.667 -75 -81z" />
    <glyph glyph-name="uni2083" unicode="&#x2083;" horiz-adv-x="388" 
d="M301 124c36.667 -21.333 55.002 -56.333 55.002 -105c0 -46.667 -16.333 -82 -49 -106s-74.334 -36 -125.001 -36c-48 0 -87.167 11.167 -117.5 33.5s-47.833 55.833 -52.5 100.5l82 5c6.66699 -47.333 36 -71 88 -71c27.333 0 49 6.5 65 19.5s24 31.167 24 54.5
c0 21.333 -7.33301 38.5 -22 51.5s-36.667 19.5 -66 19.5c-21.333 0 -44 -2.33301 -68 -7v57l120 107h-200v68h308v-61l-136 -107c37.333 -1.33301 68.666 -9 93.999 -23z" />
    <glyph glyph-name="uni2084" unicode="&#x2084;" horiz-adv-x="440" 
d="M343 46h73v-68h-73v-94h-85v94h-237v63l184 274h138v-269zM103 46h155v227z" />
    <glyph glyph-name="uni2085" unicode="&#x2085;" horiz-adv-x="410" 
d="M228 164c44.667 0 80.502 -11.5 107.502 -34.5s40.5 -56.833 40.5 -101.5c0 -48.667 -16 -86 -48 -112s-73.667 -39 -125 -39c-46 0 -85 10.667 -117 32s-51 52 -57 92l82 6c4.66699 -20.667 15.5 -36.167 32.5 -46.5s36.833 -15.5 59.5 -15.5
c26.667 0 48.167 7.33301 64.5 22s24.5 35 24.5 61c0 26.667 -8.33301 47 -25 61s-38.334 21 -65.001 21c-39.333 0 -68 -13.333 -86 -40l-75 6l19 239h290v-68h-227l-10 -121c27.333 25.333 65.666 38 114.999 38z" />
    <glyph glyph-name="uni2086" unicode="&#x2086;" horiz-adv-x="440" 
d="M253 159c43.333 0 79.166 -11.834 107.499 -35.501s42.5 -57.5 42.5 -101.5c0 -46.667 -15.667 -83 -47 -109s-73.666 -39 -126.999 -39c-123.333 0 -185 72.667 -185 218c0 77.333 16.167 135.333 48.5 174s78.166 58 137.499 58c44.667 0 80.834 -10.667 108.501 -32
s43.5 -51.666 47.5 -90.999l-81 -5c-2.66699 18 -10.5 32.5 -23.5 43.5s-30.167 16.5 -51.5 16.5c-37.333 0 -65 -18 -83 -54c-12 -25.333 -18 -58 -18 -98c26.667 36.667 68 55 124 55zM229 -58.001c27.333 0 49 7.16699 65 21.5s24 33.833 24 58.5s-8 44.167 -24 58.5
s-37.667 21.5 -65 21.5s-49.166 -7.16699 -65.499 -21.5s-24.5 -33.833 -24.5 -58.5s8.16699 -44.167 24.5 -58.5s38.166 -21.5 65.499 -21.5z" />
    <glyph glyph-name="uni2087" unicode="&#x2087;" horiz-adv-x="359" 
d="M19 315h326v-57c-87.333 -123.333 -143 -248 -167 -374h-90c26.667 123.333 84.667 244.333 174 363h-243v68z" />
    <glyph glyph-name="uni2088" unicode="&#x2088;" horiz-adv-x="434" 
d="M290 109c32.667 -8 58.833 -21.498 78.5 -40.498s29.5 -42.833 29.5 -71.5c0 -39.333 -17.5 -69.666 -52.5 -90.999s-77.833 -32 -128.5 -32s-93.5 10.667 -128.5 32s-52.5 51.666 -52.5 90.999c0 28.667 9.83301 52.5 29.5 71.5s46.167 32.5 79.5 40.5
c-64.667 15.333 -97 49 -97 101c0 37.333 16.167 65.666 48.5 84.999s72.5 29 120.5 29s88.167 -9.83301 120.5 -29.5s48.5 -47.834 48.5 -84.501c0 -51.333 -32 -85 -96 -101zM216.999 261.002c-27.333 0 -48.666 -5.33301 -63.999 -16s-23 -26 -23 -46
s7.66699 -35.333 23 -46s36.666 -16 63.999 -16c26.667 0 47.667 5.33301 63 16s23 26 23 46s-7.66699 35.333 -23 46s-36.333 16 -63 16zM216.999 -62.998c30 0 53.833 6 71.5 18s26.5 29 26.5 51s-8.83301 39 -26.5 51s-41.5 18 -71.5 18
c-30.667 0 -54.834 -6 -72.501 -18s-26.5 -29 -26.5 -51s8.83301 -39 26.5 -51s41.834 -18 72.501 -18z" />
    <glyph glyph-name="uni2089" unicode="&#x2089;" horiz-adv-x="440" 
d="M211 324c123.333 0 185.001 -72.666 185.001 -217.999c0 -78 -16 -136.167 -48 -174.5s-78 -57.5 -138 -57.5c-45.333 0 -81.666 10.667 -108.999 32s-43.333 51.666 -48 90.999l82 5c2 -18 9.5 -32.5 22.5 -43.5s30.5 -16.5 52.5 -16.5c40 0 68.333 20 85 60
c10.667 24 16 55.667 16 95c-26 -37.333 -67.333 -56 -124 -56c-42.667 0 -78.334 11.833 -107.001 35.5s-43 57.167 -43 100.5c0 46 15.667 82 47 108s73.666 39 126.999 39zM211.001 98.001c27.333 0 49 7.16699 65 21.5s24 33.5 24 57.5s-8 43.167 -24 57.5
s-37.667 21.5 -65 21.5s-49.166 -7.16699 -65.499 -21.5s-24.5 -33.5 -24.5 -57.5s8.16699 -43.167 24.5 -57.5s38.166 -21.5 65.499 -21.5z" />
    <glyph glyph-name="Euro" unicode="&#x20ac;" horiz-adv-x="655" 
d="M524 215l101.001 -4.00391c-12 -68 -40.5 -122.167 -85.5 -162.5s-104.167 -60.5 -177.5 -60.5c-79.333 0 -144 24.333 -194 73s-81.667 114.334 -95 197.001h-64v54h59c-0.666992 6.66699 -1 17.334 -1 32.001s0.333008 25.334 1 32.001h-56v54h61
c12.667 82.667 43.334 148.334 92.001 197.001s111.667 73 189 73c68.667 0 125.834 -17.5 171.501 -52.5s75.5 -83.5 89.5 -145.5l-102 -6c-10.667 35.333 -29.834 63.5 -57.501 84.5s-60.167 31.5 -97.5 31.5c-46.667 0 -84.834 -16.667 -114.501 -50
s-49.834 -77.333 -60.501 -132h253v-54h-260c0 -3.33301 -0.166992 -8.5 -0.5 -15.5s-0.5 -12.5 -0.5 -16.5s0.166992 -9.5 0.5 -16.5s0.5 -12.167 0.5 -15.5h256v-54h-248c10.667 -55.333 31.667 -99.5 63 -132.5s70.666 -49.5 117.999 -49.5
c42 0 76.833 12.833 104.5 38.5s45.834 59.167 54.501 100.5z" />
    <glyph glyph-name="uni20B4" unicode="&#x20b4;" horiz-adv-x="562" 
d="M438 387c-15.333 -11.333 -35 -23.334 -59 -36.001l-63 -31h222v-44h-309c-46 -28 -69 -62.667 -69 -104c0 -34 11.5 -59 34.5 -75s51.833 -24 86.5 -24c38.667 0 71.167 9.5 97.5 28.5s40.833 48.5 43.5 88.5l100 -4c-9.33301 -132 -89.333 -198 -240 -198
c-70 0 -125.833 15.5 -167.5 46.5s-62.5 74.833 -62.5 131.5c0 42.667 12.667 79.334 38 110.001h-60v44h112c16.667 11.333 33.667 21 51 29l79 38h-242v45h323c30 23.333 45 53 45 89c0 29.333 -9.16699 52.333 -27.5 69s-44.166 25 -77.499 25
c-28.667 0 -54.5 -7.16699 -77.5 -21.5s-35.833 -38.833 -38.5 -73.5l-101 6c3.33301 32.667 12.166 61 26.499 85s32.5 42.167 54.5 54.5s44.167 21.166 66.5 26.499s45.833 8 70.5 8c61.333 0 112 -14.667 152 -44s60 -72.666 60 -129.999c0 -36.667 -8.66699 -68 -26 -94
h58v-45h-100z" />
    <glyph glyph-name="uni20BD" unicode="&#x20bd;" horiz-adv-x="620" 
d="M354 281h-154v-68h215v-64h-215v-149h-108v149h-66v64h66v68h-66v79h66v328h108h151c66 0 121 -17.167 165 -51.5s66 -86.5 66 -156.5s-21 -120.667 -63 -152s-97 -47 -165 -47zM200 600v-240h139c41.333 0 74.166 10 98.499 30s36.5 50 36.5 90s-12.167 70 -36.5 90
s-57.166 30 -98.499 30h-139z" />
    <glyph glyph-name="uni2116" unicode="&#x2116;" horiz-adv-x="1185" 
d="M948 334c-56.667 0 -101.667 17 -135 51s-50 80 -50 138s16.667 104 50 138s78.333 51 135 51c57.333 0 102.666 -17 135.999 -51s50 -80 50 -138s-16.667 -104 -50 -138s-78.666 -51 -135.999 -51zM549 68v632h107v-700h-188l-279 632v-632h-107v700h188zM948 640
c-29.333 0 -52.5 -10.667 -69.5 -32s-25.5 -49.666 -25.5 -84.999s8.5 -63.833 25.5 -85.5s40.167 -32.5 69.5 -32.5s52.5 10.833 69.5 32.5s25.5 50.167 25.5 85.5s-8.5 63.666 -25.5 84.999s-40.167 32 -69.5 32zM777 203v71h343v-71h-343z" />
    <glyph glyph-name="trademark" unicode="&#x2122;" horiz-adv-x="809" 
d="M16 652v48h288v-48h-114v-321h-59v321h-115zM656 700h102v-369h-58v330l-100 -330h-82l-99 327v-327h-58v369h103l96 -334z" />
    <glyph glyph-name="oneeighth" unicode="&#x215b;" horiz-adv-x="793" 
d="M105 340v274l-78 -48v76l92 58h58v-360h-72zM531 700h79l-480 -700h-79zM666 185c29.333 -6 52.5 -17 69.5 -33s25.5 -36 25.5 -60c0 -33.333 -15.167 -59 -45.5 -77s-67.833 -27 -112.5 -27s-82 8.83301 -112 26.5s-45 43.5 -45 77.5c0 24 8.5 44 25.5 60
s40.167 27 69.5 33c-56.667 13.333 -85 41.666 -85 84.999c0 31.333 14 55.166 42 71.499s63 24.5 105 24.5c42.667 0 78 -8.16699 106 -24.5s42 -40.166 42 -71.499c0 -43.333 -28.333 -71.666 -85 -84.999zM527 259c0 -15.333 7 -27.5 21 -36.5s32.333 -13.5 55 -13.5
c23.333 0 42 4.33301 56 13s21 21 21 37c0 16.667 -7 29.5 -21 38.5s-32.667 13.5 -56 13.5c-22.667 0 -41 -4.5 -55 -13.5s-21 -21.833 -21 -38.5zM603 43c26 0 47 4.99902 63 14.999s24 24.333 24 43c0 18 -8 32 -24 42s-37 15 -63 15c-25.333 0 -46 -5.16699 -62 -15.5
s-24 -24.166 -24 -41.499c0 -18.667 7.83301 -33 23.5 -43s36.5 -15 62.5 -15z" />
    <glyph glyph-name="threeeighths" unicode="&#x215c;" horiz-adv-x="892" 
d="M320 449c0 -40 -14.668 -70.167 -44.001 -90.5s-66.666 -30.5 -111.999 -30.5c-42.667 0 -77.5 9.5 -104.5 28.5s-42.833 47.5 -47.5 85.5l72 5c4.66699 -40.667 31.334 -61 80.001 -61c24.667 0 44.667 5.5 60 16.5s23 26.5 23 46.5c0 18 -6.83301 32.5 -20.5 43.5
s-33.834 16.5 -60.501 16.5c-16 0 -37 -2.33301 -63 -7v50l111 90h-182v58h277v-53l-124 -88c39.333 -0.666992 71 -9 95 -25c26.667 -18.667 40 -47 40 -85zM629.999 700h79l-480 -700h-79zM764.999 185c29.333 -6 52.5 -17 69.5 -33s25.5 -36 25.5 -60
c0 -33.333 -15.167 -59 -45.5 -77s-67.833 -27 -112.5 -27s-82 8.83301 -112 26.5s-45 43.5 -45 77.5c0 24 8.5 44 25.5 60s40.167 27 69.5 33c-56.667 13.333 -85 41.666 -85 84.999c0 31.333 14 55.166 42 71.499s63 24.5 105 24.5c42.667 0 78 -8.16699 106 -24.5
s42 -40.166 42 -71.499c0 -43.333 -28.333 -71.666 -85 -84.999zM625.999 259c0 -16 7 -28.333 21 -37s32.333 -13 55 -13c23.333 0 42 4.33301 56 13s21 21 21 37c0 16.667 -7 29.5 -21 38.5s-32.667 13.5 -56 13.5c-50.667 0 -76 -17.333 -76 -52zM701.999 43
c26 0 47 4.99902 63 14.999s24 24.333 24 43c0 18 -8 32 -24 42s-37 15 -63 15c-25.333 0 -46 -5.16699 -62 -15.5s-24 -24.166 -24 -41.499c0 -18.667 7.83301 -33 23.5 -43s36.5 -15 62.5 -15z" />
    <glyph glyph-name="fiveeighths" unicode="&#x215d;" horiz-adv-x="904" 
d="M332 458c0 -41.333 -14.168 -73.167 -42.501 -95.5s-65.5 -33.5 -111.5 -33.5c-41.333 0 -76.166 9.16699 -104.499 27.5s-45.166 44.833 -50.499 79.5l68 5c9.33301 -36.667 38.333 -55 87 -55c25.333 0 45.5 6.16699 60.5 18.5s22.5 29.833 22.5 52.5
c0 23.333 -7.66699 40.833 -23 52.5s-35.333 17.5 -60 17.5c-38.667 0 -66.334 -11.333 -83.001 -34l-62 5l17 203h258v-56h-206l-9 -103c26 24.667 61 37 105 37c40 0 72.333 -10.5 97 -31.5s37 -50.833 37 -89.5zM641.999 699.999h79l-480 -700h-79zM776.999 184.999
c28.667 -6 51.668 -16.999 69.001 -32.999s26 -36 26 -60c0 -33.333 -15.167 -59 -45.5 -77s-67.833 -27 -112.5 -27s-82.167 9 -112.5 27s-45.5 43.667 -45.5 77c0 24 8.66699 44 26 60s40.666 27 69.999 33c-56.667 13.333 -85 41.666 -85 84.999
c0 31.333 14 55.166 42 71.499s63 24.5 105 24.5s77 -8.16699 105 -24.5s42 -40.166 42 -71.499c0 -44 -28 -72.333 -84 -85zM638 259c0 -16 7 -28.333 21 -37s32.333 -13 55 -13c23.333 0 42 4.33301 56 13s21 21 21 37c0 16.667 -7 29.5 -21 38.5s-32.667 13.5 -56 13.5
c-50.667 0 -76 -17.333 -76 -52zM714 43c26 0 47 4.99902 63 14.999s24 24.333 24 43c0 18 -8 32 -24 42s-37 15 -63 15c-25.333 0 -46 -5.16699 -62 -15.5s-24 -24.166 -24 -41.499c0 -18.667 7.83301 -33 23.5 -43s36.5 -15 62.5 -15z" />
    <glyph glyph-name="seveneighths" unicode="&#x215e;" horiz-adv-x="847" 
d="M156 340l-77 0.00195312c23.333 103.333 73 203.666 149 300.999h-210v59h285v-49c-76 -102.667 -125 -206.334 -147 -311.001zM585 700.002h79l-480 -700h-79zM720 185.002c29.333 -6 52.5 -17 69.5 -33s25.5 -36 25.5 -60c0 -33.333 -15.167 -59 -45.5 -77
s-67.833 -27 -112.5 -27s-82 8.83301 -112 26.5s-45 43.5 -45 77.5c0 24 8.5 44 25.5 60s40.167 27 69.5 33c-56.667 13.333 -85 41.666 -85 84.999c0 31.333 14 55.166 42 71.499s63 24.5 105 24.5c42.667 0 78 -8.16699 106 -24.5s42 -40.166 42 -71.499
c0 -43.333 -28.333 -71.666 -85 -84.999zM581 259.002c0 -15.333 7 -27.5 21 -36.5s32.333 -13.5 55 -13.5c23.333 0 42 4.33301 56 13s21 21 21 37c0 16.667 -7 29.5 -21 38.5s-32.667 13.5 -56 13.5c-22.667 0 -41 -4.5 -55 -13.5s-21 -21.833 -21 -38.5zM657 43.002
c26 0 47 4.99902 63 14.999s24 24.333 24 43c0 18 -8 32 -24 42s-37 15 -63 15c-25.333 0 -46 -5.16699 -62 -15.5s-24 -24.166 -24 -41.499c0 -18.667 7.83301 -33 23.5 -43s36.5 -15 62.5 -15z" />
    <glyph glyph-name="arrowleft" unicode="&#x2190;" horiz-adv-x="771" 
d="M709 397v-82h-489l233 -227h-124l-267 268l267 268h124l-233 -227h489z" />
    <glyph glyph-name="arrowup" unicode="&#x2191;" horiz-adv-x="660" 
d="M598 492v-126l-224 230v-602h-88v602l-224 -230v127l268 267z" />
    <glyph glyph-name="arrowright" unicode="&#x2192;" horiz-adv-x="771" 
d="M442 624l267 -268l-267 -268h-124l233 227h-489v82h489l-233 227h124z" />
    <glyph glyph-name="arrowdown" unicode="&#x2193;" horiz-adv-x="660" 
d="M374 104l224 230v-126l-268 -268l-268 267v127l224 -230v602h88v-602z" />
    <glyph glyph-name="arrowboth" unicode="&#x2194;" horiz-adv-x="1034" 
d="M738 591l234 -235l-234 -235h-123l199 194h-594l199 -194h-123l-234 235l234 235h123l-199 -194h594l-199 194h123z" />
    <glyph glyph-name="arrowupdn" unicode="&#x2195;" horiz-adv-x="588" 
d="M526 444l-192 196v-579l192 197v-125l-235 -235l-229 229v125l185 -190v578l-185 -190v125l229 229l235 -235v-125z" />
    <glyph glyph-name="uni2196" unicode="&#x2196;" horiz-adv-x="636" 
d="M575 150l-60 -60l-365 365l4 -326l-92 89v379h379l88 -85l-320 3z" />
    <glyph glyph-name="uni2197" unicode="&#x2197;" horiz-adv-x="636" 
d="M195 597h380v-379l-92 -89l3 326l-365 -365l-59 60l365 365l-319 -3z" />
    <glyph glyph-name="uni2198" unicode="&#x2198;" horiz-adv-x="636" 
d="M483 573l92 -88v-379h-380l-87 85l319 -3l-365 365l59 60l365 -365z" />
    <glyph glyph-name="uni2199" unicode="&#x2199;" horiz-adv-x="636" 
d="M575 553l-366 -365l320 3l-88 -85h-379v379l92 88l-4 -325l365 365z" />
    <glyph glyph-name="partialdiff" unicode="&#x2202;" horiz-adv-x="569" 
d="M256 756c176.667 0 265 -132.332 265 -396.999c0 -128.667 -23 -222.667 -69 -282s-108 -89 -186 -89c-70.667 0 -126.334 21.5 -167.001 64.5s-61 103.5 -61 181.5c0 73.333 20.667 132.666 62 177.999s95 68 161 68c63.333 0 114 -23 152 -69
c-8.66699 176 -63 264 -163 264c-52 0 -98 -23.667 -138 -71l-56 66c52.667 57.333 119.334 86 200.001 86zM262 72.001c92 0 142.332 74.334 150.999 223.001c-11.333 32.667 -28.666 57.667 -51.999 75s-50 26 -80 26c-42 0 -75.333 -15 -100 -45s-37 -69 -37 -117
c0 -52.667 10.833 -92.834 32.5 -120.501s50.167 -41.5 85.5 -41.5z" />
    <glyph glyph-name="emptyset" unicode="&#x2205;" horiz-adv-x="577" 
d="M543 521l-72.998 -73c30.667 -39.333 46 -88 46 -146c0 -69.333 -21.167 -124.166 -63.5 -164.499s-96.833 -60.5 -163.5 -60.5c-56.667 0 -105 14.667 -145 44l-74 -74l-36 36l73 73c-30.667 39.333 -46 88 -46 146c0 69.333 21.167 124.166 63.5 164.499
s97.166 60.5 164.499 60.5c57.333 0 105.666 -14.667 144.999 -44l74 74zM152.002 302c0 -31.333 6.66699 -58.334 20 -81.001l199 199c-22.667 15.333 -50 23 -82 23c-42 0 -75.333 -12.667 -100 -38s-37 -59.666 -37 -102.999zM425.002 301.999
c0 31.333 -6.66797 58.334 -20.001 81.001l-199 -199c22.667 -15.333 50.334 -23 83.001 -23c42 0 75.167 12.667 99.5 38s36.5 59.666 36.5 102.999z" />
    <glyph glyph-name="product" unicode="&#x220f;" horiz-adv-x="645" 
d="M563 700v-792h-104v707h-273v-707h-104v792h481z" />
    <glyph glyph-name="summation" unicode="&#x2211;" horiz-adv-x="508" 
d="M157 -7h327v-85h-449v75l226 338l-214 304v75h428v-85h-304l206 -294z" />
    <glyph glyph-name="minus" unicode="&#x2212;" horiz-adv-x="497" 
d="M55 370h387v-77h-387v77z" />
    <glyph glyph-name="radical" unicode="&#x221a;" horiz-adv-x="584" 
d="M465 712h89l-217 -810h-121l-117 401h-75v77h143l110 -402z" />
    <glyph glyph-name="infinity" unicode="&#x221e;" horiz-adv-x="615" 
d="M449 472c42.667 0 76.666 -12.5 101.999 -37.5s38 -61.5 38 -109.5c0 -47.333 -12.833 -83.833 -38.5 -109.5s-59.5 -38.5 -101.5 -38.5c-28.667 0 -53.834 6.66699 -75.501 20s-43.5 37 -65.5 71c-22 -34 -44 -57.667 -66 -71s-47 -20 -75 -20
c-42 0 -75.833 12.833 -101.5 38.5s-38.5 62.167 -38.5 109.5c0 48 12.667 84.5 38 109.5s59.333 37.5 102 37.5c28.667 0 53.834 -6.66699 75.501 -20s43.5 -36.666 65.5 -69.999c22 33.333 43.833 56.666 65.5 69.999s46.834 20 75.501 20zM172.999 241c36 0 70 28 102 84
c-32 56 -66 84 -102 84c-21.333 0 -38.833 -7.16699 -52.5 -21.5s-20.5 -35.166 -20.5 -62.499c0 -26.667 6.83301 -47.334 20.5 -62.001s31.167 -22 52.5 -22zM442.999 241c20.667 0 37.834 7.33301 51.501 22s20.5 35.334 20.5 62.001
c0 27.333 -6.83301 48.166 -20.5 62.499s-30.834 21.5 -51.501 21.5c-36.667 0 -71 -28 -103 -84c32 -56 66.333 -84 103 -84z" />
    <glyph glyph-name="integral" unicode="&#x222b;" horiz-adv-x="403" 
d="M279 731c15.333 0 34 -1.66699 56 -5v-72c-8 2 -20.333 3 -37 3c-18 0 -31.5 -5.5 -40.5 -16.5s-13.5 -29.833 -13.5 -56.5v-546c0 -90.667 -42 -136 -126 -136c-16 0 -34.667 1.66699 -56 5v72c8 -2 20.333 -3 37 -3c18 0 31.5 5.5 40.5 16.5s13.5 29.833 13.5 56.5v546
c0 90.667 42 136 126 136z" />
    <glyph glyph-name="approxequal" unicode="&#x2248;" horiz-adv-x="536" 
d="M180 410c-17.333 0 -30.501 -6.49902 -39.501 -19.499s-13.5 -29.833 -13.5 -50.5h-60c0 39.333 8.5 71.833 25.5 97.5s44.167 38.5 81.5 38.5c25.333 0 49 -7 71 -21s42.333 -28 61 -42s35.667 -21 51 -21c16.667 0 29.5 6.66699 38.5 20s13.5 30 13.5 50h60
c0 -38.667 -8.66699 -70.834 -26 -96.501s-44.333 -38.5 -81 -38.5c-25.333 0 -49 6.83301 -71 20.5s-42.167 27.5 -60.5 41.5s-35.166 21 -50.499 21zM356.999 228.001c16.667 0 29.4971 6.5 38.4971 19.5s13.5 29.833 13.5 50.5h60
c0 -39.333 -8.66699 -71.666 -26 -96.999s-44.333 -38 -81 -38c-25.333 0 -49 6.83301 -71 20.5s-42.167 27.5 -60.5 41.5s-35.166 21 -50.499 21c-17.333 0 -30.5 -6.5 -39.5 -19.5s-13.5 -29.833 -13.5 -50.5h-60c0 39.333 8.5 71.666 25.5 96.999s44.167 38 81.5 38
c20 0 39.167 -4.33301 57.5 -13s33.333 -18.167 45 -28.5s24.834 -19.833 39.501 -28.5s28.334 -13 41.001 -13z" />
    <glyph glyph-name="notequal" unicode="&#x2260;" horiz-adv-x="513" 
d="M450 374h-141l-42 -98h183v-73h-214l-38 -87h-65l37 87h-107v73h139l42 98h-181v73h212l38 87h65l-37 -87h109v-73z" />
    <glyph glyph-name="lessequal" unicode="&#x2264;" horiz-adv-x="495" 
d="M422 571v-88l-280 -106l280 -81v-88l-365 119v94zM57 89v73h365v-73h-365z" />
    <glyph glyph-name="greaterequal" unicode="&#x2265;" horiz-adv-x="495" 
d="M73 571l365 -150v-94l-365 -119v88l280 81l-280 106v88zM73 89v73h365v-73h-365z" />
    <glyph glyph-name="uni2460" unicode="&#x2460;" 
d="M403 -12c-105.333 0 -191.666 33.167 -258.999 99.5s-101 153.833 -101 262.5s33.667 196.167 101 262.5s153.666 99.5 258.999 99.5s191.666 -33.167 258.999 -99.5s101 -153.833 101 -262.5s-33.667 -196.167 -101 -262.5s-153.666 -99.5 -258.999 -99.5zM403 35
c91.333 0 165.833 28.833 223.5 86.5s86.5 133.834 86.5 228.501s-28.833 170.834 -86.5 228.501s-132.167 86.5 -223.5 86.5s-165.833 -28.833 -223.5 -86.5s-86.5 -133.834 -86.5 -228.501s28.833 -170.834 86.5 -228.501s132.167 -86.5 223.5 -86.5zM312 414v68l80 46h56
v-356h-69v281z" />
    <glyph glyph-name="uni2461" unicode="&#x2461;" 
d="M403 -12c-105.333 0 -191.666 33.167 -258.999 99.5s-101 153.833 -101 262.5s33.667 196.167 101 262.5s153.666 99.5 258.999 99.5s191.666 -33.167 258.999 -99.5s101 -153.833 101 -262.5s-33.667 -196.167 -101 -262.5s-153.666 -99.5 -258.999 -99.5zM403 35
c91.333 0 165.833 28.833 223.5 86.5s86.5 133.834 86.5 228.501s-28.833 170.834 -86.5 228.501s-132.167 86.5 -223.5 86.5s-165.833 -28.833 -223.5 -86.5s-86.5 -133.834 -86.5 -228.501s28.833 -170.834 86.5 -228.501s132.167 -86.5 223.5 -86.5zM274 173
l0.00195312 51l114 105c17.333 16 30.333 28.333 39 37s16.5 18.834 23.5 30.501s10.5 23.167 10.5 34.5c0 14.667 -4.5 26.334 -13.5 35.001s-21.167 13 -36.5 13c-36.667 0 -57 -25.333 -61 -76l-67 5c3.33301 42.667 16.666 74.5 39.999 95.5s52.666 31.5 87.999 31.5
c34.667 0 63.167 -9 85.5 -27s33.5 -43.667 33.5 -77c0 -20.667 -5.66699 -40.334 -17 -59.001s-31.333 -40.334 -60 -65.001l-82 -78h169v-56h-266z" />
    <glyph glyph-name="uni2462" unicode="&#x2462;" 
d="M403 -12c-105.333 0 -191.666 33.167 -258.999 99.5s-101 153.833 -101 262.5s33.667 196.167 101 262.5s153.666 99.5 258.999 99.5s191.666 -33.167 258.999 -99.5s101 -153.833 101 -262.5s-33.667 -196.167 -101 -262.5s-153.666 -99.5 -258.999 -99.5zM403 35
c91.333 0 165.833 28.833 223.5 86.5s86.5 133.834 86.5 228.501s-28.833 170.834 -86.5 228.501s-132.167 86.5 -223.5 86.5s-165.833 -28.833 -223.5 -86.5s-86.5 -133.834 -86.5 -228.501s28.833 -170.834 86.5 -228.501s132.167 -86.5 223.5 -86.5zM264 277
l66.998 3.99902c6 -39.333 29.333 -59 70 -59c22.667 0 40.5 5.33301 53.5 16s19.5 25.667 19.5 45c0 18 -6 32.5 -18 43.5s-29.667 16.5 -53 16.5c-13.333 0 -31.666 -2.33301 -54.999 -7v48l95 88h-160v56h249v-50l-104 -89c76 -5.33301 114 -40.666 114 -105.999
c0 -38.667 -13.167 -67.834 -39.5 -87.501s-60.166 -29.5 -101.499 -29.5c-38.667 0 -70.167 9.33301 -94.5 28s-38.5 46.334 -42.5 83.001z" />
    <glyph glyph-name="uni2463" unicode="&#x2463;" 
d="M403 -12c-105.333 0 -191.666 33.167 -258.999 99.5s-101 153.833 -101 262.5s33.667 196.167 101 262.5s153.666 99.5 258.999 99.5s191.666 -33.167 258.999 -99.5s101 -153.833 101 -262.5s-33.667 -196.167 -101 -262.5s-153.666 -99.5 -258.999 -99.5zM403 35
c91.333 0 165.833 28.833 223.5 86.5s86.5 133.834 86.5 228.501s-28.833 170.834 -86.5 228.501s-132.167 86.5 -223.5 86.5s-165.833 -28.833 -223.5 -86.5s-86.5 -133.834 -86.5 -228.501s28.833 -170.834 86.5 -228.501s132.167 -86.5 223.5 -86.5zM237 250v52l150 226
h112v-222h60v-56h-60v-78h-69v78h-193zM304 306h126v187z" />
    <glyph glyph-name="uni2464" unicode="&#x2464;" 
d="M403 -12c-105.333 0 -191.666 33.167 -258.999 99.5s-101 153.833 -101 262.5s33.667 196.167 101 262.5s153.666 99.5 258.999 99.5s191.666 -33.167 258.999 -99.5s101 -153.833 101 -262.5s-33.667 -196.167 -101 -262.5s-153.666 -99.5 -258.999 -99.5zM403 35
c91.333 0 165.833 28.833 223.5 86.5s86.5 133.834 86.5 228.501s-28.833 170.834 -86.5 228.501s-132.167 86.5 -223.5 86.5s-165.833 -28.833 -223.5 -86.5s-86.5 -133.834 -86.5 -228.501s28.833 -170.834 86.5 -228.501s132.167 -86.5 223.5 -86.5zM264 269l66.999 5
c8 -34.667 32.667 -52 74 -52c21.333 0 38.5 6 51.5 18s19.5 29 19.5 51s-6.66699 38.833 -20 50.5s-30.666 17.5 -51.999 17.5c-31.333 0 -54.333 -11.333 -69 -34l-62 6l16 197h235v-56h-183l-9 -99c24 22.667 55.333 34 94 34c36 0 64.833 -10 86.5 -30
s32.5 -48.667 32.5 -86c0 -40 -12.833 -70.833 -38.5 -92.5s-59.5 -32.5 -101.5 -32.5c-37.333 0 -68.833 8.83301 -94.5 26.5s-41.167 43.167 -46.5 76.5z" />
    <glyph glyph-name="uni2465" unicode="&#x2465;" 
d="M403 -12c-105.333 0 -191.666 33.167 -258.999 99.5s-101 153.833 -101 262.5s33.667 196.167 101 262.5s153.666 99.5 258.999 99.5s191.666 -33.167 258.999 -99.5s101 -153.833 101 -262.5s-33.667 -196.167 -101 -262.5s-153.666 -99.5 -258.999 -99.5zM403 35
c91.333 0 165.833 28.833 223.5 86.5s86.5 133.834 86.5 228.501s-28.833 170.834 -86.5 228.501s-132.167 86.5 -223.5 86.5s-165.833 -28.833 -223.5 -86.5s-86.5 -133.834 -86.5 -228.501s28.833 -170.834 86.5 -228.501s132.167 -86.5 223.5 -86.5zM258 345
c0 62.667 13.5 110 40.5 142s63.833 48 110.5 48c36 0 65.333 -9 88 -27s35.667 -43 39 -75l-67 -4c-1.33301 14.667 -7.33301 26.667 -18 36s-24.667 14 -42 14c-52.667 0 -80 -41.667 -82 -125c19.333 30.667 52 46 98 46c36.667 0 66.5 -9.66699 89.5 -29
s34.5 -47.333 34.5 -84c0 -38 -12.667 -67.667 -38 -89s-60 -32 -104 -32c-47.333 0 -84 14.833 -110 44.5s-39 74.5 -39 134.5zM335 287c0 -19.333 6.66699 -35.166 20 -47.499s30.666 -18.5 51.999 -18.5c22 0 39.667 6.16699 53 18.5s20 28.166 20 47.499
c0 20 -6.66699 35.833 -20 47.5s-31 17.5 -53 17.5c-21.333 0 -38.666 -5.83301 -51.999 -17.5s-20 -27.5 -20 -47.5z" />
    <glyph glyph-name="uni2466" unicode="&#x2466;" 
d="M403 -12c-105.333 0 -191.666 33.167 -258.999 99.5s-101 153.833 -101 262.5s33.667 196.167 101 262.5s153.666 99.5 258.999 99.5s191.666 -33.167 258.999 -99.5s101 -153.833 101 -262.5s-33.667 -196.167 -101 -262.5s-153.666 -99.5 -258.999 -99.5zM403 35
c91.333 0 165.833 28.833 223.5 86.5s86.5 133.834 86.5 228.501s-28.833 170.834 -86.5 228.501s-132.167 86.5 -223.5 86.5s-165.833 -28.833 -223.5 -86.5s-86.5 -133.834 -86.5 -228.501s28.833 -170.834 86.5 -228.501s132.167 -86.5 223.5 -86.5zM275 472
l0.000976562 56h263v-47c-68.667 -102 -113.334 -205 -134.001 -309h-74c22 102 68.667 202 140 300h-195z" />
    <glyph glyph-name="uni2467" unicode="&#x2467;" 
d="M403 -12c-105.333 0 -191.666 33.167 -258.999 99.5s-101 153.833 -101 262.5s33.667 196.167 101 262.5s153.666 99.5 258.999 99.5s191.666 -33.167 258.999 -99.5s101 -153.833 101 -262.5s-33.667 -196.167 -101 -262.5s-153.666 -99.5 -258.999 -99.5zM404 35
c91.333 0 165.833 28.833 223.5 86.5s86.5 133.834 86.5 228.501s-28.833 170.834 -86.5 228.501s-132.167 86.5 -223.5 86.5s-165.833 -28.833 -223.5 -86.5s-86.5 -133.834 -86.5 -228.501s28.833 -170.834 86.5 -228.501s132.167 -86.5 223.5 -86.5zM256 267
c0 46.667 28.999 77.334 86.999 92.001c-51.333 12 -77 39.333 -77 82c0 30.667 13 54 39 70s58.667 24 98 24s72 -8 98 -24s39 -39.333 39 -70c0 -42.667 -25.667 -70 -77 -82c58 -14.667 87 -45.334 87 -92.001c0 -32.667 -14.167 -57.667 -42.5 -75
s-63.166 -26 -104.499 -26c-42 0 -77 8.66699 -105 26s-42 42.333 -42 75zM332.999 432c0 -15.333 6.33301 -27.333 19 -36s29.667 -13 51 -13s38.333 4.33301 51 13s19 20.667 19 36s-6.33301 27.333 -19 36s-29.667 13 -51 13s-38.333 -4.33301 -51 -13
s-19 -20.667 -19 -36zM322.999 275c0 -17.333 7.5 -30.833 22.5 -40.5s34.167 -14.5 57.5 -14.5s42.5 4.83301 57.5 14.5s22.5 23.167 22.5 40.5s-7.5 30.666 -22.5 39.999s-34.167 14 -57.5 14s-42.5 -4.66699 -57.5 -14s-22.5 -22.666 -22.5 -39.999z" />
    <glyph glyph-name="uni2468" unicode="&#x2468;" 
d="M403 -12c-105.333 0 -191.666 33.167 -258.999 99.5s-101 153.833 -101 262.5s33.667 196.167 101 262.5s153.666 99.5 258.999 99.5s191.666 -33.167 258.999 -99.5s101 -153.833 101 -262.5s-33.667 -196.167 -101 -262.5s-153.666 -99.5 -258.999 -99.5zM405 35
c91.333 0 165.833 28.833 223.5 86.5s86.5 133.834 86.5 228.501s-28.833 170.834 -86.5 228.501s-132.167 86.5 -223.5 86.5s-165.833 -28.833 -223.5 -86.5s-86.5 -133.834 -86.5 -228.501s28.833 -170.834 86.5 -228.501s132.167 -86.5 223.5 -86.5zM257 414
c0 37.333 12.832 66.835 38.499 88.502s59.5 32.5 101.5 32.5c101.333 0 152 -60 152 -180c0 -62.667 -13.333 -109.834 -40 -141.501s-63.667 -47.5 -111 -47.5c-36.667 0 -66.167 8.83301 -88.5 26.5s-35.166 42.5 -38.499 74.5l66 4c2 -14.667 8.33301 -26.667 19 -36
s24.667 -14 42 -14c52 0 79.333 43 82 129c-19.333 -31.333 -52.333 -47 -99 -47c-36 0 -65.667 9.66699 -89 29s-35 46.666 -35 81.999zM326.999 414.002c0 -18.667 6.66699 -33.834 20 -45.501s30.666 -17.5 51.999 -17.5c22 0 39.667 5.83301 53 17.5
s20 26.834 20 45.501c0 19.333 -6.66699 35 -20 47s-31 18 -53 18c-21.333 0 -38.666 -6 -51.999 -18s-20 -27.667 -20 -47z" />
    <glyph glyph-name="uni24EA" unicode="&#x24ea;" 
d="M403 -12c-105.333 0 -191.666 33.167 -258.999 99.5s-101 153.833 -101 262.5s33.667 196.167 101 262.5s153.666 99.5 258.999 99.5s191.666 -33.167 258.999 -99.5s101 -153.833 101 -262.5s-33.667 -196.167 -101 -262.5s-153.666 -99.5 -258.999 -99.5zM403 35
c91.333 0 165.833 28.833 223.5 86.5s86.5 133.834 86.5 228.501s-28.833 170.834 -86.5 228.501s-132.167 86.5 -223.5 86.5s-165.833 -28.833 -223.5 -86.5s-86.5 -133.834 -86.5 -228.501s28.833 -170.834 86.5 -228.501s132.167 -86.5 223.5 -86.5zM254 350
c0 57.333 13 102.5 39 135.5s62.667 49.5 110 49.5s84 -16.5 110 -49.5s39 -78.167 39 -135.5s-13 -102.333 -39 -135s-62.667 -49 -110 -49s-84 16.333 -110 49s-39 77.667 -39 135zM323 350c0 -41.333 7.16699 -73 21.5 -95s33.833 -33 58.5 -33s44.167 11 58.5 33
s21.5 53.667 21.5 95s-7.16699 73.166 -21.5 95.499s-33.833 33.5 -58.5 33.5s-44.167 -11.167 -58.5 -33.5s-21.5 -54.166 -21.5 -95.499z" />
    <glyph glyph-name="uni24FF" unicode="&#x24ff;" 
d="M403 -12c-105.333 0 -191.666 33.167 -258.999 99.5s-101 153.833 -101 262.5s33.667 196.167 101 262.5s153.666 99.5 258.999 99.5s191.666 -33.167 258.999 -99.5s101 -153.833 101 -262.5s-33.667 -196.167 -101 -262.5s-153.666 -99.5 -258.999 -99.5zM254 350
c0 -57.333 13 -102.333 39 -135s62.667 -49 110 -49s84 16.333 110 49s39 77.667 39 135s-13 102.5 -39 135.5s-62.667 49.5 -110 49.5s-84 -16.5 -110 -49.5s-39 -78.167 -39 -135.5zM323 350c0 41.333 7.16699 73.166 21.5 95.499s33.833 33.5 58.5 33.5
s44.167 -11.167 58.5 -33.5s21.5 -54.166 21.5 -95.499s-7.16699 -73 -21.5 -95s-33.833 -33 -58.5 -33s-44.167 11 -58.5 33s-21.5 53.667 -21.5 95z" />
    <glyph glyph-name="lozenge" unicode="&#x25ca;" horiz-adv-x="502" 
d="M306 700l162 -350l-162 -350h-110l-162 350l162 350h110zM251 61l129 289l-129 289l-128 -289z" />
    <glyph glyph-name="uni2776" unicode="&#x2776;" 
d="M403 -12c-105.333 0 -191.666 33.167 -258.999 99.5s-101 153.833 -101 262.5s33.667 196.167 101 262.5s153.666 99.5 258.999 99.5s191.666 -33.167 258.999 -99.5s101 -153.833 101 -262.5s-33.667 -196.167 -101 -262.5s-153.666 -99.5 -258.999 -99.5zM312 414
l67 39v-281h69v356h-56l-80 -46v-68z" />
    <glyph glyph-name="uni2777" unicode="&#x2777;" 
d="M403 -12c-105.333 0 -191.666 33.167 -258.999 99.5s-101 153.833 -101 262.5s33.667 196.167 101 262.5s153.666 99.5 258.999 99.5s191.666 -33.167 258.999 -99.5s101 -153.833 101 -262.5s-33.667 -196.167 -101 -262.5s-153.666 -99.5 -258.999 -99.5zM274 173
l265.998 -0.00195312v56h-169l82 78c28.667 24.667 48.667 46.334 60 65.001s17 38.334 17 59.001c0 33.333 -11.167 59 -33.5 77s-50.833 27 -85.5 27c-35.333 0 -64.666 -10.5 -87.999 -31.5s-36.666 -52.833 -39.999 -95.5l67 -5c4 50.667 24.333 76 61 76
c15.333 0 27.5 -4.33301 36.5 -13s13.5 -20.334 13.5 -35.001c0 -16 -5.66699 -31.167 -17 -45.5s-30 -33.166 -56 -56.499l-114 -105v-51z" />
    <glyph glyph-name="uni2778" unicode="&#x2778;" 
d="M403 -12c-105.333 0 -191.666 33.167 -258.999 99.5s-101 153.833 -101 262.5s33.667 196.167 101 262.5s153.666 99.5 258.999 99.5s191.666 -33.167 258.999 -99.5s101 -153.833 101 -262.5s-33.667 -196.167 -101 -262.5s-153.666 -99.5 -258.999 -99.5zM264 277
c4 -36.667 18.1689 -64.333 42.502 -83s55.833 -28 94.5 -28c41.333 0 75.166 9.83301 101.499 29.5s39.5 48.834 39.5 87.501c0 65.333 -38 100.666 -114 105.999l104 89v50h-249v-56h160l-95 -88v-48c23.333 4.66699 41.666 7 54.999 7c23.333 0 41 -5.5 53 -16.5
s18 -25.5 18 -43.5c0 -19.333 -6.5 -34.333 -19.5 -45s-30.833 -16 -53.5 -16c-40.667 0 -64 19.667 -70 59z" />
    <glyph glyph-name="uni2779" unicode="&#x2779;" 
d="M403 -12c-105.333 0 -191.666 33.167 -258.999 99.5s-101 153.833 -101 262.5s33.667 196.167 101 262.5s153.666 99.5 258.999 99.5s191.666 -33.167 258.999 -99.5s101 -153.833 101 -262.5s-33.667 -196.167 -101 -262.5s-153.666 -99.5 -258.999 -99.5zM237 250h193
v-78h69v78h60v56h-60v222h-112l-150 -226v-52zM304 306l126 187v-187h-126z" />
    <glyph glyph-name="uni277A" unicode="&#x277a;" 
d="M403 -12c-105.333 0 -191.666 33.167 -258.999 99.5s-101 153.833 -101 262.5s33.667 196.167 101 262.5s153.666 99.5 258.999 99.5s191.666 -33.167 258.999 -99.5s101 -153.833 101 -262.5s-33.667 -196.167 -101 -262.5s-153.666 -99.5 -258.999 -99.5zM264 269
c5.33301 -33.333 20.834 -58.833 46.501 -76.5s57.167 -26.5 94.5 -26.5c42 0 75.833 10.833 101.5 32.5s38.5 52.5 38.5 92.5c0 37.333 -10.833 66 -32.5 86s-50.5 30 -86.5 30c-38.667 0 -70 -11.333 -94 -34l9 99h183v56h-235l-16 -197l62 -6
c14.667 22.667 37.667 34 69 34c21.333 0 38.666 -5.83301 51.999 -17.5s20 -28.5 20 -50.5s-6.5 -39 -19.5 -51s-30.167 -18 -51.5 -18c-41.333 0 -66 17.333 -74 52z" />
    <glyph glyph-name="uni277B" unicode="&#x277b;" 
d="M403 -12c-105.333 0 -191.666 33.167 -258.999 99.5s-101 153.833 -101 262.5s33.667 196.167 101 262.5s153.666 99.5 258.999 99.5s191.666 -33.167 258.999 -99.5s101 -153.833 101 -262.5s-33.667 -196.167 -101 -262.5s-153.666 -99.5 -258.999 -99.5zM258 345
c0 -60 13 -104.833 39 -134.5s62.667 -44.5 110 -44.5c44 0 78.667 10.667 104 32s38 51 38 89c0 36.667 -11.5 64.667 -34.5 84s-52.833 29 -89.5 29c-46 0 -78.667 -15.333 -98 -46c2 83.333 29.333 125 82 125c17.333 0 31.333 -4.66699 42 -14s16.667 -21.333 18 -36
l67 4c-3.33301 32 -16.333 57 -39 75s-52 27 -88 27c-46.667 0 -83.5 -16 -110.5 -48s-40.5 -79.333 -40.5 -142zM335 287c0 20 6.66699 35.833 20 47.5s30.666 17.5 51.999 17.5c22 0 39.667 -5.83301 53 -17.5s20 -27.5 20 -47.5c0 -19.333 -6.66699 -35.166 -20 -47.499
s-31 -18.5 -53 -18.5c-21.333 0 -38.666 6.16699 -51.999 18.5s-20 28.166 -20 47.499z" />
    <glyph glyph-name="uni277C" unicode="&#x277c;" 
d="M403 -12c-105.333 0 -191.666 33.167 -258.999 99.5s-101 153.833 -101 262.5s33.667 196.167 101 262.5s153.666 99.5 258.999 99.5s191.666 -33.167 258.999 -99.5s101 -153.833 101 -262.5s-33.667 -196.167 -101 -262.5s-153.666 -99.5 -258.999 -99.5zM275 472
h194.999c-71.333 -98 -118 -198 -140 -300h74c20.667 104 65.334 207 134.001 309v47h-263v-56z" />
    <glyph glyph-name="uni277D" unicode="&#x277d;" 
d="M403 -12c-105.333 0 -191.666 33.167 -258.999 99.5s-101 153.833 -101 262.5s33.667 196.167 101 262.5s153.666 99.5 258.999 99.5s191.666 -33.167 258.999 -99.5s101 -153.833 101 -262.5s-33.667 -196.167 -101 -262.5s-153.666 -99.5 -258.999 -99.5zM256 267
c0 -32.667 14.001 -57.667 42.001 -75s63 -26 105 -26c41.333 0 76.166 8.66699 104.499 26s42.5 42.333 42.5 75c0 46.667 -29 77.334 -87 92.001c51.333 12 77 39.333 77 82c0 30.667 -13 54 -39 70s-58.667 24 -98 24s-72 -8 -98 -24s-39 -39.333 -39 -70
c0 -42.667 25.667 -70 77 -82c-58 -14.667 -87 -45.334 -87 -92.001zM333.001 432c0 15.333 6.33301 27.333 19 36s29.667 13 51 13s38.333 -4.33301 51 -13s19 -20.667 19 -36s-6.33301 -27.333 -19 -36s-29.667 -13 -51 -13s-38.333 4.33301 -51 13s-19 20.667 -19 36z
M323.001 275c0 16.667 7.5 29.834 22.5 39.501s34.167 14.5 57.5 14.5s42.5 -4.83301 57.5 -14.5s22.5 -22.834 22.5 -39.501c0 -17.333 -7.5 -30.833 -22.5 -40.5s-34.167 -14.5 -57.5 -14.5s-42.5 4.83301 -57.5 14.5s-22.5 23.167 -22.5 40.5z" />
    <glyph glyph-name="uni277E" unicode="&#x277e;" 
d="M403 -12c-105.333 0 -191.666 33.167 -258.999 99.5s-101 153.833 -101 262.5s33.667 196.167 101 262.5s153.666 99.5 258.999 99.5s191.666 -33.167 258.999 -99.5s101 -153.833 101 -262.5s-33.667 -196.167 -101 -262.5s-153.666 -99.5 -258.999 -99.5zM257 414
c0 -35.333 11.668 -62.668 35.001 -82.001s53 -29 89 -29c46.667 0 79.667 15.667 99 47c-2.66699 -86 -30 -129 -82 -129c-17.333 0 -31.333 4.66699 -42 14s-17 21.333 -19 36l-66 -4c3.33301 -32 16.166 -56.833 38.499 -74.5s51.833 -26.5 88.5 -26.5
c47.333 0 84.333 15.833 111 47.5s40 78.834 40 141.501c0 120 -50.667 180 -152 180c-42 0 -75.833 -10.833 -101.5 -32.5s-38.5 -51.167 -38.5 -88.5zM327.001 413.998c0 19.333 6.66699 35 20 47s30.666 18 51.999 18c22 0 39.667 -6 53 -18s20 -27.667 20 -47
c0 -18.667 -6.66699 -33.834 -20 -45.501s-31 -17.5 -53 -17.5c-21.333 0 -38.666 5.83301 -51.999 17.5s-20 26.834 -20 45.501z" />
    <glyph glyph-name=".null" horiz-adv-x="0" 
 />
    <glyph glyph-name="nonmarkingreturn" horiz-adv-x="333" 
 />
    <glyph glyph-name="i.loclTRK" horiz-adv-x="245" 
d="M66 605v119h113v-119h-113zM69 0v524h107v-524h-107z" />
    <glyph glyph-name="zero.osf" horiz-adv-x="618" 
d="M44 283c0 90.667 23.5 162.167 70.5 214.5s111.833 78.5 194.5 78.5s147.5 -26.167 194.5 -78.5s70.5 -123.833 70.5 -214.5c0 -91.333 -23.5 -163 -70.5 -215s-111.833 -78 -194.5 -78s-147.5 26 -194.5 78s-70.5 123.667 -70.5 215zM150 283
c0 -65.333 14.167 -116 42.5 -152s67.166 -54 116.499 -54s88.166 18 116.499 54s42.5 86.667 42.5 152s-14.167 116 -42.5 152s-67.166 54 -116.499 54s-88.166 -18 -116.499 -54s-42.5 -86.667 -42.5 -152z" />
    <glyph glyph-name="one.osf" horiz-adv-x="501" 
d="M327 87h149v-87h-428v87h173v364l-149 -84v104l170 95h85v-479z" />
    <glyph glyph-name="two.osf" horiz-adv-x="535" 
d="M172 87l338.998 0.000976562v-87h-492v79l238 177l50.5 40c9.66699 8 22.334 19.5 38.001 34.5s26.5 29 32.5 42s9 26.167 9 39.5c0 24.667 -10.167 43.667 -30.5 57s-47.833 20 -82.5 20c-82 0 -127.667 -40.667 -137 -122l-102 8c6 67.333 30.667 117.666 74 150.999
s98.333 50 165 50c64.667 0 117.334 -14 158.001 -42s61 -67.667 61 -119c0 -34.667 -11.167 -67 -33.5 -97s-60.833 -64.333 -115.5 -103z" />
    <glyph glyph-name="three.osf" horiz-adv-x="562" 
d="M464 245c42.667 -36 64 -86.999 64 -152.999c0 -72 -24 -127.167 -72 -165.5s-109.667 -57.5 -185 -57.5c-70.667 0 -128.5 17.5 -173.5 52.5s-70.833 86.833 -77.5 155.5l104 8c9.33301 -85.333 58.333 -128 147 -128c45.333 0 81.5 11.667 108.5 35
s40.5 56.666 40.5 99.999c0 39.333 -12.333 70.666 -37 93.999s-61 35 -109 35c-28 0 -62.333 -3.66699 -103 -11v75l199 193h-316v88h455v-79l-214 -193c74 -1.33301 130.333 -17.666 169 -48.999z" />
    <glyph glyph-name="four.osf" horiz-adv-x="610" 
d="M476 105h106v-88h-106v-138h-108v138h-345v81l278 468h175v-461zM129 105h239v404z" />
    <glyph glyph-name="five.osf" horiz-adv-x="571" 
d="M313 337c66 0 119.667 -20.334 161 -61.001s62 -97 62 -169c0 -75.333 -23.5 -133.833 -70.5 -175.5s-108.5 -62.5 -184.5 -62.5c-68 0 -125.5 16.833 -172.5 50.5s-74.833 81.167 -83.5 142.5l104 8c7.33301 -36.667 25 -64.667 53 -84s61 -29 99 -29
c42.667 0 77.834 12.833 105.501 38.5s41.5 62.834 41.5 111.501s-13.833 85.5 -41.5 110.5s-62.834 37.5 -105.501 37.5c-64.667 0 -112.667 -24 -144 -72l-95 8l29 375h426v-88h-345l-16 -211c44.667 46.667 103.667 70 177 70z" />
    <glyph glyph-name="six.osf" horiz-adv-x="608" 
d="M343 456c66.667 0 121.333 -20.665 164 -61.998s64 -98 64 -170c0 -73.333 -23 -131 -69 -173s-107.667 -63 -185 -63c-179.333 0 -269 116.333 -269 349c0 123.333 23.667 216.666 71 279.999s114 95 200 95c65.333 0 118 -17.333 158 -52s63 -82.334 69 -143.001
l-104 -7c-3.33301 34 -15.833 61.667 -37.5 83s-50.167 32 -85.5 32c-61.333 0 -106.333 -34 -135 -102c-18 -44.667 -27.333 -101.667 -28 -171c18 33.333 43.333 59 76 77s69.667 27 111 27zM316.999 75.002c44 0 79.167 13.5 105.5 40.5s39.5 63.167 39.5 108.5
c0 44.667 -13.167 80.5 -39.5 107.5s-61.5 40.5 -105.5 40.5s-79.167 -13.5 -105.5 -40.5s-39.5 -62.833 -39.5 -107.5c0 -45.333 13.167 -81.5 39.5 -108.5s61.5 -40.5 105.5 -40.5z" />
    <glyph glyph-name="seven.osf" horiz-adv-x="546" 
d="M30 566l490 -0.00195312v-74c-136 -201.333 -225.667 -405.666 -269 -612.999h-110c44.667 204.667 136 404.334 274 599.001h-385v88z" />
    <glyph glyph-name="eight.osf" horiz-adv-x="602" 
d="M402 365c50 -12.667 89.5 -34.502 118.5 -65.502s43.5 -69.5 43.5 -115.5c0 -62 -25.167 -110.167 -75.5 -144.5s-112.833 -51.5 -187.5 -51.5c-75.333 0 -138 17.167 -188 51.5s-75 82.5 -75 144.5c0 46.667 14.667 85.334 44 116.001s69.333 52.334 120 65.001
c-46 11.333 -82 31 -108 59s-39 63.333 -39 106c0 58.667 23.5 103.667 70.5 135s105.5 47 175.5 47s128.333 -15.667 175 -47s70 -76.333 70 -135c0 -85.333 -48 -140.333 -144 -165zM160 515.998c0 -35.333 12.833 -62.833 38.5 -82.5s59.834 -29.5 102.501 -29.5
s76.667 9.66699 102 29s38 47 38 83c0 35.333 -12.667 62.666 -38 81.999s-59.333 29 -102 29s-76.834 -9.66699 -102.501 -29s-38.5 -46.666 -38.5 -81.999zM301 72.998c46 0 83.833 10.833 113.5 32.5s44.5 52.167 44.5 91.5c0 38.667 -14.833 68.834 -44.5 90.501
s-67.5 32.5 -113.5 32.5s-83.833 -10.833 -113.5 -32.5s-44.5 -51.834 -44.5 -90.501c0 -39.333 14.833 -69.833 44.5 -91.5s67.5 -32.5 113.5 -32.5z" />
    <glyph glyph-name="nine.osf" horiz-adv-x="608" 
d="M289 576c180.667 0 271 -113.667 271 -341c0 -121.333 -23.333 -212.5 -70 -273.5s-113.334 -91.5 -200.001 -91.5c-66 0 -119 16.833 -159 50.5s-63 80.167 -69 139.5l104 7c3.33301 -32.667 15.833 -59.167 37.5 -79.5s50.5 -30.5 86.5 -30.5
c62.667 0 107.334 33 134.001 99c18 42.667 27 99 27 169c-18 -32.667 -43.333 -57.5 -76 -74.5s-69.667 -25.5 -111 -25.5c-66 0 -120.333 20 -163 60s-64 94.667 -64 164c0 70 23 125.333 69 166s107 61 183 61zM291 209c44 0 79.167 12.833 105.5 38.5
s39.5 59.5 39.5 101.5s-13.167 75.833 -39.5 101.5s-61.5 38.5 -105.5 38.5s-79.333 -12.833 -106 -38.5s-40 -59.5 -40 -101.5s13.333 -75.833 40 -101.5s62 -38.5 106 -38.5z" />
    <glyph glyph-name="zero.subs" horiz-adv-x="455" 
d="M44 99c0 70 15.833 125 47.5 165s76.834 60 135.501 60s104 -20 136 -60s48 -95 48 -165c0 -70.667 -16 -125.834 -48 -165.501s-77.333 -59.5 -136 -59.5s-103.834 19.833 -135.501 59.5s-47.5 94.834 -47.5 165.501zM128 99c0 -50.667 8.83105 -89.5 26.498 -116.5
s41.834 -40.5 72.501 -40.5s54.834 13.5 72.501 40.5s26.5 65.833 26.5 116.5c0 50 -8.66699 88.333 -26 115s-41.666 40 -72.999 40c-30.667 0 -54.834 -13.333 -72.501 -40s-26.5 -65 -26.5 -115z" />
    <glyph glyph-name="one.subs" horiz-adv-x="287" 
d="M132 315h69v-431h-85v334l-81 -64v85z" />
    <glyph glyph-name="two.subs" horiz-adv-x="371" 
d="M130 -50l216.001 0.000976562v-69h-329v63l142 129c23.333 20.667 39.666 35.667 48.999 45s18.666 21.5 27.999 36.5s14 29.5 14 43.5c0 18 -5.83301 32 -17.5 42s-26.834 15 -45.501 15c-46 0 -71.667 -30.667 -77 -92l-82 6c4 52 20.333 90.833 49 116.5
s65.334 38.5 110.001 38.5c42.667 0 77.834 -10.833 105.501 -32.5s41.5 -52.834 41.5 -93.501c0 -25.333 -7 -49.333 -21 -72s-39 -49.667 -75 -81z" />
    <glyph glyph-name="three.subs" horiz-adv-x="388" 
d="M301 124c36.667 -21.333 55.002 -56.333 55.002 -105c0 -46.667 -16.333 -82 -49 -106s-74.334 -36 -125.001 -36c-48 0 -87.167 11.167 -117.5 33.5s-47.833 55.833 -52.5 100.5l82 5c6.66699 -47.333 36 -71 88 -71c27.333 0 49 6.5 65 19.5s24 31.167 24 54.5
c0 21.333 -7.33301 38.5 -22 51.5s-36.667 19.5 -66 19.5c-21.333 0 -44 -2.33301 -68 -7v57l120 107h-200v68h308v-61l-136 -107c37.333 -1.33301 68.666 -9 93.999 -23z" />
    <glyph glyph-name="four.subs" horiz-adv-x="440" 
d="M343 46h73v-68h-73v-94h-85v94h-237v63l184 274h138v-269zM103 46h155v227z" />
    <glyph glyph-name="five.subs" horiz-adv-x="410" 
d="M228 164c44.667 0 80.502 -11.5 107.502 -34.5s40.5 -56.833 40.5 -101.5c0 -48.667 -16 -86 -48 -112s-73.667 -39 -125 -39c-46 0 -85 10.667 -117 32s-51 52 -57 92l82 6c4.66699 -20.667 15.5 -36.167 32.5 -46.5s36.833 -15.5 59.5 -15.5
c26.667 0 48.167 7.33301 64.5 22s24.5 35 24.5 61c0 26.667 -8.33301 47 -25 61s-38.334 21 -65.001 21c-39.333 0 -68 -13.333 -86 -40l-75 6l19 239h290v-68h-227l-10 -121c27.333 25.333 65.666 38 114.999 38z" />
    <glyph glyph-name="six.subs" horiz-adv-x="440" 
d="M253 159c43.333 0 79.166 -11.834 107.499 -35.501s42.5 -57.5 42.5 -101.5c0 -46.667 -15.667 -83 -47 -109s-73.666 -39 -126.999 -39c-123.333 0 -185 72.667 -185 218c0 77.333 16.167 135.333 48.5 174s78.166 58 137.499 58c44.667 0 80.834 -10.667 108.501 -32
s43.5 -51.666 47.5 -90.999l-81 -5c-2.66699 18 -10.5 32.5 -23.5 43.5s-30.167 16.5 -51.5 16.5c-37.333 0 -65 -18 -83 -54c-12 -25.333 -18 -58 -18 -98c26.667 36.667 68 55 124 55zM229 -58.001c27.333 0 49 7.16699 65 21.5s24 33.833 24 58.5s-8 44.167 -24 58.5
s-37.667 21.5 -65 21.5s-49.166 -7.16699 -65.499 -21.5s-24.5 -33.833 -24.5 -58.5s8.16699 -44.167 24.5 -58.5s38.166 -21.5 65.499 -21.5z" />
    <glyph glyph-name="seven.subs" horiz-adv-x="359" 
d="M19 315h326v-57c-87.333 -123.333 -143 -248 -167 -374h-90c26.667 123.333 84.667 244.333 174 363h-243v68z" />
    <glyph glyph-name="eight.subs" horiz-adv-x="434" 
d="M290 109c32.667 -8 58.833 -21.498 78.5 -40.498s29.5 -42.833 29.5 -71.5c0 -39.333 -17.5 -69.666 -52.5 -90.999s-77.833 -32 -128.5 -32s-93.5 10.667 -128.5 32s-52.5 51.666 -52.5 90.999c0 28.667 9.83301 52.5 29.5 71.5s46.167 32.5 79.5 40.5
c-64.667 15.333 -97 49 -97 101c0 37.333 16.167 65.666 48.5 84.999s72.5 29 120.5 29s88.167 -9.83301 120.5 -29.5s48.5 -47.834 48.5 -84.501c0 -51.333 -32 -85 -96 -101zM216.999 261.002c-27.333 0 -48.666 -5.33301 -63.999 -16s-23 -26 -23 -46
s7.66699 -35.333 23 -46s36.666 -16 63.999 -16c26.667 0 47.667 5.33301 63 16s23 26 23 46s-7.66699 35.333 -23 46s-36.333 16 -63 16zM216.999 -62.998c30 0 53.833 6 71.5 18s26.5 29 26.5 51s-8.83301 39 -26.5 51s-41.5 18 -71.5 18
c-30.667 0 -54.834 -6 -72.501 -18s-26.5 -29 -26.5 -51s8.83301 -39 26.5 -51s41.834 -18 72.501 -18z" />
    <glyph glyph-name="nine.subs" horiz-adv-x="440" 
d="M211 324c123.333 0 185.001 -72.666 185.001 -217.999c0 -78 -16 -136.167 -48 -174.5s-78 -57.5 -138 -57.5c-45.333 0 -81.666 10.667 -108.999 32s-43.333 51.666 -48 90.999l82 5c2 -18 9.5 -32.5 22.5 -43.5s30.5 -16.5 52.5 -16.5c40 0 68.333 20 85 60
c10.667 24 16 55.667 16 95c-26 -37.333 -67.333 -56 -124 -56c-42.667 0 -78.334 11.833 -107.001 35.5s-43 57.167 -43 100.5c0 46 15.667 82 47 108s73.666 39 126.999 39zM211.001 98.001c27.333 0 49 7.16699 65 21.5s24 33.5 24 57.5s-8 43.167 -24 57.5
s-37.667 21.5 -65 21.5s-49.166 -7.16699 -65.499 -21.5s-24.5 -33.5 -24.5 -57.5s8.16699 -43.167 24.5 -57.5s38.166 -21.5 65.499 -21.5z" />
    <glyph glyph-name="zero.tf" horiz-adv-x="630" 
d="M62 350c0 113.333 21.833 202 65.5 266s106.167 96 187.5 96s143.833 -32 187.5 -96s65.5 -152.667 65.5 -266s-21.833 -202 -65.5 -266s-106.167 -96 -187.5 -96s-143.833 32 -187.5 96s-65.5 152.667 -65.5 266zM166 350c0 -87.333 13 -155.333 39 -204
s62.667 -73 110 -73s84 24.333 110 73s39 116.667 39 204s-13 155.166 -39 203.499s-62.667 72.5 -110 72.5s-84 -24.167 -110 -72.5s-39 -116.166 -39 -203.499z" />
    <glyph glyph-name="one.tf" horiz-adv-x="630" 
d="M397 88h174v-88h-488v88h206v490l-183 -126v107l204 141h87v-612z" />
    <glyph glyph-name="two.tf" horiz-adv-x="630" 
d="M210 85h336.998v-85h-477v78l219 228c34.667 35.333 59.334 61.333 74.001 78s28.834 37.667 42.501 63s20.5 50 20.5 74c0 34 -10 60.167 -30 78.5s-46.333 27.5 -79 27.5c-78.667 0 -122.334 -55.333 -131.001 -166l-100 7c5.33301 81.333 29 142.333 71 183
s95.333 61 160 61c62.667 0 113.834 -16.5 153.501 -49.5s59.5 -80.167 59.5 -141.5c0 -42 -10.833 -81.333 -32.5 -118s-59.167 -82 -112.5 -136z" />
    <glyph glyph-name="three.tf" horiz-adv-x="630" 
d="M477 380c48.667 -36 73.001 -91 73.001 -165c0 -73.333 -23.667 -129.5 -71 -168.5s-107.666 -58.5 -180.999 -58.5c-68.667 0 -125 17.833 -169 53.5s-69 88.5 -75 158.5l104 8c9.33301 -88 56 -132 140 -132c43.333 0 78.166 12.167 104.499 36.5s39.5 58.5 39.5 102.5
c0 40.667 -11.833 73.167 -35.5 97.5s-58.834 36.5 -105.501 36.5c-28.667 0 -62 -4 -100 -12v75l191 200h-306v88h445v-79l-206 -199c64 0 114.667 -14 152 -42z" />
    <glyph glyph-name="four.tf" horiz-adv-x="630" 
d="M484 245h103v-84h-103v-161h-104v161h-337v77l268 462h173v-455zM146 245h234v402z" />
    <glyph glyph-name="five.tf" horiz-adv-x="630" 
d="M349 465c64.667 0 117.001 -20.8311 157.001 -62.498s60 -98.834 60 -171.501c0 -76.667 -23 -136.334 -69 -179.001s-106 -64 -180 -64c-66 0 -122 17.167 -168 51.5s-73.333 82.833 -82 145.5l105 8c6.66699 -38 23.334 -67 50.001 -87s58.334 -30 95.001 -30
c41.333 0 75.166 13.333 101.499 40s39.5 65 39.5 115s-13.333 87.833 -40 113.5s-60.334 38.5 -101.001 38.5c-62.667 0 -108.667 -24.667 -138 -74l-95 8l28 383h416v-88h-335l-16 -217c43.333 46.667 100.666 70 171.999 70z" />
    <glyph glyph-name="six.tf" horiz-adv-x="630" 
d="M357 456c64.667 0 117.833 -20.665 159.5 -61.998s62.5 -98 62.5 -170c0 -73.333 -22.167 -131 -66.5 -173s-104.166 -63 -179.499 -63c-174 0 -261 116.333 -261 349c0 123.333 22.833 216.666 68.5 279.999s110.5 95 194.5 95c62.667 0 113.5 -17.333 152.5 -52
s61.167 -82.334 66.5 -143.001l-100 -7c-3.33301 35.333 -15.333 63.833 -36 85.5s-48.334 32.5 -83.001 32.5c-56.667 0 -98.667 -30 -126 -90c-21.333 -44.667 -32.333 -106.667 -33 -186c17.333 34 41.833 59.833 73.5 77.5s67.5 26.5 107.5 26.5zM331.999 72.002
c42.667 0 77 13.833 103 41.5s39 64.5 39 110.5s-12.833 82.667 -38.5 110s-60.167 41 -103.5 41c-42.667 0 -76.834 -13.667 -102.501 -41s-38.5 -64 -38.5 -110s12.833 -82.833 38.5 -110.5s59.834 -41.5 102.501 -41.5z" />
    <glyph glyph-name="seven.tf" horiz-adv-x="630" 
d="M74 700l478.001 -0.000976562v-75c-130.667 -205.333 -216.667 -413.666 -258 -624.999h-115c41.333 203.333 130.666 407.333 267.999 612h-373v88z" />
    <glyph glyph-name="eight.tf" horiz-adv-x="630" 
d="M410 365c49.333 -12.667 88.334 -34.5 117.001 -65.5s43 -69.5 43 -115.5c0 -62 -24.333 -110.167 -73 -144.5s-109.334 -51.5 -182.001 -51.5s-133.334 17.167 -182.001 51.5s-73 82.5 -73 144.5c0 46 14.333 84.5 43 115.5s67.334 52.833 116.001 65.5
c-45.333 11.333 -80.333 30.833 -105 58.5s-37 63.167 -37 106.5c0 58.667 22.5 103.667 67.5 135s101.833 47 170.5 47c68 0 124.667 -15.667 170 -47s68 -76.333 68 -135c0 -86 -47.667 -141 -143 -165zM178.001 517c0 -36.667 12.5 -65 37.5 -85s58.167 -30 99.5 -30
s74.5 10 99.5 30s37.5 48.333 37.5 85c0 36 -12.5 63.833 -37.5 83.5s-58.167 29.5 -99.5 29.5s-74.5 -9.83301 -99.5 -29.5s-37.5 -47.5 -37.5 -83.5zM315.001 70c45.333 0 82.333 11 111 33s43 53 43 93s-14.333 71 -43 93s-65.667 33 -111 33s-82.333 -11 -111 -33
s-43 -53 -43 -93s14.333 -71 43 -93s65.667 -33 111 -33z" />
    <glyph glyph-name="nine.tf" horiz-adv-x="630" 
d="M296 712c174.667 0 262.002 -116.332 262.002 -348.999c0 -124 -22.5 -217.5 -67.5 -280.5s-109.5 -94.5 -193.5 -94.5c-64 0 -115.333 17.167 -154 51.5s-61.334 81.833 -68.001 142.5l101 8c3.33301 -35.333 15.5 -63.833 36.5 -85.5s49.167 -32.5 84.5 -32.5
c57.333 0 99.666 31.667 126.999 95c20 47.333 30 109.666 30 186.999c-17.333 -33.333 -42 -59 -74 -77s-68 -27 -108 -27c-64 0 -116.833 20.667 -158.5 62s-62.5 97 -62.5 167c0 72 22.333 128.833 67 170.5s104 62.5 178 62.5zM298.002 331.001
c42.667 0 76.834 13.5 102.501 40.5s38.5 62.833 38.5 107.5s-12.833 80.667 -38.5 108s-59.834 41 -102.501 41s-77 -13.667 -103 -41s-39 -63.333 -39 -108s13 -80.5 39 -107.5s60.333 -40.5 103 -40.5z" />
    <glyph glyph-name="zero.tosf" horiz-adv-x="630" 
d="M61 283c0 91.333 22.5 163 67.5 215s107.167 78 186.5 78s141.5 -26 186.5 -78s67.5 -123.667 67.5 -215s-22.5 -163 -67.5 -215s-107.167 -78 -186.5 -78s-141.5 26 -186.5 78s-67.5 123.667 -67.5 215zM164 283c0 -66 13.333 -117.333 40 -154s63.667 -55 111 -55
s84.333 18.333 111 55s40 88 40 154s-13.333 117.333 -40 154s-63.667 55 -111 55s-84.333 -18.333 -111 -55s-40 -88 -40 -154z" />
    <glyph glyph-name="one.tosf" horiz-adv-x="630" 
d="M398 87h175v-87h-482v87h201v366l-173 -86v104l194 95h85v-479z" />
    <glyph glyph-name="two.tosf" horiz-adv-x="630" 
d="M226 87l317.002 0.000976562v-87h-469v79l223 177c51.333 42.667 84 73 98 91c17.333 22.667 26 44.334 26 65.001c0 24.667 -9.33301 43.667 -28 57s-44 20 -76 20c-74.667 0 -116.334 -40.667 -125.001 -122l-102 8c5.33301 67.333 28.5 117.666 69.5 150.999
s93.5 50 157.5 50c61.333 0 111.666 -14 150.999 -42s59 -67.667 59 -119c0 -34.667 -10.5 -66.834 -31.5 -96.501s-57.5 -64.5 -109.5 -104.5z" />
    <glyph glyph-name="three.tosf" horiz-adv-x="630" 
d="M474 251c48 -36 72 -89.668 72 -161.001s-24 -126 -72 -164s-109.333 -57 -184 -57c-71.333 0 -129.5 17.333 -174.5 52s-70.833 86.334 -77.5 155.001l105 8c9.33301 -84.667 58.333 -127 147 -127c44.667 0 80.5 11.667 107.5 35s40.5 56 40.5 98
c0 39.333 -12.333 70.833 -37 94.5s-61 35.5 -109 35.5c-28.667 0 -62.667 -4 -102 -12v75l197 195h-315v88h455v-79l-210 -194c66.667 -1.33301 119 -15.333 157 -42z" />
    <glyph glyph-name="four.tosf" horiz-adv-x="630" 
d="M483 114h104v-88h-104v-147h-108v147h-339v81l271 459h176v-452zM142 114h233v389z" />
    </font>
</defs>
</svg>
