<svg width="34" height="27" viewBox="0 0 34 27" fill="none" xmlns="http://www.w3.org/2000/svg">
<path d="M7.965 0.00780791C10.1219 0.00780791 11.8936 0.701089 13.2802 2.08765C14.6667 3.42286 15.36 5.19458 15.36 7.40281C15.36 8.42989 15.2316 9.45698 14.9748 10.4841C14.7181 11.5111 14.1789 13.0518 13.3572 15.1059L8.88938 26.1984H1.26328L4.57563 14.0275C3.29177 13.4626 2.29036 12.6153 1.57141 11.4855C0.852448 10.3557 0.492969 8.99479 0.492969 7.40281C0.492969 5.19458 1.18625 3.42286 2.57281 2.08765C4.01073 0.701089 5.80813 0.00780791 7.965 0.00780791ZM26.1444 0.00780791C28.3013 0.00780791 30.073 0.701089 31.4595 2.08765C32.8461 3.42286 33.5394 5.19458 33.5394 7.40281C33.5394 8.42989 33.411 9.45698 33.1542 10.4841C32.8974 11.5111 32.3582 13.0518 31.5366 15.1059L27.0688 26.1984H19.4427L22.755 14.0275C21.4711 13.4626 20.4697 12.6153 19.7508 11.4855C19.0318 10.3557 18.6723 8.99479 18.6723 7.40281C18.6723 5.19458 19.3656 3.42286 20.7522 2.08765C22.1901 0.701089 23.9875 0.00780791 26.1444 0.00780791Z" fill="#131313"/>
</svg>
