<svg width="34" height="27" viewBox="0 0 34 27" fill="none" xmlns="http://www.w3.org/2000/svg">
<path d="M10.9347 12.4423C12.2185 13.0072 13.2199 13.8546 13.9389 14.9844C14.6579 16.1142 15.0173 17.4494 15.0173 18.99C15.0173 21.1982 14.3241 22.9956 12.9375 24.3822C11.5509 25.7174 9.77922 26.385 7.62234 26.385C5.46547 26.385 3.66807 25.6917 2.23016 24.3052C0.843594 22.9186 0.150313 21.1469 0.150313 18.99C0.150313 17.9629 0.278698 16.9358 0.535469 15.9087C0.79224 14.8817 1.35714 13.341 2.23016 11.2869L6.69797 0.194372H14.3241L10.9347 12.4423ZM29.1141 12.4423C30.3979 13.0072 31.3993 13.8546 32.1183 14.9844C32.8372 16.1142 33.1967 17.4494 33.1967 18.99C33.1967 21.1982 32.5034 22.9956 31.1169 24.3822C29.7303 25.7174 27.9586 26.385 25.8017 26.385C23.6448 26.385 21.8474 25.6917 20.4095 24.3052C19.023 22.9186 18.3297 21.1469 18.3297 18.99C18.3297 17.9629 18.4581 16.9358 18.7148 15.9087C18.9716 14.8817 19.5365 13.341 20.4095 11.2869L24.8773 0.194372H32.5034L29.1141 12.4423Z" fill="#131313"/>
</svg>
